<?xml version="1.0" encoding="utf-8" standalone="no"?>
<!DOCTYPE svg PUBLIC "-//W3C//DTD SVG 1.1//EN"
  "http://www.w3.org/Graphics/SVG/1.1/DTD/svg11.dtd">
<svg height="345.6pt" version="1.1" viewBox="0 0 460.8 345.6" width="460.8pt" xmlns="http://www.w3.org/2000/svg" xmlns:xlink="http://www.w3.org/1999/xlink">
 <metadata>
  <rdf:RDF xmlns:cc="http://creativecommons.org/ns#" xmlns:dc="http://purl.org/dc/elements/1.1/" xmlns:rdf="http://www.w3.org/1999/02/22-rdf-syntax-ns#">
   <cc:Work>
    <dc:type rdf:resource="http://purl.org/dc/dcmitype/StillImage"/>
    <dc:date>2023-05-11T13:33:30.768003</dc:date>
    <dc:format>image/svg+xml</dc:format>
    <dc:creator>
     <cc:Agent>
      <dc:title>Matplotlib v3.4.3, https://matplotlib.org/</dc:title>
     </cc:Agent>
    </dc:creator>
   </cc:Work>
  </rdf:RDF>
 </metadata>
 <defs>
  <style type="text/css">*{stroke-linecap:butt;stroke-linejoin:round;}</style>
 </defs>
 <g id="figure_1">
  <g id="patch_1">
   <path d="M 0 345.6 
L 460.8 345.6 
L 460.8 0 
L 0 0 
z
" style="fill:#ffffff;"/>
  </g>
  <g id="axes_1">
   <g id="patch_2">
    <path d="M 57.6 289.40228 
L 414.72 289.40228 
L 414.72 59.65372 
L 57.6 59.65372 
z
" style="fill:#ffffff;"/>
   </g>
   <g id="matplotlib.axis_1">
    <g id="xtick_1">
     <g id="line2d_1">
      <path clip-path="url(#p873f6e1e36)" d="M 377.128421 289.40228 
L 377.128421 59.65372 
" style="fill:none;stroke:#b0b0b0;stroke-linecap:square;stroke-width:0.8;"/>
     </g>
     <g id="line2d_2">
      <defs>
       <path d="M 0 0 
L 0 3.5 
" id="m4beeb65f33" style="stroke:#000000;stroke-width:0.8;"/>
      </defs>
      <g>
       <use style="stroke:#000000;stroke-width:0.8;" x="377.128421" xlink:href="#m4beeb65f33" y="289.40228"/>
      </g>
     </g>
     <g id="text_1">
      <!-- −15.0 -->
      <g transform="translate(361.805765 304.000718)scale(0.1 -0.1)">
       <defs>
        <path d="M 678 2272 
L 4684 2272 
L 4684 1741 
L 678 1741 
L 678 2272 
z
" id="DejaVuSans-2212" transform="scale(0.015625)"/>
        <path d="M 794 531 
L 1825 531 
L 1825 4091 
L 703 3866 
L 703 4441 
L 1819 4666 
L 2450 4666 
L 2450 531 
L 3481 531 
L 3481 0 
L 794 0 
L 794 531 
z
" id="DejaVuSans-31" transform="scale(0.015625)"/>
        <path d="M 691 4666 
L 3169 4666 
L 3169 4134 
L 1269 4134 
L 1269 2991 
Q 1406 3038 1543 3061 
Q 1681 3084 1819 3084 
Q 2600 3084 3056 2656 
Q 3513 2228 3513 1497 
Q 3513 744 3044 326 
Q 2575 -91 1722 -91 
Q 1428 -91 1123 -41 
Q 819 9 494 109 
L 494 744 
Q 775 591 1075 516 
Q 1375 441 1709 441 
Q 2250 441 2565 725 
Q 2881 1009 2881 1497 
Q 2881 1984 2565 2268 
Q 2250 2553 1709 2553 
Q 1456 2553 1204 2497 
Q 953 2441 691 2322 
L 691 4666 
z
" id="DejaVuSans-35" transform="scale(0.015625)"/>
        <path d="M 684 794 
L 1344 794 
L 1344 0 
L 684 0 
L 684 794 
z
" id="DejaVuSans-2e" transform="scale(0.015625)"/>
        <path d="M 2034 4250 
Q 1547 4250 1301 3770 
Q 1056 3291 1056 2328 
Q 1056 1369 1301 889 
Q 1547 409 2034 409 
Q 2525 409 2770 889 
Q 3016 1369 3016 2328 
Q 3016 3291 2770 3770 
Q 2525 4250 2034 4250 
z
M 2034 4750 
Q 2819 4750 3233 4129 
Q 3647 3509 3647 2328 
Q 3647 1150 3233 529 
Q 2819 -91 2034 -91 
Q 1250 -91 836 529 
Q 422 1150 422 2328 
Q 422 3509 836 4129 
Q 1250 4750 2034 4750 
z
" id="DejaVuSans-30" transform="scale(0.015625)"/>
       </defs>
       <use xlink:href="#DejaVuSans-2212"/>
       <use x="83.789062" xlink:href="#DejaVuSans-31"/>
       <use x="147.412109" xlink:href="#DejaVuSans-35"/>
       <use x="211.035156" xlink:href="#DejaVuSans-2e"/>
       <use x="242.822266" xlink:href="#DejaVuSans-30"/>
      </g>
     </g>
    </g>
    <g id="xtick_2">
     <g id="line2d_3">
      <path clip-path="url(#p873f6e1e36)" d="M 330.138947 289.40228 
L 330.138947 59.65372 
" style="fill:none;stroke:#b0b0b0;stroke-linecap:square;stroke-width:0.8;"/>
     </g>
     <g id="line2d_4">
      <g>
       <use style="stroke:#000000;stroke-width:0.8;" x="330.138947" xlink:href="#m4beeb65f33" y="289.40228"/>
      </g>
     </g>
     <g id="text_2">
      <!-- −12.5 -->
      <g transform="translate(314.816291 304.000718)scale(0.1 -0.1)">
       <defs>
        <path d="M 1228 531 
L 3431 531 
L 3431 0 
L 469 0 
L 469 531 
Q 828 903 1448 1529 
Q 2069 2156 2228 2338 
Q 2531 2678 2651 2914 
Q 2772 3150 2772 3378 
Q 2772 3750 2511 3984 
Q 2250 4219 1831 4219 
Q 1534 4219 1204 4116 
Q 875 4013 500 3803 
L 500 4441 
Q 881 4594 1212 4672 
Q 1544 4750 1819 4750 
Q 2544 4750 2975 4387 
Q 3406 4025 3406 3419 
Q 3406 3131 3298 2873 
Q 3191 2616 2906 2266 
Q 2828 2175 2409 1742 
Q 1991 1309 1228 531 
z
" id="DejaVuSans-32" transform="scale(0.015625)"/>
       </defs>
       <use xlink:href="#DejaVuSans-2212"/>
       <use x="83.789062" xlink:href="#DejaVuSans-31"/>
       <use x="147.412109" xlink:href="#DejaVuSans-32"/>
       <use x="211.035156" xlink:href="#DejaVuSans-2e"/>
       <use x="242.822266" xlink:href="#DejaVuSans-35"/>
      </g>
     </g>
    </g>
    <g id="xtick_3">
     <g id="line2d_5">
      <path clip-path="url(#p873f6e1e36)" d="M 283.149474 289.40228 
L 283.149474 59.65372 
" style="fill:none;stroke:#b0b0b0;stroke-linecap:square;stroke-width:0.8;"/>
     </g>
     <g id="line2d_6">
      <g>
       <use style="stroke:#000000;stroke-width:0.8;" x="283.149474" xlink:href="#m4beeb65f33" y="289.40228"/>
      </g>
     </g>
     <g id="text_3">
      <!-- −10.0 -->
      <g transform="translate(267.826817 304.000718)scale(0.1 -0.1)">
       <use xlink:href="#DejaVuSans-2212"/>
       <use x="83.789062" xlink:href="#DejaVuSans-31"/>
       <use x="147.412109" xlink:href="#DejaVuSans-30"/>
       <use x="211.035156" xlink:href="#DejaVuSans-2e"/>
       <use x="242.822266" xlink:href="#DejaVuSans-30"/>
      </g>
     </g>
    </g>
    <g id="xtick_4">
     <g id="line2d_7">
      <path clip-path="url(#p873f6e1e36)" d="M 236.16 289.40228 
L 236.16 59.65372 
" style="fill:none;stroke:#b0b0b0;stroke-linecap:square;stroke-width:0.8;"/>
     </g>
     <g id="line2d_8">
      <g>
       <use style="stroke:#000000;stroke-width:0.8;" x="236.16" xlink:href="#m4beeb65f33" y="289.40228"/>
      </g>
     </g>
     <g id="text_4">
      <!-- −7.5 -->
      <g transform="translate(224.018594 304.000718)scale(0.1 -0.1)">
       <defs>
        <path d="M 525 4666 
L 3525 4666 
L 3525 4397 
L 1831 0 
L 1172 0 
L 2766 4134 
L 525 4134 
L 525 4666 
z
" id="DejaVuSans-37" transform="scale(0.015625)"/>
       </defs>
       <use xlink:href="#DejaVuSans-2212"/>
       <use x="83.789062" xlink:href="#DejaVuSans-37"/>
       <use x="147.412109" xlink:href="#DejaVuSans-2e"/>
       <use x="179.199219" xlink:href="#DejaVuSans-35"/>
      </g>
     </g>
    </g>
    <g id="xtick_5">
     <g id="line2d_9">
      <path clip-path="url(#p873f6e1e36)" d="M 189.170526 289.40228 
L 189.170526 59.65372 
" style="fill:none;stroke:#b0b0b0;stroke-linecap:square;stroke-width:0.8;"/>
     </g>
     <g id="line2d_10">
      <g>
       <use style="stroke:#000000;stroke-width:0.8;" x="189.170526" xlink:href="#m4beeb65f33" y="289.40228"/>
      </g>
     </g>
     <g id="text_5">
      <!-- −5.0 -->
      <g transform="translate(177.02912 304.000718)scale(0.1 -0.1)">
       <use xlink:href="#DejaVuSans-2212"/>
       <use x="83.789062" xlink:href="#DejaVuSans-35"/>
       <use x="147.412109" xlink:href="#DejaVuSans-2e"/>
       <use x="179.199219" xlink:href="#DejaVuSans-30"/>
      </g>
     </g>
    </g>
    <g id="xtick_6">
     <g id="line2d_11">
      <path clip-path="url(#p873f6e1e36)" d="M 142.181053 289.40228 
L 142.181053 59.65372 
" style="fill:none;stroke:#b0b0b0;stroke-linecap:square;stroke-width:0.8;"/>
     </g>
     <g id="line2d_12">
      <g>
       <use style="stroke:#000000;stroke-width:0.8;" x="142.181053" xlink:href="#m4beeb65f33" y="289.40228"/>
      </g>
     </g>
     <g id="text_6">
      <!-- −2.5 -->
      <g transform="translate(130.039646 304.000718)scale(0.1 -0.1)">
       <use xlink:href="#DejaVuSans-2212"/>
       <use x="83.789062" xlink:href="#DejaVuSans-32"/>
       <use x="147.412109" xlink:href="#DejaVuSans-2e"/>
       <use x="179.199219" xlink:href="#DejaVuSans-35"/>
      </g>
     </g>
    </g>
    <g id="xtick_7">
     <g id="line2d_13">
      <path clip-path="url(#p873f6e1e36)" d="M 95.191579 289.40228 
L 95.191579 59.65372 
" style="fill:none;stroke:#b0b0b0;stroke-linecap:square;stroke-width:0.8;"/>
     </g>
     <g id="line2d_14">
      <g>
       <use style="stroke:#000000;stroke-width:0.8;" x="95.191579" xlink:href="#m4beeb65f33" y="289.40228"/>
      </g>
     </g>
     <g id="text_7">
      <!-- 0.0 -->
      <g transform="translate(87.240016 304.000718)scale(0.1 -0.1)">
       <use xlink:href="#DejaVuSans-30"/>
       <use x="63.623047" xlink:href="#DejaVuSans-2e"/>
       <use x="95.410156" xlink:href="#DejaVuSans-30"/>
      </g>
     </g>
    </g>
    <g id="text_8">
     <!-- y [m] -->
     <g transform="translate(222.839687 317.678843)scale(0.1 -0.1)">
      <defs>
       <path d="M 2059 -325 
Q 1816 -950 1584 -1140 
Q 1353 -1331 966 -1331 
L 506 -1331 
L 506 -850 
L 844 -850 
Q 1081 -850 1212 -737 
Q 1344 -625 1503 -206 
L 1606 56 
L 191 3500 
L 800 3500 
L 1894 763 
L 2988 3500 
L 3597 3500 
L 2059 -325 
z
" id="DejaVuSans-79" transform="scale(0.015625)"/>
       <path id="DejaVuSans-20" transform="scale(0.015625)"/>
       <path d="M 550 4863 
L 1875 4863 
L 1875 4416 
L 1125 4416 
L 1125 -397 
L 1875 -397 
L 1875 -844 
L 550 -844 
L 550 4863 
z
" id="DejaVuSans-5b" transform="scale(0.015625)"/>
       <path d="M 3328 2828 
Q 3544 3216 3844 3400 
Q 4144 3584 4550 3584 
Q 5097 3584 5394 3201 
Q 5691 2819 5691 2113 
L 5691 0 
L 5113 0 
L 5113 2094 
Q 5113 2597 4934 2840 
Q 4756 3084 4391 3084 
Q 3944 3084 3684 2787 
Q 3425 2491 3425 1978 
L 3425 0 
L 2847 0 
L 2847 2094 
Q 2847 2600 2669 2842 
Q 2491 3084 2119 3084 
Q 1678 3084 1418 2786 
Q 1159 2488 1159 1978 
L 1159 0 
L 581 0 
L 581 3500 
L 1159 3500 
L 1159 2956 
Q 1356 3278 1631 3431 
Q 1906 3584 2284 3584 
Q 2666 3584 2933 3390 
Q 3200 3197 3328 2828 
z
" id="DejaVuSans-6d" transform="scale(0.015625)"/>
       <path d="M 1947 4863 
L 1947 -844 
L 622 -844 
L 622 -397 
L 1369 -397 
L 1369 4416 
L 622 4416 
L 622 4863 
L 1947 4863 
z
" id="DejaVuSans-5d" transform="scale(0.015625)"/>
      </defs>
      <use xlink:href="#DejaVuSans-79"/>
      <use x="59.179688" xlink:href="#DejaVuSans-20"/>
      <use x="90.966797" xlink:href="#DejaVuSans-5b"/>
      <use x="129.980469" xlink:href="#DejaVuSans-6d"/>
      <use x="227.392578" xlink:href="#DejaVuSans-5d"/>
     </g>
    </g>
   </g>
   <g id="matplotlib.axis_2">
    <g id="ytick_1">
     <g id="line2d_15">
      <path clip-path="url(#p873f6e1e36)" d="M 57.6 270.606491 
L 414.72 270.606491 
" style="fill:none;stroke:#b0b0b0;stroke-linecap:square;stroke-width:0.8;"/>
     </g>
     <g id="line2d_16">
      <defs>
       <path d="M 0 0 
L -3.5 0 
" id="mab20cfb9dd" style="stroke:#000000;stroke-width:0.8;"/>
      </defs>
      <g>
       <use style="stroke:#000000;stroke-width:0.8;" x="57.6" xlink:href="#mab20cfb9dd" y="270.606491"/>
      </g>
     </g>
     <g id="text_9">
      <!-- 6 -->
      <g transform="translate(44.2375 274.405709)scale(0.1 -0.1)">
       <defs>
        <path d="M 2113 2584 
Q 1688 2584 1439 2293 
Q 1191 2003 1191 1497 
Q 1191 994 1439 701 
Q 1688 409 2113 409 
Q 2538 409 2786 701 
Q 3034 994 3034 1497 
Q 3034 2003 2786 2293 
Q 2538 2584 2113 2584 
z
M 3366 4563 
L 3366 3988 
Q 3128 4100 2886 4159 
Q 2644 4219 2406 4219 
Q 1781 4219 1451 3797 
Q 1122 3375 1075 2522 
Q 1259 2794 1537 2939 
Q 1816 3084 2150 3084 
Q 2853 3084 3261 2657 
Q 3669 2231 3669 1497 
Q 3669 778 3244 343 
Q 2819 -91 2113 -91 
Q 1303 -91 875 529 
Q 447 1150 447 2328 
Q 447 3434 972 4092 
Q 1497 4750 2381 4750 
Q 2619 4750 2861 4703 
Q 3103 4656 3366 4563 
z
" id="DejaVuSans-36" transform="scale(0.015625)"/>
       </defs>
       <use xlink:href="#DejaVuSans-36"/>
      </g>
     </g>
    </g>
    <g id="ytick_2">
     <g id="line2d_17">
      <path clip-path="url(#p873f6e1e36)" d="M 57.6 233.014912 
L 414.72 233.014912 
" style="fill:none;stroke:#b0b0b0;stroke-linecap:square;stroke-width:0.8;"/>
     </g>
     <g id="line2d_18">
      <g>
       <use style="stroke:#000000;stroke-width:0.8;" x="57.6" xlink:href="#mab20cfb9dd" y="233.014912"/>
      </g>
     </g>
     <g id="text_10">
      <!-- 8 -->
      <g transform="translate(44.2375 236.814131)scale(0.1 -0.1)">
       <defs>
        <path d="M 2034 2216 
Q 1584 2216 1326 1975 
Q 1069 1734 1069 1313 
Q 1069 891 1326 650 
Q 1584 409 2034 409 
Q 2484 409 2743 651 
Q 3003 894 3003 1313 
Q 3003 1734 2745 1975 
Q 2488 2216 2034 2216 
z
M 1403 2484 
Q 997 2584 770 2862 
Q 544 3141 544 3541 
Q 544 4100 942 4425 
Q 1341 4750 2034 4750 
Q 2731 4750 3128 4425 
Q 3525 4100 3525 3541 
Q 3525 3141 3298 2862 
Q 3072 2584 2669 2484 
Q 3125 2378 3379 2068 
Q 3634 1759 3634 1313 
Q 3634 634 3220 271 
Q 2806 -91 2034 -91 
Q 1263 -91 848 271 
Q 434 634 434 1313 
Q 434 1759 690 2068 
Q 947 2378 1403 2484 
z
M 1172 3481 
Q 1172 3119 1398 2916 
Q 1625 2713 2034 2713 
Q 2441 2713 2670 2916 
Q 2900 3119 2900 3481 
Q 2900 3844 2670 4047 
Q 2441 4250 2034 4250 
Q 1625 4250 1398 4047 
Q 1172 3844 1172 3481 
z
" id="DejaVuSans-38" transform="scale(0.015625)"/>
       </defs>
       <use xlink:href="#DejaVuSans-38"/>
      </g>
     </g>
    </g>
    <g id="ytick_3">
     <g id="line2d_19">
      <path clip-path="url(#p873f6e1e36)" d="M 57.6 195.423333 
L 414.72 195.423333 
" style="fill:none;stroke:#b0b0b0;stroke-linecap:square;stroke-width:0.8;"/>
     </g>
     <g id="line2d_20">
      <g>
       <use style="stroke:#000000;stroke-width:0.8;" x="57.6" xlink:href="#mab20cfb9dd" y="195.423333"/>
      </g>
     </g>
     <g id="text_11">
      <!-- 10 -->
      <g transform="translate(37.875 199.222552)scale(0.1 -0.1)">
       <use xlink:href="#DejaVuSans-31"/>
       <use x="63.623047" xlink:href="#DejaVuSans-30"/>
      </g>
     </g>
    </g>
    <g id="ytick_4">
     <g id="line2d_21">
      <path clip-path="url(#p873f6e1e36)" d="M 57.6 157.831754 
L 414.72 157.831754 
" style="fill:none;stroke:#b0b0b0;stroke-linecap:square;stroke-width:0.8;"/>
     </g>
     <g id="line2d_22">
      <g>
       <use style="stroke:#000000;stroke-width:0.8;" x="57.6" xlink:href="#mab20cfb9dd" y="157.831754"/>
      </g>
     </g>
     <g id="text_12">
      <!-- 12 -->
      <g transform="translate(37.875 161.630973)scale(0.1 -0.1)">
       <use xlink:href="#DejaVuSans-31"/>
       <use x="63.623047" xlink:href="#DejaVuSans-32"/>
      </g>
     </g>
    </g>
    <g id="ytick_5">
     <g id="line2d_23">
      <path clip-path="url(#p873f6e1e36)" d="M 57.6 120.240175 
L 414.72 120.240175 
" style="fill:none;stroke:#b0b0b0;stroke-linecap:square;stroke-width:0.8;"/>
     </g>
     <g id="line2d_24">
      <g>
       <use style="stroke:#000000;stroke-width:0.8;" x="57.6" xlink:href="#mab20cfb9dd" y="120.240175"/>
      </g>
     </g>
     <g id="text_13">
      <!-- 14 -->
      <g transform="translate(37.875 124.039394)scale(0.1 -0.1)">
       <defs>
        <path d="M 2419 4116 
L 825 1625 
L 2419 1625 
L 2419 4116 
z
M 2253 4666 
L 3047 4666 
L 3047 1625 
L 3713 1625 
L 3713 1100 
L 3047 1100 
L 3047 0 
L 2419 0 
L 2419 1100 
L 313 1100 
L 313 1709 
L 2253 4666 
z
" id="DejaVuSans-34" transform="scale(0.015625)"/>
       </defs>
       <use xlink:href="#DejaVuSans-31"/>
       <use x="63.623047" xlink:href="#DejaVuSans-34"/>
      </g>
     </g>
    </g>
    <g id="ytick_6">
     <g id="line2d_25">
      <path clip-path="url(#p873f6e1e36)" d="M 57.6 82.648596 
L 414.72 82.648596 
" style="fill:none;stroke:#b0b0b0;stroke-linecap:square;stroke-width:0.8;"/>
     </g>
     <g id="line2d_26">
      <g>
       <use style="stroke:#000000;stroke-width:0.8;" x="57.6" xlink:href="#mab20cfb9dd" y="82.648596"/>
      </g>
     </g>
     <g id="text_14">
      <!-- 16 -->
      <g transform="translate(37.875 86.447815)scale(0.1 -0.1)">
       <use xlink:href="#DejaVuSans-31"/>
       <use x="63.623047" xlink:href="#DejaVuSans-36"/>
      </g>
     </g>
    </g>
    <g id="text_15">
     <!-- x [m] -->
     <g transform="translate(31.795313 187.848312)rotate(-90)scale(0.1 -0.1)">
      <defs>
       <path d="M 3513 3500 
L 2247 1797 
L 3578 0 
L 2900 0 
L 1881 1375 
L 863 0 
L 184 0 
L 1544 1831 
L 300 3500 
L 978 3500 
L 1906 2253 
L 2834 3500 
L 3513 3500 
z
" id="DejaVuSans-78" transform="scale(0.015625)"/>
      </defs>
      <use xlink:href="#DejaVuSans-78"/>
      <use x="59.179688" xlink:href="#DejaVuSans-20"/>
      <use x="90.966797" xlink:href="#DejaVuSans-5b"/>
      <use x="129.980469" xlink:href="#DejaVuSans-6d"/>
      <use x="227.392578" xlink:href="#DejaVuSans-5d"/>
     </g>
    </g>
   </g>
   <g id="line2d_27">
    <path clip-path="url(#p873f6e1e36)" d="M 95.191579 346.6 
L 95.081336 286.804986 
L 94.602967 266.435321 
L 94.682149 258.05256 
L 94.973017 250.390124 
L 95.464884 243.189766 
L 96.165309 236.184528 
L 97.067045 229.385374 
L 98.175508 222.7122 
L 99.48686 216.172944 
L 100.99572 209.77487 
L 102.695772 203.524981 
L 104.608722 197.342811 
L 106.704855 191.322561 
L 108.97627 185.469562 
L 111.451956 179.705785 
L 114.091638 174.121244 
L 116.929212 168.640177 
L 119.917543 163.349248 
L 123.095366 158.17533 
L 126.408991 153.201084 
L 129.90193 148.356313 
L 133.571144 143.648897 
L 137.353615 139.154648 
L 141.299789 134.808563 
L 145.405367 130.617898 
L 149.665607 126.589766 
L 154.006393 122.789163 
L 158.486779 119.159325 
L 163.101054 115.706515 
L 167.843143 112.436779 
L 172.706617 109.355931 
L 177.606078 106.51311 
L 182.60984 103.863762 
L 187.710847 101.412669 
L 192.901771 99.164332 
L 198.175017 97.122953 
L 203.522747 95.292424 
L 208.936892 93.676314 
L 214.409166 92.277852 
L 219.843096 91.116885 
L 225.316855 90.171918 
L 230.822037 89.445014 
L 236.350096 88.937886 
L 241.89237 88.651884 
L 247.440093 88.58799 
L 252.984416 88.746814 
L 258.516424 89.128585 
L 264.027153 89.733152 
L 269.507609 90.559976 
L 274.948786 91.608131 
L 280.341685 92.8763 
L 285.677334 94.362775 
L 290.862381 96.036295 
L 295.974918 97.916743 
L 301.006572 100.001391 
L 305.949064 102.287151 
L 310.794222 104.77058 
L 315.533997 107.447881 
L 320.160485 110.314909 
L 324.665934 113.36718 
L 329.042769 116.599873 
L 333.283599 120.007838 
L 337.381237 123.585608 
L 341.328715 127.3274 
L 345.119294 131.227132 
L 348.746483 135.278429 
L 352.204046 139.474633 
L 355.486022 143.808814 
L 358.586732 148.273786 
L 361.500793 152.862113 
L 364.223128 157.566125 
L 366.748978 162.377932 
L 369.07391 167.289436 
L 371.193828 172.292345 
L 373.104984 177.378188 
L 374.803979 182.538333 
L 376.287778 187.763995 
L 377.553712 193.046259 
L 378.599485 198.376092 
L 379.423183 203.74436 
L 380.02327 209.141844 
L 380.398603 214.559258 
L 380.548424 219.987265 
L 380.472372 225.41649 
L 380.177246 230.748791 
L 379.759832 234.823161 
L 379.10569 239.027811 
L 378.136429 243.775957 
L 376.752904 249.396028 
L 374.986066 255.635223 
L 372.837823 262.395423 
L 370.375841 269.405395 
L 367.526351 276.834844 
L 364.211613 284.847578 
L 362.323407 289.191325 
L 362.323407 289.191325 
" style="fill:none;stroke:#0000ff;stroke-linecap:square;stroke-width:1.5;"/>
   </g>
   <g id="line2d_28">
    <path clip-path="url(#p873f6e1e36)" d="M 95.191579 346.6 
L 95.081403 286.644187 
L 94.600204 266.072118 
L 94.682393 257.681728 
L 94.975829 250.011522 
L 95.47706 242.713043 
L 96.181678 235.701932 
L 97.087693 228.896438 
L 98.200013 222.216455 
L 99.513794 215.670854 
L 101.023013 209.266661 
L 102.746263 202.922411 
L 104.656744 196.733521 
L 106.778218 190.620039 
L 109.077389 184.674916 
L 111.546005 178.902905 
L 114.215484 173.226778 
L 117.042277 167.734996 
L 120.062596 162.352846 
L 123.226246 157.165173 
L 126.574222 152.1 
L 130.10399 147.165304 
L 133.755853 142.439553 
L 137.577771 137.85564 
L 141.565883 133.421002 
L 145.651813 129.206575 
L 149.890216 125.150897 
L 154.276149 121.260674 
L 158.804271 117.542441 
L 163.468864 114.002535 
L 168.189115 110.697279 
L 173.02962 107.576474 
L 177.98391 104.645512 
L 183.045208 101.909535 
L 188.206443 99.37342 
L 193.460263 97.041761 
L 198.799053 94.918856 
L 204.12977 93.036884 
L 209.527472 91.364558 
L 214.984229 89.905062 
L 220.491918 88.661255 
L 226.042243 87.63566 
L 231.626749 86.830454 
L 237.23684 86.24746 
L 242.863794 85.888142 
L 248.498784 85.753591 
L 254.132891 85.844525 
L 259.667975 86.154491 
L 265.184878 86.683125 
L 270.674946 87.430022 
L 276.129509 88.394405 
L 281.539901 89.575132 
L 286.897469 90.97069 
L 292.1936 92.579194 
L 297.419731 94.398392 
L 302.567369 96.425664 
L 307.628109 98.658023 
L 312.593651 101.092122 
L 317.455815 103.724255 
L 322.206557 106.55036 
L 326.83799 109.566032 
L 331.342396 112.766521 
L 335.712242 116.146743 
L 339.940198 119.701289 
L 344.019152 123.424432 
L 347.94222 127.310136 
L 351.702766 131.352065 
L 355.294414 135.543599 
L 358.711059 139.877838 
L 361.896155 144.27449 
L 364.900955 148.795288 
L 367.720487 153.432949 
L 370.35008 158.179978 
L 372.785373 163.028681 
L 375.022321 167.971182 
L 377.057207 172.99943 
L 378.886647 178.105223 
L 380.507601 183.280211 
L 381.917373 188.515923 
L 383.113621 193.803773 
L 384.094361 199.135079 
L 384.857971 204.50108 
L 385.403196 209.892949 
L 385.729146 215.301813 
L 385.835304 220.718764 
L 385.721522 226.134878 
L 385.385578 231.541531 
L 384.911248 235.685595 
L 384.187671 240.036183 
L 383.130449 245.008844 
L 381.654633 250.854487 
L 379.766469 257.407258 
L 377.496346 264.476942 
L 374.888268 271.87413 
L 371.865013 279.769444 
L 368.281956 288.490403 
L 367.940271 289.294765 
L 367.940271 289.294765 
" style="fill:none;stroke:#ffa500;stroke-linecap:square;stroke-width:1.5;"/>
   </g>
   <g id="line2d_29">
    <path clip-path="url(#p873f6e1e36)" d="M 95.191579 346.6 
L 95.081244 285.925252 
L 94.591132 264.794407 
L 94.679614 256.417976 
L 94.979275 248.769827 
L 95.489294 241.404359 
L 96.208861 234.238522 
L 97.128393 227.282025 
L 98.267932 220.361832 
L 99.611294 213.577639 
L 101.152059 206.93615 
L 102.90844 200.355066 
L 104.853864 193.930351 
L 106.980924 187.667184 
L 109.315743 181.485069 
L 111.822065 175.476236 
L 114.530958 169.562354 
L 117.399622 163.83277 
L 120.463919 158.211574 
L 123.674546 152.784705 
L 127.072088 147.478936 
L 130.601018 142.376206 
L 134.306572 137.406253 
L 138.185623 132.576553 
L 142.173846 127.962263 
L 146.32321 123.498323 
L 150.629488 119.191631 
L 155.088066 115.048963 
L 159.624145 111.134959 
L 164.298038 107.392768 
L 169.104279 103.828434 
L 174.037066 100.447831 
L 179.090277 97.256641 
L 184.178361 94.304266 
L 189.370553 91.545956 
L 194.660123 88.986522 
L 200.040069 86.630539 
L 205.503118 84.482334 
L 211.041742 82.54597 
L 216.561442 80.850051 
L 222.139228 79.366506 
L 227.767246 78.098376 
L 233.437441 77.048399 
L 239.141574 76.218997 
L 244.871232 75.61226 
L 250.617844 75.22994 
L 256.282761 75.074135 
L 261.947236 75.138129 
L 267.602735 75.422558 
L 273.240642 75.9277 
L 278.852268 76.653462 
L 284.428876 77.599379 
L 289.961694 78.764604 
L 295.44194 80.147907 
L 300.860834 81.747667 
L 306.209624 83.56187 
L 311.396614 85.554306 
L 316.499042 87.749437 
L 321.508755 90.144226 
L 326.417699 92.735271 
L 331.217945 95.518807 
L 335.9017 98.490706 
L 340.46133 101.646489 
L 344.889382 104.981328 
L 349.178595 108.490053 
L 353.321926 112.167166 
L 357.312561 116.006846 
L 361.143937 120.002965 
L 364.809757 124.149094 
L 368.304003 128.438523 
L 371.620954 132.864271 
L 374.755199 137.419101 
L 377.70165 142.09554 
L 380.455553 146.885892 
L 383.012499 151.782254 
L 385.368437 156.776539 
L 387.519675 161.860492 
L 389.462898 167.025707 
L 391.195163 172.263649 
L 392.713912 177.565672 
L 394.016973 182.923037 
L 395.102562 188.326936 
L 395.969286 193.768508 
L 396.616138 199.238857 
L 397.042505 204.729074 
L 397.248156 210.230256 
L 397.233244 215.73352 
L 396.998302 221.230024 
L 396.59164 225.915679 
L 395.984433 230.200567 
L 395.067458 235.02716 
L 393.768007 240.642569 
L 392.032608 247.134069 
L 389.901313 254.2358 
L 387.362773 261.919405 
L 384.3977 270.176472 
L 380.803679 279.510475 
L 376.836023 289.28059 
L 376.836023 289.28059 
" style="fill:none;stroke:#ff0000;stroke-linecap:square;stroke-width:1.5;"/>
   </g>
   <g id="patch_3">
    <path d="M 57.6 289.40228 
L 57.6 59.65372 
" style="fill:none;stroke:#000000;stroke-linecap:square;stroke-linejoin:miter;stroke-width:0.8;"/>
   </g>
   <g id="patch_4">
    <path d="M 414.72 289.40228 
L 414.72 59.65372 
" style="fill:none;stroke:#000000;stroke-linecap:square;stroke-linejoin:miter;stroke-width:0.8;"/>
   </g>
   <g id="patch_5">
    <path d="M 57.6 289.40228 
L 414.72 289.40228 
" style="fill:none;stroke:#000000;stroke-linecap:square;stroke-linejoin:miter;stroke-width:0.8;"/>
   </g>
   <g id="patch_6">
    <path d="M 57.6 59.65372 
L 414.72 59.65372 
" style="fill:none;stroke:#000000;stroke-linecap:square;stroke-linejoin:miter;stroke-width:0.8;"/>
   </g>
   <g id="text_16">
    <!-- Trajectoire en fonction de la masse du chargement -->
    <g transform="translate(83.3925 53.65372)scale(0.12 -0.12)">
     <defs>
      <path d="M -19 4666 
L 3928 4666 
L 3928 4134 
L 2272 4134 
L 2272 0 
L 1638 0 
L 1638 4134 
L -19 4134 
L -19 4666 
z
" id="DejaVuSans-54" transform="scale(0.015625)"/>
      <path d="M 2631 2963 
Q 2534 3019 2420 3045 
Q 2306 3072 2169 3072 
Q 1681 3072 1420 2755 
Q 1159 2438 1159 1844 
L 1159 0 
L 581 0 
L 581 3500 
L 1159 3500 
L 1159 2956 
Q 1341 3275 1631 3429 
Q 1922 3584 2338 3584 
Q 2397 3584 2469 3576 
Q 2541 3569 2628 3553 
L 2631 2963 
z
" id="DejaVuSans-72" transform="scale(0.015625)"/>
      <path d="M 2194 1759 
Q 1497 1759 1228 1600 
Q 959 1441 959 1056 
Q 959 750 1161 570 
Q 1363 391 1709 391 
Q 2188 391 2477 730 
Q 2766 1069 2766 1631 
L 2766 1759 
L 2194 1759 
z
M 3341 1997 
L 3341 0 
L 2766 0 
L 2766 531 
Q 2569 213 2275 61 
Q 1981 -91 1556 -91 
Q 1019 -91 701 211 
Q 384 513 384 1019 
Q 384 1609 779 1909 
Q 1175 2209 1959 2209 
L 2766 2209 
L 2766 2266 
Q 2766 2663 2505 2880 
Q 2244 3097 1772 3097 
Q 1472 3097 1187 3025 
Q 903 2953 641 2809 
L 641 3341 
Q 956 3463 1253 3523 
Q 1550 3584 1831 3584 
Q 2591 3584 2966 3190 
Q 3341 2797 3341 1997 
z
" id="DejaVuSans-61" transform="scale(0.015625)"/>
      <path d="M 603 3500 
L 1178 3500 
L 1178 -63 
Q 1178 -731 923 -1031 
Q 669 -1331 103 -1331 
L -116 -1331 
L -116 -844 
L 38 -844 
Q 366 -844 484 -692 
Q 603 -541 603 -63 
L 603 3500 
z
M 603 4863 
L 1178 4863 
L 1178 4134 
L 603 4134 
L 603 4863 
z
" id="DejaVuSans-6a" transform="scale(0.015625)"/>
      <path d="M 3597 1894 
L 3597 1613 
L 953 1613 
Q 991 1019 1311 708 
Q 1631 397 2203 397 
Q 2534 397 2845 478 
Q 3156 559 3463 722 
L 3463 178 
Q 3153 47 2828 -22 
Q 2503 -91 2169 -91 
Q 1331 -91 842 396 
Q 353 884 353 1716 
Q 353 2575 817 3079 
Q 1281 3584 2069 3584 
Q 2775 3584 3186 3129 
Q 3597 2675 3597 1894 
z
M 3022 2063 
Q 3016 2534 2758 2815 
Q 2500 3097 2075 3097 
Q 1594 3097 1305 2825 
Q 1016 2553 972 2059 
L 3022 2063 
z
" id="DejaVuSans-65" transform="scale(0.015625)"/>
      <path d="M 3122 3366 
L 3122 2828 
Q 2878 2963 2633 3030 
Q 2388 3097 2138 3097 
Q 1578 3097 1268 2742 
Q 959 2388 959 1747 
Q 959 1106 1268 751 
Q 1578 397 2138 397 
Q 2388 397 2633 464 
Q 2878 531 3122 666 
L 3122 134 
Q 2881 22 2623 -34 
Q 2366 -91 2075 -91 
Q 1284 -91 818 406 
Q 353 903 353 1747 
Q 353 2603 823 3093 
Q 1294 3584 2113 3584 
Q 2378 3584 2631 3529 
Q 2884 3475 3122 3366 
z
" id="DejaVuSans-63" transform="scale(0.015625)"/>
      <path d="M 1172 4494 
L 1172 3500 
L 2356 3500 
L 2356 3053 
L 1172 3053 
L 1172 1153 
Q 1172 725 1289 603 
Q 1406 481 1766 481 
L 2356 481 
L 2356 0 
L 1766 0 
Q 1100 0 847 248 
Q 594 497 594 1153 
L 594 3053 
L 172 3053 
L 172 3500 
L 594 3500 
L 594 4494 
L 1172 4494 
z
" id="DejaVuSans-74" transform="scale(0.015625)"/>
      <path d="M 1959 3097 
Q 1497 3097 1228 2736 
Q 959 2375 959 1747 
Q 959 1119 1226 758 
Q 1494 397 1959 397 
Q 2419 397 2687 759 
Q 2956 1122 2956 1747 
Q 2956 2369 2687 2733 
Q 2419 3097 1959 3097 
z
M 1959 3584 
Q 2709 3584 3137 3096 
Q 3566 2609 3566 1747 
Q 3566 888 3137 398 
Q 2709 -91 1959 -91 
Q 1206 -91 779 398 
Q 353 888 353 1747 
Q 353 2609 779 3096 
Q 1206 3584 1959 3584 
z
" id="DejaVuSans-6f" transform="scale(0.015625)"/>
      <path d="M 603 3500 
L 1178 3500 
L 1178 0 
L 603 0 
L 603 3500 
z
M 603 4863 
L 1178 4863 
L 1178 4134 
L 603 4134 
L 603 4863 
z
" id="DejaVuSans-69" transform="scale(0.015625)"/>
      <path d="M 3513 2113 
L 3513 0 
L 2938 0 
L 2938 2094 
Q 2938 2591 2744 2837 
Q 2550 3084 2163 3084 
Q 1697 3084 1428 2787 
Q 1159 2491 1159 1978 
L 1159 0 
L 581 0 
L 581 3500 
L 1159 3500 
L 1159 2956 
Q 1366 3272 1645 3428 
Q 1925 3584 2291 3584 
Q 2894 3584 3203 3211 
Q 3513 2838 3513 2113 
z
" id="DejaVuSans-6e" transform="scale(0.015625)"/>
      <path d="M 2375 4863 
L 2375 4384 
L 1825 4384 
Q 1516 4384 1395 4259 
Q 1275 4134 1275 3809 
L 1275 3500 
L 2222 3500 
L 2222 3053 
L 1275 3053 
L 1275 0 
L 697 0 
L 697 3053 
L 147 3053 
L 147 3500 
L 697 3500 
L 697 3744 
Q 697 4328 969 4595 
Q 1241 4863 1831 4863 
L 2375 4863 
z
" id="DejaVuSans-66" transform="scale(0.015625)"/>
      <path d="M 2906 2969 
L 2906 4863 
L 3481 4863 
L 3481 0 
L 2906 0 
L 2906 525 
Q 2725 213 2448 61 
Q 2172 -91 1784 -91 
Q 1150 -91 751 415 
Q 353 922 353 1747 
Q 353 2572 751 3078 
Q 1150 3584 1784 3584 
Q 2172 3584 2448 3432 
Q 2725 3281 2906 2969 
z
M 947 1747 
Q 947 1113 1208 752 
Q 1469 391 1925 391 
Q 2381 391 2643 752 
Q 2906 1113 2906 1747 
Q 2906 2381 2643 2742 
Q 2381 3103 1925 3103 
Q 1469 3103 1208 2742 
Q 947 2381 947 1747 
z
" id="DejaVuSans-64" transform="scale(0.015625)"/>
      <path d="M 603 4863 
L 1178 4863 
L 1178 0 
L 603 0 
L 603 4863 
z
" id="DejaVuSans-6c" transform="scale(0.015625)"/>
      <path d="M 2834 3397 
L 2834 2853 
Q 2591 2978 2328 3040 
Q 2066 3103 1784 3103 
Q 1356 3103 1142 2972 
Q 928 2841 928 2578 
Q 928 2378 1081 2264 
Q 1234 2150 1697 2047 
L 1894 2003 
Q 2506 1872 2764 1633 
Q 3022 1394 3022 966 
Q 3022 478 2636 193 
Q 2250 -91 1575 -91 
Q 1294 -91 989 -36 
Q 684 19 347 128 
L 347 722 
Q 666 556 975 473 
Q 1284 391 1588 391 
Q 1994 391 2212 530 
Q 2431 669 2431 922 
Q 2431 1156 2273 1281 
Q 2116 1406 1581 1522 
L 1381 1569 
Q 847 1681 609 1914 
Q 372 2147 372 2553 
Q 372 3047 722 3315 
Q 1072 3584 1716 3584 
Q 2034 3584 2315 3537 
Q 2597 3491 2834 3397 
z
" id="DejaVuSans-73" transform="scale(0.015625)"/>
      <path d="M 544 1381 
L 544 3500 
L 1119 3500 
L 1119 1403 
Q 1119 906 1312 657 
Q 1506 409 1894 409 
Q 2359 409 2629 706 
Q 2900 1003 2900 1516 
L 2900 3500 
L 3475 3500 
L 3475 0 
L 2900 0 
L 2900 538 
Q 2691 219 2414 64 
Q 2138 -91 1772 -91 
Q 1169 -91 856 284 
Q 544 659 544 1381 
z
M 1991 3584 
L 1991 3584 
z
" id="DejaVuSans-75" transform="scale(0.015625)"/>
      <path d="M 3513 2113 
L 3513 0 
L 2938 0 
L 2938 2094 
Q 2938 2591 2744 2837 
Q 2550 3084 2163 3084 
Q 1697 3084 1428 2787 
Q 1159 2491 1159 1978 
L 1159 0 
L 581 0 
L 581 4863 
L 1159 4863 
L 1159 2956 
Q 1366 3272 1645 3428 
Q 1925 3584 2291 3584 
Q 2894 3584 3203 3211 
Q 3513 2838 3513 2113 
z
" id="DejaVuSans-68" transform="scale(0.015625)"/>
      <path d="M 2906 1791 
Q 2906 2416 2648 2759 
Q 2391 3103 1925 3103 
Q 1463 3103 1205 2759 
Q 947 2416 947 1791 
Q 947 1169 1205 825 
Q 1463 481 1925 481 
Q 2391 481 2648 825 
Q 2906 1169 2906 1791 
z
M 3481 434 
Q 3481 -459 3084 -895 
Q 2688 -1331 1869 -1331 
Q 1566 -1331 1297 -1286 
Q 1028 -1241 775 -1147 
L 775 -588 
Q 1028 -725 1275 -790 
Q 1522 -856 1778 -856 
Q 2344 -856 2625 -561 
Q 2906 -266 2906 331 
L 2906 616 
Q 2728 306 2450 153 
Q 2172 0 1784 0 
Q 1141 0 747 490 
Q 353 981 353 1791 
Q 353 2603 747 3093 
Q 1141 3584 1784 3584 
Q 2172 3584 2450 3431 
Q 2728 3278 2906 2969 
L 2906 3500 
L 3481 3500 
L 3481 434 
z
" id="DejaVuSans-67" transform="scale(0.015625)"/>
     </defs>
     <use xlink:href="#DejaVuSans-54"/>
     <use x="46.333984" xlink:href="#DejaVuSans-72"/>
     <use x="87.447266" xlink:href="#DejaVuSans-61"/>
     <use x="148.726562" xlink:href="#DejaVuSans-6a"/>
     <use x="176.509766" xlink:href="#DejaVuSans-65"/>
     <use x="238.033203" xlink:href="#DejaVuSans-63"/>
     <use x="293.013672" xlink:href="#DejaVuSans-74"/>
     <use x="332.222656" xlink:href="#DejaVuSans-6f"/>
     <use x="393.404297" xlink:href="#DejaVuSans-69"/>
     <use x="421.1875" xlink:href="#DejaVuSans-72"/>
     <use x="460.050781" xlink:href="#DejaVuSans-65"/>
     <use x="521.574219" xlink:href="#DejaVuSans-20"/>
     <use x="553.361328" xlink:href="#DejaVuSans-65"/>
     <use x="614.884766" xlink:href="#DejaVuSans-6e"/>
     <use x="678.263672" xlink:href="#DejaVuSans-20"/>
     <use x="710.050781" xlink:href="#DejaVuSans-66"/>
     <use x="745.255859" xlink:href="#DejaVuSans-6f"/>
     <use x="806.4375" xlink:href="#DejaVuSans-6e"/>
     <use x="869.816406" xlink:href="#DejaVuSans-63"/>
     <use x="924.796875" xlink:href="#DejaVuSans-74"/>
     <use x="964.005859" xlink:href="#DejaVuSans-69"/>
     <use x="991.789062" xlink:href="#DejaVuSans-6f"/>
     <use x="1052.970703" xlink:href="#DejaVuSans-6e"/>
     <use x="1116.349609" xlink:href="#DejaVuSans-20"/>
     <use x="1148.136719" xlink:href="#DejaVuSans-64"/>
     <use x="1211.613281" xlink:href="#DejaVuSans-65"/>
     <use x="1273.136719" xlink:href="#DejaVuSans-20"/>
     <use x="1304.923828" xlink:href="#DejaVuSans-6c"/>
     <use x="1332.707031" xlink:href="#DejaVuSans-61"/>
     <use x="1393.986328" xlink:href="#DejaVuSans-20"/>
     <use x="1425.773438" xlink:href="#DejaVuSans-6d"/>
     <use x="1523.185547" xlink:href="#DejaVuSans-61"/>
     <use x="1584.464844" xlink:href="#DejaVuSans-73"/>
     <use x="1636.564453" xlink:href="#DejaVuSans-73"/>
     <use x="1688.664062" xlink:href="#DejaVuSans-65"/>
     <use x="1750.1875" xlink:href="#DejaVuSans-20"/>
     <use x="1781.974609" xlink:href="#DejaVuSans-64"/>
     <use x="1845.451172" xlink:href="#DejaVuSans-75"/>
     <use x="1908.830078" xlink:href="#DejaVuSans-20"/>
     <use x="1940.617188" xlink:href="#DejaVuSans-63"/>
     <use x="1995.597656" xlink:href="#DejaVuSans-68"/>
     <use x="2058.976562" xlink:href="#DejaVuSans-61"/>
     <use x="2120.255859" xlink:href="#DejaVuSans-72"/>
     <use x="2159.619141" xlink:href="#DejaVuSans-67"/>
     <use x="2223.095703" xlink:href="#DejaVuSans-65"/>
     <use x="2284.619141" xlink:href="#DejaVuSans-6d"/>
     <use x="2382.03125" xlink:href="#DejaVuSans-65"/>
     <use x="2443.554688" xlink:href="#DejaVuSans-6e"/>
     <use x="2506.933594" xlink:href="#DejaVuSans-74"/>
    </g>
   </g>
   <g id="legend_1">
    <g id="patch_7">
     <path d="M 64.6 111.688095 
L 140.545312 111.688095 
Q 142.545312 111.688095 142.545312 109.688095 
L 142.545312 66.65372 
Q 142.545312 64.65372 140.545312 64.65372 
L 64.6 64.65372 
Q 62.6 64.65372 62.6 66.65372 
L 62.6 109.688095 
Q 62.6 111.688095 64.6 111.688095 
z
" style="fill:#ffffff;opacity:0.8;stroke:#cccccc;stroke-linejoin:miter;"/>
    </g>
    <g id="line2d_30">
     <path d="M 66.6 72.752157 
L 86.6 72.752157 
" style="fill:none;stroke:#0000ff;stroke-linecap:square;stroke-width:1.5;"/>
    </g>
    <g id="line2d_31"/>
    <g id="text_17">
     <!-- 0.01 kg -->
     <g transform="translate(94.6 76.252157)scale(0.1 -0.1)">
      <defs>
       <path d="M 581 4863 
L 1159 4863 
L 1159 1991 
L 2875 3500 
L 3609 3500 
L 1753 1863 
L 3688 0 
L 2938 0 
L 1159 1709 
L 1159 0 
L 581 0 
L 581 4863 
z
" id="DejaVuSans-6b" transform="scale(0.015625)"/>
      </defs>
      <use xlink:href="#DejaVuSans-30"/>
      <use x="63.623047" xlink:href="#DejaVuSans-2e"/>
      <use x="95.410156" xlink:href="#DejaVuSans-30"/>
      <use x="159.033203" xlink:href="#DejaVuSans-31"/>
      <use x="222.65625" xlink:href="#DejaVuSans-20"/>
      <use x="254.443359" xlink:href="#DejaVuSans-6b"/>
      <use x="312.353516" xlink:href="#DejaVuSans-67"/>
     </g>
    </g>
    <g id="line2d_32">
     <path d="M 66.6 87.430282 
L 86.6 87.430282 
" style="fill:none;stroke:#ffa500;stroke-linecap:square;stroke-width:1.5;"/>
    </g>
    <g id="line2d_33"/>
    <g id="text_18">
     <!-- 32.5 kg -->
     <g transform="translate(94.6 90.930282)scale(0.1 -0.1)">
      <defs>
       <path d="M 2597 2516 
Q 3050 2419 3304 2112 
Q 3559 1806 3559 1356 
Q 3559 666 3084 287 
Q 2609 -91 1734 -91 
Q 1441 -91 1130 -33 
Q 819 25 488 141 
L 488 750 
Q 750 597 1062 519 
Q 1375 441 1716 441 
Q 2309 441 2620 675 
Q 2931 909 2931 1356 
Q 2931 1769 2642 2001 
Q 2353 2234 1838 2234 
L 1294 2234 
L 1294 2753 
L 1863 2753 
Q 2328 2753 2575 2939 
Q 2822 3125 2822 3475 
Q 2822 3834 2567 4026 
Q 2313 4219 1838 4219 
Q 1578 4219 1281 4162 
Q 984 4106 628 3988 
L 628 4550 
Q 988 4650 1302 4700 
Q 1616 4750 1894 4750 
Q 2613 4750 3031 4423 
Q 3450 4097 3450 3541 
Q 3450 3153 3228 2886 
Q 3006 2619 2597 2516 
z
" id="DejaVuSans-33" transform="scale(0.015625)"/>
      </defs>
      <use xlink:href="#DejaVuSans-33"/>
      <use x="63.623047" xlink:href="#DejaVuSans-32"/>
      <use x="127.246094" xlink:href="#DejaVuSans-2e"/>
      <use x="159.033203" xlink:href="#DejaVuSans-35"/>
      <use x="222.65625" xlink:href="#DejaVuSans-20"/>
      <use x="254.443359" xlink:href="#DejaVuSans-6b"/>
      <use x="312.353516" xlink:href="#DejaVuSans-67"/>
     </g>
    </g>
    <g id="line2d_34">
     <path d="M 66.6 102.108407 
L 86.6 102.108407 
" style="fill:none;stroke:#ff0000;stroke-linecap:square;stroke-width:1.5;"/>
    </g>
    <g id="line2d_35"/>
    <g id="text_19">
     <!-- 130.0 kg -->
     <g transform="translate(94.6 105.608407)scale(0.1 -0.1)">
      <use xlink:href="#DejaVuSans-31"/>
      <use x="63.623047" xlink:href="#DejaVuSans-33"/>
      <use x="127.246094" xlink:href="#DejaVuSans-30"/>
      <use x="190.869141" xlink:href="#DejaVuSans-2e"/>
      <use x="222.65625" xlink:href="#DejaVuSans-30"/>
      <use x="286.279297" xlink:href="#DejaVuSans-20"/>
      <use x="318.066406" xlink:href="#DejaVuSans-6b"/>
      <use x="375.976562" xlink:href="#DejaVuSans-67"/>
     </g>
    </g>
   </g>
  </g>
 </g>
 <defs>
  <clipPath id="p873f6e1e36">
   <rect height="229.74856" width="357.12" x="57.6" y="59.65372"/>
  </clipPath>
 </defs>
</svg>
