<?xml version="1.0" encoding="utf-8" standalone="no"?>
<!DOCTYPE svg PUBLIC "-//W3C//DTD SVG 1.1//EN"
  "http://www.w3.org/Graphics/SVG/1.1/DTD/svg11.dtd">
<svg height="345.6pt" version="1.1" viewBox="0 0 460.8 345.6" width="460.8pt" xmlns="http://www.w3.org/2000/svg" xmlns:xlink="http://www.w3.org/1999/xlink">
 <metadata>
  <rdf:RDF xmlns:cc="http://creativecommons.org/ns#" xmlns:dc="http://purl.org/dc/elements/1.1/" xmlns:rdf="http://www.w3.org/1999/02/22-rdf-syntax-ns#">
   <cc:Work>
    <dc:type rdf:resource="http://purl.org/dc/dcmitype/StillImage"/>
    <dc:date>2023-05-11T10:11:28.630049</dc:date>
    <dc:format>image/svg+xml</dc:format>
    <dc:creator>
     <cc:Agent>
      <dc:title>Matplotlib v3.4.3, https://matplotlib.org/</dc:title>
     </cc:Agent>
    </dc:creator>
   </cc:Work>
  </rdf:RDF>
 </metadata>
 <defs>
  <style type="text/css">*{stroke-linecap:butt;stroke-linejoin:round;}</style>
 </defs>
 <g id="figure_1">
  <g id="patch_1">
   <path d="M 0 345.6 
L 460.8 345.6 
L 460.8 0 
L 0 0 
z
" style="fill:#ffffff;"/>
  </g>
  <g id="axes_1">
   <g id="patch_2">
    <path d="M 57.6 270.057685 
L 414.72 270.057685 
L 414.72 78.998315 
L 57.6 78.998315 
z
" style="fill:#ffffff;"/>
   </g>
   <g id="matplotlib.axis_1">
    <g id="xtick_1">
     <g id="line2d_1">
      <path clip-path="url(#p7540e10f6e)" d="M 376.728511 270.057685 
L 376.728511 78.998315 
" style="fill:none;stroke:#b0b0b0;stroke-linecap:square;stroke-width:0.8;"/>
     </g>
     <g id="line2d_2">
      <defs>
       <path d="M 0 0 
L 0 3.5 
" id="m85b2893bc0" style="stroke:#000000;stroke-width:0.8;"/>
      </defs>
      <g>
       <use style="stroke:#000000;stroke-width:0.8;" x="376.728511" xlink:href="#m85b2893bc0" y="270.057685"/>
      </g>
     </g>
     <g id="text_1">
      <!-- −40 -->
      <g transform="translate(366.176167 284.656123)scale(0.1 -0.1)">
       <defs>
        <path d="M 678 2272 
L 4684 2272 
L 4684 1741 
L 678 1741 
L 678 2272 
z
" id="DejaVuSans-2212" transform="scale(0.015625)"/>
        <path d="M 2419 4116 
L 825 1625 
L 2419 1625 
L 2419 4116 
z
M 2253 4666 
L 3047 4666 
L 3047 1625 
L 3713 1625 
L 3713 1100 
L 3047 1100 
L 3047 0 
L 2419 0 
L 2419 1100 
L 313 1100 
L 313 1709 
L 2253 4666 
z
" id="DejaVuSans-34" transform="scale(0.015625)"/>
        <path d="M 2034 4250 
Q 1547 4250 1301 3770 
Q 1056 3291 1056 2328 
Q 1056 1369 1301 889 
Q 1547 409 2034 409 
Q 2525 409 2770 889 
Q 3016 1369 3016 2328 
Q 3016 3291 2770 3770 
Q 2525 4250 2034 4250 
z
M 2034 4750 
Q 2819 4750 3233 4129 
Q 3647 3509 3647 2328 
Q 3647 1150 3233 529 
Q 2819 -91 2034 -91 
Q 1250 -91 836 529 
Q 422 1150 422 2328 
Q 422 3509 836 4129 
Q 1250 4750 2034 4750 
z
" id="DejaVuSans-30" transform="scale(0.015625)"/>
       </defs>
       <use xlink:href="#DejaVuSans-2212"/>
       <use x="83.789062" xlink:href="#DejaVuSans-34"/>
       <use x="147.412109" xlink:href="#DejaVuSans-30"/>
      </g>
     </g>
    </g>
    <g id="xtick_2">
     <g id="line2d_3">
      <path clip-path="url(#p7540e10f6e)" d="M 300.745532 270.057685 
L 300.745532 78.998315 
" style="fill:none;stroke:#b0b0b0;stroke-linecap:square;stroke-width:0.8;"/>
     </g>
     <g id="line2d_4">
      <g>
       <use style="stroke:#000000;stroke-width:0.8;" x="300.745532" xlink:href="#m85b2893bc0" y="270.057685"/>
      </g>
     </g>
     <g id="text_2">
      <!-- −30 -->
      <g transform="translate(290.193188 284.656123)scale(0.1 -0.1)">
       <defs>
        <path d="M 2597 2516 
Q 3050 2419 3304 2112 
Q 3559 1806 3559 1356 
Q 3559 666 3084 287 
Q 2609 -91 1734 -91 
Q 1441 -91 1130 -33 
Q 819 25 488 141 
L 488 750 
Q 750 597 1062 519 
Q 1375 441 1716 441 
Q 2309 441 2620 675 
Q 2931 909 2931 1356 
Q 2931 1769 2642 2001 
Q 2353 2234 1838 2234 
L 1294 2234 
L 1294 2753 
L 1863 2753 
Q 2328 2753 2575 2939 
Q 2822 3125 2822 3475 
Q 2822 3834 2567 4026 
Q 2313 4219 1838 4219 
Q 1578 4219 1281 4162 
Q 984 4106 628 3988 
L 628 4550 
Q 988 4650 1302 4700 
Q 1616 4750 1894 4750 
Q 2613 4750 3031 4423 
Q 3450 4097 3450 3541 
Q 3450 3153 3228 2886 
Q 3006 2619 2597 2516 
z
" id="DejaVuSans-33" transform="scale(0.015625)"/>
       </defs>
       <use xlink:href="#DejaVuSans-2212"/>
       <use x="83.789062" xlink:href="#DejaVuSans-33"/>
       <use x="147.412109" xlink:href="#DejaVuSans-30"/>
      </g>
     </g>
    </g>
    <g id="xtick_3">
     <g id="line2d_5">
      <path clip-path="url(#p7540e10f6e)" d="M 224.762553 270.057685 
L 224.762553 78.998315 
" style="fill:none;stroke:#b0b0b0;stroke-linecap:square;stroke-width:0.8;"/>
     </g>
     <g id="line2d_6">
      <g>
       <use style="stroke:#000000;stroke-width:0.8;" x="224.762553" xlink:href="#m85b2893bc0" y="270.057685"/>
      </g>
     </g>
     <g id="text_3">
      <!-- −20 -->
      <g transform="translate(214.210209 284.656123)scale(0.1 -0.1)">
       <defs>
        <path d="M 1228 531 
L 3431 531 
L 3431 0 
L 469 0 
L 469 531 
Q 828 903 1448 1529 
Q 2069 2156 2228 2338 
Q 2531 2678 2651 2914 
Q 2772 3150 2772 3378 
Q 2772 3750 2511 3984 
Q 2250 4219 1831 4219 
Q 1534 4219 1204 4116 
Q 875 4013 500 3803 
L 500 4441 
Q 881 4594 1212 4672 
Q 1544 4750 1819 4750 
Q 2544 4750 2975 4387 
Q 3406 4025 3406 3419 
Q 3406 3131 3298 2873 
Q 3191 2616 2906 2266 
Q 2828 2175 2409 1742 
Q 1991 1309 1228 531 
z
" id="DejaVuSans-32" transform="scale(0.015625)"/>
       </defs>
       <use xlink:href="#DejaVuSans-2212"/>
       <use x="83.789062" xlink:href="#DejaVuSans-32"/>
       <use x="147.412109" xlink:href="#DejaVuSans-30"/>
      </g>
     </g>
    </g>
    <g id="xtick_4">
     <g id="line2d_7">
      <path clip-path="url(#p7540e10f6e)" d="M 148.779574 270.057685 
L 148.779574 78.998315 
" style="fill:none;stroke:#b0b0b0;stroke-linecap:square;stroke-width:0.8;"/>
     </g>
     <g id="line2d_8">
      <g>
       <use style="stroke:#000000;stroke-width:0.8;" x="148.779574" xlink:href="#m85b2893bc0" y="270.057685"/>
      </g>
     </g>
     <g id="text_4">
      <!-- −10 -->
      <g transform="translate(138.227231 284.656123)scale(0.1 -0.1)">
       <defs>
        <path d="M 794 531 
L 1825 531 
L 1825 4091 
L 703 3866 
L 703 4441 
L 1819 4666 
L 2450 4666 
L 2450 531 
L 3481 531 
L 3481 0 
L 794 0 
L 794 531 
z
" id="DejaVuSans-31" transform="scale(0.015625)"/>
       </defs>
       <use xlink:href="#DejaVuSans-2212"/>
       <use x="83.789062" xlink:href="#DejaVuSans-31"/>
       <use x="147.412109" xlink:href="#DejaVuSans-30"/>
      </g>
     </g>
    </g>
    <g id="xtick_5">
     <g id="line2d_9">
      <path clip-path="url(#p7540e10f6e)" d="M 72.796596 270.057685 
L 72.796596 78.998315 
" style="fill:none;stroke:#b0b0b0;stroke-linecap:square;stroke-width:0.8;"/>
     </g>
     <g id="line2d_10">
      <g>
       <use style="stroke:#000000;stroke-width:0.8;" x="72.796596" xlink:href="#m85b2893bc0" y="270.057685"/>
      </g>
     </g>
     <g id="text_5">
      <!-- 0 -->
      <g transform="translate(69.615346 284.656123)scale(0.1 -0.1)">
       <use xlink:href="#DejaVuSans-30"/>
      </g>
     </g>
    </g>
    <g id="text_6">
     <!-- y [m] -->
     <g transform="translate(222.839687 298.334248)scale(0.1 -0.1)">
      <defs>
       <path d="M 2059 -325 
Q 1816 -950 1584 -1140 
Q 1353 -1331 966 -1331 
L 506 -1331 
L 506 -850 
L 844 -850 
Q 1081 -850 1212 -737 
Q 1344 -625 1503 -206 
L 1606 56 
L 191 3500 
L 800 3500 
L 1894 763 
L 2988 3500 
L 3597 3500 
L 2059 -325 
z
" id="DejaVuSans-79" transform="scale(0.015625)"/>
       <path id="DejaVuSans-20" transform="scale(0.015625)"/>
       <path d="M 550 4863 
L 1875 4863 
L 1875 4416 
L 1125 4416 
L 1125 -397 
L 1875 -397 
L 1875 -844 
L 550 -844 
L 550 4863 
z
" id="DejaVuSans-5b" transform="scale(0.015625)"/>
       <path d="M 3328 2828 
Q 3544 3216 3844 3400 
Q 4144 3584 4550 3584 
Q 5097 3584 5394 3201 
Q 5691 2819 5691 2113 
L 5691 0 
L 5113 0 
L 5113 2094 
Q 5113 2597 4934 2840 
Q 4756 3084 4391 3084 
Q 3944 3084 3684 2787 
Q 3425 2491 3425 1978 
L 3425 0 
L 2847 0 
L 2847 2094 
Q 2847 2600 2669 2842 
Q 2491 3084 2119 3084 
Q 1678 3084 1418 2786 
Q 1159 2488 1159 1978 
L 1159 0 
L 581 0 
L 581 3500 
L 1159 3500 
L 1159 2956 
Q 1356 3278 1631 3431 
Q 1906 3584 2284 3584 
Q 2666 3584 2933 3390 
Q 3200 3197 3328 2828 
z
" id="DejaVuSans-6d" transform="scale(0.015625)"/>
       <path d="M 1947 4863 
L 1947 -844 
L 622 -844 
L 622 -397 
L 1369 -397 
L 1369 4416 
L 622 4416 
L 622 4863 
L 1947 4863 
z
" id="DejaVuSans-5d" transform="scale(0.015625)"/>
      </defs>
      <use xlink:href="#DejaVuSans-79"/>
      <use x="59.179688" xlink:href="#DejaVuSans-20"/>
      <use x="90.966797" xlink:href="#DejaVuSans-5b"/>
      <use x="129.980469" xlink:href="#DejaVuSans-6d"/>
      <use x="227.392578" xlink:href="#DejaVuSans-5d"/>
     </g>
    </g>
   </g>
   <g id="matplotlib.axis_2">
    <g id="ytick_1">
     <g id="line2d_11">
      <path clip-path="url(#p7540e10f6e)" d="M 57.6 270.057685 
L 414.72 270.057685 
" style="fill:none;stroke:#b0b0b0;stroke-linecap:square;stroke-width:0.8;"/>
     </g>
     <g id="line2d_12">
      <defs>
       <path d="M 0 0 
L -3.5 0 
" id="m0d9714b33d" style="stroke:#000000;stroke-width:0.8;"/>
      </defs>
      <g>
       <use style="stroke:#000000;stroke-width:0.8;" x="57.6" xlink:href="#m0d9714b33d" y="270.057685"/>
      </g>
     </g>
     <g id="text_7">
      <!-- 5 -->
      <g transform="translate(44.2375 273.856904)scale(0.1 -0.1)">
       <defs>
        <path d="M 691 4666 
L 3169 4666 
L 3169 4134 
L 1269 4134 
L 1269 2991 
Q 1406 3038 1543 3061 
Q 1681 3084 1819 3084 
Q 2600 3084 3056 2656 
Q 3513 2228 3513 1497 
Q 3513 744 3044 326 
Q 2575 -91 1722 -91 
Q 1428 -91 1123 -41 
Q 819 9 494 109 
L 494 744 
Q 775 591 1075 516 
Q 1375 441 1709 441 
Q 2250 441 2565 725 
Q 2881 1009 2881 1497 
Q 2881 1984 2565 2268 
Q 2250 2553 1709 2553 
Q 1456 2553 1204 2497 
Q 953 2441 691 2322 
L 691 4666 
z
" id="DejaVuSans-35" transform="scale(0.015625)"/>
       </defs>
       <use xlink:href="#DejaVuSans-35"/>
      </g>
     </g>
    </g>
    <g id="ytick_2">
     <g id="line2d_13">
      <path clip-path="url(#p7540e10f6e)" d="M 57.6 232.066196 
L 414.72 232.066196 
" style="fill:none;stroke:#b0b0b0;stroke-linecap:square;stroke-width:0.8;"/>
     </g>
     <g id="line2d_14">
      <g>
       <use style="stroke:#000000;stroke-width:0.8;" x="57.6" xlink:href="#m0d9714b33d" y="232.066196"/>
      </g>
     </g>
     <g id="text_8">
      <!-- 10 -->
      <g transform="translate(37.875 235.865414)scale(0.1 -0.1)">
       <use xlink:href="#DejaVuSans-31"/>
       <use x="63.623047" xlink:href="#DejaVuSans-30"/>
      </g>
     </g>
    </g>
    <g id="ytick_3">
     <g id="line2d_15">
      <path clip-path="url(#p7540e10f6e)" d="M 57.6 194.074706 
L 414.72 194.074706 
" style="fill:none;stroke:#b0b0b0;stroke-linecap:square;stroke-width:0.8;"/>
     </g>
     <g id="line2d_16">
      <g>
       <use style="stroke:#000000;stroke-width:0.8;" x="57.6" xlink:href="#m0d9714b33d" y="194.074706"/>
      </g>
     </g>
     <g id="text_9">
      <!-- 15 -->
      <g transform="translate(37.875 197.873925)scale(0.1 -0.1)">
       <use xlink:href="#DejaVuSans-31"/>
       <use x="63.623047" xlink:href="#DejaVuSans-35"/>
      </g>
     </g>
    </g>
    <g id="ytick_4">
     <g id="line2d_17">
      <path clip-path="url(#p7540e10f6e)" d="M 57.6 156.083217 
L 414.72 156.083217 
" style="fill:none;stroke:#b0b0b0;stroke-linecap:square;stroke-width:0.8;"/>
     </g>
     <g id="line2d_18">
      <g>
       <use style="stroke:#000000;stroke-width:0.8;" x="57.6" xlink:href="#m0d9714b33d" y="156.083217"/>
      </g>
     </g>
     <g id="text_10">
      <!-- 20 -->
      <g transform="translate(37.875 159.882436)scale(0.1 -0.1)">
       <use xlink:href="#DejaVuSans-32"/>
       <use x="63.623047" xlink:href="#DejaVuSans-30"/>
      </g>
     </g>
    </g>
    <g id="ytick_5">
     <g id="line2d_19">
      <path clip-path="url(#p7540e10f6e)" d="M 57.6 118.091728 
L 414.72 118.091728 
" style="fill:none;stroke:#b0b0b0;stroke-linecap:square;stroke-width:0.8;"/>
     </g>
     <g id="line2d_20">
      <g>
       <use style="stroke:#000000;stroke-width:0.8;" x="57.6" xlink:href="#m0d9714b33d" y="118.091728"/>
      </g>
     </g>
     <g id="text_11">
      <!-- 25 -->
      <g transform="translate(37.875 121.890946)scale(0.1 -0.1)">
       <use xlink:href="#DejaVuSans-32"/>
       <use x="63.623047" xlink:href="#DejaVuSans-35"/>
      </g>
     </g>
    </g>
    <g id="ytick_6">
     <g id="line2d_21">
      <path clip-path="url(#p7540e10f6e)" d="M 57.6 80.100238 
L 414.72 80.100238 
" style="fill:none;stroke:#b0b0b0;stroke-linecap:square;stroke-width:0.8;"/>
     </g>
     <g id="line2d_22">
      <g>
       <use style="stroke:#000000;stroke-width:0.8;" x="57.6" xlink:href="#m0d9714b33d" y="80.100238"/>
      </g>
     </g>
     <g id="text_12">
      <!-- 30 -->
      <g transform="translate(37.875 83.899457)scale(0.1 -0.1)">
       <use xlink:href="#DejaVuSans-33"/>
       <use x="63.623047" xlink:href="#DejaVuSans-30"/>
      </g>
     </g>
    </g>
    <g id="text_13">
     <!-- x [m] -->
     <g transform="translate(31.795313 187.848312)rotate(-90)scale(0.1 -0.1)">
      <defs>
       <path d="M 3513 3500 
L 2247 1797 
L 3578 0 
L 2900 0 
L 1881 1375 
L 863 0 
L 184 0 
L 1544 1831 
L 300 3500 
L 978 3500 
L 1906 2253 
L 2834 3500 
L 3513 3500 
z
" id="DejaVuSans-78" transform="scale(0.015625)"/>
      </defs>
      <use xlink:href="#DejaVuSans-78"/>
      <use x="59.179688" xlink:href="#DejaVuSans-20"/>
      <use x="90.966797" xlink:href="#DejaVuSans-5b"/>
      <use x="129.980469" xlink:href="#DejaVuSans-6d"/>
      <use x="227.392578" xlink:href="#DejaVuSans-5d"/>
     </g>
    </g>
   </g>
   <g id="line2d_23">
    <path clip-path="url(#p7540e10f6e)" d="M 72.796596 308.049174 
L 72.685628 259.754023 
L 72.740727 251.215609 
L 73.008085 244.134146 
L 73.478477 237.530024 
L 74.155764 231.136493 
L 75.041859 224.884504 
L 76.130725 218.783723 
L 77.423433 212.802945 
L 78.914509 206.950325 
L 80.609314 201.19456 
L 82.504201 195.54366 
L 84.594539 190.00516 
L 86.891326 184.549027 
L 89.374827 179.22016 
L 92.057583 173.989035 
L 94.936563 168.863614 
L 97.986422 163.885835 
L 101.222482 159.02742 
L 104.640489 154.295616 
L 108.23583 149.697474 
L 112.003553 145.239837 
L 115.938392 140.929334 
L 120.034784 136.772368 
L 124.286888 132.775108 
L 128.688599 128.943486 
L 133.233564 125.28318 
L 137.915198 121.799615 
L 142.726694 118.49795 
L 147.66104 115.383071 
L 152.71103 112.459588 
L 157.869276 109.731825 
L 163.128223 107.203814 
L 168.480161 104.879292 
L 173.917237 102.761693 
L 179.392927 100.86666 
L 184.93677 99.18153 
L 190.540732 97.708754 
L 196.196688 96.450475 
L 201.896436 95.408522 
L 207.63171 94.584408 
L 213.394189 93.979329 
L 219.175515 93.594163 
L 224.967299 93.429465 
L 230.76114 93.485471 
L 236.548632 93.762095 
L 242.321378 94.25893 
L 248.071005 94.975248 
L 253.789172 95.910003 
L 259.467587 97.061831 
L 265.1372 98.439365 
L 270.749815 100.03328 
L 276.297182 101.841219 
L 281.771146 103.860514 
L 287.163663 106.088183 
L 292.466809 108.52094 
L 297.672794 111.155195 
L 302.773972 113.987064 
L 307.762852 117.012372 
L 312.632112 120.226658 
L 317.374606 123.625188 
L 321.983376 127.202954 
L 326.451662 130.954686 
L 330.772915 134.87486 
L 334.9408 138.957706 
L 338.949214 143.197215 
L 342.792285 147.587148 
L 346.46439 152.121051 
L 349.960157 156.792254 
L 353.274475 161.593891 
L 356.402502 166.518905 
L 359.33967 171.560062 
L 362.081696 176.709955 
L 364.624581 181.961025 
L 366.964623 187.305563 
L 369.098418 192.735727 
L 371.022866 198.243552 
L 372.735178 203.820962 
L 374.232874 209.459783 
L 375.513792 215.151752 
L 376.576088 220.888533 
L 377.418241 226.661727 
L 378.039052 232.462885 
L 378.437647 238.283523 
L 378.613481 244.11513 
L 378.566332 249.949184 
L 378.332082 254.478121 
L 377.764886 260.751628 
L 376.797402 268.894935 
L 376.734248 269.375358 
L 376.734248 269.375358 
" style="fill:none;stroke:#0000ff;stroke-linecap:square;stroke-width:1.5;"/>
   </g>
   <g id="line2d_24">
    <path clip-path="url(#p7540e10f6e)" d="M 72.796596 308.049174 
L 72.68563 259.874418 
L 72.73852 251.316622 
L 73.00362 244.250101 
L 73.47294 237.658042 
L 74.149841 231.274902 
L 75.03493 225.031825 
L 76.129163 218.898796 
L 77.428354 212.884848 
L 78.926874 206.998254 
L 80.629922 201.207858 
L 82.533703 195.521736 
L 84.633439 189.947459 
L 86.939951 184.455008 
L 89.433417 179.089252 
L 92.126228 173.820621 
L 95.015258 168.657004 
L 98.09693 163.606093 
L 101.344218 158.708736 
L 104.773301 153.937092 
L 108.379556 149.298107 
L 112.158043 144.798517 
L 116.10352 140.444837 
L 120.210463 136.243357 
L 124.473083 132.200133 
L 128.885339 128.320977 
L 133.440953 124.611449 
L 138.133424 121.07685 
L 142.956043 117.722217 
L 147.901904 114.552312 
L 152.96392 111.571617 
L 158.134833 108.784327 
L 163.407229 106.194348 
L 168.773552 103.805284 
L 174.226114 101.620442 
L 179.757112 99.642817 
L 185.358639 97.875098 
L 191.022698 96.319659 
L 196.741215 94.978556 
L 202.506054 93.85353 
L 208.309027 92.945999 
L 214.182223 92.25307 
L 220.077327 91.78255 
L 225.98591 91.534899 
L 231.899548 91.510248 
L 237.809836 91.708398 
L 243.708397 92.128825 
L 249.586903 92.770679 
L 255.43708 93.632789 
L 261.250728 94.713668 
L 267.019729 96.011512 
L 272.736062 97.524211 
L 278.391816 99.249351 
L 284.017217 101.198187 
L 289.565494 103.356567 
L 295.028979 105.721131 
L 300.400165 108.288235 
L 305.671716 111.053958 
L 310.836478 114.01411 
L 315.887488 117.164242 
L 320.817985 120.499655 
L 325.653643 124.039932 
L 330.354043 127.757736 
L 334.912956 131.647564 
L 339.324399 135.703701 
L 343.582636 139.920225 
L 347.682187 144.291024 
L 351.643858 148.84083 
L 355.434354 153.534034 
L 359.048906 158.363887 
L 362.483029 163.32349 
L 365.732527 168.405811 
L 368.793495 173.603698 
L 371.680922 178.94585 
L 374.370244 184.390259 
L 376.858387 189.929335 
L 379.142585 195.555417 
L 381.220379 201.260783 
L 383.101374 207.076406 
L 384.76914 212.956552 
L 386.222106 218.893247 
L 387.45901 224.878509 
L 388.484929 230.944385 
L 389.290288 237.043273 
L 389.874734 243.167084 
L 390.238216 249.307772 
L 390.381194 255.497814 
L 390.301063 261.608025 
L 390.01056 266.609134 
L 389.73251 269.984652 
L 389.73251 269.984652 
" style="fill:none;stroke:#ffa500;stroke-linecap:square;stroke-width:1.5;"/>
   </g>
   <g id="line2d_25">
    <path clip-path="url(#p7540e10f6e)" d="M 72.796596 308.049174 
L 72.685507 260.012106 
L 72.732319 251.458763 
L 72.992539 244.391817 
L 73.45826 237.755736 
L 74.131638 231.325175 
L 75.013229 225.031709 
L 76.103534 218.845455 
L 77.397864 212.77566 
L 78.900969 206.791525 
L 80.610221 200.901866 
L 82.521981 195.115063 
L 84.631702 189.43901 
L 86.934079 183.881096 
L 89.440831 178.411561 
L 92.130667 173.074782 
L 95.017087 167.841592 
L 98.096908 162.719939 
L 101.343675 157.751227 
L 104.773818 152.90772 
L 108.383111 148.196753 
L 112.14049 143.65631 
L 116.065278 139.26051 
L 120.152365 135.01601 
L 124.396341 130.929269 
L 128.791495 127.006529 
L 133.331836 123.253805 
L 137.978363 119.700925 
L 142.7555 116.326826 
L 147.656603 113.136652 
L 152.674794 110.135276 
L 157.802975 107.327282 
L 163.033837 104.716957 
L 168.359882 102.308277 
L 173.77343 100.104899 
L 179.266643 98.110151 
L 184.831533 96.327021 
L 190.459989 94.758152 
L 196.143786 93.405834 
L 201.874609 92.271997 
L 207.644069 91.358213 
L 213.443723 90.665683 
L 219.26509 90.195243 
L 225.099677 89.947362 
L 230.938989 89.922139 
L 236.774556 90.119308 
L 242.597946 90.53824 
L 248.400787 91.177948 
L 254.174782 92.037092 
L 259.911728 93.113983 
L 265.642881 94.416319 
L 271.320132 95.934974 
L 276.935492 97.667208 
L 282.481135 99.609962 
L 287.94941 101.759868 
L 293.36967 104.13019 
L 298.696512 106.702785 
L 303.92274 109.473345 
L 309.041385 112.437294 
L 314.079585 115.612043 
L 318.995283 118.972787 
L 323.782121 122.514138 
L 328.465179 126.256363 
L 333.005507 130.17007 
L 337.397451 134.249159 
L 341.635647 138.487363 
L 345.742031 142.908433 
L 349.682559 147.477575 
L 353.45265 152.187969 
L 357.071557 157.065639 
L 360.509339 162.072271 
L 363.762243 167.200611 
L 366.846612 172.478654 
L 369.736926 177.865081 
L 372.430278 183.352315 
L 374.93991 188.969998 
L 377.244971 194.674336 
L 379.343407 200.457535 
L 381.245194 206.350538 
L 382.934337 212.307615 
L 384.409618 218.320851 
L 385.677628 224.422122 
L 386.727342 230.564302 
L 387.558355 236.739436 
L 388.173782 242.97995 
L 388.567626 249.237848 
L 388.740253 255.5052 
L 388.743633 258.660184 
L 388.743633 258.660184 
" style="fill:none;stroke:#ff0000;stroke-linecap:square;stroke-width:1.5;"/>
   </g>
   <g id="patch_3">
    <path d="M 57.6 270.057685 
L 57.6 78.998315 
" style="fill:none;stroke:#000000;stroke-linecap:square;stroke-linejoin:miter;stroke-width:0.8;"/>
   </g>
   <g id="patch_4">
    <path d="M 414.72 270.057685 
L 414.72 78.998315 
" style="fill:none;stroke:#000000;stroke-linecap:square;stroke-linejoin:miter;stroke-width:0.8;"/>
   </g>
   <g id="patch_5">
    <path d="M 57.6 270.057685 
L 414.72 270.057685 
" style="fill:none;stroke:#000000;stroke-linecap:square;stroke-linejoin:miter;stroke-width:0.8;"/>
   </g>
   <g id="patch_6">
    <path d="M 57.6 78.998315 
L 414.72 78.998315 
" style="fill:none;stroke:#000000;stroke-linecap:square;stroke-linejoin:miter;stroke-width:0.8;"/>
   </g>
   <g id="text_14">
    <!-- Trajectoire en fonction de la masse du chargement -->
    <g transform="translate(83.3925 72.998315)scale(0.12 -0.12)">
     <defs>
      <path d="M -19 4666 
L 3928 4666 
L 3928 4134 
L 2272 4134 
L 2272 0 
L 1638 0 
L 1638 4134 
L -19 4134 
L -19 4666 
z
" id="DejaVuSans-54" transform="scale(0.015625)"/>
      <path d="M 2631 2963 
Q 2534 3019 2420 3045 
Q 2306 3072 2169 3072 
Q 1681 3072 1420 2755 
Q 1159 2438 1159 1844 
L 1159 0 
L 581 0 
L 581 3500 
L 1159 3500 
L 1159 2956 
Q 1341 3275 1631 3429 
Q 1922 3584 2338 3584 
Q 2397 3584 2469 3576 
Q 2541 3569 2628 3553 
L 2631 2963 
z
" id="DejaVuSans-72" transform="scale(0.015625)"/>
      <path d="M 2194 1759 
Q 1497 1759 1228 1600 
Q 959 1441 959 1056 
Q 959 750 1161 570 
Q 1363 391 1709 391 
Q 2188 391 2477 730 
Q 2766 1069 2766 1631 
L 2766 1759 
L 2194 1759 
z
M 3341 1997 
L 3341 0 
L 2766 0 
L 2766 531 
Q 2569 213 2275 61 
Q 1981 -91 1556 -91 
Q 1019 -91 701 211 
Q 384 513 384 1019 
Q 384 1609 779 1909 
Q 1175 2209 1959 2209 
L 2766 2209 
L 2766 2266 
Q 2766 2663 2505 2880 
Q 2244 3097 1772 3097 
Q 1472 3097 1187 3025 
Q 903 2953 641 2809 
L 641 3341 
Q 956 3463 1253 3523 
Q 1550 3584 1831 3584 
Q 2591 3584 2966 3190 
Q 3341 2797 3341 1997 
z
" id="DejaVuSans-61" transform="scale(0.015625)"/>
      <path d="M 603 3500 
L 1178 3500 
L 1178 -63 
Q 1178 -731 923 -1031 
Q 669 -1331 103 -1331 
L -116 -1331 
L -116 -844 
L 38 -844 
Q 366 -844 484 -692 
Q 603 -541 603 -63 
L 603 3500 
z
M 603 4863 
L 1178 4863 
L 1178 4134 
L 603 4134 
L 603 4863 
z
" id="DejaVuSans-6a" transform="scale(0.015625)"/>
      <path d="M 3597 1894 
L 3597 1613 
L 953 1613 
Q 991 1019 1311 708 
Q 1631 397 2203 397 
Q 2534 397 2845 478 
Q 3156 559 3463 722 
L 3463 178 
Q 3153 47 2828 -22 
Q 2503 -91 2169 -91 
Q 1331 -91 842 396 
Q 353 884 353 1716 
Q 353 2575 817 3079 
Q 1281 3584 2069 3584 
Q 2775 3584 3186 3129 
Q 3597 2675 3597 1894 
z
M 3022 2063 
Q 3016 2534 2758 2815 
Q 2500 3097 2075 3097 
Q 1594 3097 1305 2825 
Q 1016 2553 972 2059 
L 3022 2063 
z
" id="DejaVuSans-65" transform="scale(0.015625)"/>
      <path d="M 3122 3366 
L 3122 2828 
Q 2878 2963 2633 3030 
Q 2388 3097 2138 3097 
Q 1578 3097 1268 2742 
Q 959 2388 959 1747 
Q 959 1106 1268 751 
Q 1578 397 2138 397 
Q 2388 397 2633 464 
Q 2878 531 3122 666 
L 3122 134 
Q 2881 22 2623 -34 
Q 2366 -91 2075 -91 
Q 1284 -91 818 406 
Q 353 903 353 1747 
Q 353 2603 823 3093 
Q 1294 3584 2113 3584 
Q 2378 3584 2631 3529 
Q 2884 3475 3122 3366 
z
" id="DejaVuSans-63" transform="scale(0.015625)"/>
      <path d="M 1172 4494 
L 1172 3500 
L 2356 3500 
L 2356 3053 
L 1172 3053 
L 1172 1153 
Q 1172 725 1289 603 
Q 1406 481 1766 481 
L 2356 481 
L 2356 0 
L 1766 0 
Q 1100 0 847 248 
Q 594 497 594 1153 
L 594 3053 
L 172 3053 
L 172 3500 
L 594 3500 
L 594 4494 
L 1172 4494 
z
" id="DejaVuSans-74" transform="scale(0.015625)"/>
      <path d="M 1959 3097 
Q 1497 3097 1228 2736 
Q 959 2375 959 1747 
Q 959 1119 1226 758 
Q 1494 397 1959 397 
Q 2419 397 2687 759 
Q 2956 1122 2956 1747 
Q 2956 2369 2687 2733 
Q 2419 3097 1959 3097 
z
M 1959 3584 
Q 2709 3584 3137 3096 
Q 3566 2609 3566 1747 
Q 3566 888 3137 398 
Q 2709 -91 1959 -91 
Q 1206 -91 779 398 
Q 353 888 353 1747 
Q 353 2609 779 3096 
Q 1206 3584 1959 3584 
z
" id="DejaVuSans-6f" transform="scale(0.015625)"/>
      <path d="M 603 3500 
L 1178 3500 
L 1178 0 
L 603 0 
L 603 3500 
z
M 603 4863 
L 1178 4863 
L 1178 4134 
L 603 4134 
L 603 4863 
z
" id="DejaVuSans-69" transform="scale(0.015625)"/>
      <path d="M 3513 2113 
L 3513 0 
L 2938 0 
L 2938 2094 
Q 2938 2591 2744 2837 
Q 2550 3084 2163 3084 
Q 1697 3084 1428 2787 
Q 1159 2491 1159 1978 
L 1159 0 
L 581 0 
L 581 3500 
L 1159 3500 
L 1159 2956 
Q 1366 3272 1645 3428 
Q 1925 3584 2291 3584 
Q 2894 3584 3203 3211 
Q 3513 2838 3513 2113 
z
" id="DejaVuSans-6e" transform="scale(0.015625)"/>
      <path d="M 2375 4863 
L 2375 4384 
L 1825 4384 
Q 1516 4384 1395 4259 
Q 1275 4134 1275 3809 
L 1275 3500 
L 2222 3500 
L 2222 3053 
L 1275 3053 
L 1275 0 
L 697 0 
L 697 3053 
L 147 3053 
L 147 3500 
L 697 3500 
L 697 3744 
Q 697 4328 969 4595 
Q 1241 4863 1831 4863 
L 2375 4863 
z
" id="DejaVuSans-66" transform="scale(0.015625)"/>
      <path d="M 2906 2969 
L 2906 4863 
L 3481 4863 
L 3481 0 
L 2906 0 
L 2906 525 
Q 2725 213 2448 61 
Q 2172 -91 1784 -91 
Q 1150 -91 751 415 
Q 353 922 353 1747 
Q 353 2572 751 3078 
Q 1150 3584 1784 3584 
Q 2172 3584 2448 3432 
Q 2725 3281 2906 2969 
z
M 947 1747 
Q 947 1113 1208 752 
Q 1469 391 1925 391 
Q 2381 391 2643 752 
Q 2906 1113 2906 1747 
Q 2906 2381 2643 2742 
Q 2381 3103 1925 3103 
Q 1469 3103 1208 2742 
Q 947 2381 947 1747 
z
" id="DejaVuSans-64" transform="scale(0.015625)"/>
      <path d="M 603 4863 
L 1178 4863 
L 1178 0 
L 603 0 
L 603 4863 
z
" id="DejaVuSans-6c" transform="scale(0.015625)"/>
      <path d="M 2834 3397 
L 2834 2853 
Q 2591 2978 2328 3040 
Q 2066 3103 1784 3103 
Q 1356 3103 1142 2972 
Q 928 2841 928 2578 
Q 928 2378 1081 2264 
Q 1234 2150 1697 2047 
L 1894 2003 
Q 2506 1872 2764 1633 
Q 3022 1394 3022 966 
Q 3022 478 2636 193 
Q 2250 -91 1575 -91 
Q 1294 -91 989 -36 
Q 684 19 347 128 
L 347 722 
Q 666 556 975 473 
Q 1284 391 1588 391 
Q 1994 391 2212 530 
Q 2431 669 2431 922 
Q 2431 1156 2273 1281 
Q 2116 1406 1581 1522 
L 1381 1569 
Q 847 1681 609 1914 
Q 372 2147 372 2553 
Q 372 3047 722 3315 
Q 1072 3584 1716 3584 
Q 2034 3584 2315 3537 
Q 2597 3491 2834 3397 
z
" id="DejaVuSans-73" transform="scale(0.015625)"/>
      <path d="M 544 1381 
L 544 3500 
L 1119 3500 
L 1119 1403 
Q 1119 906 1312 657 
Q 1506 409 1894 409 
Q 2359 409 2629 706 
Q 2900 1003 2900 1516 
L 2900 3500 
L 3475 3500 
L 3475 0 
L 2900 0 
L 2900 538 
Q 2691 219 2414 64 
Q 2138 -91 1772 -91 
Q 1169 -91 856 284 
Q 544 659 544 1381 
z
M 1991 3584 
L 1991 3584 
z
" id="DejaVuSans-75" transform="scale(0.015625)"/>
      <path d="M 3513 2113 
L 3513 0 
L 2938 0 
L 2938 2094 
Q 2938 2591 2744 2837 
Q 2550 3084 2163 3084 
Q 1697 3084 1428 2787 
Q 1159 2491 1159 1978 
L 1159 0 
L 581 0 
L 581 4863 
L 1159 4863 
L 1159 2956 
Q 1366 3272 1645 3428 
Q 1925 3584 2291 3584 
Q 2894 3584 3203 3211 
Q 3513 2838 3513 2113 
z
" id="DejaVuSans-68" transform="scale(0.015625)"/>
      <path d="M 2906 1791 
Q 2906 2416 2648 2759 
Q 2391 3103 1925 3103 
Q 1463 3103 1205 2759 
Q 947 2416 947 1791 
Q 947 1169 1205 825 
Q 1463 481 1925 481 
Q 2391 481 2648 825 
Q 2906 1169 2906 1791 
z
M 3481 434 
Q 3481 -459 3084 -895 
Q 2688 -1331 1869 -1331 
Q 1566 -1331 1297 -1286 
Q 1028 -1241 775 -1147 
L 775 -588 
Q 1028 -725 1275 -790 
Q 1522 -856 1778 -856 
Q 2344 -856 2625 -561 
Q 2906 -266 2906 331 
L 2906 616 
Q 2728 306 2450 153 
Q 2172 0 1784 0 
Q 1141 0 747 490 
Q 353 981 353 1791 
Q 353 2603 747 3093 
Q 1141 3584 1784 3584 
Q 2172 3584 2450 3431 
Q 2728 3278 2906 2969 
L 2906 3500 
L 3481 3500 
L 3481 434 
z
" id="DejaVuSans-67" transform="scale(0.015625)"/>
     </defs>
     <use xlink:href="#DejaVuSans-54"/>
     <use x="46.333984" xlink:href="#DejaVuSans-72"/>
     <use x="87.447266" xlink:href="#DejaVuSans-61"/>
     <use x="148.726562" xlink:href="#DejaVuSans-6a"/>
     <use x="176.509766" xlink:href="#DejaVuSans-65"/>
     <use x="238.033203" xlink:href="#DejaVuSans-63"/>
     <use x="293.013672" xlink:href="#DejaVuSans-74"/>
     <use x="332.222656" xlink:href="#DejaVuSans-6f"/>
     <use x="393.404297" xlink:href="#DejaVuSans-69"/>
     <use x="421.1875" xlink:href="#DejaVuSans-72"/>
     <use x="460.050781" xlink:href="#DejaVuSans-65"/>
     <use x="521.574219" xlink:href="#DejaVuSans-20"/>
     <use x="553.361328" xlink:href="#DejaVuSans-65"/>
     <use x="614.884766" xlink:href="#DejaVuSans-6e"/>
     <use x="678.263672" xlink:href="#DejaVuSans-20"/>
     <use x="710.050781" xlink:href="#DejaVuSans-66"/>
     <use x="745.255859" xlink:href="#DejaVuSans-6f"/>
     <use x="806.4375" xlink:href="#DejaVuSans-6e"/>
     <use x="869.816406" xlink:href="#DejaVuSans-63"/>
     <use x="924.796875" xlink:href="#DejaVuSans-74"/>
     <use x="964.005859" xlink:href="#DejaVuSans-69"/>
     <use x="991.789062" xlink:href="#DejaVuSans-6f"/>
     <use x="1052.970703" xlink:href="#DejaVuSans-6e"/>
     <use x="1116.349609" xlink:href="#DejaVuSans-20"/>
     <use x="1148.136719" xlink:href="#DejaVuSans-64"/>
     <use x="1211.613281" xlink:href="#DejaVuSans-65"/>
     <use x="1273.136719" xlink:href="#DejaVuSans-20"/>
     <use x="1304.923828" xlink:href="#DejaVuSans-6c"/>
     <use x="1332.707031" xlink:href="#DejaVuSans-61"/>
     <use x="1393.986328" xlink:href="#DejaVuSans-20"/>
     <use x="1425.773438" xlink:href="#DejaVuSans-6d"/>
     <use x="1523.185547" xlink:href="#DejaVuSans-61"/>
     <use x="1584.464844" xlink:href="#DejaVuSans-73"/>
     <use x="1636.564453" xlink:href="#DejaVuSans-73"/>
     <use x="1688.664062" xlink:href="#DejaVuSans-65"/>
     <use x="1750.1875" xlink:href="#DejaVuSans-20"/>
     <use x="1781.974609" xlink:href="#DejaVuSans-64"/>
     <use x="1845.451172" xlink:href="#DejaVuSans-75"/>
     <use x="1908.830078" xlink:href="#DejaVuSans-20"/>
     <use x="1940.617188" xlink:href="#DejaVuSans-63"/>
     <use x="1995.597656" xlink:href="#DejaVuSans-68"/>
     <use x="2058.976562" xlink:href="#DejaVuSans-61"/>
     <use x="2120.255859" xlink:href="#DejaVuSans-72"/>
     <use x="2159.619141" xlink:href="#DejaVuSans-67"/>
     <use x="2223.095703" xlink:href="#DejaVuSans-65"/>
     <use x="2284.619141" xlink:href="#DejaVuSans-6d"/>
     <use x="2382.03125" xlink:href="#DejaVuSans-65"/>
     <use x="2443.554688" xlink:href="#DejaVuSans-6e"/>
     <use x="2506.933594" xlink:href="#DejaVuSans-74"/>
    </g>
   </g>
   <g id="legend_1">
    <g id="patch_7">
     <path d="M 198.187344 265.057685 
L 274.132656 265.057685 
Q 276.132656 265.057685 276.132656 263.057685 
L 276.132656 220.02331 
Q 276.132656 218.02331 274.132656 218.02331 
L 198.187344 218.02331 
Q 196.187344 218.02331 196.187344 220.02331 
L 196.187344 263.057685 
Q 196.187344 265.057685 198.187344 265.057685 
z
" style="fill:#ffffff;opacity:0.8;stroke:#cccccc;stroke-linejoin:miter;"/>
    </g>
    <g id="line2d_26">
     <path d="M 200.187344 226.121748 
L 220.187344 226.121748 
" style="fill:none;stroke:#0000ff;stroke-linecap:square;stroke-width:1.5;"/>
    </g>
    <g id="line2d_27"/>
    <g id="text_15">
     <!-- 0.01 kg -->
     <g transform="translate(228.187344 229.621748)scale(0.1 -0.1)">
      <defs>
       <path d="M 684 794 
L 1344 794 
L 1344 0 
L 684 0 
L 684 794 
z
" id="DejaVuSans-2e" transform="scale(0.015625)"/>
       <path d="M 581 4863 
L 1159 4863 
L 1159 1991 
L 2875 3500 
L 3609 3500 
L 1753 1863 
L 3688 0 
L 2938 0 
L 1159 1709 
L 1159 0 
L 581 0 
L 581 4863 
z
" id="DejaVuSans-6b" transform="scale(0.015625)"/>
      </defs>
      <use xlink:href="#DejaVuSans-30"/>
      <use x="63.623047" xlink:href="#DejaVuSans-2e"/>
      <use x="95.410156" xlink:href="#DejaVuSans-30"/>
      <use x="159.033203" xlink:href="#DejaVuSans-31"/>
      <use x="222.65625" xlink:href="#DejaVuSans-20"/>
      <use x="254.443359" xlink:href="#DejaVuSans-6b"/>
      <use x="312.353516" xlink:href="#DejaVuSans-67"/>
     </g>
    </g>
    <g id="line2d_28">
     <path d="M 200.187344 240.799873 
L 220.187344 240.799873 
" style="fill:none;stroke:#ffa500;stroke-linecap:square;stroke-width:1.5;"/>
    </g>
    <g id="line2d_29"/>
    <g id="text_16">
     <!-- 32.5 kg -->
     <g transform="translate(228.187344 244.299873)scale(0.1 -0.1)">
      <use xlink:href="#DejaVuSans-33"/>
      <use x="63.623047" xlink:href="#DejaVuSans-32"/>
      <use x="127.246094" xlink:href="#DejaVuSans-2e"/>
      <use x="159.033203" xlink:href="#DejaVuSans-35"/>
      <use x="222.65625" xlink:href="#DejaVuSans-20"/>
      <use x="254.443359" xlink:href="#DejaVuSans-6b"/>
      <use x="312.353516" xlink:href="#DejaVuSans-67"/>
     </g>
    </g>
    <g id="line2d_30">
     <path d="M 200.187344 255.477998 
L 220.187344 255.477998 
" style="fill:none;stroke:#ff0000;stroke-linecap:square;stroke-width:1.5;"/>
    </g>
    <g id="line2d_31"/>
    <g id="text_17">
     <!-- 130.0 kg -->
     <g transform="translate(228.187344 258.977998)scale(0.1 -0.1)">
      <use xlink:href="#DejaVuSans-31"/>
      <use x="63.623047" xlink:href="#DejaVuSans-33"/>
      <use x="127.246094" xlink:href="#DejaVuSans-30"/>
      <use x="190.869141" xlink:href="#DejaVuSans-2e"/>
      <use x="222.65625" xlink:href="#DejaVuSans-30"/>
      <use x="286.279297" xlink:href="#DejaVuSans-20"/>
      <use x="318.066406" xlink:href="#DejaVuSans-6b"/>
      <use x="375.976562" xlink:href="#DejaVuSans-67"/>
     </g>
    </g>
   </g>
  </g>
 </g>
 <defs>
  <clipPath id="p7540e10f6e">
   <rect height="191.05937" width="357.12" x="57.6" y="78.998315"/>
  </clipPath>
 </defs>
</svg>
