<?xml version="1.0" encoding="utf-8" standalone="no"?>
<!DOCTYPE svg PUBLIC "-//W3C//DTD SVG 1.1//EN"
  "http://www.w3.org/Graphics/SVG/1.1/DTD/svg11.dtd">
<svg height="345.6pt" version="1.1" viewBox="0 0 460.8 345.6" width="460.8pt" xmlns="http://www.w3.org/2000/svg" xmlns:xlink="http://www.w3.org/1999/xlink">
 <metadata>
  <rdf:RDF xmlns:cc="http://creativecommons.org/ns#" xmlns:dc="http://purl.org/dc/elements/1.1/" xmlns:rdf="http://www.w3.org/1999/02/22-rdf-syntax-ns#">
   <cc:Work>
    <dc:type rdf:resource="http://purl.org/dc/dcmitype/StillImage"/>
    <dc:date>2023-05-11T08:37:45.610506</dc:date>
    <dc:format>image/svg+xml</dc:format>
    <dc:creator>
     <cc:Agent>
      <dc:title>Matplotlib v3.4.3, https://matplotlib.org/</dc:title>
     </cc:Agent>
    </dc:creator>
   </cc:Work>
  </rdf:RDF>
 </metadata>
 <defs>
  <style type="text/css">*{stroke-linecap:butt;stroke-linejoin:round;}</style>
 </defs>
 <g id="figure_1">
  <g id="patch_1">
   <path d="M 0 345.6 
L 460.8 345.6 
L 460.8 0 
L 0 0 
z
" style="fill:#ffffff;"/>
  </g>
  <g id="axes_1">
   <g id="patch_2">
    <path d="M 57.6 269.224068 
L 414.72 269.224068 
L 414.72 79.831932 
L 57.6 79.831932 
z
" style="fill:#ffffff;"/>
   </g>
   <g id="matplotlib.axis_1">
    <g id="xtick_1">
     <g id="line2d_1">
      <path clip-path="url(#pcb5d818118)" d="M 376.728511 269.224068 
L 376.728511 79.831932 
" style="fill:none;stroke:#b0b0b0;stroke-linecap:square;stroke-width:0.8;"/>
     </g>
     <g id="line2d_2">
      <defs>
       <path d="M 0 0 
L 0 3.5 
" id="m833f9d311f" style="stroke:#000000;stroke-width:0.8;"/>
      </defs>
      <g>
       <use style="stroke:#000000;stroke-width:0.8;" x="376.728511" xlink:href="#m833f9d311f" y="269.224068"/>
      </g>
     </g>
     <g id="text_1">
      <!-- −40 -->
      <g transform="translate(366.176167 283.822505)scale(0.1 -0.1)">
       <defs>
        <path d="M 678 2272 
L 4684 2272 
L 4684 1741 
L 678 1741 
L 678 2272 
z
" id="DejaVuSans-2212" transform="scale(0.015625)"/>
        <path d="M 2419 4116 
L 825 1625 
L 2419 1625 
L 2419 4116 
z
M 2253 4666 
L 3047 4666 
L 3047 1625 
L 3713 1625 
L 3713 1100 
L 3047 1100 
L 3047 0 
L 2419 0 
L 2419 1100 
L 313 1100 
L 313 1709 
L 2253 4666 
z
" id="DejaVuSans-34" transform="scale(0.015625)"/>
        <path d="M 2034 4250 
Q 1547 4250 1301 3770 
Q 1056 3291 1056 2328 
Q 1056 1369 1301 889 
Q 1547 409 2034 409 
Q 2525 409 2770 889 
Q 3016 1369 3016 2328 
Q 3016 3291 2770 3770 
Q 2525 4250 2034 4250 
z
M 2034 4750 
Q 2819 4750 3233 4129 
Q 3647 3509 3647 2328 
Q 3647 1150 3233 529 
Q 2819 -91 2034 -91 
Q 1250 -91 836 529 
Q 422 1150 422 2328 
Q 422 3509 836 4129 
Q 1250 4750 2034 4750 
z
" id="DejaVuSans-30" transform="scale(0.015625)"/>
       </defs>
       <use xlink:href="#DejaVuSans-2212"/>
       <use x="83.789062" xlink:href="#DejaVuSans-34"/>
       <use x="147.412109" xlink:href="#DejaVuSans-30"/>
      </g>
     </g>
    </g>
    <g id="xtick_2">
     <g id="line2d_3">
      <path clip-path="url(#pcb5d818118)" d="M 300.745532 269.224068 
L 300.745532 79.831932 
" style="fill:none;stroke:#b0b0b0;stroke-linecap:square;stroke-width:0.8;"/>
     </g>
     <g id="line2d_4">
      <g>
       <use style="stroke:#000000;stroke-width:0.8;" x="300.745532" xlink:href="#m833f9d311f" y="269.224068"/>
      </g>
     </g>
     <g id="text_2">
      <!-- −30 -->
      <g transform="translate(290.193188 283.822505)scale(0.1 -0.1)">
       <defs>
        <path d="M 2597 2516 
Q 3050 2419 3304 2112 
Q 3559 1806 3559 1356 
Q 3559 666 3084 287 
Q 2609 -91 1734 -91 
Q 1441 -91 1130 -33 
Q 819 25 488 141 
L 488 750 
Q 750 597 1062 519 
Q 1375 441 1716 441 
Q 2309 441 2620 675 
Q 2931 909 2931 1356 
Q 2931 1769 2642 2001 
Q 2353 2234 1838 2234 
L 1294 2234 
L 1294 2753 
L 1863 2753 
Q 2328 2753 2575 2939 
Q 2822 3125 2822 3475 
Q 2822 3834 2567 4026 
Q 2313 4219 1838 4219 
Q 1578 4219 1281 4162 
Q 984 4106 628 3988 
L 628 4550 
Q 988 4650 1302 4700 
Q 1616 4750 1894 4750 
Q 2613 4750 3031 4423 
Q 3450 4097 3450 3541 
Q 3450 3153 3228 2886 
Q 3006 2619 2597 2516 
z
" id="DejaVuSans-33" transform="scale(0.015625)"/>
       </defs>
       <use xlink:href="#DejaVuSans-2212"/>
       <use x="83.789062" xlink:href="#DejaVuSans-33"/>
       <use x="147.412109" xlink:href="#DejaVuSans-30"/>
      </g>
     </g>
    </g>
    <g id="xtick_3">
     <g id="line2d_5">
      <path clip-path="url(#pcb5d818118)" d="M 224.762553 269.224068 
L 224.762553 79.831932 
" style="fill:none;stroke:#b0b0b0;stroke-linecap:square;stroke-width:0.8;"/>
     </g>
     <g id="line2d_6">
      <g>
       <use style="stroke:#000000;stroke-width:0.8;" x="224.762553" xlink:href="#m833f9d311f" y="269.224068"/>
      </g>
     </g>
     <g id="text_3">
      <!-- −20 -->
      <g transform="translate(214.210209 283.822505)scale(0.1 -0.1)">
       <defs>
        <path d="M 1228 531 
L 3431 531 
L 3431 0 
L 469 0 
L 469 531 
Q 828 903 1448 1529 
Q 2069 2156 2228 2338 
Q 2531 2678 2651 2914 
Q 2772 3150 2772 3378 
Q 2772 3750 2511 3984 
Q 2250 4219 1831 4219 
Q 1534 4219 1204 4116 
Q 875 4013 500 3803 
L 500 4441 
Q 881 4594 1212 4672 
Q 1544 4750 1819 4750 
Q 2544 4750 2975 4387 
Q 3406 4025 3406 3419 
Q 3406 3131 3298 2873 
Q 3191 2616 2906 2266 
Q 2828 2175 2409 1742 
Q 1991 1309 1228 531 
z
" id="DejaVuSans-32" transform="scale(0.015625)"/>
       </defs>
       <use xlink:href="#DejaVuSans-2212"/>
       <use x="83.789062" xlink:href="#DejaVuSans-32"/>
       <use x="147.412109" xlink:href="#DejaVuSans-30"/>
      </g>
     </g>
    </g>
    <g id="xtick_4">
     <g id="line2d_7">
      <path clip-path="url(#pcb5d818118)" d="M 148.779574 269.224068 
L 148.779574 79.831932 
" style="fill:none;stroke:#b0b0b0;stroke-linecap:square;stroke-width:0.8;"/>
     </g>
     <g id="line2d_8">
      <g>
       <use style="stroke:#000000;stroke-width:0.8;" x="148.779574" xlink:href="#m833f9d311f" y="269.224068"/>
      </g>
     </g>
     <g id="text_4">
      <!-- −10 -->
      <g transform="translate(138.227231 283.822505)scale(0.1 -0.1)">
       <defs>
        <path d="M 794 531 
L 1825 531 
L 1825 4091 
L 703 3866 
L 703 4441 
L 1819 4666 
L 2450 4666 
L 2450 531 
L 3481 531 
L 3481 0 
L 794 0 
L 794 531 
z
" id="DejaVuSans-31" transform="scale(0.015625)"/>
       </defs>
       <use xlink:href="#DejaVuSans-2212"/>
       <use x="83.789062" xlink:href="#DejaVuSans-31"/>
       <use x="147.412109" xlink:href="#DejaVuSans-30"/>
      </g>
     </g>
    </g>
    <g id="xtick_5">
     <g id="line2d_9">
      <path clip-path="url(#pcb5d818118)" d="M 72.796596 269.224068 
L 72.796596 79.831932 
" style="fill:none;stroke:#b0b0b0;stroke-linecap:square;stroke-width:0.8;"/>
     </g>
     <g id="line2d_10">
      <g>
       <use style="stroke:#000000;stroke-width:0.8;" x="72.796596" xlink:href="#m833f9d311f" y="269.224068"/>
      </g>
     </g>
     <g id="text_5">
      <!-- 0 -->
      <g transform="translate(69.615346 283.822505)scale(0.1 -0.1)">
       <use xlink:href="#DejaVuSans-30"/>
      </g>
     </g>
    </g>
    <g id="text_6">
     <!-- y [m] -->
     <g transform="translate(222.839687 297.50063)scale(0.1 -0.1)">
      <defs>
       <path d="M 2059 -325 
Q 1816 -950 1584 -1140 
Q 1353 -1331 966 -1331 
L 506 -1331 
L 506 -850 
L 844 -850 
Q 1081 -850 1212 -737 
Q 1344 -625 1503 -206 
L 1606 56 
L 191 3500 
L 800 3500 
L 1894 763 
L 2988 3500 
L 3597 3500 
L 2059 -325 
z
" id="DejaVuSans-79" transform="scale(0.015625)"/>
       <path id="DejaVuSans-20" transform="scale(0.015625)"/>
       <path d="M 550 4863 
L 1875 4863 
L 1875 4416 
L 1125 4416 
L 1125 -397 
L 1875 -397 
L 1875 -844 
L 550 -844 
L 550 4863 
z
" id="DejaVuSans-5b" transform="scale(0.015625)"/>
       <path d="M 3328 2828 
Q 3544 3216 3844 3400 
Q 4144 3584 4550 3584 
Q 5097 3584 5394 3201 
Q 5691 2819 5691 2113 
L 5691 0 
L 5113 0 
L 5113 2094 
Q 5113 2597 4934 2840 
Q 4756 3084 4391 3084 
Q 3944 3084 3684 2787 
Q 3425 2491 3425 1978 
L 3425 0 
L 2847 0 
L 2847 2094 
Q 2847 2600 2669 2842 
Q 2491 3084 2119 3084 
Q 1678 3084 1418 2786 
Q 1159 2488 1159 1978 
L 1159 0 
L 581 0 
L 581 3500 
L 1159 3500 
L 1159 2956 
Q 1356 3278 1631 3431 
Q 1906 3584 2284 3584 
Q 2666 3584 2933 3390 
Q 3200 3197 3328 2828 
z
" id="DejaVuSans-6d" transform="scale(0.015625)"/>
       <path d="M 1947 4863 
L 1947 -844 
L 622 -844 
L 622 -397 
L 1369 -397 
L 1369 4416 
L 622 4416 
L 622 4863 
L 1947 4863 
z
" id="DejaVuSans-5d" transform="scale(0.015625)"/>
      </defs>
      <use xlink:href="#DejaVuSans-79"/>
      <use x="59.179688" xlink:href="#DejaVuSans-20"/>
      <use x="90.966797" xlink:href="#DejaVuSans-5b"/>
      <use x="129.980469" xlink:href="#DejaVuSans-6d"/>
      <use x="227.392578" xlink:href="#DejaVuSans-5d"/>
     </g>
    </g>
   </g>
   <g id="matplotlib.axis_2">
    <g id="ytick_1">
     <g id="line2d_11">
      <path clip-path="url(#pcb5d818118)" d="M 57.6 269.224068 
L 414.72 269.224068 
" style="fill:none;stroke:#b0b0b0;stroke-linecap:square;stroke-width:0.8;"/>
     </g>
     <g id="line2d_12">
      <defs>
       <path d="M 0 0 
L -3.5 0 
" id="mf4af83bfde" style="stroke:#000000;stroke-width:0.8;"/>
      </defs>
      <g>
       <use style="stroke:#000000;stroke-width:0.8;" x="57.6" xlink:href="#mf4af83bfde" y="269.224068"/>
      </g>
     </g>
     <g id="text_7">
      <!-- 5 -->
      <g transform="translate(44.2375 273.023286)scale(0.1 -0.1)">
       <defs>
        <path d="M 691 4666 
L 3169 4666 
L 3169 4134 
L 1269 4134 
L 1269 2991 
Q 1406 3038 1543 3061 
Q 1681 3084 1819 3084 
Q 2600 3084 3056 2656 
Q 3513 2228 3513 1497 
Q 3513 744 3044 326 
Q 2575 -91 1722 -91 
Q 1428 -91 1123 -41 
Q 819 9 494 109 
L 494 744 
Q 775 591 1075 516 
Q 1375 441 1709 441 
Q 2250 441 2565 725 
Q 2881 1009 2881 1497 
Q 2881 1984 2565 2268 
Q 2250 2553 1709 2553 
Q 1456 2553 1204 2497 
Q 953 2441 691 2322 
L 691 4666 
z
" id="DejaVuSans-35" transform="scale(0.015625)"/>
       </defs>
       <use xlink:href="#DejaVuSans-35"/>
      </g>
     </g>
    </g>
    <g id="ytick_2">
     <g id="line2d_13">
      <path clip-path="url(#pcb5d818118)" d="M 57.6 231.232578 
L 414.72 231.232578 
" style="fill:none;stroke:#b0b0b0;stroke-linecap:square;stroke-width:0.8;"/>
     </g>
     <g id="line2d_14">
      <g>
       <use style="stroke:#000000;stroke-width:0.8;" x="57.6" xlink:href="#mf4af83bfde" y="231.232578"/>
      </g>
     </g>
     <g id="text_8">
      <!-- 10 -->
      <g transform="translate(37.875 235.031797)scale(0.1 -0.1)">
       <use xlink:href="#DejaVuSans-31"/>
       <use x="63.623047" xlink:href="#DejaVuSans-30"/>
      </g>
     </g>
    </g>
    <g id="ytick_3">
     <g id="line2d_15">
      <path clip-path="url(#pcb5d818118)" d="M 57.6 193.241089 
L 414.72 193.241089 
" style="fill:none;stroke:#b0b0b0;stroke-linecap:square;stroke-width:0.8;"/>
     </g>
     <g id="line2d_16">
      <g>
       <use style="stroke:#000000;stroke-width:0.8;" x="57.6" xlink:href="#mf4af83bfde" y="193.241089"/>
      </g>
     </g>
     <g id="text_9">
      <!-- 15 -->
      <g transform="translate(37.875 197.040308)scale(0.1 -0.1)">
       <use xlink:href="#DejaVuSans-31"/>
       <use x="63.623047" xlink:href="#DejaVuSans-35"/>
      </g>
     </g>
    </g>
    <g id="ytick_4">
     <g id="line2d_17">
      <path clip-path="url(#pcb5d818118)" d="M 57.6 155.2496 
L 414.72 155.2496 
" style="fill:none;stroke:#b0b0b0;stroke-linecap:square;stroke-width:0.8;"/>
     </g>
     <g id="line2d_18">
      <g>
       <use style="stroke:#000000;stroke-width:0.8;" x="57.6" xlink:href="#mf4af83bfde" y="155.2496"/>
      </g>
     </g>
     <g id="text_10">
      <!-- 20 -->
      <g transform="translate(37.875 159.048818)scale(0.1 -0.1)">
       <use xlink:href="#DejaVuSans-32"/>
       <use x="63.623047" xlink:href="#DejaVuSans-30"/>
      </g>
     </g>
    </g>
    <g id="ytick_5">
     <g id="line2d_19">
      <path clip-path="url(#pcb5d818118)" d="M 57.6 117.25811 
L 414.72 117.25811 
" style="fill:none;stroke:#b0b0b0;stroke-linecap:square;stroke-width:0.8;"/>
     </g>
     <g id="line2d_20">
      <g>
       <use style="stroke:#000000;stroke-width:0.8;" x="57.6" xlink:href="#mf4af83bfde" y="117.25811"/>
      </g>
     </g>
     <g id="text_11">
      <!-- 25 -->
      <g transform="translate(37.875 121.057329)scale(0.1 -0.1)">
       <use xlink:href="#DejaVuSans-32"/>
       <use x="63.623047" xlink:href="#DejaVuSans-35"/>
      </g>
     </g>
    </g>
    <g id="text_12">
     <!-- x [m] -->
     <g transform="translate(31.795313 187.848312)rotate(-90)scale(0.1 -0.1)">
      <defs>
       <path d="M 3513 3500 
L 2247 1797 
L 3578 0 
L 2900 0 
L 1881 1375 
L 863 0 
L 184 0 
L 1544 1831 
L 300 3500 
L 978 3500 
L 1906 2253 
L 2834 3500 
L 3513 3500 
z
" id="DejaVuSans-78" transform="scale(0.015625)"/>
      </defs>
      <use xlink:href="#DejaVuSans-78"/>
      <use x="59.179688" xlink:href="#DejaVuSans-20"/>
      <use x="90.966797" xlink:href="#DejaVuSans-5b"/>
      <use x="129.980469" xlink:href="#DejaVuSans-6d"/>
      <use x="227.392578" xlink:href="#DejaVuSans-5d"/>
     </g>
    </g>
   </g>
   <g id="line2d_21">
    <path clip-path="url(#pcb5d818118)" d="M 72.796596 307.215557 
L 72.68563 259.040801 
L 72.73852 250.483005 
L 73.00362 243.416484 
L 73.47294 236.824425 
L 74.149841 230.441285 
L 75.03493 224.198208 
L 76.129163 218.065179 
L 77.428354 212.051231 
L 78.926874 206.164637 
L 80.629922 200.374241 
L 82.533703 194.688119 
L 84.633439 189.113841 
L 86.939951 183.621391 
L 89.433417 178.255635 
L 92.126228 172.987004 
L 95.015258 167.823386 
L 98.09693 162.772476 
L 101.344218 157.875119 
L 104.773301 153.103475 
L 108.379556 148.46449 
L 112.158043 143.964899 
L 116.10352 139.611219 
L 120.210463 135.40974 
L 124.473083 131.366516 
L 128.885339 127.48736 
L 133.440953 123.777831 
L 138.133424 120.243233 
L 142.956043 116.8886 
L 147.901904 113.718695 
L 152.96392 110.738 
L 158.134833 107.95071 
L 163.407229 105.360731 
L 168.773552 102.971667 
L 174.226114 100.786824 
L 179.757112 98.8092 
L 185.358639 97.041481 
L 191.022698 95.486041 
L 196.741215 94.144939 
L 202.506054 93.019913 
L 208.309027 92.112382 
L 214.182223 91.419453 
L 220.077327 90.948933 
L 225.98591 90.701282 
L 231.899548 90.67663 
L 237.809836 90.874781 
L 243.708397 91.295207 
L 249.586903 91.937061 
L 255.43708 92.799172 
L 261.250728 93.88005 
L 267.019729 95.177895 
L 272.736062 96.690594 
L 278.391816 98.415733 
L 284.017217 100.36457 
L 289.565494 102.52295 
L 295.028979 104.887514 
L 300.400165 107.454618 
L 305.671716 110.220341 
L 310.836478 113.180493 
L 315.887488 116.330624 
L 320.817985 119.666037 
L 325.653643 123.206314 
L 330.354043 126.924118 
L 334.912956 130.813947 
L 339.324399 134.870083 
L 343.582636 139.086607 
L 347.682187 143.457407 
L 351.643858 148.007212 
L 355.434354 152.700417 
L 359.048906 157.530269 
L 362.483029 162.489872 
L 365.732527 167.572194 
L 368.793495 172.770081 
L 371.680922 178.112233 
L 374.370244 183.556642 
L 376.858387 189.095718 
L 379.142585 194.721799 
L 381.220379 200.427166 
L 383.101374 206.242789 
L 384.76914 212.122935 
L 386.222106 218.059629 
L 387.45901 224.044891 
L 388.484929 230.110768 
L 389.290288 236.209656 
L 389.874734 242.333467 
L 390.238216 248.474155 
L 390.381194 254.664197 
L 390.301063 260.774408 
L 390.01056 265.775517 
L 389.73251 269.151035 
L 389.73251 269.151035 
" style="fill:none;stroke:#0000ff;stroke-linecap:square;stroke-width:1.5;"/>
   </g>
   <g id="line2d_22">
    <path clip-path="url(#pcb5d818118)" d="M 72.796596 307.215557 
L 72.685576 261.585206 
L 72.739722 253.878056 
L 73.005531 247.420528 
L 73.477347 241.343053 
L 74.15453 235.472627 
L 75.037006 229.744519 
L 76.125721 224.130481 
L 77.416733 218.638276 
L 78.904666 213.275342 
L 80.594702 208.014057 
L 82.483153 202.862388 
L 84.5653 197.827977 
L 86.835555 192.91808 
L 89.304963 188.107363 
L 91.951904 183.435833 
L 94.788871 178.87893 
L 97.811779 174.44476 
L 101.016032 170.141234 
L 104.372983 166.003893 
L 107.898435 162.010313 
L 111.586607 158.167551 
L 115.431349 154.482395 
L 119.426165 150.961356 
L 123.564242 147.610648 
L 127.838463 144.436174 
L 132.241434 141.443518 
L 136.765505 138.63793 
L 141.402785 136.024312 
L 146.145168 133.607216 
L 150.984347 131.390828 
L 155.911841 129.378965 
L 160.919006 127.575065 
L 165.997061 125.982184 
L 171.137103 124.602988 
L 176.33013 123.43975 
L 181.567058 122.494348 
L 186.83874 121.768262 
L 192.135986 121.262573 
L 197.449581 120.97796 
L 202.770305 120.914705 
L 208.088951 121.072692 
L 213.396342 121.451407 
L 218.719473 122.054799 
L 224.012695 122.879713 
L 229.26685 123.92443 
L 234.472883 125.186843 
L 239.621864 126.664463 
L 244.705001 128.354426 
L 249.713659 130.253499 
L 254.639376 132.358095 
L 259.473877 134.664274 
L 264.209093 137.167761 
L 268.868268 139.882944 
L 273.411063 142.788443 
L 277.829953 145.878929 
L 282.117674 149.148773 
L 286.267242 152.592064 
L 290.271956 156.202621 
L 294.150925 160.000026 
L 297.870373 163.953633 
L 301.424409 168.056404 
L 304.807475 172.301088 
L 308.014354 176.680237 
L 311.040173 181.186227 
L 313.89884 185.842696 
L 316.565186 190.611731 
L 319.035335 195.485112 
L 321.305784 200.454507 
L 323.386503 205.545477 
L 325.258875 210.716532 
L 326.920479 215.958941 
L 328.369276 221.26393 
L 329.603611 226.622701 
L 330.628234 232.062367 
L 331.433336 237.538641 
L 332.018382 243.042582 
L 332.384881 248.601674 
L 332.528472 254.170777 
L 332.449504 259.70468 
L 332.168674 264.130034 
L 331.688089 269.111992 
L 331.688089 269.111992 
" style="fill:none;stroke:#ffa500;stroke-linecap:square;stroke-width:1.5;"/>
   </g>
   <g id="line2d_23">
    <path clip-path="url(#pcb5d818118)" d="M 72.796596 307.215557 
L 72.685615 265.215807 
L 72.739568 258.849126 
L 73.009491 253.327035 
L 73.490374 248.04331 
L 74.18071 242.905392 
L 75.074807 237.915491 
L 76.167363 233.077254 
L 77.452108 228.395343 
L 78.931013 223.846065 
L 80.598082 219.436248 
L 82.458598 215.144812 
L 84.493559 211.007088 
L 86.723932 206.976261 
L 89.129936 203.087748 
L 91.703809 199.34877 
L 94.456193 195.742286 
L 97.361343 192.300111 
L 100.431018 189.006184 
L 103.658462 185.868785 
L 107.036345 182.895835 
L 110.556803 180.094862 
L 114.186365 177.490066 
L 117.939734 175.068454 
L 121.80791 172.836077 
L 125.781533 170.798505 
L 129.850933 168.9608 
L 134.006157 167.32751 
L 138.23701 165.90265 
L 142.533088 164.689694 
L 146.883815 163.691562 
L 151.278474 162.910621 
L 155.706242 162.348671 
L 160.156225 162.00695 
L 164.617489 161.886127 
L 169.079094 161.986307 
L 173.530122 162.30703 
L 177.98975 162.851702 
L 182.416657 163.617291 
L 186.79997 164.601631 
L 191.128968 165.802003 
L 195.393112 167.215153 
L 199.58207 168.837296 
L 203.68575 170.664137 
L 207.694324 172.690881 
L 211.598254 174.912257 
L 215.413517 177.339446 
L 219.104303 179.951793 
L 222.661917 182.742566 
L 226.078055 185.704624 
L 229.344822 188.830444 
L 232.454756 192.112144 
L 235.42004 195.565005 
L 238.212574 199.158826 
L 240.826157 202.884629 
L 243.255081 206.733179 
L 245.49415 210.695015 
L 247.55165 214.787908 
L 249.407769 218.97579 
L 251.058807 223.248501 
L 252.501604 227.595765 
L 253.740995 232.03664 
L 254.764614 236.531964 
L 255.5709 241.071114 
L 256.161984 245.673645 
L 256.531357 250.299047 
L 256.679085 254.936612 
L 256.604553 259.606037 
L 256.348715 263.169279 
L 255.739492 268.262371 
L 255.611059 269.190437 
L 255.611059 269.190437 
" style="fill:none;stroke:#ff0000;stroke-linecap:square;stroke-width:1.5;"/>
   </g>
   <g id="line2d_24">
    <path clip-path="url(#pcb5d818118)" d="M 72.796596 307.215557 
L 72.685496 268.846498 
L 72.692815 262.021481 
L 72.914908 257.361557 
L 73.361649 252.731231 
L 74.038422 248.027017 
L 74.902281 243.560333 
L 75.934015 239.38585 
L 77.136407 235.445211 
L 78.514762 231.689849 
L 80.068634 228.099857 
L 81.799243 224.658549 
L 83.710799 221.351983 
L 85.796809 218.189236 
L 88.04944 215.179275 
L 90.459701 212.330706 
L 93.017612 209.651565 
L 95.712362 207.149173 
L 98.551718 204.815148 
L 101.526231 202.658698 
L 104.604709 200.700822 
L 107.795625 198.934376 
L 111.087549 197.366357 
L 114.4685 196.002985 
L 117.92602 194.849667 
L 121.423595 193.916507 
L 124.971118 193.198745 
L 128.555423 192.699153 
L 132.163165 192.419638 
L 135.78089 192.36123 
L 139.395096 192.524088 
L 142.992301 192.907496 
L 146.559101 193.509875 
L 150.082234 194.328796 
L 153.571684 195.368627 
L 156.990579 196.620428 
L 160.326178 198.079211 
L 163.566114 199.739197 
L 166.698446 201.593849 
L 169.711712 203.635906 
L 172.594972 205.857422 
L 175.337853 208.249803 
L 177.947346 210.8214 
L 180.395378 213.546878 
L 182.673336 216.415763 
L 184.773334 219.417112 
L 186.688234 222.539565 
L 188.422433 225.793142 
L 189.956941 229.145288 
L 191.286898 232.583479 
L 192.408277 236.094998 
L 193.323166 239.690664 
L 194.021097 243.334416 
L 194.500528 247.013048 
L 194.761743 250.737623 
L 194.801028 254.470875 
L 194.620984 258.053699 
L 194.218478 261.259692 
L 193.382312 265.956389 
L 192.747298 269.128808 
L 192.747298 269.128808 
" style="fill:none;stroke:#008000;stroke-linecap:square;stroke-width:1.5;"/>
   </g>
   <g id="patch_3">
    <path d="M 57.6 269.224068 
L 57.6 79.831932 
" style="fill:none;stroke:#000000;stroke-linecap:square;stroke-linejoin:miter;stroke-width:0.8;"/>
   </g>
   <g id="patch_4">
    <path d="M 414.72 269.224068 
L 414.72 79.831932 
" style="fill:none;stroke:#000000;stroke-linecap:square;stroke-linejoin:miter;stroke-width:0.8;"/>
   </g>
   <g id="patch_5">
    <path d="M 57.6 269.224068 
L 414.72 269.224068 
" style="fill:none;stroke:#000000;stroke-linecap:square;stroke-linejoin:miter;stroke-width:0.8;"/>
   </g>
   <g id="patch_6">
    <path d="M 57.6 79.831932 
L 414.72 79.831932 
" style="fill:none;stroke:#000000;stroke-linecap:square;stroke-linejoin:miter;stroke-width:0.8;"/>
   </g>
   <g id="text_13">
    <!-- Trajectoire en fonction de la vitesse -->
    <g transform="translate(129.40875 73.831932)scale(0.12 -0.12)">
     <defs>
      <path d="M -19 4666 
L 3928 4666 
L 3928 4134 
L 2272 4134 
L 2272 0 
L 1638 0 
L 1638 4134 
L -19 4134 
L -19 4666 
z
" id="DejaVuSans-54" transform="scale(0.015625)"/>
      <path d="M 2631 2963 
Q 2534 3019 2420 3045 
Q 2306 3072 2169 3072 
Q 1681 3072 1420 2755 
Q 1159 2438 1159 1844 
L 1159 0 
L 581 0 
L 581 3500 
L 1159 3500 
L 1159 2956 
Q 1341 3275 1631 3429 
Q 1922 3584 2338 3584 
Q 2397 3584 2469 3576 
Q 2541 3569 2628 3553 
L 2631 2963 
z
" id="DejaVuSans-72" transform="scale(0.015625)"/>
      <path d="M 2194 1759 
Q 1497 1759 1228 1600 
Q 959 1441 959 1056 
Q 959 750 1161 570 
Q 1363 391 1709 391 
Q 2188 391 2477 730 
Q 2766 1069 2766 1631 
L 2766 1759 
L 2194 1759 
z
M 3341 1997 
L 3341 0 
L 2766 0 
L 2766 531 
Q 2569 213 2275 61 
Q 1981 -91 1556 -91 
Q 1019 -91 701 211 
Q 384 513 384 1019 
Q 384 1609 779 1909 
Q 1175 2209 1959 2209 
L 2766 2209 
L 2766 2266 
Q 2766 2663 2505 2880 
Q 2244 3097 1772 3097 
Q 1472 3097 1187 3025 
Q 903 2953 641 2809 
L 641 3341 
Q 956 3463 1253 3523 
Q 1550 3584 1831 3584 
Q 2591 3584 2966 3190 
Q 3341 2797 3341 1997 
z
" id="DejaVuSans-61" transform="scale(0.015625)"/>
      <path d="M 603 3500 
L 1178 3500 
L 1178 -63 
Q 1178 -731 923 -1031 
Q 669 -1331 103 -1331 
L -116 -1331 
L -116 -844 
L 38 -844 
Q 366 -844 484 -692 
Q 603 -541 603 -63 
L 603 3500 
z
M 603 4863 
L 1178 4863 
L 1178 4134 
L 603 4134 
L 603 4863 
z
" id="DejaVuSans-6a" transform="scale(0.015625)"/>
      <path d="M 3597 1894 
L 3597 1613 
L 953 1613 
Q 991 1019 1311 708 
Q 1631 397 2203 397 
Q 2534 397 2845 478 
Q 3156 559 3463 722 
L 3463 178 
Q 3153 47 2828 -22 
Q 2503 -91 2169 -91 
Q 1331 -91 842 396 
Q 353 884 353 1716 
Q 353 2575 817 3079 
Q 1281 3584 2069 3584 
Q 2775 3584 3186 3129 
Q 3597 2675 3597 1894 
z
M 3022 2063 
Q 3016 2534 2758 2815 
Q 2500 3097 2075 3097 
Q 1594 3097 1305 2825 
Q 1016 2553 972 2059 
L 3022 2063 
z
" id="DejaVuSans-65" transform="scale(0.015625)"/>
      <path d="M 3122 3366 
L 3122 2828 
Q 2878 2963 2633 3030 
Q 2388 3097 2138 3097 
Q 1578 3097 1268 2742 
Q 959 2388 959 1747 
Q 959 1106 1268 751 
Q 1578 397 2138 397 
Q 2388 397 2633 464 
Q 2878 531 3122 666 
L 3122 134 
Q 2881 22 2623 -34 
Q 2366 -91 2075 -91 
Q 1284 -91 818 406 
Q 353 903 353 1747 
Q 353 2603 823 3093 
Q 1294 3584 2113 3584 
Q 2378 3584 2631 3529 
Q 2884 3475 3122 3366 
z
" id="DejaVuSans-63" transform="scale(0.015625)"/>
      <path d="M 1172 4494 
L 1172 3500 
L 2356 3500 
L 2356 3053 
L 1172 3053 
L 1172 1153 
Q 1172 725 1289 603 
Q 1406 481 1766 481 
L 2356 481 
L 2356 0 
L 1766 0 
Q 1100 0 847 248 
Q 594 497 594 1153 
L 594 3053 
L 172 3053 
L 172 3500 
L 594 3500 
L 594 4494 
L 1172 4494 
z
" id="DejaVuSans-74" transform="scale(0.015625)"/>
      <path d="M 1959 3097 
Q 1497 3097 1228 2736 
Q 959 2375 959 1747 
Q 959 1119 1226 758 
Q 1494 397 1959 397 
Q 2419 397 2687 759 
Q 2956 1122 2956 1747 
Q 2956 2369 2687 2733 
Q 2419 3097 1959 3097 
z
M 1959 3584 
Q 2709 3584 3137 3096 
Q 3566 2609 3566 1747 
Q 3566 888 3137 398 
Q 2709 -91 1959 -91 
Q 1206 -91 779 398 
Q 353 888 353 1747 
Q 353 2609 779 3096 
Q 1206 3584 1959 3584 
z
" id="DejaVuSans-6f" transform="scale(0.015625)"/>
      <path d="M 603 3500 
L 1178 3500 
L 1178 0 
L 603 0 
L 603 3500 
z
M 603 4863 
L 1178 4863 
L 1178 4134 
L 603 4134 
L 603 4863 
z
" id="DejaVuSans-69" transform="scale(0.015625)"/>
      <path d="M 3513 2113 
L 3513 0 
L 2938 0 
L 2938 2094 
Q 2938 2591 2744 2837 
Q 2550 3084 2163 3084 
Q 1697 3084 1428 2787 
Q 1159 2491 1159 1978 
L 1159 0 
L 581 0 
L 581 3500 
L 1159 3500 
L 1159 2956 
Q 1366 3272 1645 3428 
Q 1925 3584 2291 3584 
Q 2894 3584 3203 3211 
Q 3513 2838 3513 2113 
z
" id="DejaVuSans-6e" transform="scale(0.015625)"/>
      <path d="M 2375 4863 
L 2375 4384 
L 1825 4384 
Q 1516 4384 1395 4259 
Q 1275 4134 1275 3809 
L 1275 3500 
L 2222 3500 
L 2222 3053 
L 1275 3053 
L 1275 0 
L 697 0 
L 697 3053 
L 147 3053 
L 147 3500 
L 697 3500 
L 697 3744 
Q 697 4328 969 4595 
Q 1241 4863 1831 4863 
L 2375 4863 
z
" id="DejaVuSans-66" transform="scale(0.015625)"/>
      <path d="M 2906 2969 
L 2906 4863 
L 3481 4863 
L 3481 0 
L 2906 0 
L 2906 525 
Q 2725 213 2448 61 
Q 2172 -91 1784 -91 
Q 1150 -91 751 415 
Q 353 922 353 1747 
Q 353 2572 751 3078 
Q 1150 3584 1784 3584 
Q 2172 3584 2448 3432 
Q 2725 3281 2906 2969 
z
M 947 1747 
Q 947 1113 1208 752 
Q 1469 391 1925 391 
Q 2381 391 2643 752 
Q 2906 1113 2906 1747 
Q 2906 2381 2643 2742 
Q 2381 3103 1925 3103 
Q 1469 3103 1208 2742 
Q 947 2381 947 1747 
z
" id="DejaVuSans-64" transform="scale(0.015625)"/>
      <path d="M 603 4863 
L 1178 4863 
L 1178 0 
L 603 0 
L 603 4863 
z
" id="DejaVuSans-6c" transform="scale(0.015625)"/>
      <path d="M 191 3500 
L 800 3500 
L 1894 563 
L 2988 3500 
L 3597 3500 
L 2284 0 
L 1503 0 
L 191 3500 
z
" id="DejaVuSans-76" transform="scale(0.015625)"/>
      <path d="M 2834 3397 
L 2834 2853 
Q 2591 2978 2328 3040 
Q 2066 3103 1784 3103 
Q 1356 3103 1142 2972 
Q 928 2841 928 2578 
Q 928 2378 1081 2264 
Q 1234 2150 1697 2047 
L 1894 2003 
Q 2506 1872 2764 1633 
Q 3022 1394 3022 966 
Q 3022 478 2636 193 
Q 2250 -91 1575 -91 
Q 1294 -91 989 -36 
Q 684 19 347 128 
L 347 722 
Q 666 556 975 473 
Q 1284 391 1588 391 
Q 1994 391 2212 530 
Q 2431 669 2431 922 
Q 2431 1156 2273 1281 
Q 2116 1406 1581 1522 
L 1381 1569 
Q 847 1681 609 1914 
Q 372 2147 372 2553 
Q 372 3047 722 3315 
Q 1072 3584 1716 3584 
Q 2034 3584 2315 3537 
Q 2597 3491 2834 3397 
z
" id="DejaVuSans-73" transform="scale(0.015625)"/>
     </defs>
     <use xlink:href="#DejaVuSans-54"/>
     <use x="46.333984" xlink:href="#DejaVuSans-72"/>
     <use x="87.447266" xlink:href="#DejaVuSans-61"/>
     <use x="148.726562" xlink:href="#DejaVuSans-6a"/>
     <use x="176.509766" xlink:href="#DejaVuSans-65"/>
     <use x="238.033203" xlink:href="#DejaVuSans-63"/>
     <use x="293.013672" xlink:href="#DejaVuSans-74"/>
     <use x="332.222656" xlink:href="#DejaVuSans-6f"/>
     <use x="393.404297" xlink:href="#DejaVuSans-69"/>
     <use x="421.1875" xlink:href="#DejaVuSans-72"/>
     <use x="460.050781" xlink:href="#DejaVuSans-65"/>
     <use x="521.574219" xlink:href="#DejaVuSans-20"/>
     <use x="553.361328" xlink:href="#DejaVuSans-65"/>
     <use x="614.884766" xlink:href="#DejaVuSans-6e"/>
     <use x="678.263672" xlink:href="#DejaVuSans-20"/>
     <use x="710.050781" xlink:href="#DejaVuSans-66"/>
     <use x="745.255859" xlink:href="#DejaVuSans-6f"/>
     <use x="806.4375" xlink:href="#DejaVuSans-6e"/>
     <use x="869.816406" xlink:href="#DejaVuSans-63"/>
     <use x="924.796875" xlink:href="#DejaVuSans-74"/>
     <use x="964.005859" xlink:href="#DejaVuSans-69"/>
     <use x="991.789062" xlink:href="#DejaVuSans-6f"/>
     <use x="1052.970703" xlink:href="#DejaVuSans-6e"/>
     <use x="1116.349609" xlink:href="#DejaVuSans-20"/>
     <use x="1148.136719" xlink:href="#DejaVuSans-64"/>
     <use x="1211.613281" xlink:href="#DejaVuSans-65"/>
     <use x="1273.136719" xlink:href="#DejaVuSans-20"/>
     <use x="1304.923828" xlink:href="#DejaVuSans-6c"/>
     <use x="1332.707031" xlink:href="#DejaVuSans-61"/>
     <use x="1393.986328" xlink:href="#DejaVuSans-20"/>
     <use x="1425.773438" xlink:href="#DejaVuSans-76"/>
     <use x="1484.953125" xlink:href="#DejaVuSans-69"/>
     <use x="1512.736328" xlink:href="#DejaVuSans-74"/>
     <use x="1551.945312" xlink:href="#DejaVuSans-65"/>
     <use x="1613.46875" xlink:href="#DejaVuSans-73"/>
     <use x="1665.568359" xlink:href="#DejaVuSans-73"/>
     <use x="1717.667969" xlink:href="#DejaVuSans-65"/>
    </g>
   </g>
   <g id="legend_1">
    <g id="patch_7">
     <path d="M 334.579375 146.544432 
L 407.72 146.544432 
Q 409.72 146.544432 409.72 144.544432 
L 409.72 86.831932 
Q 409.72 84.831932 407.72 84.831932 
L 334.579375 84.831932 
Q 332.579375 84.831932 332.579375 86.831932 
L 332.579375 144.544432 
Q 332.579375 146.544432 334.579375 146.544432 
z
" style="fill:#ffffff;opacity:0.8;stroke:#cccccc;stroke-linejoin:miter;"/>
    </g>
    <g id="line2d_25">
     <path d="M 336.579375 92.93037 
L 356.579375 92.93037 
" style="fill:none;stroke:#0000ff;stroke-linecap:square;stroke-width:1.5;"/>
    </g>
    <g id="line2d_26"/>
    <g id="text_14">
     <!-- 20 km/h -->
     <g transform="translate(364.579375 96.43037)scale(0.1 -0.1)">
      <defs>
       <path d="M 581 4863 
L 1159 4863 
L 1159 1991 
L 2875 3500 
L 3609 3500 
L 1753 1863 
L 3688 0 
L 2938 0 
L 1159 1709 
L 1159 0 
L 581 0 
L 581 4863 
z
" id="DejaVuSans-6b" transform="scale(0.015625)"/>
       <path d="M 1625 4666 
L 2156 4666 
L 531 -594 
L 0 -594 
L 1625 4666 
z
" id="DejaVuSans-2f" transform="scale(0.015625)"/>
       <path d="M 3513 2113 
L 3513 0 
L 2938 0 
L 2938 2094 
Q 2938 2591 2744 2837 
Q 2550 3084 2163 3084 
Q 1697 3084 1428 2787 
Q 1159 2491 1159 1978 
L 1159 0 
L 581 0 
L 581 4863 
L 1159 4863 
L 1159 2956 
Q 1366 3272 1645 3428 
Q 1925 3584 2291 3584 
Q 2894 3584 3203 3211 
Q 3513 2838 3513 2113 
z
" id="DejaVuSans-68" transform="scale(0.015625)"/>
      </defs>
      <use xlink:href="#DejaVuSans-32"/>
      <use x="63.623047" xlink:href="#DejaVuSans-30"/>
      <use x="127.246094" xlink:href="#DejaVuSans-20"/>
      <use x="159.033203" xlink:href="#DejaVuSans-6b"/>
      <use x="216.943359" xlink:href="#DejaVuSans-6d"/>
      <use x="314.355469" xlink:href="#DejaVuSans-2f"/>
      <use x="348.046875" xlink:href="#DejaVuSans-68"/>
     </g>
    </g>
    <g id="line2d_27">
     <path d="M 336.579375 107.608495 
L 356.579375 107.608495 
" style="fill:none;stroke:#ffa500;stroke-linecap:square;stroke-width:1.5;"/>
    </g>
    <g id="line2d_28"/>
    <g id="text_15">
     <!-- 18 km/h -->
     <g transform="translate(364.579375 111.108495)scale(0.1 -0.1)">
      <defs>
       <path d="M 2034 2216 
Q 1584 2216 1326 1975 
Q 1069 1734 1069 1313 
Q 1069 891 1326 650 
Q 1584 409 2034 409 
Q 2484 409 2743 651 
Q 3003 894 3003 1313 
Q 3003 1734 2745 1975 
Q 2488 2216 2034 2216 
z
M 1403 2484 
Q 997 2584 770 2862 
Q 544 3141 544 3541 
Q 544 4100 942 4425 
Q 1341 4750 2034 4750 
Q 2731 4750 3128 4425 
Q 3525 4100 3525 3541 
Q 3525 3141 3298 2862 
Q 3072 2584 2669 2484 
Q 3125 2378 3379 2068 
Q 3634 1759 3634 1313 
Q 3634 634 3220 271 
Q 2806 -91 2034 -91 
Q 1263 -91 848 271 
Q 434 634 434 1313 
Q 434 1759 690 2068 
Q 947 2378 1403 2484 
z
M 1172 3481 
Q 1172 3119 1398 2916 
Q 1625 2713 2034 2713 
Q 2441 2713 2670 2916 
Q 2900 3119 2900 3481 
Q 2900 3844 2670 4047 
Q 2441 4250 2034 4250 
Q 1625 4250 1398 4047 
Q 1172 3844 1172 3481 
z
" id="DejaVuSans-38" transform="scale(0.015625)"/>
      </defs>
      <use xlink:href="#DejaVuSans-31"/>
      <use x="63.623047" xlink:href="#DejaVuSans-38"/>
      <use x="127.246094" xlink:href="#DejaVuSans-20"/>
      <use x="159.033203" xlink:href="#DejaVuSans-6b"/>
      <use x="216.943359" xlink:href="#DejaVuSans-6d"/>
      <use x="314.355469" xlink:href="#DejaVuSans-2f"/>
      <use x="348.046875" xlink:href="#DejaVuSans-68"/>
     </g>
    </g>
    <g id="line2d_29">
     <path d="M 336.579375 122.28662 
L 356.579375 122.28662 
" style="fill:none;stroke:#ff0000;stroke-linecap:square;stroke-width:1.5;"/>
    </g>
    <g id="line2d_30"/>
    <g id="text_16">
     <!-- 15 km/h -->
     <g transform="translate(364.579375 125.78662)scale(0.1 -0.1)">
      <use xlink:href="#DejaVuSans-31"/>
      <use x="63.623047" xlink:href="#DejaVuSans-35"/>
      <use x="127.246094" xlink:href="#DejaVuSans-20"/>
      <use x="159.033203" xlink:href="#DejaVuSans-6b"/>
      <use x="216.943359" xlink:href="#DejaVuSans-6d"/>
      <use x="314.355469" xlink:href="#DejaVuSans-2f"/>
      <use x="348.046875" xlink:href="#DejaVuSans-68"/>
     </g>
    </g>
    <g id="line2d_31">
     <path d="M 336.579375 136.964745 
L 356.579375 136.964745 
" style="fill:none;stroke:#008000;stroke-linecap:square;stroke-width:1.5;"/>
    </g>
    <g id="line2d_32"/>
    <g id="text_17">
     <!-- 12 km/h -->
     <g transform="translate(364.579375 140.464745)scale(0.1 -0.1)">
      <use xlink:href="#DejaVuSans-31"/>
      <use x="63.623047" xlink:href="#DejaVuSans-32"/>
      <use x="127.246094" xlink:href="#DejaVuSans-20"/>
      <use x="159.033203" xlink:href="#DejaVuSans-6b"/>
      <use x="216.943359" xlink:href="#DejaVuSans-6d"/>
      <use x="314.355469" xlink:href="#DejaVuSans-2f"/>
      <use x="348.046875" xlink:href="#DejaVuSans-68"/>
     </g>
    </g>
   </g>
  </g>
 </g>
 <defs>
  <clipPath id="pcb5d818118">
   <rect height="189.392135" width="357.12" x="57.6" y="79.831932"/>
  </clipPath>
 </defs>
</svg>
