<?xml version="1.0" encoding="utf-8" standalone="no"?>
<!DOCTYPE svg PUBLIC "-//W3C//DTD SVG 1.1//EN"
  "http://www.w3.org/Graphics/SVG/1.1/DTD/svg11.dtd">
<svg height="345.6pt" version="1.1" viewBox="0 0 460.8 345.6" width="460.8pt" xmlns="http://www.w3.org/2000/svg" xmlns:xlink="http://www.w3.org/1999/xlink">
 <metadata>
  <rdf:RDF xmlns:cc="http://creativecommons.org/ns#" xmlns:dc="http://purl.org/dc/elements/1.1/" xmlns:rdf="http://www.w3.org/1999/02/22-rdf-syntax-ns#">
   <cc:Work>
    <dc:type rdf:resource="http://purl.org/dc/dcmitype/StillImage"/>
    <dc:date>2023-05-12T01:05:09.606170</dc:date>
    <dc:format>image/svg+xml</dc:format>
    <dc:creator>
     <cc:Agent>
      <dc:title>Matplotlib v3.4.3, https://matplotlib.org/</dc:title>
     </cc:Agent>
    </dc:creator>
   </cc:Work>
  </rdf:RDF>
 </metadata>
 <defs>
  <style type="text/css">*{stroke-linecap:butt;stroke-linejoin:round;}</style>
 </defs>
 <g id="figure_1">
  <g id="patch_1">
   <path d="M 0 345.6 
L 460.8 345.6 
L 460.8 0 
L 0 0 
z
" style="fill:#ffffff;"/>
  </g>
  <g id="axes_1">
   <g id="patch_2">
    <path d="M 117.639028 304.44375 
L 134.137174 304.44375 
L 134.137174 39.3555 
L 117.639028 39.3555 
z
" style="fill:#ffffff;"/>
   </g>
   <g id="matplotlib.axis_1">
    <g id="xtick_1">
     <g id="line2d_1">
      <path clip-path="url(#pdebbe06738)" d="M 121.339109 304.44375 
L 121.339109 39.3555 
" style="fill:none;stroke:#b0b0b0;stroke-linecap:square;stroke-width:0.8;"/>
     </g>
     <g id="line2d_2">
      <defs>
       <path d="M 0 0 
L 0 3.5 
" id="m6b95ea9fbf" style="stroke:#000000;stroke-width:0.8;"/>
      </defs>
      <g>
       <use style="stroke:#000000;stroke-width:0.8;" x="121.339109" xlink:href="#m6b95ea9fbf" y="304.44375"/>
      </g>
     </g>
     <g id="text_1">
      <!-- 0.0 -->
      <g transform="translate(113.387547 319.042187)scale(0.1 -0.1)">
       <defs>
        <path d="M 2034 4250 
Q 1547 4250 1301 3770 
Q 1056 3291 1056 2328 
Q 1056 1369 1301 889 
Q 1547 409 2034 409 
Q 2525 409 2770 889 
Q 3016 1369 3016 2328 
Q 3016 3291 2770 3770 
Q 2525 4250 2034 4250 
z
M 2034 4750 
Q 2819 4750 3233 4129 
Q 3647 3509 3647 2328 
Q 3647 1150 3233 529 
Q 2819 -91 2034 -91 
Q 1250 -91 836 529 
Q 422 1150 422 2328 
Q 422 3509 836 4129 
Q 1250 4750 2034 4750 
z
" id="DejaVuSans-30" transform="scale(0.015625)"/>
        <path d="M 684 794 
L 1344 794 
L 1344 0 
L 684 0 
L 684 794 
z
" id="DejaVuSans-2e" transform="scale(0.015625)"/>
       </defs>
       <use xlink:href="#DejaVuSans-30"/>
       <use x="63.623047" xlink:href="#DejaVuSans-2e"/>
       <use x="95.410156" xlink:href="#DejaVuSans-30"/>
      </g>
     </g>
    </g>
    <g id="xtick_2">
     <g id="line2d_3">
      <path clip-path="url(#pdebbe06738)" d="M 133.714421 304.44375 
L 133.714421 39.3555 
" style="fill:none;stroke:#b0b0b0;stroke-linecap:square;stroke-width:0.8;"/>
     </g>
     <g id="line2d_4">
      <g>
       <use style="stroke:#000000;stroke-width:0.8;" x="133.714421" xlink:href="#m6b95ea9fbf" y="304.44375"/>
      </g>
     </g>
     <g id="text_2">
      <!-- 2.5 -->
      <g transform="translate(125.762858 319.042187)scale(0.1 -0.1)">
       <defs>
        <path d="M 1228 531 
L 3431 531 
L 3431 0 
L 469 0 
L 469 531 
Q 828 903 1448 1529 
Q 2069 2156 2228 2338 
Q 2531 2678 2651 2914 
Q 2772 3150 2772 3378 
Q 2772 3750 2511 3984 
Q 2250 4219 1831 4219 
Q 1534 4219 1204 4116 
Q 875 4013 500 3803 
L 500 4441 
Q 881 4594 1212 4672 
Q 1544 4750 1819 4750 
Q 2544 4750 2975 4387 
Q 3406 4025 3406 3419 
Q 3406 3131 3298 2873 
Q 3191 2616 2906 2266 
Q 2828 2175 2409 1742 
Q 1991 1309 1228 531 
z
" id="DejaVuSans-32" transform="scale(0.015625)"/>
        <path d="M 691 4666 
L 3169 4666 
L 3169 4134 
L 1269 4134 
L 1269 2991 
Q 1406 3038 1543 3061 
Q 1681 3084 1819 3084 
Q 2600 3084 3056 2656 
Q 3513 2228 3513 1497 
Q 3513 744 3044 326 
Q 2575 -91 1722 -91 
Q 1428 -91 1123 -41 
Q 819 9 494 109 
L 494 744 
Q 775 591 1075 516 
Q 1375 441 1709 441 
Q 2250 441 2565 725 
Q 2881 1009 2881 1497 
Q 2881 1984 2565 2268 
Q 2250 2553 1709 2553 
Q 1456 2553 1204 2497 
Q 953 2441 691 2322 
L 691 4666 
z
" id="DejaVuSans-35" transform="scale(0.015625)"/>
       </defs>
       <use xlink:href="#DejaVuSans-32"/>
       <use x="63.623047" xlink:href="#DejaVuSans-2e"/>
       <use x="95.410156" xlink:href="#DejaVuSans-35"/>
      </g>
     </g>
    </g>
    <g id="text_3">
     <!-- y [m] -->
     <g transform="translate(112.567789 332.720312)scale(0.1 -0.1)">
      <defs>
       <path d="M 2059 -325 
Q 1816 -950 1584 -1140 
Q 1353 -1331 966 -1331 
L 506 -1331 
L 506 -850 
L 844 -850 
Q 1081 -850 1212 -737 
Q 1344 -625 1503 -206 
L 1606 56 
L 191 3500 
L 800 3500 
L 1894 763 
L 2988 3500 
L 3597 3500 
L 2059 -325 
z
" id="DejaVuSans-79" transform="scale(0.015625)"/>
       <path id="DejaVuSans-20" transform="scale(0.015625)"/>
       <path d="M 550 4863 
L 1875 4863 
L 1875 4416 
L 1125 4416 
L 1125 -397 
L 1875 -397 
L 1875 -844 
L 550 -844 
L 550 4863 
z
" id="DejaVuSans-5b" transform="scale(0.015625)"/>
       <path d="M 3328 2828 
Q 3544 3216 3844 3400 
Q 4144 3584 4550 3584 
Q 5097 3584 5394 3201 
Q 5691 2819 5691 2113 
L 5691 0 
L 5113 0 
L 5113 2094 
Q 5113 2597 4934 2840 
Q 4756 3084 4391 3084 
Q 3944 3084 3684 2787 
Q 3425 2491 3425 1978 
L 3425 0 
L 2847 0 
L 2847 2094 
Q 2847 2600 2669 2842 
Q 2491 3084 2119 3084 
Q 1678 3084 1418 2786 
Q 1159 2488 1159 1978 
L 1159 0 
L 581 0 
L 581 3500 
L 1159 3500 
L 1159 2956 
Q 1356 3278 1631 3431 
Q 1906 3584 2284 3584 
Q 2666 3584 2933 3390 
Q 3200 3197 3328 2828 
z
" id="DejaVuSans-6d" transform="scale(0.015625)"/>
       <path d="M 1947 4863 
L 1947 -844 
L 622 -844 
L 622 -397 
L 1369 -397 
L 1369 4416 
L 622 4416 
L 622 4863 
L 1947 4863 
z
" id="DejaVuSans-5d" transform="scale(0.015625)"/>
      </defs>
      <use xlink:href="#DejaVuSans-79"/>
      <use x="59.179688" xlink:href="#DejaVuSans-20"/>
      <use x="90.966797" xlink:href="#DejaVuSans-5b"/>
      <use x="129.980469" xlink:href="#DejaVuSans-6d"/>
      <use x="227.392578" xlink:href="#DejaVuSans-5d"/>
     </g>
    </g>
   </g>
   <g id="matplotlib.axis_2">
    <g id="ytick_1">
     <g id="line2d_5">
      <path clip-path="url(#pdebbe06738)" d="M 117.639028 286.861728 
L 134.137174 286.861728 
" style="fill:none;stroke:#b0b0b0;stroke-linecap:square;stroke-width:0.8;"/>
     </g>
     <g id="line2d_6">
      <defs>
       <path d="M 0 0 
L -3.5 0 
" id="m756fc2b364" style="stroke:#000000;stroke-width:0.8;"/>
      </defs>
      <g>
       <use style="stroke:#000000;stroke-width:0.8;" x="117.639028" xlink:href="#m756fc2b364" y="286.861728"/>
      </g>
     </g>
     <g id="text_4">
      <!-- 0 -->
      <g transform="translate(104.276528 290.660946)scale(0.1 -0.1)">
       <use xlink:href="#DejaVuSans-30"/>
      </g>
     </g>
    </g>
    <g id="ytick_2">
     <g id="line2d_7">
      <path clip-path="url(#pdebbe06738)" d="M 117.639028 237.360482 
L 134.137174 237.360482 
" style="fill:none;stroke:#b0b0b0;stroke-linecap:square;stroke-width:0.8;"/>
     </g>
     <g id="line2d_8">
      <g>
       <use style="stroke:#000000;stroke-width:0.8;" x="117.639028" xlink:href="#m756fc2b364" y="237.360482"/>
      </g>
     </g>
     <g id="text_5">
      <!-- 10 -->
      <g transform="translate(97.914028 241.159701)scale(0.1 -0.1)">
       <defs>
        <path d="M 794 531 
L 1825 531 
L 1825 4091 
L 703 3866 
L 703 4441 
L 1819 4666 
L 2450 4666 
L 2450 531 
L 3481 531 
L 3481 0 
L 794 0 
L 794 531 
z
" id="DejaVuSans-31" transform="scale(0.015625)"/>
       </defs>
       <use xlink:href="#DejaVuSans-31"/>
       <use x="63.623047" xlink:href="#DejaVuSans-30"/>
      </g>
     </g>
    </g>
    <g id="ytick_3">
     <g id="line2d_9">
      <path clip-path="url(#pdebbe06738)" d="M 117.639028 187.859237 
L 134.137174 187.859237 
" style="fill:none;stroke:#b0b0b0;stroke-linecap:square;stroke-width:0.8;"/>
     </g>
     <g id="line2d_10">
      <g>
       <use style="stroke:#000000;stroke-width:0.8;" x="117.639028" xlink:href="#m756fc2b364" y="187.859237"/>
      </g>
     </g>
     <g id="text_6">
      <!-- 20 -->
      <g transform="translate(97.914028 191.658455)scale(0.1 -0.1)">
       <use xlink:href="#DejaVuSans-32"/>
       <use x="63.623047" xlink:href="#DejaVuSans-30"/>
      </g>
     </g>
    </g>
    <g id="ytick_4">
     <g id="line2d_11">
      <path clip-path="url(#pdebbe06738)" d="M 117.639028 138.357991 
L 134.137174 138.357991 
" style="fill:none;stroke:#b0b0b0;stroke-linecap:square;stroke-width:0.8;"/>
     </g>
     <g id="line2d_12">
      <g>
       <use style="stroke:#000000;stroke-width:0.8;" x="117.639028" xlink:href="#m756fc2b364" y="138.357991"/>
      </g>
     </g>
     <g id="text_7">
      <!-- 30 -->
      <g transform="translate(97.914028 142.15721)scale(0.1 -0.1)">
       <defs>
        <path d="M 2597 2516 
Q 3050 2419 3304 2112 
Q 3559 1806 3559 1356 
Q 3559 666 3084 287 
Q 2609 -91 1734 -91 
Q 1441 -91 1130 -33 
Q 819 25 488 141 
L 488 750 
Q 750 597 1062 519 
Q 1375 441 1716 441 
Q 2309 441 2620 675 
Q 2931 909 2931 1356 
Q 2931 1769 2642 2001 
Q 2353 2234 1838 2234 
L 1294 2234 
L 1294 2753 
L 1863 2753 
Q 2328 2753 2575 2939 
Q 2822 3125 2822 3475 
Q 2822 3834 2567 4026 
Q 2313 4219 1838 4219 
Q 1578 4219 1281 4162 
Q 984 4106 628 3988 
L 628 4550 
Q 988 4650 1302 4700 
Q 1616 4750 1894 4750 
Q 2613 4750 3031 4423 
Q 3450 4097 3450 3541 
Q 3450 3153 3228 2886 
Q 3006 2619 2597 2516 
z
" id="DejaVuSans-33" transform="scale(0.015625)"/>
       </defs>
       <use xlink:href="#DejaVuSans-33"/>
       <use x="63.623047" xlink:href="#DejaVuSans-30"/>
      </g>
     </g>
    </g>
    <g id="ytick_5">
     <g id="line2d_13">
      <path clip-path="url(#pdebbe06738)" d="M 117.639028 88.856746 
L 134.137174 88.856746 
" style="fill:none;stroke:#b0b0b0;stroke-linecap:square;stroke-width:0.8;"/>
     </g>
     <g id="line2d_14">
      <g>
       <use style="stroke:#000000;stroke-width:0.8;" x="117.639028" xlink:href="#m756fc2b364" y="88.856746"/>
      </g>
     </g>
     <g id="text_8">
      <!-- 40 -->
      <g transform="translate(97.914028 92.655964)scale(0.1 -0.1)">
       <defs>
        <path d="M 2419 4116 
L 825 1625 
L 2419 1625 
L 2419 4116 
z
M 2253 4666 
L 3047 4666 
L 3047 1625 
L 3713 1625 
L 3713 1100 
L 3047 1100 
L 3047 0 
L 2419 0 
L 2419 1100 
L 313 1100 
L 313 1709 
L 2253 4666 
z
" id="DejaVuSans-34" transform="scale(0.015625)"/>
       </defs>
       <use xlink:href="#DejaVuSans-34"/>
       <use x="63.623047" xlink:href="#DejaVuSans-30"/>
      </g>
     </g>
    </g>
    <g id="ytick_6">
     <g id="line2d_15">
      <path clip-path="url(#pdebbe06738)" d="M 117.639028 39.3555 
L 134.137174 39.3555 
" style="fill:none;stroke:#b0b0b0;stroke-linecap:square;stroke-width:0.8;"/>
     </g>
     <g id="line2d_16">
      <g>
       <use style="stroke:#000000;stroke-width:0.8;" x="117.639028" xlink:href="#m756fc2b364" y="39.3555"/>
      </g>
     </g>
     <g id="text_9">
      <!-- 50 -->
      <g transform="translate(97.914028 43.154719)scale(0.1 -0.1)">
       <use xlink:href="#DejaVuSans-35"/>
       <use x="63.623047" xlink:href="#DejaVuSans-30"/>
      </g>
     </g>
    </g>
    <g id="text_10">
     <!-- x [m] -->
     <g transform="translate(91.83434 185.219937)rotate(-90)scale(0.1 -0.1)">
      <defs>
       <path d="M 3513 3500 
L 2247 1797 
L 3578 0 
L 2900 0 
L 1881 1375 
L 863 0 
L 184 0 
L 1544 1831 
L 300 3500 
L 978 3500 
L 1906 2253 
L 2834 3500 
L 3513 3500 
z
" id="DejaVuSans-78" transform="scale(0.015625)"/>
      </defs>
      <use xlink:href="#DejaVuSans-78"/>
      <use x="59.179688" xlink:href="#DejaVuSans-20"/>
      <use x="90.966797" xlink:href="#DejaVuSans-5b"/>
      <use x="129.980469" xlink:href="#DejaVuSans-6d"/>
      <use x="227.392578" xlink:href="#DejaVuSans-5d"/>
     </g>
    </g>
   </g>
   <g id="line2d_17">
    <path clip-path="url(#pdebbe06738)" d="M 121.339109 286.861728 
L 121.228697 263.749639 
L 121.122777 259.015661 
L 121.277535 255.775314 
L 121.643391 252.774289 
L 122.232316 249.797802 
L 123.07414 246.70927 
L 124.226974 243.34704 
L 125.907983 239.173544 
L 130.095125 229.021412 
L 131.270101 225.428279 
L 132.125583 222.107067 
L 132.734167 218.855909 
L 133.11672 215.603925 
L 133.288024 212.228868 
L 133.34743 206.502991 
L 133.110672 203.874941 
L 132.656476 201.316598 
L 131.971392 198.728079 
L 131.048787 196.119632 
L 129.821189 193.333724 
L 128.139906 190.09489 
L 121.695889 178.180865 
L 120.519231 175.239849 
L 119.635652 172.438568 
L 119.000917 169.69553 
L 118.591834 166.944056 
L 118.403345 164.160707 
L 118.434055 161.296209 
L 118.69293 158.276204 
L 119.204464 154.978112 
L 120.058194 151.000537 
L 123.135895 137.574811 
L 123.649965 133.806034 
L 123.924147 130.152546 
L 123.978413 126.447555 
L 123.811065 122.518758 
L 123.392373 118.072347 
L 122.594488 112.17585 
L 120.920755 100.130451 
L 120.443866 94.796397 
L 120.214604 89.729797 
L 120.202975 84.470917 
L 120.420511 78.483372 
L 120.994207 69.633997 
L 121.699837 58.084941 
L 121.918089 50.653626 
L 121.913955 43.052915 
L 121.668329 33.312419 
L 121.103305 12.800845 
L 121.079681 1.931118 
L 121.105763 -1 
L 121.105763 -1 
" style="fill:none;stroke:#0000ff;stroke-linecap:square;stroke-width:1.5;"/>
   </g>
   <g id="line2d_18">
    <path clip-path="url(#pdebbe06738)" d="M 121.339109 286.861728 
L 121.228021 263.735007 
L 121.121934 258.995923 
L 121.276131 255.751679 
L 121.640647 252.746903 
L 122.228132 249.766341 
L 123.067266 246.673291 
L 124.230645 243.261163 
L 125.936917 238.992881 
L 129.943383 229.174738 
L 131.138333 225.514639 
L 132.012301 222.125107 
L 132.633038 218.827973 
L 133.02828 215.529244 
L 133.217975 212.035563 
L 133.314843 206.520511 
L 133.10271 203.864037 
L 132.670098 201.276011 
L 132.009118 198.676602 
L 131.111089 196.055388 
L 129.91779 193.275909 
L 128.286284 190.061612 
L 125.149947 184.48918 
L 122.857257 180.186189 
L 121.408181 176.994533 
L 120.322948 174.06884 
L 119.513174 171.247601 
L 118.945827 168.469674 
L 118.600781 165.667048 
L 118.475008 162.815459 
L 118.568872 159.864807 
L 118.89455 156.716221 
L 119.490205 153.176426 
L 120.517493 148.52106 
L 122.619668 139.188047 
L 123.269876 135.116086 
L 123.650283 131.333701 
L 123.806309 127.560519 
L 123.744827 123.626097 
L 123.449819 119.284798 
L 122.850218 113.933996 
L 120.718229 96.476658 
L 120.397479 91.107686 
L 120.29959 85.706796 
L 120.420767 79.738876 
L 120.822052 71.879641 
L 121.694725 55.645119 
L 121.85297 47.736311 
L 121.793654 39.18328 
L 121.434931 25.487846 
L 121.142935 11.213889 
L 121.13296 -0.847668 
L 121.134058 -1 
L 121.134058 -1 
" style="fill:none;stroke:#ffa500;stroke-linecap:square;stroke-width:1.5;"/>
   </g>
   <g id="line2d_19">
    <path clip-path="url(#pdebbe06738)" d="M 121.339109 286.861728 
L 121.228292 263.721486 
L 121.118822 258.892328 
L 121.27368 255.637193 
L 121.641477 252.572418 
L 122.22837 249.55698 
L 123.067213 246.426633 
L 124.241982 242.932504 
L 126.082452 238.22723 
L 129.2649 230.117232 
L 130.559795 226.146593 
L 131.506126 222.534571 
L 132.193968 219.034502 
L 132.656475 215.528793 
L 132.929069 211.705636 
L 133.150757 206.355394 
L 133.010509 203.63899 
L 132.651563 201.01405 
L 132.066938 198.387707 
L 131.241434 195.704195 
L 130.141309 192.899286 
L 128.642136 189.713966 
L 126.090297 184.896009 
L 123.422518 179.712796 
L 121.943097 176.347752 
L 120.830788 173.270776 
L 119.992229 170.297086 
L 119.395584 167.365135 
L 119.019603 164.40686 
L 118.857827 161.373496 
L 118.911869 158.19013 
L 119.196937 154.733107 
L 119.76067 150.714011 
L 120.847818 144.777316 
L 122.172476 137.294092 
L 122.75068 132.70101 
L 123.069663 128.380201 
L 123.168795 123.977352 
L 123.049567 119.200712 
L 122.673004 113.445963 
L 121.631388 101.990749 
L 121.038815 93.964911 
L 120.765614 87.218822 
L 120.709768 80.227177 
L 120.877358 71.713913 
L 121.588953 44.009143 
L 121.550349 31.762132 
L 121.244882 -1 
L 121.244882 -1 
" style="fill:none;stroke:#ff0000;stroke-linecap:square;stroke-width:1.5;"/>
   </g>
   <g id="patch_3">
    <path d="M 117.639028 304.44375 
L 117.639028 39.3555 
" style="fill:none;stroke:#000000;stroke-linecap:square;stroke-linejoin:miter;stroke-width:0.8;"/>
   </g>
   <g id="patch_4">
    <path d="M 134.137174 304.44375 
L 134.137174 39.3555 
" style="fill:none;stroke:#000000;stroke-linecap:square;stroke-linejoin:miter;stroke-width:0.8;"/>
   </g>
   <g id="patch_5">
    <path d="M 117.639028 304.44375 
L 134.137174 304.44375 
" style="fill:none;stroke:#000000;stroke-linecap:square;stroke-linejoin:miter;stroke-width:0.8;"/>
   </g>
   <g id="patch_6">
    <path d="M 117.639028 39.3555 
L 134.137174 39.3555 
" style="fill:none;stroke:#000000;stroke-linecap:square;stroke-linejoin:miter;stroke-width:0.8;"/>
   </g>
  </g>
  <g id="axes_2">
   <g id="patch_7">
    <path d="M 219.823798 304.44375 
L 450 304.44375 
L 450 39.3555 
L 219.823798 39.3555 
z
" style="fill:#ffffff;"/>
   </g>
   <g id="matplotlib.axis_3">
    <g id="xtick_3">
     <g id="line2d_20">
      <path clip-path="url(#pd203de993d)" d="M 236.914821 304.44375 
L 236.914821 39.3555 
" style="fill:none;stroke:#b0b0b0;stroke-linecap:square;stroke-width:0.8;"/>
     </g>
     <g id="line2d_21">
      <g>
       <use style="stroke:#000000;stroke-width:0.8;" x="236.914821" xlink:href="#m6b95ea9fbf" y="304.44375"/>
      </g>
     </g>
     <g id="text_11">
      <!-- −0.5 -->
      <g transform="translate(224.773415 319.042187)scale(0.1 -0.1)">
       <defs>
        <path d="M 678 2272 
L 4684 2272 
L 4684 1741 
L 678 1741 
L 678 2272 
z
" id="DejaVuSans-2212" transform="scale(0.015625)"/>
       </defs>
       <use xlink:href="#DejaVuSans-2212"/>
       <use x="83.789062" xlink:href="#DejaVuSans-30"/>
       <use x="147.412109" xlink:href="#DejaVuSans-2e"/>
       <use x="179.199219" xlink:href="#DejaVuSans-35"/>
      </g>
     </g>
    </g>
    <g id="xtick_4">
     <g id="line2d_22">
      <path clip-path="url(#pd203de993d)" d="M 271.445999 304.44375 
L 271.445999 39.3555 
" style="fill:none;stroke:#b0b0b0;stroke-linecap:square;stroke-width:0.8;"/>
     </g>
     <g id="line2d_23">
      <g>
       <use style="stroke:#000000;stroke-width:0.8;" x="271.445999" xlink:href="#m6b95ea9fbf" y="304.44375"/>
      </g>
     </g>
     <g id="text_12">
      <!-- 0.0 -->
      <g transform="translate(263.494437 319.042187)scale(0.1 -0.1)">
       <use xlink:href="#DejaVuSans-30"/>
       <use x="63.623047" xlink:href="#DejaVuSans-2e"/>
       <use x="95.410156" xlink:href="#DejaVuSans-30"/>
      </g>
     </g>
    </g>
    <g id="xtick_5">
     <g id="line2d_24">
      <path clip-path="url(#pd203de993d)" d="M 305.977177 304.44375 
L 305.977177 39.3555 
" style="fill:none;stroke:#b0b0b0;stroke-linecap:square;stroke-width:0.8;"/>
     </g>
     <g id="line2d_25">
      <g>
       <use style="stroke:#000000;stroke-width:0.8;" x="305.977177" xlink:href="#m6b95ea9fbf" y="304.44375"/>
      </g>
     </g>
     <g id="text_13">
      <!-- 0.5 -->
      <g transform="translate(298.025615 319.042187)scale(0.1 -0.1)">
       <use xlink:href="#DejaVuSans-30"/>
       <use x="63.623047" xlink:href="#DejaVuSans-2e"/>
       <use x="95.410156" xlink:href="#DejaVuSans-35"/>
      </g>
     </g>
    </g>
    <g id="xtick_6">
     <g id="line2d_26">
      <path clip-path="url(#pd203de993d)" d="M 340.508355 304.44375 
L 340.508355 39.3555 
" style="fill:none;stroke:#b0b0b0;stroke-linecap:square;stroke-width:0.8;"/>
     </g>
     <g id="line2d_27">
      <g>
       <use style="stroke:#000000;stroke-width:0.8;" x="340.508355" xlink:href="#m6b95ea9fbf" y="304.44375"/>
      </g>
     </g>
     <g id="text_14">
      <!-- 1.0 -->
      <g transform="translate(332.556793 319.042187)scale(0.1 -0.1)">
       <use xlink:href="#DejaVuSans-31"/>
       <use x="63.623047" xlink:href="#DejaVuSans-2e"/>
       <use x="95.410156" xlink:href="#DejaVuSans-30"/>
      </g>
     </g>
    </g>
    <g id="xtick_7">
     <g id="line2d_28">
      <path clip-path="url(#pd203de993d)" d="M 375.039533 304.44375 
L 375.039533 39.3555 
" style="fill:none;stroke:#b0b0b0;stroke-linecap:square;stroke-width:0.8;"/>
     </g>
     <g id="line2d_29">
      <g>
       <use style="stroke:#000000;stroke-width:0.8;" x="375.039533" xlink:href="#m6b95ea9fbf" y="304.44375"/>
      </g>
     </g>
     <g id="text_15">
      <!-- 1.5 -->
      <g transform="translate(367.087971 319.042187)scale(0.1 -0.1)">
       <use xlink:href="#DejaVuSans-31"/>
       <use x="63.623047" xlink:href="#DejaVuSans-2e"/>
       <use x="95.410156" xlink:href="#DejaVuSans-35"/>
      </g>
     </g>
    </g>
    <g id="xtick_8">
     <g id="line2d_30">
      <path clip-path="url(#pd203de993d)" d="M 409.570711 304.44375 
L 409.570711 39.3555 
" style="fill:none;stroke:#b0b0b0;stroke-linecap:square;stroke-width:0.8;"/>
     </g>
     <g id="line2d_31">
      <g>
       <use style="stroke:#000000;stroke-width:0.8;" x="409.570711" xlink:href="#m6b95ea9fbf" y="304.44375"/>
      </g>
     </g>
     <g id="text_16">
      <!-- 2.0 -->
      <g transform="translate(401.619149 319.042187)scale(0.1 -0.1)">
       <use xlink:href="#DejaVuSans-32"/>
       <use x="63.623047" xlink:href="#DejaVuSans-2e"/>
       <use x="95.410156" xlink:href="#DejaVuSans-30"/>
      </g>
     </g>
    </g>
    <g id="xtick_9">
     <g id="line2d_32">
      <path clip-path="url(#pd203de993d)" d="M 444.101889 304.44375 
L 444.101889 39.3555 
" style="fill:none;stroke:#b0b0b0;stroke-linecap:square;stroke-width:0.8;"/>
     </g>
     <g id="line2d_33">
      <g>
       <use style="stroke:#000000;stroke-width:0.8;" x="444.101889" xlink:href="#m6b95ea9fbf" y="304.44375"/>
      </g>
     </g>
     <g id="text_17">
      <!-- 2.5 -->
      <g transform="translate(436.150327 319.042187)scale(0.1 -0.1)">
       <use xlink:href="#DejaVuSans-32"/>
       <use x="63.623047" xlink:href="#DejaVuSans-2e"/>
       <use x="95.410156" xlink:href="#DejaVuSans-35"/>
      </g>
     </g>
    </g>
    <g id="text_18">
     <!-- y [m] -->
     <g transform="translate(321.591586 332.720312)scale(0.1 -0.1)">
      <use xlink:href="#DejaVuSans-79"/>
      <use x="59.179688" xlink:href="#DejaVuSans-20"/>
      <use x="90.966797" xlink:href="#DejaVuSans-5b"/>
      <use x="129.980469" xlink:href="#DejaVuSans-6d"/>
      <use x="227.392578" xlink:href="#DejaVuSans-5d"/>
     </g>
    </g>
   </g>
   <g id="matplotlib.axis_4">
    <g id="ytick_7">
     <g id="line2d_34">
      <path clip-path="url(#pd203de993d)" d="M 219.823798 286.861728 
L 450 286.861728 
" style="fill:none;stroke:#b0b0b0;stroke-linecap:square;stroke-width:0.8;"/>
     </g>
     <g id="line2d_35">
      <g>
       <use style="stroke:#000000;stroke-width:0.8;" x="219.823798" xlink:href="#m756fc2b364" y="286.861728"/>
      </g>
     </g>
     <g id="text_19">
      <!-- 0 -->
      <g transform="translate(206.461298 290.660946)scale(0.1 -0.1)">
       <use xlink:href="#DejaVuSans-30"/>
      </g>
     </g>
    </g>
    <g id="ytick_8">
     <g id="line2d_36">
      <path clip-path="url(#pd203de993d)" d="M 219.823798 237.360482 
L 450 237.360482 
" style="fill:none;stroke:#b0b0b0;stroke-linecap:square;stroke-width:0.8;"/>
     </g>
     <g id="line2d_37">
      <g>
       <use style="stroke:#000000;stroke-width:0.8;" x="219.823798" xlink:href="#m756fc2b364" y="237.360482"/>
      </g>
     </g>
     <g id="text_20">
      <!-- 10 -->
      <g transform="translate(200.098798 241.159701)scale(0.1 -0.1)">
       <use xlink:href="#DejaVuSans-31"/>
       <use x="63.623047" xlink:href="#DejaVuSans-30"/>
      </g>
     </g>
    </g>
    <g id="ytick_9">
     <g id="line2d_38">
      <path clip-path="url(#pd203de993d)" d="M 219.823798 187.859237 
L 450 187.859237 
" style="fill:none;stroke:#b0b0b0;stroke-linecap:square;stroke-width:0.8;"/>
     </g>
     <g id="line2d_39">
      <g>
       <use style="stroke:#000000;stroke-width:0.8;" x="219.823798" xlink:href="#m756fc2b364" y="187.859237"/>
      </g>
     </g>
     <g id="text_21">
      <!-- 20 -->
      <g transform="translate(200.098798 191.658455)scale(0.1 -0.1)">
       <use xlink:href="#DejaVuSans-32"/>
       <use x="63.623047" xlink:href="#DejaVuSans-30"/>
      </g>
     </g>
    </g>
    <g id="ytick_10">
     <g id="line2d_40">
      <path clip-path="url(#pd203de993d)" d="M 219.823798 138.357991 
L 450 138.357991 
" style="fill:none;stroke:#b0b0b0;stroke-linecap:square;stroke-width:0.8;"/>
     </g>
     <g id="line2d_41">
      <g>
       <use style="stroke:#000000;stroke-width:0.8;" x="219.823798" xlink:href="#m756fc2b364" y="138.357991"/>
      </g>
     </g>
     <g id="text_22">
      <!-- 30 -->
      <g transform="translate(200.098798 142.15721)scale(0.1 -0.1)">
       <use xlink:href="#DejaVuSans-33"/>
       <use x="63.623047" xlink:href="#DejaVuSans-30"/>
      </g>
     </g>
    </g>
    <g id="ytick_11">
     <g id="line2d_42">
      <path clip-path="url(#pd203de993d)" d="M 219.823798 88.856746 
L 450 88.856746 
" style="fill:none;stroke:#b0b0b0;stroke-linecap:square;stroke-width:0.8;"/>
     </g>
     <g id="line2d_43">
      <g>
       <use style="stroke:#000000;stroke-width:0.8;" x="219.823798" xlink:href="#m756fc2b364" y="88.856746"/>
      </g>
     </g>
     <g id="text_23">
      <!-- 40 -->
      <g transform="translate(200.098798 92.655964)scale(0.1 -0.1)">
       <use xlink:href="#DejaVuSans-34"/>
       <use x="63.623047" xlink:href="#DejaVuSans-30"/>
      </g>
     </g>
    </g>
    <g id="ytick_12">
     <g id="line2d_44">
      <path clip-path="url(#pd203de993d)" d="M 219.823798 39.3555 
L 450 39.3555 
" style="fill:none;stroke:#b0b0b0;stroke-linecap:square;stroke-width:0.8;"/>
     </g>
     <g id="line2d_45">
      <g>
       <use style="stroke:#000000;stroke-width:0.8;" x="219.823798" xlink:href="#m756fc2b364" y="39.3555"/>
      </g>
     </g>
     <g id="text_24">
      <!-- 50 -->
      <g transform="translate(200.098798 43.154719)scale(0.1 -0.1)">
       <use xlink:href="#DejaVuSans-35"/>
       <use x="63.623047" xlink:href="#DejaVuSans-30"/>
      </g>
     </g>
    </g>
    <g id="text_25">
     <!-- x [m] -->
     <g transform="translate(194.01911 185.219937)rotate(-90)scale(0.1 -0.1)">
      <use xlink:href="#DejaVuSans-78"/>
      <use x="59.179688" xlink:href="#DejaVuSans-20"/>
      <use x="90.966797" xlink:href="#DejaVuSans-5b"/>
      <use x="129.980469" xlink:href="#DejaVuSans-6d"/>
      <use x="227.392578" xlink:href="#DejaVuSans-5d"/>
     </g>
    </g>
   </g>
   <g id="line2d_46">
    <path clip-path="url(#pd203de993d)" d="M 271.445999 286.861728 
L 271.337531 266.366908 
L 270.970969 265.48474 
L 270.072941 264.010718 
L 268.935254 262.038899 
L 268.501351 260.844575 
L 268.360773 259.83573 
L 268.452597 258.894863 
L 268.763067 257.999969 
L 269.309413 257.104507 
L 270.156123 256.161598 
L 271.359701 255.172556 
L 272.977968 254.1385 
L 275.16859 253.012991 
L 278.037949 251.798979 
L 281.757584 250.47709 
L 286.449749 249.052672 
L 292.408682 247.485044 
L 299.881581 245.758217 
L 309.332413 243.812283 
L 321.501338 241.544343 
L 338.792986 238.567359 
L 382.598117 231.11808 
L 395.2866 228.684036 
L 405.142324 226.574666 
L 412.930429 224.690297 
L 419.219153 222.948551 
L 424.245576 221.332983 
L 428.170081 219.848972 
L 431.256046 218.453275 
L 433.615283 217.148557 
L 435.358554 215.936766 
L 436.591508 214.819225 
L 437.427615 213.772984 
L 437.946185 212.774764 
L 438.872348 210.661167 
L 439.408229 209.232119 
L 439.537445 208.276002 
L 439.428419 207.461493 
L 439.101021 206.694625 
L 438.529216 205.928447 
L 437.635761 205.115586 
L 436.317161 204.232485 
L 434.481196 203.279796 
L 431.912216 202.212199 
L 428.531711 201.05872 
L 424.142123 199.803787 
L 418.593358 198.455999 
L 411.619171 197.000345 
L 402.939354 195.423247 
L 391.885471 193.649583 
L 377.831828 191.628613 
L 358.597091 189.102206 
L 291.454381 180.467847 
L 277.371005 178.333957 
L 266.248983 176.432842 
L 257.349749 174.694568 
L 250.241877 173.087626 
L 244.632533 171.599434 
L 240.323393 170.23807 
L 236.995319 168.962339 
L 234.555759 167.799913 
L 232.804042 166.729946 
L 231.613542 165.754249 
L 230.867327 164.873904 
L 230.443258 164.04192 
L 230.289231 163.258651 
L 230.362218 162.500589 
L 230.660338 161.720699 
L 231.234958 160.872413 
L 232.139035 159.956742 
L 233.45782 158.951484 
L 235.303046 157.834975 
L 237.810562 156.586109 
L 241.19239 155.161295 
L 245.696278 153.517545 
L 251.79434 151.54347 
L 260.751038 148.899739 
L 283.465356 142.285287 
L 290.036792 140.092182 
L 295.007655 138.206446 
L 298.79384 136.542491 
L 301.741528 135.011459 
L 303.96111 133.616675 
L 305.599303 132.336944 
L 306.776073 131.150196 
L 307.58375 130.033752 
L 308.08844 128.96455 
L 308.329359 127.943062 
L 308.340107 126.922129 
L 308.127789 125.902061 
L 307.675931 124.835748 
L 306.947409 123.699945 
L 305.888142 122.471553 
L 304.428731 121.127636 
L 302.454403 119.621875 
L 299.824553 117.90818 
L 296.344572 115.916997 
L 291.493199 113.414623 
L 282.988644 109.323205 
L 274.140719 104.986025 
L 269.263047 102.349788 
L 265.609271 100.130451 
L 262.786929 98.165981 
L 260.572883 96.363722 
L 258.845294 94.67759 
L 257.544946 93.108587 
L 256.582079 91.609893 
L 255.908138 90.158216 
L 255.489162 88.730125 
L 255.306321 87.325902 
L 255.343946 85.898172 
L 255.606946 84.423352 
L 256.110304 82.877857 
L 256.889687 81.214349 
L 257.998071 79.385534 
L 259.517083 77.320372 
L 261.620593 74.852845 
L 264.811981 71.484492 
L 271.976465 64.006903 
L 274.304326 61.201802 
L 276.039144 58.77516 
L 277.371473 56.537489 
L 278.377069 54.417901 
L 279.095986 52.392971 
L 279.573102 50.391519 
L 279.822778 48.389935 
L 279.853086 46.34074 
L 279.661013 44.220255 
L 279.230086 41.957132 
L 278.527998 39.480019 
L 277.478488 36.622275 
L 275.896323 33.002871 
L 270.468995 21.022853 
L 269.346359 17.758316 
L 268.546595 14.755355 
L 268.007323 11.871222 
L 267.697965 9.010752 
L 267.605932 6.078731 
L 267.733588 3.003754 
L 268.101333 -0.380951 
L 268.190435 -1 
L 268.190435 -1 
" style="fill:none;stroke:#0000ff;stroke-linecap:square;stroke-width:1.5;"/>
   </g>
   <g id="line2d_47">
    <path clip-path="url(#pd203de993d)" d="M 271.445999 286.861728 
L 271.339623 266.379838 
L 270.975292 265.496391 
L 270.078814 264.020209 
L 268.925328 262.022131 
L 268.490774 260.826529 
L 268.349637 259.816736 
L 268.44072 258.875012 
L 268.75002 257.979208 
L 269.294489 257.082676 
L 270.138162 256.138498 
L 271.33712 255.148102 
L 272.949087 254.112732 
L 275.131955 252.98589 
L 277.993116 251.770375 
L 281.704137 250.446638 
L 286.384956 249.0201 
L 292.325156 247.450191 
L 299.767421 245.720798 
L 309.281388 243.749342 
L 321.61958 241.433491 
L 339.168985 238.385404 
L 380.411491 231.293685 
L 393.275441 228.814934 
L 403.211667 226.683478 
L 411.181923 224.753896 
L 417.557795 222.989628 
L 422.672802 221.351324 
L 426.741926 219.820735 
L 429.902607 218.401772 
L 432.333104 217.073629 
L 434.143153 215.838273 
L 435.437521 214.697055 
L 436.329811 213.627048 
L 436.899921 212.604993 
L 437.593902 211.275617 
L 438.607704 209.275422 
L 438.856042 208.295179 
L 438.843913 207.456166 
L 438.609652 206.688428 
L 438.135468 205.921082 
L 437.37786 205.130756 
L 436.22884 204.269974 
L 434.598253 203.339316 
L 432.336713 202.316493 
L 429.3231 201.20538 
L 425.362663 199.989208 
L 420.310117 198.676602 
L 413.90754 197.25299 
L 405.982636 195.726379 
L 395.895402 194.019174 
L 383.048017 192.080736 
L 366.054878 189.755638 
L 338.429313 186.233854 
L 305.103394 181.934804 
L 287.995534 179.502073 
L 274.987462 177.436195 
L 264.705519 175.588259 
L 256.436757 173.885878 
L 249.873254 172.318691 
L 244.642944 170.849831 
L 240.584474 169.4861 
L 237.526905 168.232783 
L 235.30034 167.093705 
L 233.712414 166.047642 
L 232.619655 165.072346 
L 231.949321 164.19252 
L 231.585728 163.361115 
L 231.478313 162.578427 
L 231.593327 161.797277 
L 231.937327 160.994396 
L 232.562175 160.12324 
L 233.518252 159.184788 
L 234.922812 158.133485 
L 236.863203 156.971123 
L 239.518592 155.653403 
L 243.054408 154.159784 
L 247.763287 152.423948 
L 254.241297 150.288361 
L 264.59673 147.138903 
L 280.035916 142.421318 
L 286.876312 140.092776 
L 291.953676 138.140303 
L 295.861883 136.408948 
L 298.887699 134.833405 
L 301.188766 133.39359 
L 302.905701 132.068357 
L 304.155114 130.835717 
L 305.027813 129.673073 
L 305.58043 128.581175 
L 305.875522 127.513053 
L 305.935118 126.469069 
L 305.769496 125.402086 
L 305.372887 124.312423 
L 304.710203 123.153081 
L 303.731677 121.900899 
L 302.373374 120.532851 
L 300.529811 119.002483 
L 298.072042 117.263516 
L 294.782552 115.222712 
L 290.217137 112.669337 
L 281.794536 108.265618 
L 274.216873 104.202773 
L 269.753263 101.563606 
L 266.380996 99.319066 
L 263.779189 97.330149 
L 261.741668 95.503918 
L 260.155519 93.794116 
L 258.949408 92.177844 
L 258.064147 90.631953 
L 257.446297 89.109315 
L 257.078807 87.610259 
L 256.94184 86.111253 
L 257.027349 84.588717 
L 257.344037 82.995271 
L 257.912346 81.307325 
L 258.770321 79.477526 
L 259.983397 77.434769 
L 261.664823 75.06043 
L 264.092039 72.045796 
L 272.992298 61.30892 
L 274.771092 58.644481 
L 276.11598 56.240369 
L 277.131912 53.978117 
L 277.873979 51.786655 
L 278.367003 49.642441 
L 278.633967 47.498041 
L 278.683998 45.30597 
L 278.511064 42.994889 
L 278.101624 40.54109 
L 277.412769 37.80173 
L 276.364431 34.586303 
L 274.671268 30.180186 
L 271.254412 21.390169 
L 270.074069 17.649063 
L 269.252247 14.312485 
L 268.699093 11.14238 
L 268.376404 7.995911 
L 268.271946 4.77786 
L 268.387107 1.369143 
L 268.585194 -1 
L 268.585194 -1 
" style="fill:none;stroke:#ffa500;stroke-linecap:square;stroke-width:1.5;"/>
   </g>
   <g id="line2d_48">
    <path clip-path="url(#pd203de993d)" d="M 271.445999 286.861728 
L 271.33917 266.375558 
L 270.975874 265.488185 
L 270.098059 264.031314 
L 268.882764 261.930987 
L 268.445643 260.730012 
L 268.304277 259.716012 
L 268.39775 258.77103 
L 268.711062 257.8725 
L 269.277801 256.948833 
L 270.130242 256.001263 
L 271.332029 255.006911 
L 272.977966 253.943229 
L 275.147949 252.812244 
L 277.981875 251.592469 
L 281.653825 250.263688 
L 286.286754 248.830789 
L 292.166253 247.253154 
L 299.626997 245.492553 
L 309.13436 243.48965 
L 321.744864 241.074643 
L 341.598876 237.528464 
L 371.233161 232.213909 
L 385.00001 229.510475 
L 395.541926 227.221823 
L 403.940538 225.180422 
L 410.757575 223.303764 
L 416.307824 221.552132 
L 420.735114 219.930745 
L 424.295843 218.396516 
L 427.054033 216.975938 
L 429.207574 215.623751 
L 430.809105 214.365101 
L 431.97493 213.177221 
L 435.691438 208.587001 
L 436.128089 207.629037 
L 436.267074 206.812373 
L 436.170693 206.042597 
L 435.849199 205.29666 
L 435.270761 204.527207 
L 434.343552 203.686951 
L 432.982995 202.776877 
L 431.099655 201.798314 
L 428.541665 200.729793 
L 425.117849 199.552103 
L 420.686457 198.272105 
L 415.016141 196.875067 
L 407.943226 195.369887 
L 399.079034 193.720925 
L 387.873553 191.873837 
L 373.335206 189.713966 
L 352.183073 186.816492 
L 307.260582 180.709325 
L 291.386873 178.295151 
L 279.133664 176.214973 
L 269.344295 174.336736 
L 261.462359 172.608066 
L 255.102304 170.994225 
L 250.088768 169.503548 
L 246.109088 168.095629 
L 243.084425 166.798465 
L 240.814518 165.591837 
L 239.17513 164.477989 
L 238.049792 163.458383 
L 237.317581 162.510173 
L 236.895715 161.610157 
L 236.734865 160.758628 
L 236.798644 159.90852 
L 237.089401 159.036568 
L 237.632104 158.119686 
L 238.496635 157.111622 
L 239.740278 156.013397 
L 241.486609 154.779572 
L 243.857956 153.388492 
L 247.031818 151.79554 
L 251.307201 149.910109 
L 257.408693 147.480442 
L 280.018979 138.690069 
L 284.506796 136.594215 
L 287.911664 134.768939 
L 290.569414 133.101127 
L 292.608 131.56986 
L 294.166205 130.12984 
L 295.308109 128.782345 
L 296.123774 127.480984 
L 296.648669 126.226366 
L 296.921763 124.995263 
L 296.964483 123.76433 
L 296.782421 122.510167 
L 296.366965 121.209363 
L 295.683499 119.814892 
L 294.689032 118.303434 
L 293.313147 116.62808 
L 291.44617 114.718365 
L 288.908908 112.456604 
L 285.247209 109.512658 
L 273.197375 100.029119 
L 270.387937 97.425885 
L 268.224387 95.127148 
L 266.514484 92.991956 
L 265.180122 90.973664 
L 264.169359 89.04913 
L 263.429014 87.171273 
L 262.926068 85.292859 
L 262.648901 83.390341 
L 262.592558 81.440122 
L 262.760559 79.39478 
L 263.169057 77.206863 
L 263.849163 74.805097 
L 264.876921 72.023028 
L 266.439424 68.480013 
L 272.014801 56.298872 
L 273.166583 52.989345 
L 274.002177 49.917074 
L 274.582204 46.939481 
L 274.935644 43.961493 
L 275.074686 40.887961 
L 274.996667 37.623681 
L 274.682432 34.001927 
L 274.072584 29.665279 
L 272.888595 23.064681 
L 271.38486 14.437567 
L 270.713819 9.241588 
L 270.315529 4.426639 
L 270.138156 -0.436182 
L 270.131382 -1 
L 270.131382 -1 
" style="fill:none;stroke:#ff0000;stroke-linecap:square;stroke-width:1.5;"/>
   </g>
   <g id="patch_8">
    <path d="M 219.823798 304.44375 
L 219.823798 39.3555 
" style="fill:none;stroke:#000000;stroke-linecap:square;stroke-linejoin:miter;stroke-width:0.8;"/>
   </g>
   <g id="patch_9">
    <path d="M 450 304.44375 
L 450 39.3555 
" style="fill:none;stroke:#000000;stroke-linecap:square;stroke-linejoin:miter;stroke-width:0.8;"/>
   </g>
   <g id="patch_10">
    <path d="M 219.823798 304.44375 
L 450 304.44375 
" style="fill:none;stroke:#000000;stroke-linecap:square;stroke-linejoin:miter;stroke-width:0.8;"/>
   </g>
   <g id="patch_11">
    <path d="M 219.823798 39.3555 
L 450 39.3555 
" style="fill:none;stroke:#000000;stroke-linecap:square;stroke-linejoin:miter;stroke-width:0.8;"/>
   </g>
   <g id="text_26">
    <!-- Trajectoire en fonction de -->
    <g transform="translate(258.523461 19.918125)scale(0.12 -0.12)">
     <defs>
      <path d="M -19 4666 
L 3928 4666 
L 3928 4134 
L 2272 4134 
L 2272 0 
L 1638 0 
L 1638 4134 
L -19 4134 
L -19 4666 
z
" id="DejaVuSans-54" transform="scale(0.015625)"/>
      <path d="M 2631 2963 
Q 2534 3019 2420 3045 
Q 2306 3072 2169 3072 
Q 1681 3072 1420 2755 
Q 1159 2438 1159 1844 
L 1159 0 
L 581 0 
L 581 3500 
L 1159 3500 
L 1159 2956 
Q 1341 3275 1631 3429 
Q 1922 3584 2338 3584 
Q 2397 3584 2469 3576 
Q 2541 3569 2628 3553 
L 2631 2963 
z
" id="DejaVuSans-72" transform="scale(0.015625)"/>
      <path d="M 2194 1759 
Q 1497 1759 1228 1600 
Q 959 1441 959 1056 
Q 959 750 1161 570 
Q 1363 391 1709 391 
Q 2188 391 2477 730 
Q 2766 1069 2766 1631 
L 2766 1759 
L 2194 1759 
z
M 3341 1997 
L 3341 0 
L 2766 0 
L 2766 531 
Q 2569 213 2275 61 
Q 1981 -91 1556 -91 
Q 1019 -91 701 211 
Q 384 513 384 1019 
Q 384 1609 779 1909 
Q 1175 2209 1959 2209 
L 2766 2209 
L 2766 2266 
Q 2766 2663 2505 2880 
Q 2244 3097 1772 3097 
Q 1472 3097 1187 3025 
Q 903 2953 641 2809 
L 641 3341 
Q 956 3463 1253 3523 
Q 1550 3584 1831 3584 
Q 2591 3584 2966 3190 
Q 3341 2797 3341 1997 
z
" id="DejaVuSans-61" transform="scale(0.015625)"/>
      <path d="M 603 3500 
L 1178 3500 
L 1178 -63 
Q 1178 -731 923 -1031 
Q 669 -1331 103 -1331 
L -116 -1331 
L -116 -844 
L 38 -844 
Q 366 -844 484 -692 
Q 603 -541 603 -63 
L 603 3500 
z
M 603 4863 
L 1178 4863 
L 1178 4134 
L 603 4134 
L 603 4863 
z
" id="DejaVuSans-6a" transform="scale(0.015625)"/>
      <path d="M 3597 1894 
L 3597 1613 
L 953 1613 
Q 991 1019 1311 708 
Q 1631 397 2203 397 
Q 2534 397 2845 478 
Q 3156 559 3463 722 
L 3463 178 
Q 3153 47 2828 -22 
Q 2503 -91 2169 -91 
Q 1331 -91 842 396 
Q 353 884 353 1716 
Q 353 2575 817 3079 
Q 1281 3584 2069 3584 
Q 2775 3584 3186 3129 
Q 3597 2675 3597 1894 
z
M 3022 2063 
Q 3016 2534 2758 2815 
Q 2500 3097 2075 3097 
Q 1594 3097 1305 2825 
Q 1016 2553 972 2059 
L 3022 2063 
z
" id="DejaVuSans-65" transform="scale(0.015625)"/>
      <path d="M 3122 3366 
L 3122 2828 
Q 2878 2963 2633 3030 
Q 2388 3097 2138 3097 
Q 1578 3097 1268 2742 
Q 959 2388 959 1747 
Q 959 1106 1268 751 
Q 1578 397 2138 397 
Q 2388 397 2633 464 
Q 2878 531 3122 666 
L 3122 134 
Q 2881 22 2623 -34 
Q 2366 -91 2075 -91 
Q 1284 -91 818 406 
Q 353 903 353 1747 
Q 353 2603 823 3093 
Q 1294 3584 2113 3584 
Q 2378 3584 2631 3529 
Q 2884 3475 3122 3366 
z
" id="DejaVuSans-63" transform="scale(0.015625)"/>
      <path d="M 1172 4494 
L 1172 3500 
L 2356 3500 
L 2356 3053 
L 1172 3053 
L 1172 1153 
Q 1172 725 1289 603 
Q 1406 481 1766 481 
L 2356 481 
L 2356 0 
L 1766 0 
Q 1100 0 847 248 
Q 594 497 594 1153 
L 594 3053 
L 172 3053 
L 172 3500 
L 594 3500 
L 594 4494 
L 1172 4494 
z
" id="DejaVuSans-74" transform="scale(0.015625)"/>
      <path d="M 1959 3097 
Q 1497 3097 1228 2736 
Q 959 2375 959 1747 
Q 959 1119 1226 758 
Q 1494 397 1959 397 
Q 2419 397 2687 759 
Q 2956 1122 2956 1747 
Q 2956 2369 2687 2733 
Q 2419 3097 1959 3097 
z
M 1959 3584 
Q 2709 3584 3137 3096 
Q 3566 2609 3566 1747 
Q 3566 888 3137 398 
Q 2709 -91 1959 -91 
Q 1206 -91 779 398 
Q 353 888 353 1747 
Q 353 2609 779 3096 
Q 1206 3584 1959 3584 
z
" id="DejaVuSans-6f" transform="scale(0.015625)"/>
      <path d="M 603 3500 
L 1178 3500 
L 1178 0 
L 603 0 
L 603 3500 
z
M 603 4863 
L 1178 4863 
L 1178 4134 
L 603 4134 
L 603 4863 
z
" id="DejaVuSans-69" transform="scale(0.015625)"/>
      <path d="M 3513 2113 
L 3513 0 
L 2938 0 
L 2938 2094 
Q 2938 2591 2744 2837 
Q 2550 3084 2163 3084 
Q 1697 3084 1428 2787 
Q 1159 2491 1159 1978 
L 1159 0 
L 581 0 
L 581 3500 
L 1159 3500 
L 1159 2956 
Q 1366 3272 1645 3428 
Q 1925 3584 2291 3584 
Q 2894 3584 3203 3211 
Q 3513 2838 3513 2113 
z
" id="DejaVuSans-6e" transform="scale(0.015625)"/>
      <path d="M 2375 4863 
L 2375 4384 
L 1825 4384 
Q 1516 4384 1395 4259 
Q 1275 4134 1275 3809 
L 1275 3500 
L 2222 3500 
L 2222 3053 
L 1275 3053 
L 1275 0 
L 697 0 
L 697 3053 
L 147 3053 
L 147 3500 
L 697 3500 
L 697 3744 
Q 697 4328 969 4595 
Q 1241 4863 1831 4863 
L 2375 4863 
z
" id="DejaVuSans-66" transform="scale(0.015625)"/>
      <path d="M 2906 2969 
L 2906 4863 
L 3481 4863 
L 3481 0 
L 2906 0 
L 2906 525 
Q 2725 213 2448 61 
Q 2172 -91 1784 -91 
Q 1150 -91 751 415 
Q 353 922 353 1747 
Q 353 2572 751 3078 
Q 1150 3584 1784 3584 
Q 2172 3584 2448 3432 
Q 2725 3281 2906 2969 
z
M 947 1747 
Q 947 1113 1208 752 
Q 1469 391 1925 391 
Q 2381 391 2643 752 
Q 2906 1113 2906 1747 
Q 2906 2381 2643 2742 
Q 2381 3103 1925 3103 
Q 1469 3103 1208 2742 
Q 947 2381 947 1747 
z
" id="DejaVuSans-64" transform="scale(0.015625)"/>
     </defs>
     <use xlink:href="#DejaVuSans-54"/>
     <use x="46.333984" xlink:href="#DejaVuSans-72"/>
     <use x="87.447266" xlink:href="#DejaVuSans-61"/>
     <use x="148.726562" xlink:href="#DejaVuSans-6a"/>
     <use x="176.509766" xlink:href="#DejaVuSans-65"/>
     <use x="238.033203" xlink:href="#DejaVuSans-63"/>
     <use x="293.013672" xlink:href="#DejaVuSans-74"/>
     <use x="332.222656" xlink:href="#DejaVuSans-6f"/>
     <use x="393.404297" xlink:href="#DejaVuSans-69"/>
     <use x="421.1875" xlink:href="#DejaVuSans-72"/>
     <use x="460.050781" xlink:href="#DejaVuSans-65"/>
     <use x="521.574219" xlink:href="#DejaVuSans-20"/>
     <use x="553.361328" xlink:href="#DejaVuSans-65"/>
     <use x="614.884766" xlink:href="#DejaVuSans-6e"/>
     <use x="678.263672" xlink:href="#DejaVuSans-20"/>
     <use x="710.050781" xlink:href="#DejaVuSans-66"/>
     <use x="745.255859" xlink:href="#DejaVuSans-6f"/>
     <use x="806.4375" xlink:href="#DejaVuSans-6e"/>
     <use x="869.816406" xlink:href="#DejaVuSans-63"/>
     <use x="924.796875" xlink:href="#DejaVuSans-74"/>
     <use x="964.005859" xlink:href="#DejaVuSans-69"/>
     <use x="991.789062" xlink:href="#DejaVuSans-6f"/>
     <use x="1052.970703" xlink:href="#DejaVuSans-6e"/>
     <use x="1116.349609" xlink:href="#DejaVuSans-20"/>
     <use x="1148.136719" xlink:href="#DejaVuSans-64"/>
     <use x="1211.613281" xlink:href="#DejaVuSans-65"/>
    </g>
    <!--  la masse du chargement -->
    <g transform="translate(258.532836 33.3555)scale(0.12 -0.12)">
     <defs>
      <path d="M 603 4863 
L 1178 4863 
L 1178 0 
L 603 0 
L 603 4863 
z
" id="DejaVuSans-6c" transform="scale(0.015625)"/>
      <path d="M 2834 3397 
L 2834 2853 
Q 2591 2978 2328 3040 
Q 2066 3103 1784 3103 
Q 1356 3103 1142 2972 
Q 928 2841 928 2578 
Q 928 2378 1081 2264 
Q 1234 2150 1697 2047 
L 1894 2003 
Q 2506 1872 2764 1633 
Q 3022 1394 3022 966 
Q 3022 478 2636 193 
Q 2250 -91 1575 -91 
Q 1294 -91 989 -36 
Q 684 19 347 128 
L 347 722 
Q 666 556 975 473 
Q 1284 391 1588 391 
Q 1994 391 2212 530 
Q 2431 669 2431 922 
Q 2431 1156 2273 1281 
Q 2116 1406 1581 1522 
L 1381 1569 
Q 847 1681 609 1914 
Q 372 2147 372 2553 
Q 372 3047 722 3315 
Q 1072 3584 1716 3584 
Q 2034 3584 2315 3537 
Q 2597 3491 2834 3397 
z
" id="DejaVuSans-73" transform="scale(0.015625)"/>
      <path d="M 544 1381 
L 544 3500 
L 1119 3500 
L 1119 1403 
Q 1119 906 1312 657 
Q 1506 409 1894 409 
Q 2359 409 2629 706 
Q 2900 1003 2900 1516 
L 2900 3500 
L 3475 3500 
L 3475 0 
L 2900 0 
L 2900 538 
Q 2691 219 2414 64 
Q 2138 -91 1772 -91 
Q 1169 -91 856 284 
Q 544 659 544 1381 
z
M 1991 3584 
L 1991 3584 
z
" id="DejaVuSans-75" transform="scale(0.015625)"/>
      <path d="M 3513 2113 
L 3513 0 
L 2938 0 
L 2938 2094 
Q 2938 2591 2744 2837 
Q 2550 3084 2163 3084 
Q 1697 3084 1428 2787 
Q 1159 2491 1159 1978 
L 1159 0 
L 581 0 
L 581 4863 
L 1159 4863 
L 1159 2956 
Q 1366 3272 1645 3428 
Q 1925 3584 2291 3584 
Q 2894 3584 3203 3211 
Q 3513 2838 3513 2113 
z
" id="DejaVuSans-68" transform="scale(0.015625)"/>
      <path d="M 2906 1791 
Q 2906 2416 2648 2759 
Q 2391 3103 1925 3103 
Q 1463 3103 1205 2759 
Q 947 2416 947 1791 
Q 947 1169 1205 825 
Q 1463 481 1925 481 
Q 2391 481 2648 825 
Q 2906 1169 2906 1791 
z
M 3481 434 
Q 3481 -459 3084 -895 
Q 2688 -1331 1869 -1331 
Q 1566 -1331 1297 -1286 
Q 1028 -1241 775 -1147 
L 775 -588 
Q 1028 -725 1275 -790 
Q 1522 -856 1778 -856 
Q 2344 -856 2625 -561 
Q 2906 -266 2906 331 
L 2906 616 
Q 2728 306 2450 153 
Q 2172 0 1784 0 
Q 1141 0 747 490 
Q 353 981 353 1791 
Q 353 2603 747 3093 
Q 1141 3584 1784 3584 
Q 2172 3584 2450 3431 
Q 2728 3278 2906 2969 
L 2906 3500 
L 3481 3500 
L 3481 434 
z
" id="DejaVuSans-67" transform="scale(0.015625)"/>
     </defs>
     <use xlink:href="#DejaVuSans-20"/>
     <use x="31.787109" xlink:href="#DejaVuSans-6c"/>
     <use x="59.570312" xlink:href="#DejaVuSans-61"/>
     <use x="120.849609" xlink:href="#DejaVuSans-20"/>
     <use x="152.636719" xlink:href="#DejaVuSans-6d"/>
     <use x="250.048828" xlink:href="#DejaVuSans-61"/>
     <use x="311.328125" xlink:href="#DejaVuSans-73"/>
     <use x="363.427734" xlink:href="#DejaVuSans-73"/>
     <use x="415.527344" xlink:href="#DejaVuSans-65"/>
     <use x="477.050781" xlink:href="#DejaVuSans-20"/>
     <use x="508.837891" xlink:href="#DejaVuSans-64"/>
     <use x="572.314453" xlink:href="#DejaVuSans-75"/>
     <use x="635.693359" xlink:href="#DejaVuSans-20"/>
     <use x="667.480469" xlink:href="#DejaVuSans-63"/>
     <use x="722.460938" xlink:href="#DejaVuSans-68"/>
     <use x="785.839844" xlink:href="#DejaVuSans-61"/>
     <use x="847.119141" xlink:href="#DejaVuSans-72"/>
     <use x="886.482422" xlink:href="#DejaVuSans-67"/>
     <use x="949.958984" xlink:href="#DejaVuSans-65"/>
     <use x="1011.482422" xlink:href="#DejaVuSans-6d"/>
     <use x="1108.894531" xlink:href="#DejaVuSans-65"/>
     <use x="1170.417969" xlink:href="#DejaVuSans-6e"/>
     <use x="1233.796875" xlink:href="#DejaVuSans-74"/>
    </g>
   </g>
   <g id="legend_1">
    <g id="patch_12">
     <path d="M 367.054688 91.389875 
L 443 91.389875 
Q 445 91.389875 445 89.389875 
L 445 46.3555 
Q 445 44.3555 443 44.3555 
L 367.054688 44.3555 
Q 365.054688 44.3555 365.054688 46.3555 
L 365.054688 89.389875 
Q 365.054688 91.389875 367.054688 91.389875 
z
" style="fill:#ffffff;opacity:0.8;stroke:#cccccc;stroke-linejoin:miter;"/>
    </g>
    <g id="line2d_49">
     <path d="M 369.054688 52.453937 
L 389.054688 52.453937 
" style="fill:none;stroke:#0000ff;stroke-linecap:square;stroke-width:1.5;"/>
    </g>
    <g id="line2d_50"/>
    <g id="text_27">
     <!-- 0.01 kg -->
     <g transform="translate(397.054688 55.953937)scale(0.1 -0.1)">
      <defs>
       <path d="M 581 4863 
L 1159 4863 
L 1159 1991 
L 2875 3500 
L 3609 3500 
L 1753 1863 
L 3688 0 
L 2938 0 
L 1159 1709 
L 1159 0 
L 581 0 
L 581 4863 
z
" id="DejaVuSans-6b" transform="scale(0.015625)"/>
      </defs>
      <use xlink:href="#DejaVuSans-30"/>
      <use x="63.623047" xlink:href="#DejaVuSans-2e"/>
      <use x="95.410156" xlink:href="#DejaVuSans-30"/>
      <use x="159.033203" xlink:href="#DejaVuSans-31"/>
      <use x="222.65625" xlink:href="#DejaVuSans-20"/>
      <use x="254.443359" xlink:href="#DejaVuSans-6b"/>
      <use x="312.353516" xlink:href="#DejaVuSans-67"/>
     </g>
    </g>
    <g id="line2d_51">
     <path d="M 369.054688 67.132062 
L 389.054688 67.132062 
" style="fill:none;stroke:#ffa500;stroke-linecap:square;stroke-width:1.5;"/>
    </g>
    <g id="line2d_52"/>
    <g id="text_28">
     <!-- 32.5 kg -->
     <g transform="translate(397.054688 70.632062)scale(0.1 -0.1)">
      <use xlink:href="#DejaVuSans-33"/>
      <use x="63.623047" xlink:href="#DejaVuSans-32"/>
      <use x="127.246094" xlink:href="#DejaVuSans-2e"/>
      <use x="159.033203" xlink:href="#DejaVuSans-35"/>
      <use x="222.65625" xlink:href="#DejaVuSans-20"/>
      <use x="254.443359" xlink:href="#DejaVuSans-6b"/>
      <use x="312.353516" xlink:href="#DejaVuSans-67"/>
     </g>
    </g>
    <g id="line2d_53">
     <path d="M 369.054688 81.810187 
L 389.054688 81.810187 
" style="fill:none;stroke:#ff0000;stroke-linecap:square;stroke-width:1.5;"/>
    </g>
    <g id="line2d_54"/>
    <g id="text_29">
     <!-- 130.0 kg -->
     <g transform="translate(397.054688 85.310187)scale(0.1 -0.1)">
      <use xlink:href="#DejaVuSans-31"/>
      <use x="63.623047" xlink:href="#DejaVuSans-33"/>
      <use x="127.246094" xlink:href="#DejaVuSans-30"/>
      <use x="190.869141" xlink:href="#DejaVuSans-2e"/>
      <use x="222.65625" xlink:href="#DejaVuSans-30"/>
      <use x="286.279297" xlink:href="#DejaVuSans-20"/>
      <use x="318.066406" xlink:href="#DejaVuSans-6b"/>
      <use x="375.976562" xlink:href="#DejaVuSans-67"/>
     </g>
    </g>
   </g>
  </g>
 </g>
 <defs>
  <clipPath id="pdebbe06738">
   <rect height="265.08825" width="16.498147" x="117.639028" y="39.3555"/>
  </clipPath>
  <clipPath id="pd203de993d">
   <rect height="265.08825" width="230.176202" x="219.823798" y="39.3555"/>
  </clipPath>
 </defs>
</svg>
