<?xml version="1.0" encoding="utf-8" standalone="no"?>
<!DOCTYPE svg PUBLIC "-//W3C//DTD SVG 1.1//EN"
  "http://www.w3.org/Graphics/SVG/1.1/DTD/svg11.dtd">
<svg height="345.6pt" version="1.1" viewBox="0 0 460.8 345.6" width="460.8pt" xmlns="http://www.w3.org/2000/svg" xmlns:xlink="http://www.w3.org/1999/xlink">
 <metadata>
  <rdf:RDF xmlns:cc="http://creativecommons.org/ns#" xmlns:dc="http://purl.org/dc/elements/1.1/" xmlns:rdf="http://www.w3.org/1999/02/22-rdf-syntax-ns#">
   <cc:Work>
    <dc:type rdf:resource="http://purl.org/dc/dcmitype/StillImage"/>
    <dc:date>2023-05-12T01:06:19.176810</dc:date>
    <dc:format>image/svg+xml</dc:format>
    <dc:creator>
     <cc:Agent>
      <dc:title>Matplotlib v3.4.3, https://matplotlib.org/</dc:title>
     </cc:Agent>
    </dc:creator>
   </cc:Work>
  </rdf:RDF>
 </metadata>
 <defs>
  <style type="text/css">*{stroke-linecap:butt;stroke-linejoin:round;}</style>
 </defs>
 <g id="figure_1">
  <g id="patch_1">
   <path d="M 0 345.6 
L 460.8 345.6 
L 460.8 0 
L 0 0 
z
" style="fill:#ffffff;"/>
  </g>
  <g id="axes_1">
   <g id="patch_2">
    <path d="M 119.421312 304.44375 
L 133.598787 304.44375 
L 133.598787 39.3555 
L 119.421312 39.3555 
z
" style="fill:#ffffff;"/>
   </g>
   <g id="matplotlib.axis_1">
    <g id="xtick_1">
     <g id="line2d_1">
      <path clip-path="url(#pbe2275f8d1)" d="M 121.453704 304.44375 
L 121.453704 39.3555 
" style="fill:none;stroke:#b0b0b0;stroke-linecap:square;stroke-width:0.8;"/>
     </g>
     <g id="line2d_2">
      <defs>
       <path d="M 0 0 
L 0 3.5 
" id="md6558e3798" style="stroke:#000000;stroke-width:0.8;"/>
      </defs>
      <g>
       <use style="stroke:#000000;stroke-width:0.8;" x="121.453704" xlink:href="#md6558e3798" y="304.44375"/>
      </g>
     </g>
     <g id="text_1">
      <!-- 0 -->
      <g transform="translate(118.272454 319.042187)scale(0.1 -0.1)">
       <defs>
        <path d="M 2034 4250 
Q 1547 4250 1301 3770 
Q 1056 3291 1056 2328 
Q 1056 1369 1301 889 
Q 1547 409 2034 409 
Q 2525 409 2770 889 
Q 3016 1369 3016 2328 
Q 3016 3291 2770 3770 
Q 2525 4250 2034 4250 
z
M 2034 4750 
Q 2819 4750 3233 4129 
Q 3647 3509 3647 2328 
Q 3647 1150 3233 529 
Q 2819 -91 2034 -91 
Q 1250 -91 836 529 
Q 422 1150 422 2328 
Q 422 3509 836 4129 
Q 1250 4750 2034 4750 
z
" id="DejaVuSans-30" transform="scale(0.015625)"/>
       </defs>
       <use xlink:href="#DejaVuSans-30"/>
      </g>
     </g>
    </g>
    <g id="xtick_2">
     <g id="line2d_3">
      <path clip-path="url(#pbe2275f8d1)" d="M 131.565522 304.44375 
L 131.565522 39.3555 
" style="fill:none;stroke:#b0b0b0;stroke-linecap:square;stroke-width:0.8;"/>
     </g>
     <g id="line2d_4">
      <g>
       <use style="stroke:#000000;stroke-width:0.8;" x="131.565522" xlink:href="#md6558e3798" y="304.44375"/>
      </g>
     </g>
     <g id="text_2">
      <!-- 2 -->
      <g transform="translate(128.384272 319.042187)scale(0.1 -0.1)">
       <defs>
        <path d="M 1228 531 
L 3431 531 
L 3431 0 
L 469 0 
L 469 531 
Q 828 903 1448 1529 
Q 2069 2156 2228 2338 
Q 2531 2678 2651 2914 
Q 2772 3150 2772 3378 
Q 2772 3750 2511 3984 
Q 2250 4219 1831 4219 
Q 1534 4219 1204 4116 
Q 875 4013 500 3803 
L 500 4441 
Q 881 4594 1212 4672 
Q 1544 4750 1819 4750 
Q 2544 4750 2975 4387 
Q 3406 4025 3406 3419 
Q 3406 3131 3298 2873 
Q 3191 2616 2906 2266 
Q 2828 2175 2409 1742 
Q 1991 1309 1228 531 
z
" id="DejaVuSans-32" transform="scale(0.015625)"/>
       </defs>
       <use xlink:href="#DejaVuSans-32"/>
      </g>
     </g>
    </g>
    <g id="text_3">
     <!-- y [m] -->
     <g transform="translate(113.189737 332.720312)scale(0.1 -0.1)">
      <defs>
       <path d="M 2059 -325 
Q 1816 -950 1584 -1140 
Q 1353 -1331 966 -1331 
L 506 -1331 
L 506 -850 
L 844 -850 
Q 1081 -850 1212 -737 
Q 1344 -625 1503 -206 
L 1606 56 
L 191 3500 
L 800 3500 
L 1894 763 
L 2988 3500 
L 3597 3500 
L 2059 -325 
z
" id="DejaVuSans-79" transform="scale(0.015625)"/>
       <path id="DejaVuSans-20" transform="scale(0.015625)"/>
       <path d="M 550 4863 
L 1875 4863 
L 1875 4416 
L 1125 4416 
L 1125 -397 
L 1875 -397 
L 1875 -844 
L 550 -844 
L 550 4863 
z
" id="DejaVuSans-5b" transform="scale(0.015625)"/>
       <path d="M 3328 2828 
Q 3544 3216 3844 3400 
Q 4144 3584 4550 3584 
Q 5097 3584 5394 3201 
Q 5691 2819 5691 2113 
L 5691 0 
L 5113 0 
L 5113 2094 
Q 5113 2597 4934 2840 
Q 4756 3084 4391 3084 
Q 3944 3084 3684 2787 
Q 3425 2491 3425 1978 
L 3425 0 
L 2847 0 
L 2847 2094 
Q 2847 2600 2669 2842 
Q 2491 3084 2119 3084 
Q 1678 3084 1418 2786 
Q 1159 2488 1159 1978 
L 1159 0 
L 581 0 
L 581 3500 
L 1159 3500 
L 1159 2956 
Q 1356 3278 1631 3431 
Q 1906 3584 2284 3584 
Q 2666 3584 2933 3390 
Q 3200 3197 3328 2828 
z
" id="DejaVuSans-6d" transform="scale(0.015625)"/>
       <path d="M 1947 4863 
L 1947 -844 
L 622 -844 
L 622 -397 
L 1369 -397 
L 1369 4416 
L 622 4416 
L 622 4863 
L 1947 4863 
z
" id="DejaVuSans-5d" transform="scale(0.015625)"/>
      </defs>
      <use xlink:href="#DejaVuSans-79"/>
      <use x="59.179688" xlink:href="#DejaVuSans-20"/>
      <use x="90.966797" xlink:href="#DejaVuSans-5b"/>
      <use x="129.980469" xlink:href="#DejaVuSans-6d"/>
      <use x="227.392578" xlink:href="#DejaVuSans-5d"/>
     </g>
    </g>
   </g>
   <g id="matplotlib.axis_2">
    <g id="ytick_1">
     <g id="line2d_5">
      <path clip-path="url(#pbe2275f8d1)" d="M 119.421312 292.150944 
L 133.598787 292.150944 
" style="fill:none;stroke:#b0b0b0;stroke-linecap:square;stroke-width:0.8;"/>
     </g>
     <g id="line2d_6">
      <defs>
       <path d="M 0 0 
L -3.5 0 
" id="meb010e2596" style="stroke:#000000;stroke-width:0.8;"/>
      </defs>
      <g>
       <use style="stroke:#000000;stroke-width:0.8;" x="119.421312" xlink:href="#meb010e2596" y="292.150944"/>
      </g>
     </g>
     <g id="text_4">
      <!-- 0 -->
      <g transform="translate(106.058812 295.950163)scale(0.1 -0.1)">
       <use xlink:href="#DejaVuSans-30"/>
      </g>
     </g>
    </g>
    <g id="ytick_2">
     <g id="line2d_7">
      <path clip-path="url(#pbe2275f8d1)" d="M 119.421312 241.591855 
L 133.598787 241.591855 
" style="fill:none;stroke:#b0b0b0;stroke-linecap:square;stroke-width:0.8;"/>
     </g>
     <g id="line2d_8">
      <g>
       <use style="stroke:#000000;stroke-width:0.8;" x="119.421312" xlink:href="#meb010e2596" y="241.591855"/>
      </g>
     </g>
     <g id="text_5">
      <!-- 10 -->
      <g transform="translate(99.696312 245.391074)scale(0.1 -0.1)">
       <defs>
        <path d="M 794 531 
L 1825 531 
L 1825 4091 
L 703 3866 
L 703 4441 
L 1819 4666 
L 2450 4666 
L 2450 531 
L 3481 531 
L 3481 0 
L 794 0 
L 794 531 
z
" id="DejaVuSans-31" transform="scale(0.015625)"/>
       </defs>
       <use xlink:href="#DejaVuSans-31"/>
       <use x="63.623047" xlink:href="#DejaVuSans-30"/>
      </g>
     </g>
    </g>
    <g id="ytick_3">
     <g id="line2d_9">
      <path clip-path="url(#pbe2275f8d1)" d="M 119.421312 191.032767 
L 133.598787 191.032767 
" style="fill:none;stroke:#b0b0b0;stroke-linecap:square;stroke-width:0.8;"/>
     </g>
     <g id="line2d_10">
      <g>
       <use style="stroke:#000000;stroke-width:0.8;" x="119.421312" xlink:href="#meb010e2596" y="191.032767"/>
      </g>
     </g>
     <g id="text_6">
      <!-- 20 -->
      <g transform="translate(99.696312 194.831985)scale(0.1 -0.1)">
       <use xlink:href="#DejaVuSans-32"/>
       <use x="63.623047" xlink:href="#DejaVuSans-30"/>
      </g>
     </g>
    </g>
    <g id="ytick_4">
     <g id="line2d_11">
      <path clip-path="url(#pbe2275f8d1)" d="M 119.421312 140.473678 
L 133.598787 140.473678 
" style="fill:none;stroke:#b0b0b0;stroke-linecap:square;stroke-width:0.8;"/>
     </g>
     <g id="line2d_12">
      <g>
       <use style="stroke:#000000;stroke-width:0.8;" x="119.421312" xlink:href="#meb010e2596" y="140.473678"/>
      </g>
     </g>
     <g id="text_7">
      <!-- 30 -->
      <g transform="translate(99.696312 144.272896)scale(0.1 -0.1)">
       <defs>
        <path d="M 2597 2516 
Q 3050 2419 3304 2112 
Q 3559 1806 3559 1356 
Q 3559 666 3084 287 
Q 2609 -91 1734 -91 
Q 1441 -91 1130 -33 
Q 819 25 488 141 
L 488 750 
Q 750 597 1062 519 
Q 1375 441 1716 441 
Q 2309 441 2620 675 
Q 2931 909 2931 1356 
Q 2931 1769 2642 2001 
Q 2353 2234 1838 2234 
L 1294 2234 
L 1294 2753 
L 1863 2753 
Q 2328 2753 2575 2939 
Q 2822 3125 2822 3475 
Q 2822 3834 2567 4026 
Q 2313 4219 1838 4219 
Q 1578 4219 1281 4162 
Q 984 4106 628 3988 
L 628 4550 
Q 988 4650 1302 4700 
Q 1616 4750 1894 4750 
Q 2613 4750 3031 4423 
Q 3450 4097 3450 3541 
Q 3450 3153 3228 2886 
Q 3006 2619 2597 2516 
z
" id="DejaVuSans-33" transform="scale(0.015625)"/>
       </defs>
       <use xlink:href="#DejaVuSans-33"/>
       <use x="63.623047" xlink:href="#DejaVuSans-30"/>
      </g>
     </g>
    </g>
    <g id="ytick_5">
     <g id="line2d_13">
      <path clip-path="url(#pbe2275f8d1)" d="M 119.421312 89.914589 
L 133.598787 89.914589 
" style="fill:none;stroke:#b0b0b0;stroke-linecap:square;stroke-width:0.8;"/>
     </g>
     <g id="line2d_14">
      <g>
       <use style="stroke:#000000;stroke-width:0.8;" x="119.421312" xlink:href="#meb010e2596" y="89.914589"/>
      </g>
     </g>
     <g id="text_8">
      <!-- 40 -->
      <g transform="translate(99.696312 93.713808)scale(0.1 -0.1)">
       <defs>
        <path d="M 2419 4116 
L 825 1625 
L 2419 1625 
L 2419 4116 
z
M 2253 4666 
L 3047 4666 
L 3047 1625 
L 3713 1625 
L 3713 1100 
L 3047 1100 
L 3047 0 
L 2419 0 
L 2419 1100 
L 313 1100 
L 313 1709 
L 2253 4666 
z
" id="DejaVuSans-34" transform="scale(0.015625)"/>
       </defs>
       <use xlink:href="#DejaVuSans-34"/>
       <use x="63.623047" xlink:href="#DejaVuSans-30"/>
      </g>
     </g>
    </g>
    <g id="ytick_6">
     <g id="line2d_15">
      <path clip-path="url(#pbe2275f8d1)" d="M 119.421312 39.3555 
L 133.598787 39.3555 
" style="fill:none;stroke:#b0b0b0;stroke-linecap:square;stroke-width:0.8;"/>
     </g>
     <g id="line2d_16">
      <g>
       <use style="stroke:#000000;stroke-width:0.8;" x="119.421312" xlink:href="#meb010e2596" y="39.3555"/>
      </g>
     </g>
     <g id="text_9">
      <!-- 50 -->
      <g transform="translate(99.696312 43.154719)scale(0.1 -0.1)">
       <defs>
        <path d="M 691 4666 
L 3169 4666 
L 3169 4134 
L 1269 4134 
L 1269 2991 
Q 1406 3038 1543 3061 
Q 1681 3084 1819 3084 
Q 2600 3084 3056 2656 
Q 3513 2228 3513 1497 
Q 3513 744 3044 326 
Q 2575 -91 1722 -91 
Q 1428 -91 1123 -41 
Q 819 9 494 109 
L 494 744 
Q 775 591 1075 516 
Q 1375 441 1709 441 
Q 2250 441 2565 725 
Q 2881 1009 2881 1497 
Q 2881 1984 2565 2268 
Q 2250 2553 1709 2553 
Q 1456 2553 1204 2497 
Q 953 2441 691 2322 
L 691 4666 
z
" id="DejaVuSans-35" transform="scale(0.015625)"/>
       </defs>
       <use xlink:href="#DejaVuSans-35"/>
       <use x="63.623047" xlink:href="#DejaVuSans-30"/>
      </g>
     </g>
    </g>
    <g id="text_10">
     <!-- x [m] -->
     <g transform="translate(93.616625 185.219937)rotate(-90)scale(0.1 -0.1)">
      <defs>
       <path d="M 3513 3500 
L 2247 1797 
L 3578 0 
L 2900 0 
L 1881 1375 
L 863 0 
L 184 0 
L 1544 1831 
L 300 3500 
L 978 3500 
L 1906 2253 
L 2834 3500 
L 3513 3500 
z
" id="DejaVuSans-78" transform="scale(0.015625)"/>
      </defs>
      <use xlink:href="#DejaVuSans-78"/>
      <use x="59.179688" xlink:href="#DejaVuSans-20"/>
      <use x="90.966797" xlink:href="#DejaVuSans-5b"/>
      <use x="129.980469" xlink:href="#DejaVuSans-6d"/>
      <use x="227.392578" xlink:href="#DejaVuSans-5d"/>
     </g>
    </g>
   </g>
   <g id="line2d_17">
    <path clip-path="url(#pbe2275f8d1)" d="M 121.453704 292.150944 
L 121.342826 269.84361 
L 121.227235 266.075275 
L 121.340265 263.731385 
L 121.670847 261.642051 
L 122.237433 259.506994 
L 123.081194 257.213959 
L 124.263553 254.664255 
L 125.979968 251.527197 
L 129.788459 244.713177 
L 130.91234 242.136005 
L 131.746006 239.669099 
L 132.348908 237.191852 
L 132.745325 234.619173 
L 132.936253 231.907502 
L 132.916466 228.961171 
L 132.662475 225.552484 
L 132.032969 220.503108 
L 131.393246 214.946669 
L 131.005663 208.671944 
L 130.563633 206.661898 
L 129.89102 204.650569 
L 128.94529 202.536019 
L 127.570188 200.037322 
L 122.955706 192.015747 
L 121.931754 189.576192 
L 121.170831 187.190758 
L 120.636307 184.783378 
L 120.31476 182.301103 
L 120.20582 179.718162 
L 120.313713 176.92455 
L 120.67259 173.647001 
L 121.584965 167.852676 
L 122.200076 163.214069 
L 122.473947 159.434855 
L 122.534119 155.467534 
L 122.373246 150.664802 
L 121.793874 141.700008 
L 121.383434 133.634538 
L 121.249537 126.447543 
L 121.318686 117.035978 
L 121.523361 95.708802 
L 121.45361 47.463721 
L 121.45361 47.463721 
" style="fill:none;stroke:#0000ff;stroke-linecap:square;stroke-width:1.5;"/>
   </g>
   <g id="line2d_18">
    <path clip-path="url(#pbe2275f8d1)" d="M 121.453704 292.150944 
L 121.343524 269.962551 
L 121.212904 266.298574 
L 121.339879 263.284711 
L 121.673535 260.43903 
L 122.686395 257.210652 
L 123.996471 253.882735 
L 125.821145 249.832431 
L 130.147982 240.509447 
L 131.118735 237.673794 
L 131.821953 234.931391 
L 132.304564 232.150628 
L 132.584117 229.223876 
L 132.659206 226.054919 
L 132.515434 222.398563 
L 132.06706 217.264086 
L 131.850632 213.998886 
L 131.63635 210.25413 
L 131.279213 208.148067 
L 130.72033 206.190258 
L 129.919977 204.203413 
L 128.809068 202.056783 
L 127.131205 199.337511 
L 123.649913 193.782249 
L 122.423449 191.335995 
L 121.502652 189.00621 
L 120.822342 186.679445 
L 120.36135 184.308062 
L 120.112795 181.853792 
L 120.078423 179.274266 
L 120.267547 176.475733 
L 120.729215 173.105964 
L 122.40452 162.18381 
L 122.60881 158.580699 
L 122.603289 154.633576 
L 122.358791 149.597133 
L 121.309288 131.814221 
L 121.232364 124.546654 
L 121.372326 113.335162 
L 121.52532 97.185727 
L 121.439687 70.385148 
L 121.453904 46.294832 
L 121.453904 46.294832 
" style="fill:none;stroke:#ffa500;stroke-linecap:square;stroke-width:1.5;"/>
   </g>
   <g id="patch_3">
    <path d="M 119.421312 304.44375 
L 119.421312 39.3555 
" style="fill:none;stroke:#000000;stroke-linecap:square;stroke-linejoin:miter;stroke-width:0.8;"/>
   </g>
   <g id="patch_4">
    <path d="M 133.598787 304.44375 
L 133.598787 39.3555 
" style="fill:none;stroke:#000000;stroke-linecap:square;stroke-linejoin:miter;stroke-width:0.8;"/>
   </g>
   <g id="patch_5">
    <path d="M 119.421312 304.44375 
L 133.598787 304.44375 
" style="fill:none;stroke:#000000;stroke-linecap:square;stroke-linejoin:miter;stroke-width:0.8;"/>
   </g>
   <g id="patch_6">
    <path d="M 119.421312 39.3555 
L 133.598787 39.3555 
" style="fill:none;stroke:#000000;stroke-linecap:square;stroke-linejoin:miter;stroke-width:0.8;"/>
   </g>
  </g>
  <g id="axes_2">
   <g id="patch_7">
    <path d="M 218.579901 304.44375 
L 450 304.44375 
L 450 39.3555 
L 218.579901 39.3555 
z
" style="fill:#ffffff;"/>
   </g>
   <g id="matplotlib.axis_3">
    <g id="xtick_3">
     <g id="line2d_19">
      <path clip-path="url(#p3221658863)" d="M 251.754804 304.44375 
L 251.754804 39.3555 
" style="fill:none;stroke:#b0b0b0;stroke-linecap:square;stroke-width:0.8;"/>
     </g>
     <g id="line2d_20">
      <g>
       <use style="stroke:#000000;stroke-width:0.8;" x="251.754804" xlink:href="#md6558e3798" y="304.44375"/>
      </g>
     </g>
     <g id="text_11">
      <!-- 0.0 -->
      <g transform="translate(243.803241 319.042187)scale(0.1 -0.1)">
       <defs>
        <path d="M 684 794 
L 1344 794 
L 1344 0 
L 684 0 
L 684 794 
z
" id="DejaVuSans-2e" transform="scale(0.015625)"/>
       </defs>
       <use xlink:href="#DejaVuSans-30"/>
       <use x="63.623047" xlink:href="#DejaVuSans-2e"/>
       <use x="95.410156" xlink:href="#DejaVuSans-30"/>
      </g>
     </g>
    </g>
    <g id="xtick_4">
     <g id="line2d_21">
      <path clip-path="url(#p3221658863)" d="M 293.018813 304.44375 
L 293.018813 39.3555 
" style="fill:none;stroke:#b0b0b0;stroke-linecap:square;stroke-width:0.8;"/>
     </g>
     <g id="line2d_22">
      <g>
       <use style="stroke:#000000;stroke-width:0.8;" x="293.018813" xlink:href="#md6558e3798" y="304.44375"/>
      </g>
     </g>
     <g id="text_12">
      <!-- 0.5 -->
      <g transform="translate(285.067251 319.042187)scale(0.1 -0.1)">
       <use xlink:href="#DejaVuSans-30"/>
       <use x="63.623047" xlink:href="#DejaVuSans-2e"/>
       <use x="95.410156" xlink:href="#DejaVuSans-35"/>
      </g>
     </g>
    </g>
    <g id="xtick_5">
     <g id="line2d_23">
      <path clip-path="url(#p3221658863)" d="M 334.282823 304.44375 
L 334.282823 39.3555 
" style="fill:none;stroke:#b0b0b0;stroke-linecap:square;stroke-width:0.8;"/>
     </g>
     <g id="line2d_24">
      <g>
       <use style="stroke:#000000;stroke-width:0.8;" x="334.282823" xlink:href="#md6558e3798" y="304.44375"/>
      </g>
     </g>
     <g id="text_13">
      <!-- 1.0 -->
      <g transform="translate(326.33126 319.042187)scale(0.1 -0.1)">
       <use xlink:href="#DejaVuSans-31"/>
       <use x="63.623047" xlink:href="#DejaVuSans-2e"/>
       <use x="95.410156" xlink:href="#DejaVuSans-30"/>
      </g>
     </g>
    </g>
    <g id="xtick_6">
     <g id="line2d_25">
      <path clip-path="url(#p3221658863)" d="M 375.546832 304.44375 
L 375.546832 39.3555 
" style="fill:none;stroke:#b0b0b0;stroke-linecap:square;stroke-width:0.8;"/>
     </g>
     <g id="line2d_26">
      <g>
       <use style="stroke:#000000;stroke-width:0.8;" x="375.546832" xlink:href="#md6558e3798" y="304.44375"/>
      </g>
     </g>
     <g id="text_14">
      <!-- 1.5 -->
      <g transform="translate(367.595269 319.042187)scale(0.1 -0.1)">
       <use xlink:href="#DejaVuSans-31"/>
       <use x="63.623047" xlink:href="#DejaVuSans-2e"/>
       <use x="95.410156" xlink:href="#DejaVuSans-35"/>
      </g>
     </g>
    </g>
    <g id="xtick_7">
     <g id="line2d_27">
      <path clip-path="url(#p3221658863)" d="M 416.810841 304.44375 
L 416.810841 39.3555 
" style="fill:none;stroke:#b0b0b0;stroke-linecap:square;stroke-width:0.8;"/>
     </g>
     <g id="line2d_28">
      <g>
       <use style="stroke:#000000;stroke-width:0.8;" x="416.810841" xlink:href="#md6558e3798" y="304.44375"/>
      </g>
     </g>
     <g id="text_15">
      <!-- 2.0 -->
      <g transform="translate(408.859279 319.042187)scale(0.1 -0.1)">
       <use xlink:href="#DejaVuSans-32"/>
       <use x="63.623047" xlink:href="#DejaVuSans-2e"/>
       <use x="95.410156" xlink:href="#DejaVuSans-30"/>
      </g>
     </g>
    </g>
    <g id="text_16">
     <!-- y [m] -->
     <g transform="translate(320.969638 332.720312)scale(0.1 -0.1)">
      <use xlink:href="#DejaVuSans-79"/>
      <use x="59.179688" xlink:href="#DejaVuSans-20"/>
      <use x="90.966797" xlink:href="#DejaVuSans-5b"/>
      <use x="129.980469" xlink:href="#DejaVuSans-6d"/>
      <use x="227.392578" xlink:href="#DejaVuSans-5d"/>
     </g>
    </g>
   </g>
   <g id="matplotlib.axis_4">
    <g id="ytick_7">
     <g id="line2d_29">
      <path clip-path="url(#p3221658863)" d="M 218.579901 292.150944 
L 450 292.150944 
" style="fill:none;stroke:#b0b0b0;stroke-linecap:square;stroke-width:0.8;"/>
     </g>
     <g id="line2d_30">
      <g>
       <use style="stroke:#000000;stroke-width:0.8;" x="218.579901" xlink:href="#meb010e2596" y="292.150944"/>
      </g>
     </g>
     <g id="text_17">
      <!-- 0 -->
      <g transform="translate(205.217401 295.950163)scale(0.1 -0.1)">
       <use xlink:href="#DejaVuSans-30"/>
      </g>
     </g>
    </g>
    <g id="ytick_8">
     <g id="line2d_31">
      <path clip-path="url(#p3221658863)" d="M 218.579901 241.591855 
L 450 241.591855 
" style="fill:none;stroke:#b0b0b0;stroke-linecap:square;stroke-width:0.8;"/>
     </g>
     <g id="line2d_32">
      <g>
       <use style="stroke:#000000;stroke-width:0.8;" x="218.579901" xlink:href="#meb010e2596" y="241.591855"/>
      </g>
     </g>
     <g id="text_18">
      <!-- 10 -->
      <g transform="translate(198.854901 245.391074)scale(0.1 -0.1)">
       <use xlink:href="#DejaVuSans-31"/>
       <use x="63.623047" xlink:href="#DejaVuSans-30"/>
      </g>
     </g>
    </g>
    <g id="ytick_9">
     <g id="line2d_33">
      <path clip-path="url(#p3221658863)" d="M 218.579901 191.032767 
L 450 191.032767 
" style="fill:none;stroke:#b0b0b0;stroke-linecap:square;stroke-width:0.8;"/>
     </g>
     <g id="line2d_34">
      <g>
       <use style="stroke:#000000;stroke-width:0.8;" x="218.579901" xlink:href="#meb010e2596" y="191.032767"/>
      </g>
     </g>
     <g id="text_19">
      <!-- 20 -->
      <g transform="translate(198.854901 194.831985)scale(0.1 -0.1)">
       <use xlink:href="#DejaVuSans-32"/>
       <use x="63.623047" xlink:href="#DejaVuSans-30"/>
      </g>
     </g>
    </g>
    <g id="ytick_10">
     <g id="line2d_35">
      <path clip-path="url(#p3221658863)" d="M 218.579901 140.473678 
L 450 140.473678 
" style="fill:none;stroke:#b0b0b0;stroke-linecap:square;stroke-width:0.8;"/>
     </g>
     <g id="line2d_36">
      <g>
       <use style="stroke:#000000;stroke-width:0.8;" x="218.579901" xlink:href="#meb010e2596" y="140.473678"/>
      </g>
     </g>
     <g id="text_20">
      <!-- 30 -->
      <g transform="translate(198.854901 144.272896)scale(0.1 -0.1)">
       <use xlink:href="#DejaVuSans-33"/>
       <use x="63.623047" xlink:href="#DejaVuSans-30"/>
      </g>
     </g>
    </g>
    <g id="ytick_11">
     <g id="line2d_37">
      <path clip-path="url(#p3221658863)" d="M 218.579901 89.914589 
L 450 89.914589 
" style="fill:none;stroke:#b0b0b0;stroke-linecap:square;stroke-width:0.8;"/>
     </g>
     <g id="line2d_38">
      <g>
       <use style="stroke:#000000;stroke-width:0.8;" x="218.579901" xlink:href="#meb010e2596" y="89.914589"/>
      </g>
     </g>
     <g id="text_21">
      <!-- 40 -->
      <g transform="translate(198.854901 93.713808)scale(0.1 -0.1)">
       <use xlink:href="#DejaVuSans-34"/>
       <use x="63.623047" xlink:href="#DejaVuSans-30"/>
      </g>
     </g>
    </g>
    <g id="ytick_12">
     <g id="line2d_39">
      <path clip-path="url(#p3221658863)" d="M 218.579901 39.3555 
L 450 39.3555 
" style="fill:none;stroke:#b0b0b0;stroke-linecap:square;stroke-width:0.8;"/>
     </g>
     <g id="line2d_40">
      <g>
       <use style="stroke:#000000;stroke-width:0.8;" x="218.579901" xlink:href="#meb010e2596" y="39.3555"/>
      </g>
     </g>
     <g id="text_22">
      <!-- 50 -->
      <g transform="translate(198.854901 43.154719)scale(0.1 -0.1)">
       <use xlink:href="#DejaVuSans-35"/>
       <use x="63.623047" xlink:href="#DejaVuSans-30"/>
      </g>
     </g>
    </g>
    <g id="text_23">
     <!-- x [m] -->
     <g transform="translate(192.775213 185.219937)rotate(-90)scale(0.1 -0.1)">
      <use xlink:href="#DejaVuSans-78"/>
      <use x="59.179688" xlink:href="#DejaVuSans-20"/>
      <use x="90.966797" xlink:href="#DejaVuSans-5b"/>
      <use x="129.980469" xlink:href="#DejaVuSans-6d"/>
      <use x="227.392578" xlink:href="#DejaVuSans-5d"/>
     </g>
    </g>
   </g>
   <g id="line2d_41">
    <path clip-path="url(#p3221658863)" d="M 251.754804 292.150944 
L 251.653997 271.490289 
L 251.050256 270.864553 
L 249.503984 269.31253 
L 248.480723 267.600488 
L 248.120948 266.644619 
L 248.067561 265.909982 
L 248.242433 265.28568 
L 248.645264 264.698848 
L 249.338591 264.095534 
L 250.468746 263.423049 
L 252.1939 262.667309 
L 254.764897 261.79952 
L 258.381702 260.830382 
L 263.373321 259.737881 
L 270.123924 258.502128 
L 279.058114 257.105972 
L 290.62094 255.533399 
L 305.879564 253.693859 
L 327.488233 251.331279 
L 379.709986 245.703876 
L 394.47127 243.840772 
L 405.665402 242.212353 
L 414.450775 240.71727 
L 421.287588 239.338329 
L 426.651382 238.038175 
L 430.750638 236.823427 
L 433.794639 235.698832 
L 435.980097 234.667561 
L 437.506494 233.715453 
L 438.50916 232.843638 
L 439.116021 232.036586 
L 439.417659 231.278469 
L 439.473283 230.537211 
L 439.304958 229.796854 
L 438.894881 229.009345 
L 438.17262 228.126896 
L 437.058287 227.134037 
L 435.41618 225.983398 
L 433.022574 224.595812 
L 429.497052 222.828105 
L 422.301877 219.530406 
L 416.626553 216.812005 
L 414.789983 215.751972 
L 414.096525 215.075427 
L 413.613746 214.288254 
L 412.062252 211.258939 
L 411.227711 210.493376 
L 410.057693 209.739337 
L 408.425695 208.967267 
L 406.14909 208.148371 
L 402.976828 207.255544 
L 398.586361 206.264643 
L 392.677504 205.171098 
L 384.839092 203.957531 
L 374.509953 202.593649 
L 360.479411 200.978879 
L 339.328028 198.791816 
L 294.500626 194.198679 
L 278.672407 192.324576 
L 266.671792 190.687733 
L 257.29198 189.191243 
L 249.968752 187.805042 
L 244.351973 186.525295 
L 240.116317 185.34466 
L 236.981097 184.25288 
L 234.747531 183.253712 
L 233.208924 182.33341 
L 232.238454 181.509526 
L 231.672314 180.750503 
L 231.419793 180.056692 
L 231.407868 179.379877 
L 231.624803 178.688065 
L 232.099536 177.949443 
L 232.899473 177.132464 
L 234.15288 176.189957 
L 235.983439 175.107074 
L 238.615286 173.82132 
L 242.49354 172.190917 
L 249.565383 169.502174 
L 257.013187 166.595166 
L 260.923212 164.836523 
L 263.694352 163.358916 
L 265.720948 162.037508 
L 267.186889 160.826116 
L 268.21781 159.693821 
L 268.897963 158.625343 
L 269.298574 157.588867 
L 269.458688 156.568562 
L 269.398484 155.5161 
L 269.106991 154.399328 
L 268.5543 153.186106 
L 267.673232 151.811979 
L 266.369803 150.212522 
L 264.445082 148.226276 
L 261.216213 145.255181 
L 256.072437 140.503087 
L 253.789749 138.075076 
L 252.107038 135.968993 
L 250.830072 134.023708 
L 249.865917 132.158667 
L 249.158876 130.309313 
L 248.688086 128.459642 
L 248.429553 126.544904 
L 248.379986 124.500298 
L 248.553165 122.228528 
L 248.990287 119.551125 
L 249.835409 115.883853 
L 251.835757 107.477212 
L 252.422291 103.85758 
L 252.762256 100.367614 
L 252.891792 96.715239 
L 252.8099 92.527161 
L 252.453983 86.780727 
L 251.641292 74.378638 
L 251.480004 67.804136 
L 251.523467 59.882253 
L 251.753264 47.463721 
L 251.753264 47.463721 
" style="fill:none;stroke:#0000ff;stroke-linecap:square;stroke-width:1.5;"/>
   </g>
   <g id="line2d_42">
    <path clip-path="url(#p3221658863)" d="M 251.754804 292.150944 
L 251.650218 271.60613 
L 251.216503 271.098923 
L 248.389173 268.223183 
L 247.988278 267.416602 
L 247.813531 266.5823 
L 247.902345 265.863107 
L 248.203904 265.164629 
L 248.853012 264.279859 
L 249.779615 263.378389 
L 250.895196 262.612087 
L 252.453223 261.833126 
L 254.296833 260.905642 
L 254.851607 260.550301 
L 259.70525 259.498402 
L 267.806291 257.926731 
L 277.618051 256.260962 
L 291.989909 254.068361 
L 309.838918 251.565584 
L 332.228882 248.667012 
L 379.197219 242.656423 
L 392.805289 240.646902 
L 403.114454 238.907227 
L 411.100837 237.343721 
L 417.422249 235.888051 
L 422.357075 234.531366 
L 426.160238 233.262832 
L 429.014565 232.086062 
L 431.120142 230.98736 
L 432.613341 229.968258 
L 433.631024 229.013506 
L 434.265057 228.123633 
L 434.600833 227.282733 
L 434.69628 226.458624 
L 434.571163 225.619134 
L 434.204805 224.716046 
L 433.558082 223.733522 
L 432.552176 222.623593 
L 431.058099 221.322345 
L 428.875302 219.733758 
L 425.442233 217.536736 
L 422.517282 215.609997 
L 421.917089 214.868145 
L 421.377652 213.806134 
L 420.644322 212.441802 
L 419.937053 211.619768 
L 418.98212 210.857454 
L 417.647143 210.090697 
L 415.815272 209.305317 
L 413.238094 208.456549 
L 409.681842 207.535191 
L 404.889466 206.534481 
L 398.491058 205.434228 
L 389.950471 204.203413 
L 378.784708 202.829723 
L 363.612476 201.201285 
L 340.441363 198.963077 
L 296.654633 194.752623 
L 279.846403 192.893664 
L 267.040439 191.261326 
L 257.087673 189.777305 
L 249.286386 188.398982 
L 243.210128 187.108075 
L 238.614188 185.913888 
L 235.203184 184.807102 
L 232.767101 183.792106 
L 231.110379 182.871739 
L 230.057284 182.047676 
L 229.444376 181.304621 
L 229.150424 180.610678 
L 229.111659 179.94993 
L 229.298679 179.290337 
L 229.73828 178.583992 
L 230.501612 177.799432 
L 231.700377 176.905603 
L 233.484097 175.8719 
L 236.029069 174.668035 
L 239.719248 173.184732 
L 245.507559 171.123004 
L 258.103631 166.684031 
L 262.149602 164.993976 
L 265.050789 163.551508 
L 267.158712 162.264385 
L 268.674582 161.086781 
L 269.721411 160.004155 
L 270.420686 158.969016 
L 270.825652 157.981974 
L 270.99061 156.994882 
L 270.930584 155.991837 
L 270.637305 154.92455 
L 270.077489 153.760941 
L 269.190072 152.45281 
L 267.879935 150.935844 
L 265.952045 149.064995 
L 262.855774 146.404458 
L 256.315414 140.835006 
L 253.948568 138.489796 
L 252.181232 136.433627 
L 250.825995 134.521737 
L 249.79689 132.689877 
L 249.03925 130.889783 
L 248.521078 129.089272 
L 248.217124 127.223628 
L 248.12449 125.260523 
L 248.249542 123.102687 
L 248.62574 120.604132 
L 249.346515 117.407869 
L 252.094003 106.080827 
L 252.591669 102.607316 
L 252.86327 99.133628 
L 252.928381 95.383907 
L 252.773267 90.936154 
L 252.269436 83.874896 
L 251.680189 74.849304 
L 251.488586 68.291048 
L 251.501844 60.693836 
L 251.758058 46.294832 
L 251.758058 46.294832 
" style="fill:none;stroke:#ffa500;stroke-linecap:square;stroke-width:1.5;"/>
   </g>
   <g id="patch_8">
    <path d="M 218.579901 304.44375 
L 218.579901 39.3555 
" style="fill:none;stroke:#000000;stroke-linecap:square;stroke-linejoin:miter;stroke-width:0.8;"/>
   </g>
   <g id="patch_9">
    <path d="M 450 304.44375 
L 450 39.3555 
" style="fill:none;stroke:#000000;stroke-linecap:square;stroke-linejoin:miter;stroke-width:0.8;"/>
   </g>
   <g id="patch_10">
    <path d="M 218.579901 304.44375 
L 450 304.44375 
" style="fill:none;stroke:#000000;stroke-linecap:square;stroke-linejoin:miter;stroke-width:0.8;"/>
   </g>
   <g id="patch_11">
    <path d="M 218.579901 39.3555 
L 450 39.3555 
" style="fill:none;stroke:#000000;stroke-linecap:square;stroke-linejoin:miter;stroke-width:0.8;"/>
   </g>
   <g id="text_24">
    <!-- Trajectoire en fonction de -->
    <g transform="translate(257.901513 19.918125)scale(0.12 -0.12)">
     <defs>
      <path d="M -19 4666 
L 3928 4666 
L 3928 4134 
L 2272 4134 
L 2272 0 
L 1638 0 
L 1638 4134 
L -19 4134 
L -19 4666 
z
" id="DejaVuSans-54" transform="scale(0.015625)"/>
      <path d="M 2631 2963 
Q 2534 3019 2420 3045 
Q 2306 3072 2169 3072 
Q 1681 3072 1420 2755 
Q 1159 2438 1159 1844 
L 1159 0 
L 581 0 
L 581 3500 
L 1159 3500 
L 1159 2956 
Q 1341 3275 1631 3429 
Q 1922 3584 2338 3584 
Q 2397 3584 2469 3576 
Q 2541 3569 2628 3553 
L 2631 2963 
z
" id="DejaVuSans-72" transform="scale(0.015625)"/>
      <path d="M 2194 1759 
Q 1497 1759 1228 1600 
Q 959 1441 959 1056 
Q 959 750 1161 570 
Q 1363 391 1709 391 
Q 2188 391 2477 730 
Q 2766 1069 2766 1631 
L 2766 1759 
L 2194 1759 
z
M 3341 1997 
L 3341 0 
L 2766 0 
L 2766 531 
Q 2569 213 2275 61 
Q 1981 -91 1556 -91 
Q 1019 -91 701 211 
Q 384 513 384 1019 
Q 384 1609 779 1909 
Q 1175 2209 1959 2209 
L 2766 2209 
L 2766 2266 
Q 2766 2663 2505 2880 
Q 2244 3097 1772 3097 
Q 1472 3097 1187 3025 
Q 903 2953 641 2809 
L 641 3341 
Q 956 3463 1253 3523 
Q 1550 3584 1831 3584 
Q 2591 3584 2966 3190 
Q 3341 2797 3341 1997 
z
" id="DejaVuSans-61" transform="scale(0.015625)"/>
      <path d="M 603 3500 
L 1178 3500 
L 1178 -63 
Q 1178 -731 923 -1031 
Q 669 -1331 103 -1331 
L -116 -1331 
L -116 -844 
L 38 -844 
Q 366 -844 484 -692 
Q 603 -541 603 -63 
L 603 3500 
z
M 603 4863 
L 1178 4863 
L 1178 4134 
L 603 4134 
L 603 4863 
z
" id="DejaVuSans-6a" transform="scale(0.015625)"/>
      <path d="M 3597 1894 
L 3597 1613 
L 953 1613 
Q 991 1019 1311 708 
Q 1631 397 2203 397 
Q 2534 397 2845 478 
Q 3156 559 3463 722 
L 3463 178 
Q 3153 47 2828 -22 
Q 2503 -91 2169 -91 
Q 1331 -91 842 396 
Q 353 884 353 1716 
Q 353 2575 817 3079 
Q 1281 3584 2069 3584 
Q 2775 3584 3186 3129 
Q 3597 2675 3597 1894 
z
M 3022 2063 
Q 3016 2534 2758 2815 
Q 2500 3097 2075 3097 
Q 1594 3097 1305 2825 
Q 1016 2553 972 2059 
L 3022 2063 
z
" id="DejaVuSans-65" transform="scale(0.015625)"/>
      <path d="M 3122 3366 
L 3122 2828 
Q 2878 2963 2633 3030 
Q 2388 3097 2138 3097 
Q 1578 3097 1268 2742 
Q 959 2388 959 1747 
Q 959 1106 1268 751 
Q 1578 397 2138 397 
Q 2388 397 2633 464 
Q 2878 531 3122 666 
L 3122 134 
Q 2881 22 2623 -34 
Q 2366 -91 2075 -91 
Q 1284 -91 818 406 
Q 353 903 353 1747 
Q 353 2603 823 3093 
Q 1294 3584 2113 3584 
Q 2378 3584 2631 3529 
Q 2884 3475 3122 3366 
z
" id="DejaVuSans-63" transform="scale(0.015625)"/>
      <path d="M 1172 4494 
L 1172 3500 
L 2356 3500 
L 2356 3053 
L 1172 3053 
L 1172 1153 
Q 1172 725 1289 603 
Q 1406 481 1766 481 
L 2356 481 
L 2356 0 
L 1766 0 
Q 1100 0 847 248 
Q 594 497 594 1153 
L 594 3053 
L 172 3053 
L 172 3500 
L 594 3500 
L 594 4494 
L 1172 4494 
z
" id="DejaVuSans-74" transform="scale(0.015625)"/>
      <path d="M 1959 3097 
Q 1497 3097 1228 2736 
Q 959 2375 959 1747 
Q 959 1119 1226 758 
Q 1494 397 1959 397 
Q 2419 397 2687 759 
Q 2956 1122 2956 1747 
Q 2956 2369 2687 2733 
Q 2419 3097 1959 3097 
z
M 1959 3584 
Q 2709 3584 3137 3096 
Q 3566 2609 3566 1747 
Q 3566 888 3137 398 
Q 2709 -91 1959 -91 
Q 1206 -91 779 398 
Q 353 888 353 1747 
Q 353 2609 779 3096 
Q 1206 3584 1959 3584 
z
" id="DejaVuSans-6f" transform="scale(0.015625)"/>
      <path d="M 603 3500 
L 1178 3500 
L 1178 0 
L 603 0 
L 603 3500 
z
M 603 4863 
L 1178 4863 
L 1178 4134 
L 603 4134 
L 603 4863 
z
" id="DejaVuSans-69" transform="scale(0.015625)"/>
      <path d="M 3513 2113 
L 3513 0 
L 2938 0 
L 2938 2094 
Q 2938 2591 2744 2837 
Q 2550 3084 2163 3084 
Q 1697 3084 1428 2787 
Q 1159 2491 1159 1978 
L 1159 0 
L 581 0 
L 581 3500 
L 1159 3500 
L 1159 2956 
Q 1366 3272 1645 3428 
Q 1925 3584 2291 3584 
Q 2894 3584 3203 3211 
Q 3513 2838 3513 2113 
z
" id="DejaVuSans-6e" transform="scale(0.015625)"/>
      <path d="M 2375 4863 
L 2375 4384 
L 1825 4384 
Q 1516 4384 1395 4259 
Q 1275 4134 1275 3809 
L 1275 3500 
L 2222 3500 
L 2222 3053 
L 1275 3053 
L 1275 0 
L 697 0 
L 697 3053 
L 147 3053 
L 147 3500 
L 697 3500 
L 697 3744 
Q 697 4328 969 4595 
Q 1241 4863 1831 4863 
L 2375 4863 
z
" id="DejaVuSans-66" transform="scale(0.015625)"/>
      <path d="M 2906 2969 
L 2906 4863 
L 3481 4863 
L 3481 0 
L 2906 0 
L 2906 525 
Q 2725 213 2448 61 
Q 2172 -91 1784 -91 
Q 1150 -91 751 415 
Q 353 922 353 1747 
Q 353 2572 751 3078 
Q 1150 3584 1784 3584 
Q 2172 3584 2448 3432 
Q 2725 3281 2906 2969 
z
M 947 1747 
Q 947 1113 1208 752 
Q 1469 391 1925 391 
Q 2381 391 2643 752 
Q 2906 1113 2906 1747 
Q 2906 2381 2643 2742 
Q 2381 3103 1925 3103 
Q 1469 3103 1208 2742 
Q 947 2381 947 1747 
z
" id="DejaVuSans-64" transform="scale(0.015625)"/>
     </defs>
     <use xlink:href="#DejaVuSans-54"/>
     <use x="46.333984" xlink:href="#DejaVuSans-72"/>
     <use x="87.447266" xlink:href="#DejaVuSans-61"/>
     <use x="148.726562" xlink:href="#DejaVuSans-6a"/>
     <use x="176.509766" xlink:href="#DejaVuSans-65"/>
     <use x="238.033203" xlink:href="#DejaVuSans-63"/>
     <use x="293.013672" xlink:href="#DejaVuSans-74"/>
     <use x="332.222656" xlink:href="#DejaVuSans-6f"/>
     <use x="393.404297" xlink:href="#DejaVuSans-69"/>
     <use x="421.1875" xlink:href="#DejaVuSans-72"/>
     <use x="460.050781" xlink:href="#DejaVuSans-65"/>
     <use x="521.574219" xlink:href="#DejaVuSans-20"/>
     <use x="553.361328" xlink:href="#DejaVuSans-65"/>
     <use x="614.884766" xlink:href="#DejaVuSans-6e"/>
     <use x="678.263672" xlink:href="#DejaVuSans-20"/>
     <use x="710.050781" xlink:href="#DejaVuSans-66"/>
     <use x="745.255859" xlink:href="#DejaVuSans-6f"/>
     <use x="806.4375" xlink:href="#DejaVuSans-6e"/>
     <use x="869.816406" xlink:href="#DejaVuSans-63"/>
     <use x="924.796875" xlink:href="#DejaVuSans-74"/>
     <use x="964.005859" xlink:href="#DejaVuSans-69"/>
     <use x="991.789062" xlink:href="#DejaVuSans-6f"/>
     <use x="1052.970703" xlink:href="#DejaVuSans-6e"/>
     <use x="1116.349609" xlink:href="#DejaVuSans-20"/>
     <use x="1148.136719" xlink:href="#DejaVuSans-64"/>
     <use x="1211.613281" xlink:href="#DejaVuSans-65"/>
    </g>
    <!--  la masse du chargement -->
    <g transform="translate(257.910888 33.3555)scale(0.12 -0.12)">
     <defs>
      <path d="M 603 4863 
L 1178 4863 
L 1178 0 
L 603 0 
L 603 4863 
z
" id="DejaVuSans-6c" transform="scale(0.015625)"/>
      <path d="M 2834 3397 
L 2834 2853 
Q 2591 2978 2328 3040 
Q 2066 3103 1784 3103 
Q 1356 3103 1142 2972 
Q 928 2841 928 2578 
Q 928 2378 1081 2264 
Q 1234 2150 1697 2047 
L 1894 2003 
Q 2506 1872 2764 1633 
Q 3022 1394 3022 966 
Q 3022 478 2636 193 
Q 2250 -91 1575 -91 
Q 1294 -91 989 -36 
Q 684 19 347 128 
L 347 722 
Q 666 556 975 473 
Q 1284 391 1588 391 
Q 1994 391 2212 530 
Q 2431 669 2431 922 
Q 2431 1156 2273 1281 
Q 2116 1406 1581 1522 
L 1381 1569 
Q 847 1681 609 1914 
Q 372 2147 372 2553 
Q 372 3047 722 3315 
Q 1072 3584 1716 3584 
Q 2034 3584 2315 3537 
Q 2597 3491 2834 3397 
z
" id="DejaVuSans-73" transform="scale(0.015625)"/>
      <path d="M 544 1381 
L 544 3500 
L 1119 3500 
L 1119 1403 
Q 1119 906 1312 657 
Q 1506 409 1894 409 
Q 2359 409 2629 706 
Q 2900 1003 2900 1516 
L 2900 3500 
L 3475 3500 
L 3475 0 
L 2900 0 
L 2900 538 
Q 2691 219 2414 64 
Q 2138 -91 1772 -91 
Q 1169 -91 856 284 
Q 544 659 544 1381 
z
M 1991 3584 
L 1991 3584 
z
" id="DejaVuSans-75" transform="scale(0.015625)"/>
      <path d="M 3513 2113 
L 3513 0 
L 2938 0 
L 2938 2094 
Q 2938 2591 2744 2837 
Q 2550 3084 2163 3084 
Q 1697 3084 1428 2787 
Q 1159 2491 1159 1978 
L 1159 0 
L 581 0 
L 581 4863 
L 1159 4863 
L 1159 2956 
Q 1366 3272 1645 3428 
Q 1925 3584 2291 3584 
Q 2894 3584 3203 3211 
Q 3513 2838 3513 2113 
z
" id="DejaVuSans-68" transform="scale(0.015625)"/>
      <path d="M 2906 1791 
Q 2906 2416 2648 2759 
Q 2391 3103 1925 3103 
Q 1463 3103 1205 2759 
Q 947 2416 947 1791 
Q 947 1169 1205 825 
Q 1463 481 1925 481 
Q 2391 481 2648 825 
Q 2906 1169 2906 1791 
z
M 3481 434 
Q 3481 -459 3084 -895 
Q 2688 -1331 1869 -1331 
Q 1566 -1331 1297 -1286 
Q 1028 -1241 775 -1147 
L 775 -588 
Q 1028 -725 1275 -790 
Q 1522 -856 1778 -856 
Q 2344 -856 2625 -561 
Q 2906 -266 2906 331 
L 2906 616 
Q 2728 306 2450 153 
Q 2172 0 1784 0 
Q 1141 0 747 490 
Q 353 981 353 1791 
Q 353 2603 747 3093 
Q 1141 3584 1784 3584 
Q 2172 3584 2450 3431 
Q 2728 3278 2906 2969 
L 2906 3500 
L 3481 3500 
L 3481 434 
z
" id="DejaVuSans-67" transform="scale(0.015625)"/>
     </defs>
     <use xlink:href="#DejaVuSans-20"/>
     <use x="31.787109" xlink:href="#DejaVuSans-6c"/>
     <use x="59.570312" xlink:href="#DejaVuSans-61"/>
     <use x="120.849609" xlink:href="#DejaVuSans-20"/>
     <use x="152.636719" xlink:href="#DejaVuSans-6d"/>
     <use x="250.048828" xlink:href="#DejaVuSans-61"/>
     <use x="311.328125" xlink:href="#DejaVuSans-73"/>
     <use x="363.427734" xlink:href="#DejaVuSans-73"/>
     <use x="415.527344" xlink:href="#DejaVuSans-65"/>
     <use x="477.050781" xlink:href="#DejaVuSans-20"/>
     <use x="508.837891" xlink:href="#DejaVuSans-64"/>
     <use x="572.314453" xlink:href="#DejaVuSans-75"/>
     <use x="635.693359" xlink:href="#DejaVuSans-20"/>
     <use x="667.480469" xlink:href="#DejaVuSans-63"/>
     <use x="722.460938" xlink:href="#DejaVuSans-68"/>
     <use x="785.839844" xlink:href="#DejaVuSans-61"/>
     <use x="847.119141" xlink:href="#DejaVuSans-72"/>
     <use x="886.482422" xlink:href="#DejaVuSans-67"/>
     <use x="949.958984" xlink:href="#DejaVuSans-65"/>
     <use x="1011.482422" xlink:href="#DejaVuSans-6d"/>
     <use x="1108.894531" xlink:href="#DejaVuSans-65"/>
     <use x="1170.417969" xlink:href="#DejaVuSans-6e"/>
     <use x="1233.796875" xlink:href="#DejaVuSans-74"/>
    </g>
   </g>
   <g id="legend_1">
    <g id="patch_12">
     <path d="M 373.417188 76.71175 
L 443 76.71175 
Q 445 76.71175 445 74.71175 
L 445 46.3555 
Q 445 44.3555 443 44.3555 
L 373.417188 44.3555 
Q 371.417188 44.3555 371.417188 46.3555 
L 371.417188 74.71175 
Q 371.417188 76.71175 373.417188 76.71175 
z
" style="fill:#ffffff;opacity:0.8;stroke:#cccccc;stroke-linejoin:miter;"/>
    </g>
    <g id="line2d_43">
     <path d="M 375.417188 52.453937 
L 395.417188 52.453937 
" style="fill:none;stroke:#0000ff;stroke-linecap:square;stroke-width:1.5;"/>
    </g>
    <g id="line2d_44"/>
    <g id="text_25">
     <!-- 0.01 kg -->
     <g transform="translate(403.417188 55.953937)scale(0.1 -0.1)">
      <defs>
       <path d="M 581 4863 
L 1159 4863 
L 1159 1991 
L 2875 3500 
L 3609 3500 
L 1753 1863 
L 3688 0 
L 2938 0 
L 1159 1709 
L 1159 0 
L 581 0 
L 581 4863 
z
" id="DejaVuSans-6b" transform="scale(0.015625)"/>
      </defs>
      <use xlink:href="#DejaVuSans-30"/>
      <use x="63.623047" xlink:href="#DejaVuSans-2e"/>
      <use x="95.410156" xlink:href="#DejaVuSans-30"/>
      <use x="159.033203" xlink:href="#DejaVuSans-31"/>
      <use x="222.65625" xlink:href="#DejaVuSans-20"/>
      <use x="254.443359" xlink:href="#DejaVuSans-6b"/>
      <use x="312.353516" xlink:href="#DejaVuSans-67"/>
     </g>
    </g>
    <g id="line2d_45">
     <path d="M 375.417188 67.132062 
L 395.417188 67.132062 
" style="fill:none;stroke:#ffa500;stroke-linecap:square;stroke-width:1.5;"/>
    </g>
    <g id="line2d_46"/>
    <g id="text_26">
     <!-- 32.5 kg -->
     <g transform="translate(403.417188 70.632062)scale(0.1 -0.1)">
      <use xlink:href="#DejaVuSans-33"/>
      <use x="63.623047" xlink:href="#DejaVuSans-32"/>
      <use x="127.246094" xlink:href="#DejaVuSans-2e"/>
      <use x="159.033203" xlink:href="#DejaVuSans-35"/>
      <use x="222.65625" xlink:href="#DejaVuSans-20"/>
      <use x="254.443359" xlink:href="#DejaVuSans-6b"/>
      <use x="312.353516" xlink:href="#DejaVuSans-67"/>
     </g>
    </g>
   </g>
  </g>
 </g>
 <defs>
  <clipPath id="pbe2275f8d1">
   <rect height="265.08825" width="14.177475" x="119.421312" y="39.3555"/>
  </clipPath>
  <clipPath id="p3221658863">
   <rect height="265.08825" width="231.420099" x="218.579901" y="39.3555"/>
  </clipPath>
 </defs>
</svg>
