<?xml version="1.0" encoding="utf-8" standalone="no"?>
<!DOCTYPE svg PUBLIC "-//W3C//DTD SVG 1.1//EN"
  "http://www.w3.org/Graphics/SVG/1.1/DTD/svg11.dtd">
<svg height="345.6pt" version="1.1" viewBox="0 0 460.8 345.6" width="460.8pt" xmlns="http://www.w3.org/2000/svg" xmlns:xlink="http://www.w3.org/1999/xlink">
 <metadata>
  <rdf:RDF xmlns:cc="http://creativecommons.org/ns#" xmlns:dc="http://purl.org/dc/elements/1.1/" xmlns:rdf="http://www.w3.org/1999/02/22-rdf-syntax-ns#">
   <cc:Work>
    <dc:type rdf:resource="http://purl.org/dc/dcmitype/StillImage"/>
    <dc:date>2023-05-12T01:04:44.103734</dc:date>
    <dc:format>image/svg+xml</dc:format>
    <dc:creator>
     <cc:Agent>
      <dc:title>Matplotlib v3.4.3, https://matplotlib.org/</dc:title>
     </cc:Agent>
    </dc:creator>
   </cc:Work>
  </rdf:RDF>
 </metadata>
 <defs>
  <style type="text/css">*{stroke-linecap:butt;stroke-linejoin:round;}</style>
 </defs>
 <g id="figure_1">
  <g id="patch_1">
   <path d="M 0 345.6 
L 460.8 345.6 
L 460.8 0 
L 0 0 
z
" style="fill:#ffffff;"/>
  </g>
  <g id="axes_1">
   <g id="patch_2">
    <path d="M 119.050733 304.44375 
L 133.969366 304.44375 
L 133.969366 39.3555 
L 119.050733 39.3555 
z
" style="fill:#ffffff;"/>
   </g>
   <g id="matplotlib.axis_1">
    <g id="xtick_1">
     <g id="line2d_1">
      <path clip-path="url(#p0f3e2bbd76)" d="M 121.519412 304.44375 
L 121.519412 39.3555 
" style="fill:none;stroke:#b0b0b0;stroke-linecap:square;stroke-width:0.8;"/>
     </g>
     <g id="line2d_2">
      <defs>
       <path d="M 0 0 
L 0 3.5 
" id="m563ab33771" style="stroke:#000000;stroke-width:0.8;"/>
      </defs>
      <g>
       <use style="stroke:#000000;stroke-width:0.8;" x="121.519412" xlink:href="#m563ab33771" y="304.44375"/>
      </g>
     </g>
     <g id="text_1">
      <!-- 0 -->
      <g transform="translate(118.338162 319.042187)scale(0.1 -0.1)">
       <defs>
        <path d="M 2034 4250 
Q 1547 4250 1301 3770 
Q 1056 3291 1056 2328 
Q 1056 1369 1301 889 
Q 1547 409 2034 409 
Q 2525 409 2770 889 
Q 3016 1369 3016 2328 
Q 3016 3291 2770 3770 
Q 2525 4250 2034 4250 
z
M 2034 4750 
Q 2819 4750 3233 4129 
Q 3647 3509 3647 2328 
Q 3647 1150 3233 529 
Q 2819 -91 2034 -91 
Q 1250 -91 836 529 
Q 422 1150 422 2328 
Q 422 3509 836 4129 
Q 1250 4750 2034 4750 
z
" id="DejaVuSans-30" transform="scale(0.015625)"/>
       </defs>
       <use xlink:href="#DejaVuSans-30"/>
      </g>
     </g>
    </g>
    <g id="xtick_2">
     <g id="line2d_3">
      <path clip-path="url(#p0f3e2bbd76)" d="M 131.522718 304.44375 
L 131.522718 39.3555 
" style="fill:none;stroke:#b0b0b0;stroke-linecap:square;stroke-width:0.8;"/>
     </g>
     <g id="line2d_4">
      <g>
       <use style="stroke:#000000;stroke-width:0.8;" x="131.522718" xlink:href="#m563ab33771" y="304.44375"/>
      </g>
     </g>
     <g id="text_2">
      <!-- 2 -->
      <g transform="translate(128.341468 319.042187)scale(0.1 -0.1)">
       <defs>
        <path d="M 1228 531 
L 3431 531 
L 3431 0 
L 469 0 
L 469 531 
Q 828 903 1448 1529 
Q 2069 2156 2228 2338 
Q 2531 2678 2651 2914 
Q 2772 3150 2772 3378 
Q 2772 3750 2511 3984 
Q 2250 4219 1831 4219 
Q 1534 4219 1204 4116 
Q 875 4013 500 3803 
L 500 4441 
Q 881 4594 1212 4672 
Q 1544 4750 1819 4750 
Q 2544 4750 2975 4387 
Q 3406 4025 3406 3419 
Q 3406 3131 3298 2873 
Q 3191 2616 2906 2266 
Q 2828 2175 2409 1742 
Q 1991 1309 1228 531 
z
" id="DejaVuSans-32" transform="scale(0.015625)"/>
       </defs>
       <use xlink:href="#DejaVuSans-32"/>
      </g>
     </g>
    </g>
    <g id="text_3">
     <!-- y [m] -->
     <g transform="translate(113.189737 332.720312)scale(0.1 -0.1)">
      <defs>
       <path d="M 2059 -325 
Q 1816 -950 1584 -1140 
Q 1353 -1331 966 -1331 
L 506 -1331 
L 506 -850 
L 844 -850 
Q 1081 -850 1212 -737 
Q 1344 -625 1503 -206 
L 1606 56 
L 191 3500 
L 800 3500 
L 1894 763 
L 2988 3500 
L 3597 3500 
L 2059 -325 
z
" id="DejaVuSans-79" transform="scale(0.015625)"/>
       <path id="DejaVuSans-20" transform="scale(0.015625)"/>
       <path d="M 550 4863 
L 1875 4863 
L 1875 4416 
L 1125 4416 
L 1125 -397 
L 1875 -397 
L 1875 -844 
L 550 -844 
L 550 4863 
z
" id="DejaVuSans-5b" transform="scale(0.015625)"/>
       <path d="M 3328 2828 
Q 3544 3216 3844 3400 
Q 4144 3584 4550 3584 
Q 5097 3584 5394 3201 
Q 5691 2819 5691 2113 
L 5691 0 
L 5113 0 
L 5113 2094 
Q 5113 2597 4934 2840 
Q 4756 3084 4391 3084 
Q 3944 3084 3684 2787 
Q 3425 2491 3425 1978 
L 3425 0 
L 2847 0 
L 2847 2094 
Q 2847 2600 2669 2842 
Q 2491 3084 2119 3084 
Q 1678 3084 1418 2786 
Q 1159 2488 1159 1978 
L 1159 0 
L 581 0 
L 581 3500 
L 1159 3500 
L 1159 2956 
Q 1356 3278 1631 3431 
Q 1906 3584 2284 3584 
Q 2666 3584 2933 3390 
Q 3200 3197 3328 2828 
z
" id="DejaVuSans-6d" transform="scale(0.015625)"/>
       <path d="M 1947 4863 
L 1947 -844 
L 622 -844 
L 622 -397 
L 1369 -397 
L 1369 4416 
L 622 4416 
L 622 4863 
L 1947 4863 
z
" id="DejaVuSans-5d" transform="scale(0.015625)"/>
      </defs>
      <use xlink:href="#DejaVuSans-79"/>
      <use x="59.179688" xlink:href="#DejaVuSans-20"/>
      <use x="90.966797" xlink:href="#DejaVuSans-5b"/>
      <use x="129.980469" xlink:href="#DejaVuSans-6d"/>
      <use x="227.392578" xlink:href="#DejaVuSans-5d"/>
     </g>
    </g>
   </g>
   <g id="matplotlib.axis_2">
    <g id="ytick_1">
     <g id="line2d_5">
      <path clip-path="url(#p0f3e2bbd76)" d="M 119.050733 289.438138 
L 133.969366 289.438138 
" style="fill:none;stroke:#b0b0b0;stroke-linecap:square;stroke-width:0.8;"/>
     </g>
     <g id="line2d_6">
      <defs>
       <path d="M 0 0 
L -3.5 0 
" id="m7d288e7840" style="stroke:#000000;stroke-width:0.8;"/>
      </defs>
      <g>
       <use style="stroke:#000000;stroke-width:0.8;" x="119.050733" xlink:href="#m7d288e7840" y="289.438138"/>
      </g>
     </g>
     <g id="text_4">
      <!-- 0 -->
      <g transform="translate(105.688233 293.237356)scale(0.1 -0.1)">
       <use xlink:href="#DejaVuSans-30"/>
      </g>
     </g>
    </g>
    <g id="ytick_2">
     <g id="line2d_7">
      <path clip-path="url(#p0f3e2bbd76)" d="M 119.050733 239.42161 
L 133.969366 239.42161 
" style="fill:none;stroke:#b0b0b0;stroke-linecap:square;stroke-width:0.8;"/>
     </g>
     <g id="line2d_8">
      <g>
       <use style="stroke:#000000;stroke-width:0.8;" x="119.050733" xlink:href="#m7d288e7840" y="239.42161"/>
      </g>
     </g>
     <g id="text_5">
      <!-- 10 -->
      <g transform="translate(99.325733 243.220829)scale(0.1 -0.1)">
       <defs>
        <path d="M 794 531 
L 1825 531 
L 1825 4091 
L 703 3866 
L 703 4441 
L 1819 4666 
L 2450 4666 
L 2450 531 
L 3481 531 
L 3481 0 
L 794 0 
L 794 531 
z
" id="DejaVuSans-31" transform="scale(0.015625)"/>
       </defs>
       <use xlink:href="#DejaVuSans-31"/>
       <use x="63.623047" xlink:href="#DejaVuSans-30"/>
      </g>
     </g>
    </g>
    <g id="ytick_3">
     <g id="line2d_9">
      <path clip-path="url(#p0f3e2bbd76)" d="M 119.050733 189.405083 
L 133.969366 189.405083 
" style="fill:none;stroke:#b0b0b0;stroke-linecap:square;stroke-width:0.8;"/>
     </g>
     <g id="line2d_10">
      <g>
       <use style="stroke:#000000;stroke-width:0.8;" x="119.050733" xlink:href="#m7d288e7840" y="189.405083"/>
      </g>
     </g>
     <g id="text_6">
      <!-- 20 -->
      <g transform="translate(99.325733 193.204301)scale(0.1 -0.1)">
       <use xlink:href="#DejaVuSans-32"/>
       <use x="63.623047" xlink:href="#DejaVuSans-30"/>
      </g>
     </g>
    </g>
    <g id="ytick_4">
     <g id="line2d_11">
      <path clip-path="url(#p0f3e2bbd76)" d="M 119.050733 139.388555 
L 133.969366 139.388555 
" style="fill:none;stroke:#b0b0b0;stroke-linecap:square;stroke-width:0.8;"/>
     </g>
     <g id="line2d_12">
      <g>
       <use style="stroke:#000000;stroke-width:0.8;" x="119.050733" xlink:href="#m7d288e7840" y="139.388555"/>
      </g>
     </g>
     <g id="text_7">
      <!-- 30 -->
      <g transform="translate(99.325733 143.187774)scale(0.1 -0.1)">
       <defs>
        <path d="M 2597 2516 
Q 3050 2419 3304 2112 
Q 3559 1806 3559 1356 
Q 3559 666 3084 287 
Q 2609 -91 1734 -91 
Q 1441 -91 1130 -33 
Q 819 25 488 141 
L 488 750 
Q 750 597 1062 519 
Q 1375 441 1716 441 
Q 2309 441 2620 675 
Q 2931 909 2931 1356 
Q 2931 1769 2642 2001 
Q 2353 2234 1838 2234 
L 1294 2234 
L 1294 2753 
L 1863 2753 
Q 2328 2753 2575 2939 
Q 2822 3125 2822 3475 
Q 2822 3834 2567 4026 
Q 2313 4219 1838 4219 
Q 1578 4219 1281 4162 
Q 984 4106 628 3988 
L 628 4550 
Q 988 4650 1302 4700 
Q 1616 4750 1894 4750 
Q 2613 4750 3031 4423 
Q 3450 4097 3450 3541 
Q 3450 3153 3228 2886 
Q 3006 2619 2597 2516 
z
" id="DejaVuSans-33" transform="scale(0.015625)"/>
       </defs>
       <use xlink:href="#DejaVuSans-33"/>
       <use x="63.623047" xlink:href="#DejaVuSans-30"/>
      </g>
     </g>
    </g>
    <g id="ytick_5">
     <g id="line2d_13">
      <path clip-path="url(#p0f3e2bbd76)" d="M 119.050733 89.372028 
L 133.969366 89.372028 
" style="fill:none;stroke:#b0b0b0;stroke-linecap:square;stroke-width:0.8;"/>
     </g>
     <g id="line2d_14">
      <g>
       <use style="stroke:#000000;stroke-width:0.8;" x="119.050733" xlink:href="#m7d288e7840" y="89.372028"/>
      </g>
     </g>
     <g id="text_8">
      <!-- 40 -->
      <g transform="translate(99.325733 93.171246)scale(0.1 -0.1)">
       <defs>
        <path d="M 2419 4116 
L 825 1625 
L 2419 1625 
L 2419 4116 
z
M 2253 4666 
L 3047 4666 
L 3047 1625 
L 3713 1625 
L 3713 1100 
L 3047 1100 
L 3047 0 
L 2419 0 
L 2419 1100 
L 313 1100 
L 313 1709 
L 2253 4666 
z
" id="DejaVuSans-34" transform="scale(0.015625)"/>
       </defs>
       <use xlink:href="#DejaVuSans-34"/>
       <use x="63.623047" xlink:href="#DejaVuSans-30"/>
      </g>
     </g>
    </g>
    <g id="ytick_6">
     <g id="line2d_15">
      <path clip-path="url(#p0f3e2bbd76)" d="M 119.050733 39.3555 
L 133.969366 39.3555 
" style="fill:none;stroke:#b0b0b0;stroke-linecap:square;stroke-width:0.8;"/>
     </g>
     <g id="line2d_16">
      <g>
       <use style="stroke:#000000;stroke-width:0.8;" x="119.050733" xlink:href="#m7d288e7840" y="39.3555"/>
      </g>
     </g>
     <g id="text_9">
      <!-- 50 -->
      <g transform="translate(99.325733 43.154719)scale(0.1 -0.1)">
       <defs>
        <path d="M 691 4666 
L 3169 4666 
L 3169 4134 
L 1269 4134 
L 1269 2991 
Q 1406 3038 1543 3061 
Q 1681 3084 1819 3084 
Q 2600 3084 3056 2656 
Q 3513 2228 3513 1497 
Q 3513 744 3044 326 
Q 2575 -91 1722 -91 
Q 1428 -91 1123 -41 
Q 819 9 494 109 
L 494 744 
Q 775 591 1075 516 
Q 1375 441 1709 441 
Q 2250 441 2565 725 
Q 2881 1009 2881 1497 
Q 2881 1984 2565 2268 
Q 2250 2553 1709 2553 
Q 1456 2553 1204 2497 
Q 953 2441 691 2322 
L 691 4666 
z
" id="DejaVuSans-35" transform="scale(0.015625)"/>
       </defs>
       <use xlink:href="#DejaVuSans-35"/>
       <use x="63.623047" xlink:href="#DejaVuSans-30"/>
      </g>
     </g>
    </g>
    <g id="text_10">
     <!-- x [m] -->
     <g transform="translate(93.246046 185.219937)rotate(-90)scale(0.1 -0.1)">
      <defs>
       <path d="M 3513 3500 
L 2247 1797 
L 3578 0 
L 2900 0 
L 1881 1375 
L 863 0 
L 184 0 
L 1544 1831 
L 300 3500 
L 978 3500 
L 1906 2253 
L 2834 3500 
L 3513 3500 
z
" id="DejaVuSans-78" transform="scale(0.015625)"/>
      </defs>
      <use xlink:href="#DejaVuSans-78"/>
      <use x="59.179688" xlink:href="#DejaVuSans-20"/>
      <use x="90.966797" xlink:href="#DejaVuSans-5b"/>
      <use x="129.980469" xlink:href="#DejaVuSans-6d"/>
      <use x="227.392578" xlink:href="#DejaVuSans-5d"/>
     </g>
    </g>
   </g>
   <g id="line2d_17">
    <path clip-path="url(#p0f3e2bbd76)" d="M 121.519412 289.438138 
L 121.408588 266.467303 
L 121.300265 262.365687 
L 121.461517 259.689261 
L 121.840193 257.120261 
L 122.442971 254.562651 
L 123.305815 251.884385 
L 124.48945 248.955061 
L 126.230952 245.2801 
L 129.979329 237.505809 
L 131.170763 234.416591 
L 132.046478 231.530325 
L 132.67198 228.706956 
L 133.079599 225.834206 
L 133.273252 222.873433 
L 133.252574 219.72282 
L 133.000386 216.218208 
L 132.000668 207.395347 
L 131.418501 204.740171 
L 130.621627 202.147528 
L 129.558625 199.458512 
L 128.070249 196.327365 
L 122.548218 185.215911 
L 121.517896 182.342859 
L 120.758747 179.570987 
L 120.234212 176.81289 
L 119.929834 174.013882 
L 119.841185 171.115426 
L 119.972506 168.036178 
L 120.351972 164.533608 
L 121.111257 159.791193 
L 122.445638 151.52626 
L 122.868308 147.34441 
L 123.050604 143.321749 
L 123.01629 139.078714 
L 122.745721 134.168694 
L 122.068341 126.541963 
L 121.337083 117.61646 
L 121.065674 111.463931 
L 121.016178 105.185498 
L 121.192598 97.325906 
L 121.735931 77.2685 
L 121.711572 66.831792 
L 121.44764 32.228213 
L 121.550327 -1 
L 121.550327 -1 
" style="fill:none;stroke:#0000ff;stroke-linecap:square;stroke-width:1.5;"/>
   </g>
   <g id="line2d_18">
    <path clip-path="url(#p0f3e2bbd76)" d="M 121.519412 289.438138 
L 121.40868 266.442928 
L 121.3 262.318986 
L 121.461409 259.617432 
L 121.838087 257.026245 
L 122.44516 254.407879 
L 123.31636 251.649647 
L 124.52501 248.581783 
L 126.353491 244.595339 
L 129.691264 237.375255 
L 130.915644 234.124643 
L 131.811708 231.117555 
L 132.456822 228.173805 
L 132.880512 225.200158 
L 133.093575 222.117438 
L 133.094356 218.823009 
L 132.866032 215.131849 
L 131.968608 206.289688 
L 131.35691 203.736977 
L 130.518441 201.202364 
L 129.392297 198.523164 
L 127.784073 195.304247 
L 122.947048 185.944551 
L 121.797177 183.036046 
L 120.942486 180.270895 
L 120.33292 177.547288 
L 119.945189 174.793387 
L 119.773397 171.972176 
L 119.817169 169.003601 
L 120.091616 165.745608 
L 120.660681 161.777724 
L 122.690389 148.869579 
L 122.980966 144.857403 
L 123.050995 140.775652 
L 122.899985 136.260924 
L 122.467234 130.464812 
L 121.25769 115.561603 
L 121.050628 109.408048 
L 121.056586 102.770061 
L 121.314155 93.368361 
L 121.69662 78.726161 
L 121.716209 68.309839 
L 121.496898 22.505698 
L 121.547169 -1 
L 121.547169 -1 
" style="fill:none;stroke:#ffa500;stroke-linecap:square;stroke-width:1.5;"/>
   </g>
   <g id="line2d_19">
    <path clip-path="url(#p0f3e2bbd76)" d="M 121.519412 289.438138 
L 121.408396 266.349542 
L 121.299408 262.058682 
L 121.465253 259.303766 
L 121.854431 256.559942 
L 122.485568 253.714779 
L 123.403502 250.628189 
L 124.726 246.994932 
L 127.586208 239.980664 
L 129.40689 235.163398 
L 130.583517 231.426878 
L 131.437633 227.980222 
L 132.049038 224.592566 
L 132.448581 221.124232 
L 132.645133 217.451225 
L 132.677484 211.620805 
L 132.609574 208.156849 
L 132.332163 205.655532 
L 131.841622 203.263186 
L 131.121077 200.859967 
L 130.137809 198.364756 
L 128.793535 195.582271 
L 126.593006 191.605409 
L 123.870476 186.596562 
L 122.488805 183.571252 
L 121.462221 180.790438 
L 120.699616 178.086917 
L 120.160742 175.354945 
L 119.838248 172.560407 
L 119.72886 169.645749 
L 119.838051 166.530504 
L 120.191494 162.993168 
L 120.910051 158.240438 
L 122.240289 149.57215 
L 122.641857 145.286197 
L 122.811425 141.077887 
L 122.768691 136.487844 
L 122.479848 130.769481 
L 121.27152 110.627644 
L 121.177907 103.21232 
L 121.298121 93.549308 
L 121.634241 71.262557 
L 121.574139 54.584349 
L 121.489088 26.221578 
L 121.530078 -1 
L 121.530078 -1 
" style="fill:none;stroke:#ff0000;stroke-linecap:square;stroke-width:1.5;"/>
   </g>
   <g id="patch_3">
    <path d="M 119.050733 304.44375 
L 119.050733 39.3555 
" style="fill:none;stroke:#000000;stroke-linecap:square;stroke-linejoin:miter;stroke-width:0.8;"/>
   </g>
   <g id="patch_4">
    <path d="M 133.969366 304.44375 
L 133.969366 39.3555 
" style="fill:none;stroke:#000000;stroke-linecap:square;stroke-linejoin:miter;stroke-width:0.8;"/>
   </g>
   <g id="patch_5">
    <path d="M 119.050733 304.44375 
L 133.969366 304.44375 
" style="fill:none;stroke:#000000;stroke-linecap:square;stroke-linejoin:miter;stroke-width:0.8;"/>
   </g>
   <g id="patch_6">
    <path d="M 119.050733 39.3555 
L 133.969366 39.3555 
" style="fill:none;stroke:#000000;stroke-linecap:square;stroke-linejoin:miter;stroke-width:0.8;"/>
   </g>
  </g>
  <g id="axes_2">
   <g id="patch_7">
    <path d="M 218.579901 304.44375 
L 450 304.44375 
L 450 39.3555 
L 218.579901 39.3555 
z
" style="fill:#ffffff;"/>
   </g>
   <g id="matplotlib.axis_3">
    <g id="xtick_3">
     <g id="line2d_20">
      <path clip-path="url(#pdc77f315d9)" d="M 256.874427 304.44375 
L 256.874427 39.3555 
" style="fill:none;stroke:#b0b0b0;stroke-linecap:square;stroke-width:0.8;"/>
     </g>
     <g id="line2d_21">
      <g>
       <use style="stroke:#000000;stroke-width:0.8;" x="256.874427" xlink:href="#m563ab33771" y="304.44375"/>
      </g>
     </g>
     <g id="text_11">
      <!-- 0.0 -->
      <g transform="translate(248.922865 319.042187)scale(0.1 -0.1)">
       <defs>
        <path d="M 684 794 
L 1344 794 
L 1344 0 
L 684 0 
L 684 794 
z
" id="DejaVuSans-2e" transform="scale(0.015625)"/>
       </defs>
       <use xlink:href="#DejaVuSans-30"/>
       <use x="63.623047" xlink:href="#DejaVuSans-2e"/>
       <use x="95.410156" xlink:href="#DejaVuSans-30"/>
      </g>
     </g>
    </g>
    <g id="xtick_4">
     <g id="line2d_22">
      <path clip-path="url(#pdc77f315d9)" d="M 295.667625 304.44375 
L 295.667625 39.3555 
" style="fill:none;stroke:#b0b0b0;stroke-linecap:square;stroke-width:0.8;"/>
     </g>
     <g id="line2d_23">
      <g>
       <use style="stroke:#000000;stroke-width:0.8;" x="295.667625" xlink:href="#m563ab33771" y="304.44375"/>
      </g>
     </g>
     <g id="text_12">
      <!-- 0.5 -->
      <g transform="translate(287.716063 319.042187)scale(0.1 -0.1)">
       <use xlink:href="#DejaVuSans-30"/>
       <use x="63.623047" xlink:href="#DejaVuSans-2e"/>
       <use x="95.410156" xlink:href="#DejaVuSans-35"/>
      </g>
     </g>
    </g>
    <g id="xtick_5">
     <g id="line2d_24">
      <path clip-path="url(#pdc77f315d9)" d="M 334.460823 304.44375 
L 334.460823 39.3555 
" style="fill:none;stroke:#b0b0b0;stroke-linecap:square;stroke-width:0.8;"/>
     </g>
     <g id="line2d_25">
      <g>
       <use style="stroke:#000000;stroke-width:0.8;" x="334.460823" xlink:href="#m563ab33771" y="304.44375"/>
      </g>
     </g>
     <g id="text_13">
      <!-- 1.0 -->
      <g transform="translate(326.509261 319.042187)scale(0.1 -0.1)">
       <use xlink:href="#DejaVuSans-31"/>
       <use x="63.623047" xlink:href="#DejaVuSans-2e"/>
       <use x="95.410156" xlink:href="#DejaVuSans-30"/>
      </g>
     </g>
    </g>
    <g id="xtick_6">
     <g id="line2d_26">
      <path clip-path="url(#pdc77f315d9)" d="M 373.254021 304.44375 
L 373.254021 39.3555 
" style="fill:none;stroke:#b0b0b0;stroke-linecap:square;stroke-width:0.8;"/>
     </g>
     <g id="line2d_27">
      <g>
       <use style="stroke:#000000;stroke-width:0.8;" x="373.254021" xlink:href="#m563ab33771" y="304.44375"/>
      </g>
     </g>
     <g id="text_14">
      <!-- 1.5 -->
      <g transform="translate(365.302459 319.042187)scale(0.1 -0.1)">
       <use xlink:href="#DejaVuSans-31"/>
       <use x="63.623047" xlink:href="#DejaVuSans-2e"/>
       <use x="95.410156" xlink:href="#DejaVuSans-35"/>
      </g>
     </g>
    </g>
    <g id="xtick_7">
     <g id="line2d_28">
      <path clip-path="url(#pdc77f315d9)" d="M 412.04722 304.44375 
L 412.04722 39.3555 
" style="fill:none;stroke:#b0b0b0;stroke-linecap:square;stroke-width:0.8;"/>
     </g>
     <g id="line2d_29">
      <g>
       <use style="stroke:#000000;stroke-width:0.8;" x="412.04722" xlink:href="#m563ab33771" y="304.44375"/>
      </g>
     </g>
     <g id="text_15">
      <!-- 2.0 -->
      <g transform="translate(404.095657 319.042187)scale(0.1 -0.1)">
       <use xlink:href="#DejaVuSans-32"/>
       <use x="63.623047" xlink:href="#DejaVuSans-2e"/>
       <use x="95.410156" xlink:href="#DejaVuSans-30"/>
      </g>
     </g>
    </g>
    <g id="text_16">
     <!-- y [m] -->
     <g transform="translate(320.969638 332.720312)scale(0.1 -0.1)">
      <use xlink:href="#DejaVuSans-79"/>
      <use x="59.179688" xlink:href="#DejaVuSans-20"/>
      <use x="90.966797" xlink:href="#DejaVuSans-5b"/>
      <use x="129.980469" xlink:href="#DejaVuSans-6d"/>
      <use x="227.392578" xlink:href="#DejaVuSans-5d"/>
     </g>
    </g>
   </g>
   <g id="matplotlib.axis_4">
    <g id="ytick_7">
     <g id="line2d_30">
      <path clip-path="url(#pdc77f315d9)" d="M 218.579901 289.438138 
L 450 289.438138 
" style="fill:none;stroke:#b0b0b0;stroke-linecap:square;stroke-width:0.8;"/>
     </g>
     <g id="line2d_31">
      <g>
       <use style="stroke:#000000;stroke-width:0.8;" x="218.579901" xlink:href="#m7d288e7840" y="289.438138"/>
      </g>
     </g>
     <g id="text_17">
      <!-- 0 -->
      <g transform="translate(205.217401 293.237356)scale(0.1 -0.1)">
       <use xlink:href="#DejaVuSans-30"/>
      </g>
     </g>
    </g>
    <g id="ytick_8">
     <g id="line2d_32">
      <path clip-path="url(#pdc77f315d9)" d="M 218.579901 239.42161 
L 450 239.42161 
" style="fill:none;stroke:#b0b0b0;stroke-linecap:square;stroke-width:0.8;"/>
     </g>
     <g id="line2d_33">
      <g>
       <use style="stroke:#000000;stroke-width:0.8;" x="218.579901" xlink:href="#m7d288e7840" y="239.42161"/>
      </g>
     </g>
     <g id="text_18">
      <!-- 10 -->
      <g transform="translate(198.854901 243.220829)scale(0.1 -0.1)">
       <use xlink:href="#DejaVuSans-31"/>
       <use x="63.623047" xlink:href="#DejaVuSans-30"/>
      </g>
     </g>
    </g>
    <g id="ytick_9">
     <g id="line2d_34">
      <path clip-path="url(#pdc77f315d9)" d="M 218.579901 189.405083 
L 450 189.405083 
" style="fill:none;stroke:#b0b0b0;stroke-linecap:square;stroke-width:0.8;"/>
     </g>
     <g id="line2d_35">
      <g>
       <use style="stroke:#000000;stroke-width:0.8;" x="218.579901" xlink:href="#m7d288e7840" y="189.405083"/>
      </g>
     </g>
     <g id="text_19">
      <!-- 20 -->
      <g transform="translate(198.854901 193.204301)scale(0.1 -0.1)">
       <use xlink:href="#DejaVuSans-32"/>
       <use x="63.623047" xlink:href="#DejaVuSans-30"/>
      </g>
     </g>
    </g>
    <g id="ytick_10">
     <g id="line2d_36">
      <path clip-path="url(#pdc77f315d9)" d="M 218.579901 139.388555 
L 450 139.388555 
" style="fill:none;stroke:#b0b0b0;stroke-linecap:square;stroke-width:0.8;"/>
     </g>
     <g id="line2d_37">
      <g>
       <use style="stroke:#000000;stroke-width:0.8;" x="218.579901" xlink:href="#m7d288e7840" y="139.388555"/>
      </g>
     </g>
     <g id="text_20">
      <!-- 30 -->
      <g transform="translate(198.854901 143.187774)scale(0.1 -0.1)">
       <use xlink:href="#DejaVuSans-33"/>
       <use x="63.623047" xlink:href="#DejaVuSans-30"/>
      </g>
     </g>
    </g>
    <g id="ytick_11">
     <g id="line2d_38">
      <path clip-path="url(#pdc77f315d9)" d="M 218.579901 89.372028 
L 450 89.372028 
" style="fill:none;stroke:#b0b0b0;stroke-linecap:square;stroke-width:0.8;"/>
     </g>
     <g id="line2d_39">
      <g>
       <use style="stroke:#000000;stroke-width:0.8;" x="218.579901" xlink:href="#m7d288e7840" y="89.372028"/>
      </g>
     </g>
     <g id="text_21">
      <!-- 40 -->
      <g transform="translate(198.854901 93.171246)scale(0.1 -0.1)">
       <use xlink:href="#DejaVuSans-34"/>
       <use x="63.623047" xlink:href="#DejaVuSans-30"/>
      </g>
     </g>
    </g>
    <g id="ytick_12">
     <g id="line2d_40">
      <path clip-path="url(#pdc77f315d9)" d="M 218.579901 39.3555 
L 450 39.3555 
" style="fill:none;stroke:#b0b0b0;stroke-linecap:square;stroke-width:0.8;"/>
     </g>
     <g id="line2d_41">
      <g>
       <use style="stroke:#000000;stroke-width:0.8;" x="218.579901" xlink:href="#m7d288e7840" y="39.3555"/>
      </g>
     </g>
     <g id="text_22">
      <!-- 50 -->
      <g transform="translate(198.854901 43.154719)scale(0.1 -0.1)">
       <use xlink:href="#DejaVuSans-35"/>
       <use x="63.623047" xlink:href="#DejaVuSans-30"/>
      </g>
     </g>
    </g>
    <g id="text_23">
     <!-- x [m] -->
     <g transform="translate(192.775213 185.219937)rotate(-90)scale(0.1 -0.1)">
      <use xlink:href="#DejaVuSans-78"/>
      <use x="59.179688" xlink:href="#DejaVuSans-20"/>
      <use x="90.966797" xlink:href="#DejaVuSans-5b"/>
      <use x="129.980469" xlink:href="#DejaVuSans-6d"/>
      <use x="227.392578" xlink:href="#DejaVuSans-5d"/>
     </g>
    </g>
   </g>
   <g id="line2d_42">
    <path clip-path="url(#pdc77f315d9)" d="M 256.874427 289.438138 
L 256.763616 268.852911 
L 256.382943 268.067142 
L 255.571959 266.970293 
L 253.897326 264.756697 
L 253.486185 263.81635 
L 253.374912 263.01874 
L 253.494522 262.302401 
L 253.844654 261.584582 
L 254.46166 260.845782 
L 255.436337 260.04588 
L 256.84837 259.187405 
L 258.828308 258.252139 
L 261.548814 257.222612 
L 265.224093 256.083067 
L 270.019087 254.840323 
L 276.172349 253.482567 
L 284.05006 251.97962 
L 294.180518 250.284461 
L 307.254651 248.334422 
L 325.166631 245.904059 
L 385.76788 237.857378 
L 398.543718 235.841512 
L 408.504037 234.052463 
L 416.341169 232.428507 
L 422.561858 230.921928 
L 427.440378 229.52047 
L 431.168888 228.229602 
L 433.982129 227.033322 
L 436.068456 225.914205 
L 437.523864 224.893899 
L 438.49945 223.95343 
L 439.104686 223.073355 
L 439.409882 222.253972 
L 439.476403 221.455484 
L 439.317908 220.638188 
L 438.917544 219.782463 
L 438.222222 218.848975 
L 437.162446 217.818518 
L 435.62513 216.652299 
L 433.500488 215.331498 
L 429.02725 212.649463 
L 425.352057 210.10882 
L 423.207537 208.958417 
L 420.661592 207.849993 
L 417.449675 206.704193 
L 413.392631 205.503285 
L 408.299582 204.234453 
L 401.866202 202.868664 
L 393.822132 201.39592 
L 383.659358 199.768799 
L 370.443015 197.889033 
L 352.325587 195.553509 
L 286.082202 187.215922 
L 272.949773 185.234644 
L 262.598759 183.456543 
L 254.444747 181.839847 
L 247.969982 180.337889 
L 242.962924 178.958882 
L 239.087337 177.669429 
L 236.222964 176.493635 
L 234.14574 175.414587 
L 232.680963 174.414172 
L 231.732443 173.513549 
L 231.155338 172.673337 
L 230.87809 171.893869 
L 230.839514 171.135371 
L 231.028521 170.358184 
L 231.465755 169.542758 
L 232.211856 168.649897 
L 233.34559 167.66059 
L 234.96342 166.556073 
L 237.250056 165.278493 
L 240.393967 163.790006 
L 244.823105 161.954758 
L 251.870274 159.303827 
L 264.050895 154.725129 
L 268.891353 152.654824 
L 272.426341 150.911161 
L 275.085636 149.35977 
L 277.056677 147.963633 
L 278.518548 146.664737 
L 279.547785 145.464287 
L 280.241703 144.323079 
L 280.653687 143.221613 
L 280.819292 142.140226 
L 280.757708 141.059163 
L 280.466219 139.938628 
L 279.924594 138.758868 
L 279.087197 137.480183 
L 277.885902 136.062964 
L 276.214347 134.447721 
L 273.89844 132.535116 
L 270.55826 130.086202 
L 257.578941 120.836501 
L 255.097246 118.657098 
L 253.211561 116.715475 
L 251.761805 114.912461 
L 250.670273 113.208594 
L 249.876205 111.564213 
L 249.343391 109.959572 
L 249.041151 108.354782 
L 248.957243 106.709894 
L 249.095382 104.984933 
L 249.471637 103.139907 
L 250.116361 101.114756 
L 251.112142 98.749146 
L 252.65321 95.70225 
L 257.629238 86.19804 
L 258.750412 83.389328 
L 259.540492 80.820818 
L 260.074806 78.332234 
L 260.380731 75.843466 
L 260.469328 73.274362 
L 260.337448 70.544733 
L 259.962444 67.494087 
L 259.264939 63.741135 
L 257.631913 56.51617 
L 256.568033 51.237503 
L 255.969458 47.142732 
L 255.630181 43.288677 
L 255.50838 39.354271 
L 255.602541 35.018404 
L 255.955596 29.638766 
L 257.310165 11.69307 
L 257.433836 5.550455 
L 257.353975 -1 
L 257.353975 -1 
" style="fill:none;stroke:#0000ff;stroke-linecap:square;stroke-width:1.5;"/>
   </g>
   <g id="line2d_43">
    <path clip-path="url(#pdc77f315d9)" d="M 256.874427 289.438138 
L 256.769312 268.877082 
L 256.395048 268.08286 
L 255.608104 266.994423 
L 253.856286 264.649398 
L 253.46822 263.720135 
L 253.372421 262.935733 
L 253.504469 262.212514 
L 253.869501 261.487935 
L 254.503039 260.742246 
L 255.495215 259.934985 
L 256.962698 259.047817 
L 259.013254 258.084025 
L 261.817753 257.026245 
L 265.515337 255.878924 
L 270.394894 254.60766 
L 276.715295 253.201342 
L 284.748947 251.649647 
L 295.110584 249.885385 
L 308.600195 247.826466 
L 327.587171 245.172302 
L 378.419349 238.173176 
L 392.098461 236.007333 
L 402.630205 234.124643 
L 411.026299 232.406128 
L 417.691132 230.823204 
L 422.983676 229.344283 
L 427.085819 227.974917 
L 430.229014 226.699309 
L 432.566881 225.520244 
L 434.271538 224.41958 
L 435.434158 223.418496 
L 436.201687 222.477632 
L 436.644956 221.597358 
L 436.831523 220.73789 
L 436.789123 219.899392 
L 436.518944 219.022186 
L 435.990575 218.086691 
L 435.138562 217.053602 
L 433.887143 215.903701 
L 432.122483 214.598086 
L 430.531522 213.391315 
L 428.94321 211.819648 
L 427.345583 210.365485 
L 425.845329 209.309442 
L 424.006647 208.294465 
L 421.657976 207.261323 
L 418.600831 206.170899 
L 414.641014 205.006632 
L 409.56084 203.756373 
L 403.116467 202.410638 
L 395.036137 200.959521 
L 384.807509 199.356228 
L 371.484196 197.50338 
L 353.191419 195.199621 
L 285.80271 186.915945 
L 272.443085 184.942652 
L 262.021337 183.188567 
L 253.718701 181.575128 
L 247.126262 180.075074 
L 242.028049 178.697086 
L 238.081126 177.408122 
L 235.162694 176.232502 
L 233.044483 175.153464 
L 231.548617 174.152988 
L 230.577474 173.252288 
L 229.983621 172.41201 
L 229.694439 171.632504 
L 229.647459 170.874006 
L 229.823477 170.116778 
L 230.239159 169.321294 
L 230.955071 168.448367 
L 232.050551 167.479015 
L 233.623511 166.394527 
L 235.861194 165.137172 
L 238.913749 163.688863 
L 243.204263 161.914046 
L 249.772209 159.462115 
L 264.250731 154.111058 
L 268.962292 152.101959 
L 272.454338 150.37978 
L 275.069708 148.849676 
L 277.026038 147.454743 
L 278.449097 146.17689 
L 279.462029 144.977408 
L 280.138336 143.837093 
L 280.527372 142.756484 
L 280.678763 141.695917 
L 280.608257 140.615639 
L 280.308502 139.495893 
L 279.748723 138.296959 
L 278.887735 136.999165 
L 277.659207 135.562915 
L 275.937299 133.908804 
L 273.569388 131.957444 
L 270.076718 129.390266 
L 258.533902 121.101286 
L 255.889346 118.823434 
L 253.896108 116.822924 
L 252.364084 114.98077 
L 251.19627 113.23756 
L 250.332468 111.553677 
L 249.736684 109.909408 
L 249.37729 108.264894 
L 249.241062 106.600265 
L 249.324765 104.855503 
L 249.638619 103.010673 
L 250.218056 100.965615 
L 251.121327 98.620154 
L 252.524804 95.633474 
L 257.726059 85.02651 
L 258.739245 82.197706 
L 259.446694 79.569022 
L 259.908392 77.000223 
L 260.147825 74.41119 
L 260.173343 71.701686 
L 259.974415 68.751375 
L 259.513666 65.339544 
L 258.65272 60.763758 
L 256.632717 50.367273 
L 256.072077 46.071781 
L 255.762255 41.976862 
L 255.668621 37.741372 
L 255.793588 32.983974 
L 256.202156 26.640808 
L 257.152426 12.729848 
L 257.334496 6.085396 
L 257.304987 -1 
L 257.304987 -1 
" style="fill:none;stroke:#ffa500;stroke-linecap:square;stroke-width:1.5;"/>
   </g>
   <g id="line2d_44">
    <path clip-path="url(#pdc77f315d9)" d="M 256.874427 289.438138 
L 256.763825 268.879442 
L 256.377379 268.036343 
L 255.58178 266.894569 
L 253.813595 264.437892 
L 253.437971 263.501672 
L 253.348895 262.715387 
L 253.490562 261.971052 
L 253.858498 261.247871 
L 254.507553 260.481426 
L 255.516095 259.651814 
L 256.992348 258.740241 
L 259.078202 257.729172 
L 261.893266 256.623317 
L 265.622887 255.406264 
L 270.481749 254.062665 
L 276.787685 252.55891 
L 284.892215 250.864682 
L 295.373438 248.91212 
L 309.396715 246.538941 
L 332.49718 242.887454 
L 362.415325 238.114344 
L 377.567604 235.469951 
L 389.113082 233.236371 
L 398.241379 231.250897 
L 405.542945 229.443737 
L 411.443992 227.762004 
L 416.17313 226.190441 
L 419.93484 224.712586 
L 422.863845 223.330981 
L 425.122501 222.027396 
L 426.813634 220.803035 
L 428.032881 219.658689 
L 428.893136 218.554689 
L 429.442725 217.491339 
L 429.726857 216.46881 
L 429.784559 215.427102 
L 429.615758 214.346388 
L 429.574599 213.566469 
L 429.765874 212.483517 
L 430.061858 210.757474 
L 429.97287 209.892374 
L 429.668505 209.126186 
L 429.121958 208.379072 
L 428.268867 207.611373 
L 427.024227 206.803734 
L 425.223664 205.916998 
L 422.7329 204.953259 
L 419.349366 203.896263 
L 414.913781 202.752303 
L 409.092436 201.490946 
L 401.686801 200.122726 
L 392.290307 198.620544 
L 380.20586 196.923321 
L 364.133918 194.902846 
L 338.745693 191.964549 
L 301.914644 187.678428 
L 284.846754 185.462929 
L 271.79281 183.55265 
L 261.45495 181.822446 
L 253.246555 180.231629 
L 246.741376 178.753662 
L 241.646411 177.377795 
L 237.702878 176.090664 
L 234.738805 174.896767 
L 232.586865 173.799271 
L 231.090947 172.800242 
L 230.092131 171.880915 
L 229.475589 171.021974 
L 229.167732 170.223767 
L 229.104737 169.446588 
L 229.26604 168.670725 
L 229.665846 167.856711 
L 230.360872 166.965404 
L 231.42568 165.977819 
L 232.981932 164.855563 
L 235.150273 163.580279 
L 238.133865 162.09453 
L 242.339391 160.26292 
L 249.035084 157.61824 
L 260.859697 152.956393 
L 265.494848 150.874104 
L 268.882569 149.117493 
L 271.433508 147.552428 
L 273.352108 146.122027 
L 274.757671 144.808193 
L 275.768255 143.572314 
L 276.455213 142.39524 
L 276.877243 141.237584 
L 277.057956 140.099709 
L 277.017089 138.941958 
L 276.746681 137.724638 
L 276.224356 136.428013 
L 275.408017 135.012409 
L 274.224103 133.418231 
L 272.543363 131.546033 
L 270.13495 129.216547 
L 265.871309 125.452938 
L 260.923014 121.006904 
L 258.299306 118.351164 
L 256.332827 116.052336 
L 254.821922 113.951594 
L 253.663533 111.969583 
L 252.79176 110.046687 
L 252.169115 108.143152 
L 251.771816 106.219123 
L 251.588772 104.234678 
L 251.620377 102.129795 
L 251.880626 99.844412 
L 252.407646 97.238224 
L 253.299646 94.01044 
L 255.184253 88.215606 
L 256.728405 83.141166 
L 257.618901 79.449758 
L 258.209529 76.058736 
L 258.567918 72.707484 
L 258.716095 69.215523 
L 258.651611 65.36217 
L 258.340409 60.725982 
L 257.568736 53.139222 
L 256.778172 44.668859 
L 256.444528 38.626929 
L 256.332026 32.484505 
L 256.431205 25.077386 
L 257.039881 -1 
L 257.039881 -1 
" style="fill:none;stroke:#ff0000;stroke-linecap:square;stroke-width:1.5;"/>
   </g>
   <g id="patch_8">
    <path d="M 218.579901 304.44375 
L 218.579901 39.3555 
" style="fill:none;stroke:#000000;stroke-linecap:square;stroke-linejoin:miter;stroke-width:0.8;"/>
   </g>
   <g id="patch_9">
    <path d="M 450 304.44375 
L 450 39.3555 
" style="fill:none;stroke:#000000;stroke-linecap:square;stroke-linejoin:miter;stroke-width:0.8;"/>
   </g>
   <g id="patch_10">
    <path d="M 218.579901 304.44375 
L 450 304.44375 
" style="fill:none;stroke:#000000;stroke-linecap:square;stroke-linejoin:miter;stroke-width:0.8;"/>
   </g>
   <g id="patch_11">
    <path d="M 218.579901 39.3555 
L 450 39.3555 
" style="fill:none;stroke:#000000;stroke-linecap:square;stroke-linejoin:miter;stroke-width:0.8;"/>
   </g>
   <g id="text_24">
    <!-- Trajectoire en fonction de -->
    <g transform="translate(257.901513 19.918125)scale(0.12 -0.12)">
     <defs>
      <path d="M -19 4666 
L 3928 4666 
L 3928 4134 
L 2272 4134 
L 2272 0 
L 1638 0 
L 1638 4134 
L -19 4134 
L -19 4666 
z
" id="DejaVuSans-54" transform="scale(0.015625)"/>
      <path d="M 2631 2963 
Q 2534 3019 2420 3045 
Q 2306 3072 2169 3072 
Q 1681 3072 1420 2755 
Q 1159 2438 1159 1844 
L 1159 0 
L 581 0 
L 581 3500 
L 1159 3500 
L 1159 2956 
Q 1341 3275 1631 3429 
Q 1922 3584 2338 3584 
Q 2397 3584 2469 3576 
Q 2541 3569 2628 3553 
L 2631 2963 
z
" id="DejaVuSans-72" transform="scale(0.015625)"/>
      <path d="M 2194 1759 
Q 1497 1759 1228 1600 
Q 959 1441 959 1056 
Q 959 750 1161 570 
Q 1363 391 1709 391 
Q 2188 391 2477 730 
Q 2766 1069 2766 1631 
L 2766 1759 
L 2194 1759 
z
M 3341 1997 
L 3341 0 
L 2766 0 
L 2766 531 
Q 2569 213 2275 61 
Q 1981 -91 1556 -91 
Q 1019 -91 701 211 
Q 384 513 384 1019 
Q 384 1609 779 1909 
Q 1175 2209 1959 2209 
L 2766 2209 
L 2766 2266 
Q 2766 2663 2505 2880 
Q 2244 3097 1772 3097 
Q 1472 3097 1187 3025 
Q 903 2953 641 2809 
L 641 3341 
Q 956 3463 1253 3523 
Q 1550 3584 1831 3584 
Q 2591 3584 2966 3190 
Q 3341 2797 3341 1997 
z
" id="DejaVuSans-61" transform="scale(0.015625)"/>
      <path d="M 603 3500 
L 1178 3500 
L 1178 -63 
Q 1178 -731 923 -1031 
Q 669 -1331 103 -1331 
L -116 -1331 
L -116 -844 
L 38 -844 
Q 366 -844 484 -692 
Q 603 -541 603 -63 
L 603 3500 
z
M 603 4863 
L 1178 4863 
L 1178 4134 
L 603 4134 
L 603 4863 
z
" id="DejaVuSans-6a" transform="scale(0.015625)"/>
      <path d="M 3597 1894 
L 3597 1613 
L 953 1613 
Q 991 1019 1311 708 
Q 1631 397 2203 397 
Q 2534 397 2845 478 
Q 3156 559 3463 722 
L 3463 178 
Q 3153 47 2828 -22 
Q 2503 -91 2169 -91 
Q 1331 -91 842 396 
Q 353 884 353 1716 
Q 353 2575 817 3079 
Q 1281 3584 2069 3584 
Q 2775 3584 3186 3129 
Q 3597 2675 3597 1894 
z
M 3022 2063 
Q 3016 2534 2758 2815 
Q 2500 3097 2075 3097 
Q 1594 3097 1305 2825 
Q 1016 2553 972 2059 
L 3022 2063 
z
" id="DejaVuSans-65" transform="scale(0.015625)"/>
      <path d="M 3122 3366 
L 3122 2828 
Q 2878 2963 2633 3030 
Q 2388 3097 2138 3097 
Q 1578 3097 1268 2742 
Q 959 2388 959 1747 
Q 959 1106 1268 751 
Q 1578 397 2138 397 
Q 2388 397 2633 464 
Q 2878 531 3122 666 
L 3122 134 
Q 2881 22 2623 -34 
Q 2366 -91 2075 -91 
Q 1284 -91 818 406 
Q 353 903 353 1747 
Q 353 2603 823 3093 
Q 1294 3584 2113 3584 
Q 2378 3584 2631 3529 
Q 2884 3475 3122 3366 
z
" id="DejaVuSans-63" transform="scale(0.015625)"/>
      <path d="M 1172 4494 
L 1172 3500 
L 2356 3500 
L 2356 3053 
L 1172 3053 
L 1172 1153 
Q 1172 725 1289 603 
Q 1406 481 1766 481 
L 2356 481 
L 2356 0 
L 1766 0 
Q 1100 0 847 248 
Q 594 497 594 1153 
L 594 3053 
L 172 3053 
L 172 3500 
L 594 3500 
L 594 4494 
L 1172 4494 
z
" id="DejaVuSans-74" transform="scale(0.015625)"/>
      <path d="M 1959 3097 
Q 1497 3097 1228 2736 
Q 959 2375 959 1747 
Q 959 1119 1226 758 
Q 1494 397 1959 397 
Q 2419 397 2687 759 
Q 2956 1122 2956 1747 
Q 2956 2369 2687 2733 
Q 2419 3097 1959 3097 
z
M 1959 3584 
Q 2709 3584 3137 3096 
Q 3566 2609 3566 1747 
Q 3566 888 3137 398 
Q 2709 -91 1959 -91 
Q 1206 -91 779 398 
Q 353 888 353 1747 
Q 353 2609 779 3096 
Q 1206 3584 1959 3584 
z
" id="DejaVuSans-6f" transform="scale(0.015625)"/>
      <path d="M 603 3500 
L 1178 3500 
L 1178 0 
L 603 0 
L 603 3500 
z
M 603 4863 
L 1178 4863 
L 1178 4134 
L 603 4134 
L 603 4863 
z
" id="DejaVuSans-69" transform="scale(0.015625)"/>
      <path d="M 3513 2113 
L 3513 0 
L 2938 0 
L 2938 2094 
Q 2938 2591 2744 2837 
Q 2550 3084 2163 3084 
Q 1697 3084 1428 2787 
Q 1159 2491 1159 1978 
L 1159 0 
L 581 0 
L 581 3500 
L 1159 3500 
L 1159 2956 
Q 1366 3272 1645 3428 
Q 1925 3584 2291 3584 
Q 2894 3584 3203 3211 
Q 3513 2838 3513 2113 
z
" id="DejaVuSans-6e" transform="scale(0.015625)"/>
      <path d="M 2375 4863 
L 2375 4384 
L 1825 4384 
Q 1516 4384 1395 4259 
Q 1275 4134 1275 3809 
L 1275 3500 
L 2222 3500 
L 2222 3053 
L 1275 3053 
L 1275 0 
L 697 0 
L 697 3053 
L 147 3053 
L 147 3500 
L 697 3500 
L 697 3744 
Q 697 4328 969 4595 
Q 1241 4863 1831 4863 
L 2375 4863 
z
" id="DejaVuSans-66" transform="scale(0.015625)"/>
      <path d="M 2906 2969 
L 2906 4863 
L 3481 4863 
L 3481 0 
L 2906 0 
L 2906 525 
Q 2725 213 2448 61 
Q 2172 -91 1784 -91 
Q 1150 -91 751 415 
Q 353 922 353 1747 
Q 353 2572 751 3078 
Q 1150 3584 1784 3584 
Q 2172 3584 2448 3432 
Q 2725 3281 2906 2969 
z
M 947 1747 
Q 947 1113 1208 752 
Q 1469 391 1925 391 
Q 2381 391 2643 752 
Q 2906 1113 2906 1747 
Q 2906 2381 2643 2742 
Q 2381 3103 1925 3103 
Q 1469 3103 1208 2742 
Q 947 2381 947 1747 
z
" id="DejaVuSans-64" transform="scale(0.015625)"/>
     </defs>
     <use xlink:href="#DejaVuSans-54"/>
     <use x="46.333984" xlink:href="#DejaVuSans-72"/>
     <use x="87.447266" xlink:href="#DejaVuSans-61"/>
     <use x="148.726562" xlink:href="#DejaVuSans-6a"/>
     <use x="176.509766" xlink:href="#DejaVuSans-65"/>
     <use x="238.033203" xlink:href="#DejaVuSans-63"/>
     <use x="293.013672" xlink:href="#DejaVuSans-74"/>
     <use x="332.222656" xlink:href="#DejaVuSans-6f"/>
     <use x="393.404297" xlink:href="#DejaVuSans-69"/>
     <use x="421.1875" xlink:href="#DejaVuSans-72"/>
     <use x="460.050781" xlink:href="#DejaVuSans-65"/>
     <use x="521.574219" xlink:href="#DejaVuSans-20"/>
     <use x="553.361328" xlink:href="#DejaVuSans-65"/>
     <use x="614.884766" xlink:href="#DejaVuSans-6e"/>
     <use x="678.263672" xlink:href="#DejaVuSans-20"/>
     <use x="710.050781" xlink:href="#DejaVuSans-66"/>
     <use x="745.255859" xlink:href="#DejaVuSans-6f"/>
     <use x="806.4375" xlink:href="#DejaVuSans-6e"/>
     <use x="869.816406" xlink:href="#DejaVuSans-63"/>
     <use x="924.796875" xlink:href="#DejaVuSans-74"/>
     <use x="964.005859" xlink:href="#DejaVuSans-69"/>
     <use x="991.789062" xlink:href="#DejaVuSans-6f"/>
     <use x="1052.970703" xlink:href="#DejaVuSans-6e"/>
     <use x="1116.349609" xlink:href="#DejaVuSans-20"/>
     <use x="1148.136719" xlink:href="#DejaVuSans-64"/>
     <use x="1211.613281" xlink:href="#DejaVuSans-65"/>
    </g>
    <!--  la masse du chargement -->
    <g transform="translate(257.910888 33.3555)scale(0.12 -0.12)">
     <defs>
      <path d="M 603 4863 
L 1178 4863 
L 1178 0 
L 603 0 
L 603 4863 
z
" id="DejaVuSans-6c" transform="scale(0.015625)"/>
      <path d="M 2834 3397 
L 2834 2853 
Q 2591 2978 2328 3040 
Q 2066 3103 1784 3103 
Q 1356 3103 1142 2972 
Q 928 2841 928 2578 
Q 928 2378 1081 2264 
Q 1234 2150 1697 2047 
L 1894 2003 
Q 2506 1872 2764 1633 
Q 3022 1394 3022 966 
Q 3022 478 2636 193 
Q 2250 -91 1575 -91 
Q 1294 -91 989 -36 
Q 684 19 347 128 
L 347 722 
Q 666 556 975 473 
Q 1284 391 1588 391 
Q 1994 391 2212 530 
Q 2431 669 2431 922 
Q 2431 1156 2273 1281 
Q 2116 1406 1581 1522 
L 1381 1569 
Q 847 1681 609 1914 
Q 372 2147 372 2553 
Q 372 3047 722 3315 
Q 1072 3584 1716 3584 
Q 2034 3584 2315 3537 
Q 2597 3491 2834 3397 
z
" id="DejaVuSans-73" transform="scale(0.015625)"/>
      <path d="M 544 1381 
L 544 3500 
L 1119 3500 
L 1119 1403 
Q 1119 906 1312 657 
Q 1506 409 1894 409 
Q 2359 409 2629 706 
Q 2900 1003 2900 1516 
L 2900 3500 
L 3475 3500 
L 3475 0 
L 2900 0 
L 2900 538 
Q 2691 219 2414 64 
Q 2138 -91 1772 -91 
Q 1169 -91 856 284 
Q 544 659 544 1381 
z
M 1991 3584 
L 1991 3584 
z
" id="DejaVuSans-75" transform="scale(0.015625)"/>
      <path d="M 3513 2113 
L 3513 0 
L 2938 0 
L 2938 2094 
Q 2938 2591 2744 2837 
Q 2550 3084 2163 3084 
Q 1697 3084 1428 2787 
Q 1159 2491 1159 1978 
L 1159 0 
L 581 0 
L 581 4863 
L 1159 4863 
L 1159 2956 
Q 1366 3272 1645 3428 
Q 1925 3584 2291 3584 
Q 2894 3584 3203 3211 
Q 3513 2838 3513 2113 
z
" id="DejaVuSans-68" transform="scale(0.015625)"/>
      <path d="M 2906 1791 
Q 2906 2416 2648 2759 
Q 2391 3103 1925 3103 
Q 1463 3103 1205 2759 
Q 947 2416 947 1791 
Q 947 1169 1205 825 
Q 1463 481 1925 481 
Q 2391 481 2648 825 
Q 2906 1169 2906 1791 
z
M 3481 434 
Q 3481 -459 3084 -895 
Q 2688 -1331 1869 -1331 
Q 1566 -1331 1297 -1286 
Q 1028 -1241 775 -1147 
L 775 -588 
Q 1028 -725 1275 -790 
Q 1522 -856 1778 -856 
Q 2344 -856 2625 -561 
Q 2906 -266 2906 331 
L 2906 616 
Q 2728 306 2450 153 
Q 2172 0 1784 0 
Q 1141 0 747 490 
Q 353 981 353 1791 
Q 353 2603 747 3093 
Q 1141 3584 1784 3584 
Q 2172 3584 2450 3431 
Q 2728 3278 2906 2969 
L 2906 3500 
L 3481 3500 
L 3481 434 
z
" id="DejaVuSans-67" transform="scale(0.015625)"/>
     </defs>
     <use xlink:href="#DejaVuSans-20"/>
     <use x="31.787109" xlink:href="#DejaVuSans-6c"/>
     <use x="59.570312" xlink:href="#DejaVuSans-61"/>
     <use x="120.849609" xlink:href="#DejaVuSans-20"/>
     <use x="152.636719" xlink:href="#DejaVuSans-6d"/>
     <use x="250.048828" xlink:href="#DejaVuSans-61"/>
     <use x="311.328125" xlink:href="#DejaVuSans-73"/>
     <use x="363.427734" xlink:href="#DejaVuSans-73"/>
     <use x="415.527344" xlink:href="#DejaVuSans-65"/>
     <use x="477.050781" xlink:href="#DejaVuSans-20"/>
     <use x="508.837891" xlink:href="#DejaVuSans-64"/>
     <use x="572.314453" xlink:href="#DejaVuSans-75"/>
     <use x="635.693359" xlink:href="#DejaVuSans-20"/>
     <use x="667.480469" xlink:href="#DejaVuSans-63"/>
     <use x="722.460938" xlink:href="#DejaVuSans-68"/>
     <use x="785.839844" xlink:href="#DejaVuSans-61"/>
     <use x="847.119141" xlink:href="#DejaVuSans-72"/>
     <use x="886.482422" xlink:href="#DejaVuSans-67"/>
     <use x="949.958984" xlink:href="#DejaVuSans-65"/>
     <use x="1011.482422" xlink:href="#DejaVuSans-6d"/>
     <use x="1108.894531" xlink:href="#DejaVuSans-65"/>
     <use x="1170.417969" xlink:href="#DejaVuSans-6e"/>
     <use x="1233.796875" xlink:href="#DejaVuSans-74"/>
    </g>
   </g>
   <g id="legend_1">
    <g id="patch_12">
     <path d="M 367.054687 91.389875 
L 443 91.389875 
Q 445 91.389875 445 89.389875 
L 445 46.3555 
Q 445 44.3555 443 44.3555 
L 367.054687 44.3555 
Q 365.054687 44.3555 365.054687 46.3555 
L 365.054687 89.389875 
Q 365.054687 91.389875 367.054687 91.389875 
z
" style="fill:#ffffff;opacity:0.8;stroke:#cccccc;stroke-linejoin:miter;"/>
    </g>
    <g id="line2d_45">
     <path d="M 369.054687 52.453937 
L 389.054687 52.453937 
" style="fill:none;stroke:#0000ff;stroke-linecap:square;stroke-width:1.5;"/>
    </g>
    <g id="line2d_46"/>
    <g id="text_25">
     <!-- 0.01 kg -->
     <g transform="translate(397.054687 55.953937)scale(0.1 -0.1)">
      <defs>
       <path d="M 581 4863 
L 1159 4863 
L 1159 1991 
L 2875 3500 
L 3609 3500 
L 1753 1863 
L 3688 0 
L 2938 0 
L 1159 1709 
L 1159 0 
L 581 0 
L 581 4863 
z
" id="DejaVuSans-6b" transform="scale(0.015625)"/>
      </defs>
      <use xlink:href="#DejaVuSans-30"/>
      <use x="63.623047" xlink:href="#DejaVuSans-2e"/>
      <use x="95.410156" xlink:href="#DejaVuSans-30"/>
      <use x="159.033203" xlink:href="#DejaVuSans-31"/>
      <use x="222.65625" xlink:href="#DejaVuSans-20"/>
      <use x="254.443359" xlink:href="#DejaVuSans-6b"/>
      <use x="312.353516" xlink:href="#DejaVuSans-67"/>
     </g>
    </g>
    <g id="line2d_47">
     <path d="M 369.054687 67.132062 
L 389.054687 67.132062 
" style="fill:none;stroke:#ffa500;stroke-linecap:square;stroke-width:1.5;"/>
    </g>
    <g id="line2d_48"/>
    <g id="text_26">
     <!-- 32.5 kg -->
     <g transform="translate(397.054687 70.632062)scale(0.1 -0.1)">
      <use xlink:href="#DejaVuSans-33"/>
      <use x="63.623047" xlink:href="#DejaVuSans-32"/>
      <use x="127.246094" xlink:href="#DejaVuSans-2e"/>
      <use x="159.033203" xlink:href="#DejaVuSans-35"/>
      <use x="222.65625" xlink:href="#DejaVuSans-20"/>
      <use x="254.443359" xlink:href="#DejaVuSans-6b"/>
      <use x="312.353516" xlink:href="#DejaVuSans-67"/>
     </g>
    </g>
    <g id="line2d_49">
     <path d="M 369.054687 81.810187 
L 389.054687 81.810187 
" style="fill:none;stroke:#ff0000;stroke-linecap:square;stroke-width:1.5;"/>
    </g>
    <g id="line2d_50"/>
    <g id="text_27">
     <!-- 130.0 kg -->
     <g transform="translate(397.054687 85.310187)scale(0.1 -0.1)">
      <use xlink:href="#DejaVuSans-31"/>
      <use x="63.623047" xlink:href="#DejaVuSans-33"/>
      <use x="127.246094" xlink:href="#DejaVuSans-30"/>
      <use x="190.869141" xlink:href="#DejaVuSans-2e"/>
      <use x="222.65625" xlink:href="#DejaVuSans-30"/>
      <use x="286.279297" xlink:href="#DejaVuSans-20"/>
      <use x="318.066406" xlink:href="#DejaVuSans-6b"/>
      <use x="375.976562" xlink:href="#DejaVuSans-67"/>
     </g>
    </g>
   </g>
  </g>
 </g>
 <defs>
  <clipPath id="p0f3e2bbd76">
   <rect height="265.08825" width="14.918633" x="119.050733" y="39.3555"/>
  </clipPath>
  <clipPath id="pdc77f315d9">
   <rect height="265.08825" width="231.420099" x="218.579901" y="39.3555"/>
  </clipPath>
 </defs>
</svg>
