<?xml version="1.0" encoding="utf-8" standalone="no"?>
<!DOCTYPE svg PUBLIC "-//W3C//DTD SVG 1.1//EN"
  "http://www.w3.org/Graphics/SVG/1.1/DTD/svg11.dtd">
<svg height="345.6pt" version="1.1" viewBox="0 0 460.8 345.6" width="460.8pt" xmlns="http://www.w3.org/2000/svg" xmlns:xlink="http://www.w3.org/1999/xlink">
 <metadata>
  <rdf:RDF xmlns:cc="http://creativecommons.org/ns#" xmlns:dc="http://purl.org/dc/elements/1.1/" xmlns:rdf="http://www.w3.org/1999/02/22-rdf-syntax-ns#">
   <cc:Work>
    <dc:type rdf:resource="http://purl.org/dc/dcmitype/StillImage"/>
    <dc:date>2023-05-12T01:05:29.060097</dc:date>
    <dc:format>image/svg+xml</dc:format>
    <dc:creator>
     <cc:Agent>
      <dc:title>Matplotlib v3.4.3, https://matplotlib.org/</dc:title>
     </cc:Agent>
    </dc:creator>
   </cc:Work>
  </rdf:RDF>
 </metadata>
 <defs>
  <style type="text/css">*{stroke-linecap:butt;stroke-linejoin:round;}</style>
 </defs>
 <g id="figure_1">
  <g id="patch_1">
   <path d="M 0 345.6 
L 460.8 345.6 
L 460.8 0 
L 0 0 
z
" style="fill:#ffffff;"/>
  </g>
  <g id="axes_1">
   <g id="patch_2">
    <path d="M 116.995929 304.44375 
L 134.706767 304.44375 
L 134.706767 39.3555 
L 116.995929 39.3555 
z
" style="fill:#ffffff;"/>
   </g>
   <g id="matplotlib.axis_1">
    <g id="xtick_1">
     <g id="line2d_1">
      <path clip-path="url(#pa3469e503c)" d="M 121.532465 304.44375 
L 121.532465 39.3555 
" style="fill:none;stroke:#b0b0b0;stroke-linecap:square;stroke-width:0.8;"/>
     </g>
     <g id="line2d_2">
      <defs>
       <path d="M 0 0 
L 0 3.5 
" id="m95009980e4" style="stroke:#000000;stroke-width:0.8;"/>
      </defs>
      <g>
       <use style="stroke:#000000;stroke-width:0.8;" x="121.532465" xlink:href="#m95009980e4" y="304.44375"/>
      </g>
     </g>
     <g id="text_1">
      <!-- 0.0 -->
      <g transform="translate(113.580902 319.042187)scale(0.1 -0.1)">
       <defs>
        <path d="M 2034 4250 
Q 1547 4250 1301 3770 
Q 1056 3291 1056 2328 
Q 1056 1369 1301 889 
Q 1547 409 2034 409 
Q 2525 409 2770 889 
Q 3016 1369 3016 2328 
Q 3016 3291 2770 3770 
Q 2525 4250 2034 4250 
z
M 2034 4750 
Q 2819 4750 3233 4129 
Q 3647 3509 3647 2328 
Q 3647 1150 3233 529 
Q 2819 -91 2034 -91 
Q 1250 -91 836 529 
Q 422 1150 422 2328 
Q 422 3509 836 4129 
Q 1250 4750 2034 4750 
z
" id="DejaVuSans-30" transform="scale(0.015625)"/>
        <path d="M 684 794 
L 1344 794 
L 1344 0 
L 684 0 
L 684 794 
z
" id="DejaVuSans-2e" transform="scale(0.015625)"/>
       </defs>
       <use xlink:href="#DejaVuSans-30"/>
       <use x="63.623047" xlink:href="#DejaVuSans-2e"/>
       <use x="95.410156" xlink:href="#DejaVuSans-30"/>
      </g>
     </g>
    </g>
    <g id="xtick_2">
     <g id="line2d_3">
      <path clip-path="url(#pa3469e503c)" d="M 133.824115 304.44375 
L 133.824115 39.3555 
" style="fill:none;stroke:#b0b0b0;stroke-linecap:square;stroke-width:0.8;"/>
     </g>
     <g id="line2d_4">
      <g>
       <use style="stroke:#000000;stroke-width:0.8;" x="133.824115" xlink:href="#m95009980e4" y="304.44375"/>
      </g>
     </g>
     <g id="text_2">
      <!-- 2.5 -->
      <g transform="translate(125.872553 319.042187)scale(0.1 -0.1)">
       <defs>
        <path d="M 1228 531 
L 3431 531 
L 3431 0 
L 469 0 
L 469 531 
Q 828 903 1448 1529 
Q 2069 2156 2228 2338 
Q 2531 2678 2651 2914 
Q 2772 3150 2772 3378 
Q 2772 3750 2511 3984 
Q 2250 4219 1831 4219 
Q 1534 4219 1204 4116 
Q 875 4013 500 3803 
L 500 4441 
Q 881 4594 1212 4672 
Q 1544 4750 1819 4750 
Q 2544 4750 2975 4387 
Q 3406 4025 3406 3419 
Q 3406 3131 3298 2873 
Q 3191 2616 2906 2266 
Q 2828 2175 2409 1742 
Q 1991 1309 1228 531 
z
" id="DejaVuSans-32" transform="scale(0.015625)"/>
        <path d="M 691 4666 
L 3169 4666 
L 3169 4134 
L 1269 4134 
L 1269 2991 
Q 1406 3038 1543 3061 
Q 1681 3084 1819 3084 
Q 2600 3084 3056 2656 
Q 3513 2228 3513 1497 
Q 3513 744 3044 326 
Q 2575 -91 1722 -91 
Q 1428 -91 1123 -41 
Q 819 9 494 109 
L 494 744 
Q 775 591 1075 516 
Q 1375 441 1709 441 
Q 2250 441 2565 725 
Q 2881 1009 2881 1497 
Q 2881 1984 2565 2268 
Q 2250 2553 1709 2553 
Q 1456 2553 1204 2497 
Q 953 2441 691 2322 
L 691 4666 
z
" id="DejaVuSans-35" transform="scale(0.015625)"/>
       </defs>
       <use xlink:href="#DejaVuSans-32"/>
       <use x="63.623047" xlink:href="#DejaVuSans-2e"/>
       <use x="95.410156" xlink:href="#DejaVuSans-35"/>
      </g>
     </g>
    </g>
    <g id="text_3">
     <!-- y [m] -->
     <g transform="translate(112.531035 332.720312)scale(0.1 -0.1)">
      <defs>
       <path d="M 2059 -325 
Q 1816 -950 1584 -1140 
Q 1353 -1331 966 -1331 
L 506 -1331 
L 506 -850 
L 844 -850 
Q 1081 -850 1212 -737 
Q 1344 -625 1503 -206 
L 1606 56 
L 191 3500 
L 800 3500 
L 1894 763 
L 2988 3500 
L 3597 3500 
L 2059 -325 
z
" id="DejaVuSans-79" transform="scale(0.015625)"/>
       <path id="DejaVuSans-20" transform="scale(0.015625)"/>
       <path d="M 550 4863 
L 1875 4863 
L 1875 4416 
L 1125 4416 
L 1125 -397 
L 1875 -397 
L 1875 -844 
L 550 -844 
L 550 4863 
z
" id="DejaVuSans-5b" transform="scale(0.015625)"/>
       <path d="M 3328 2828 
Q 3544 3216 3844 3400 
Q 4144 3584 4550 3584 
Q 5097 3584 5394 3201 
Q 5691 2819 5691 2113 
L 5691 0 
L 5113 0 
L 5113 2094 
Q 5113 2597 4934 2840 
Q 4756 3084 4391 3084 
Q 3944 3084 3684 2787 
Q 3425 2491 3425 1978 
L 3425 0 
L 2847 0 
L 2847 2094 
Q 2847 2600 2669 2842 
Q 2491 3084 2119 3084 
Q 1678 3084 1418 2786 
Q 1159 2488 1159 1978 
L 1159 0 
L 581 0 
L 581 3500 
L 1159 3500 
L 1159 2956 
Q 1356 3278 1631 3431 
Q 1906 3584 2284 3584 
Q 2666 3584 2933 3390 
Q 3200 3197 3328 2828 
z
" id="DejaVuSans-6d" transform="scale(0.015625)"/>
       <path d="M 1947 4863 
L 1947 -844 
L 622 -844 
L 622 -397 
L 1369 -397 
L 1369 4416 
L 622 4416 
L 622 4863 
L 1947 4863 
z
" id="DejaVuSans-5d" transform="scale(0.015625)"/>
      </defs>
      <use xlink:href="#DejaVuSans-79"/>
      <use x="59.179688" xlink:href="#DejaVuSans-20"/>
      <use x="90.966797" xlink:href="#DejaVuSans-5b"/>
      <use x="129.980469" xlink:href="#DejaVuSans-6d"/>
      <use x="227.392578" xlink:href="#DejaVuSans-5d"/>
     </g>
    </g>
   </g>
   <g id="matplotlib.axis_2">
    <g id="ytick_1">
     <g id="line2d_5">
      <path clip-path="url(#pa3469e503c)" d="M 116.995929 285.188501 
L 134.706767 285.188501 
" style="fill:none;stroke:#b0b0b0;stroke-linecap:square;stroke-width:0.8;"/>
     </g>
     <g id="line2d_6">
      <defs>
       <path d="M 0 0 
L -3.5 0 
" id="m842862ecc3" style="stroke:#000000;stroke-width:0.8;"/>
      </defs>
      <g>
       <use style="stroke:#000000;stroke-width:0.8;" x="116.995929" xlink:href="#m842862ecc3" y="285.188501"/>
      </g>
     </g>
     <g id="text_4">
      <!-- 0 -->
      <g transform="translate(103.633429 288.987719)scale(0.1 -0.1)">
       <use xlink:href="#DejaVuSans-30"/>
      </g>
     </g>
    </g>
    <g id="ytick_2">
     <g id="line2d_7">
      <path clip-path="url(#pa3469e503c)" d="M 116.995929 236.021901 
L 134.706767 236.021901 
" style="fill:none;stroke:#b0b0b0;stroke-linecap:square;stroke-width:0.8;"/>
     </g>
     <g id="line2d_8">
      <g>
       <use style="stroke:#000000;stroke-width:0.8;" x="116.995929" xlink:href="#m842862ecc3" y="236.021901"/>
      </g>
     </g>
     <g id="text_5">
      <!-- 10 -->
      <g transform="translate(97.270929 239.821119)scale(0.1 -0.1)">
       <defs>
        <path d="M 794 531 
L 1825 531 
L 1825 4091 
L 703 3866 
L 703 4441 
L 1819 4666 
L 2450 4666 
L 2450 531 
L 3481 531 
L 3481 0 
L 794 0 
L 794 531 
z
" id="DejaVuSans-31" transform="scale(0.015625)"/>
       </defs>
       <use xlink:href="#DejaVuSans-31"/>
       <use x="63.623047" xlink:href="#DejaVuSans-30"/>
      </g>
     </g>
    </g>
    <g id="ytick_3">
     <g id="line2d_9">
      <path clip-path="url(#pa3469e503c)" d="M 116.995929 186.8553 
L 134.706767 186.8553 
" style="fill:none;stroke:#b0b0b0;stroke-linecap:square;stroke-width:0.8;"/>
     </g>
     <g id="line2d_10">
      <g>
       <use style="stroke:#000000;stroke-width:0.8;" x="116.995929" xlink:href="#m842862ecc3" y="186.8553"/>
      </g>
     </g>
     <g id="text_6">
      <!-- 20 -->
      <g transform="translate(97.270929 190.654519)scale(0.1 -0.1)">
       <use xlink:href="#DejaVuSans-32"/>
       <use x="63.623047" xlink:href="#DejaVuSans-30"/>
      </g>
     </g>
    </g>
    <g id="ytick_4">
     <g id="line2d_11">
      <path clip-path="url(#pa3469e503c)" d="M 116.995929 137.6887 
L 134.706767 137.6887 
" style="fill:none;stroke:#b0b0b0;stroke-linecap:square;stroke-width:0.8;"/>
     </g>
     <g id="line2d_12">
      <g>
       <use style="stroke:#000000;stroke-width:0.8;" x="116.995929" xlink:href="#m842862ecc3" y="137.6887"/>
      </g>
     </g>
     <g id="text_7">
      <!-- 30 -->
      <g transform="translate(97.270929 141.487919)scale(0.1 -0.1)">
       <defs>
        <path d="M 2597 2516 
Q 3050 2419 3304 2112 
Q 3559 1806 3559 1356 
Q 3559 666 3084 287 
Q 2609 -91 1734 -91 
Q 1441 -91 1130 -33 
Q 819 25 488 141 
L 488 750 
Q 750 597 1062 519 
Q 1375 441 1716 441 
Q 2309 441 2620 675 
Q 2931 909 2931 1356 
Q 2931 1769 2642 2001 
Q 2353 2234 1838 2234 
L 1294 2234 
L 1294 2753 
L 1863 2753 
Q 2328 2753 2575 2939 
Q 2822 3125 2822 3475 
Q 2822 3834 2567 4026 
Q 2313 4219 1838 4219 
Q 1578 4219 1281 4162 
Q 984 4106 628 3988 
L 628 4550 
Q 988 4650 1302 4700 
Q 1616 4750 1894 4750 
Q 2613 4750 3031 4423 
Q 3450 4097 3450 3541 
Q 3450 3153 3228 2886 
Q 3006 2619 2597 2516 
z
" id="DejaVuSans-33" transform="scale(0.015625)"/>
       </defs>
       <use xlink:href="#DejaVuSans-33"/>
       <use x="63.623047" xlink:href="#DejaVuSans-30"/>
      </g>
     </g>
    </g>
    <g id="ytick_5">
     <g id="line2d_13">
      <path clip-path="url(#pa3469e503c)" d="M 116.995929 88.5221 
L 134.706767 88.5221 
" style="fill:none;stroke:#b0b0b0;stroke-linecap:square;stroke-width:0.8;"/>
     </g>
     <g id="line2d_14">
      <g>
       <use style="stroke:#000000;stroke-width:0.8;" x="116.995929" xlink:href="#m842862ecc3" y="88.5221"/>
      </g>
     </g>
     <g id="text_8">
      <!-- 40 -->
      <g transform="translate(97.270929 92.321319)scale(0.1 -0.1)">
       <defs>
        <path d="M 2419 4116 
L 825 1625 
L 2419 1625 
L 2419 4116 
z
M 2253 4666 
L 3047 4666 
L 3047 1625 
L 3713 1625 
L 3713 1100 
L 3047 1100 
L 3047 0 
L 2419 0 
L 2419 1100 
L 313 1100 
L 313 1709 
L 2253 4666 
z
" id="DejaVuSans-34" transform="scale(0.015625)"/>
       </defs>
       <use xlink:href="#DejaVuSans-34"/>
       <use x="63.623047" xlink:href="#DejaVuSans-30"/>
      </g>
     </g>
    </g>
    <g id="ytick_6">
     <g id="line2d_15">
      <path clip-path="url(#pa3469e503c)" d="M 116.995929 39.3555 
L 134.706767 39.3555 
" style="fill:none;stroke:#b0b0b0;stroke-linecap:square;stroke-width:0.8;"/>
     </g>
     <g id="line2d_16">
      <g>
       <use style="stroke:#000000;stroke-width:0.8;" x="116.995929" xlink:href="#m842862ecc3" y="39.3555"/>
      </g>
     </g>
     <g id="text_9">
      <!-- 50 -->
      <g transform="translate(97.270929 43.154719)scale(0.1 -0.1)">
       <use xlink:href="#DejaVuSans-35"/>
       <use x="63.623047" xlink:href="#DejaVuSans-30"/>
      </g>
     </g>
    </g>
    <g id="text_10">
     <!-- x [m] -->
     <g transform="translate(91.191241 185.219937)rotate(-90)scale(0.1 -0.1)">
      <defs>
       <path d="M 3513 3500 
L 2247 1797 
L 3578 0 
L 2900 0 
L 1881 1375 
L 863 0 
L 184 0 
L 1544 1831 
L 300 3500 
L 978 3500 
L 1906 2253 
L 2834 3500 
L 3513 3500 
z
" id="DejaVuSans-78" transform="scale(0.015625)"/>
      </defs>
      <use xlink:href="#DejaVuSans-78"/>
      <use x="59.179688" xlink:href="#DejaVuSans-20"/>
      <use x="90.966797" xlink:href="#DejaVuSans-5b"/>
      <use x="129.980469" xlink:href="#DejaVuSans-6d"/>
      <use x="227.392578" xlink:href="#DejaVuSans-5d"/>
     </g>
    </g>
   </g>
   <g id="line2d_17">
    <path clip-path="url(#pa3469e503c)" d="M 121.532465 285.188501 
L 121.422078 261.971524 
L 121.317166 256.770971 
L 121.470249 253.219189 
L 121.829602 249.987899 
L 122.408331 246.791393 
L 123.236966 243.47768 
L 124.374811 239.866469 
L 126.02722 235.408999 
L 130.511692 223.641693 
L 131.67575 219.757153 
L 132.523132 216.159778 
L 133.116853 212.673489 
L 133.732934 207.3846 
L 133.899184 204.385 
L 133.821223 201.743579 
L 133.520194 199.114172 
L 132.995893 196.486339 
L 132.251108 193.889649 
L 131.241776 191.192881 
L 129.907727 188.276371 
L 128.065122 184.813063 
L 121.694895 173.248015 
L 120.381626 170.160957 
L 119.381487 167.24826 
L 118.643472 164.419449 
L 118.142751 161.626288 
L 117.864798 158.815782 
L 117.807319 155.958713 
L 117.972029 153.024286 
L 118.370397 149.928256 
L 119.039236 146.509104 
L 120.102304 142.302624 
L 123.489993 129.533092 
L 124.185972 125.665338 
L 124.617595 122.015015 
L 124.82061 118.400388 
L 124.80407 114.711158 
L 124.562128 110.807251 
L 124.060379 106.416382 
L 123.185172 100.850143 
L 120.840176 86.581446 
L 120.287913 81.439207 
L 119.990299 76.588703 
L 119.913726 71.68071 
L 120.057953 66.41325 
L 120.462647 60.140385 
L 122.310236 35.384032 
L 122.429288 28.628702 
L 122.329572 21.297248 
L 121.955338 11.608881 
L 121.39612 -1 
L 121.39612 -1 
" style="fill:none;stroke:#0000ff;stroke-linecap:square;stroke-width:1.5;"/>
   </g>
   <g id="line2d_18">
    <path clip-path="url(#pa3469e503c)" d="M 121.532465 285.188501 
L 121.421585 261.977759 
L 121.316099 256.765445 
L 121.46869 253.22153 
L 121.827758 249.996601 
L 122.407944 246.805639 
L 123.239424 243.498017 
L 124.380518 239.894165 
L 126.044283 235.421741 
L 130.426303 223.9434 
L 131.604157 220.041547 
L 132.459242 216.450101 
L 133.066668 212.942332 
L 133.660104 207.921555 
L 133.872182 204.716935 
L 133.824967 202.050879 
L 133.556769 199.41947 
L 133.065683 196.780485 
L 132.348514 194.143993 
L 131.382533 191.453654 
L 130.094951 188.538967 
L 128.340497 185.141459 
L 124.44177 178.243744 
L 122.350014 174.233638 
L 120.9054 170.9895 
L 119.815916 168.004624 
L 118.996797 165.119256 
L 118.416483 162.260784 
L 118.064377 159.403174 
L 117.933577 156.517854 
L 118.022998 153.548017 
L 118.341013 150.435518 
L 118.919282 147.018628 
L 119.843969 142.958037 
L 121.986483 134.878686 
L 123.177829 129.827296 
L 123.904934 125.788565 
L 124.36056 122.015473 
L 124.587499 118.275115 
L 124.594413 114.457409 
L 124.375382 110.396205 
L 123.901057 105.84455 
L 123.047907 99.957132 
L 120.957778 86.072124 
L 120.424734 80.668029 
L 120.144114 75.556776 
L 120.083463 70.362166 
L 120.245151 64.676491 
L 120.680832 57.642955 
L 122.108965 36.854488 
L 122.292375 29.575593 
L 122.257243 21.927554 
L 121.973754 12.261304 
L 121.468785 -1 
L 121.468785 -1 
" style="fill:none;stroke:#ffa500;stroke-linecap:square;stroke-width:1.5;"/>
   </g>
   <g id="line2d_19">
    <path clip-path="url(#pa3469e503c)" d="M 121.532465 285.188501 
L 121.421924 261.981214 
L 121.31238 256.699643 
L 121.465613 253.150547 
L 121.826183 249.916106 
L 122.401199 246.765654 
L 123.222368 243.522074 
L 124.360884 239.961663 
L 126.064074 235.422535 
L 129.933838 225.295187 
L 131.191192 221.252556 
L 132.116288 217.535353 
L 132.781728 213.946045 
L 133.289074 209.913125 
L 133.705144 205.426811 
L 133.730273 202.609905 
L 133.5314 199.904821 
L 133.112441 197.229647 
L 132.456155 194.488657 
L 131.56044 191.712985 
L 130.371939 188.775373 
L 128.753486 185.392571 
L 125.793069 179.823151 
L 123.255055 174.846323 
L 121.712879 171.333965 
L 120.552527 168.146853 
L 119.670511 165.078861 
L 119.033071 162.058747 
L 118.622028 159.034935 
L 118.428723 155.952185 
L 118.453163 152.779041 
L 118.703651 149.404212 
L 119.209097 145.664008 
L 120.067794 141.062213 
L 122.94826 126.525513 
L 123.487023 122.127644 
L 123.78493 117.857674 
L 123.8637 113.502379 
L 123.721681 108.816517 
L 123.326229 103.394641 
L 122.513652 95.657394 
L 121.282468 83.788112 
L 120.835345 77.150103 
L 120.631073 70.783449 
L 120.641105 64.02004 
L 120.888224 55.765973 
L 121.900696 27.98272 
L 121.92604 17.706518 
L 121.713024 3.565635 
L 121.624874 -1 
L 121.624874 -1 
" style="fill:none;stroke:#ff0000;stroke-linecap:square;stroke-width:1.5;"/>
   </g>
   <g id="patch_3">
    <path d="M 116.995929 304.44375 
L 116.995929 39.3555 
" style="fill:none;stroke:#000000;stroke-linecap:square;stroke-linejoin:miter;stroke-width:0.8;"/>
   </g>
   <g id="patch_4">
    <path d="M 134.706767 304.44375 
L 134.706767 39.3555 
" style="fill:none;stroke:#000000;stroke-linecap:square;stroke-linejoin:miter;stroke-width:0.8;"/>
   </g>
   <g id="patch_5">
    <path d="M 116.995929 304.44375 
L 134.706767 304.44375 
" style="fill:none;stroke:#000000;stroke-linecap:square;stroke-linejoin:miter;stroke-width:0.8;"/>
   </g>
   <g id="patch_6">
    <path d="M 116.995929 39.3555 
L 134.706767 39.3555 
" style="fill:none;stroke:#000000;stroke-linecap:square;stroke-linejoin:miter;stroke-width:0.8;"/>
   </g>
  </g>
  <g id="axes_2">
   <g id="patch_7">
    <path d="M 219.897304 304.44375 
L 450 304.44375 
L 450 39.3555 
L 219.897304 39.3555 
z
" style="fill:#ffffff;"/>
   </g>
   <g id="matplotlib.axis_3">
    <g id="xtick_3">
     <g id="line2d_20">
      <path clip-path="url(#pfeea1f28ac)" d="M 278.836877 304.44375 
L 278.836877 39.3555 
" style="fill:none;stroke:#b0b0b0;stroke-linecap:square;stroke-width:0.8;"/>
     </g>
     <g id="line2d_21">
      <g>
       <use style="stroke:#000000;stroke-width:0.8;" x="278.836877" xlink:href="#m95009980e4" y="304.44375"/>
      </g>
     </g>
     <g id="text_11">
      <!-- 0 -->
      <g transform="translate(275.655627 319.042187)scale(0.1 -0.1)">
       <use xlink:href="#DejaVuSans-30"/>
      </g>
     </g>
    </g>
    <g id="xtick_4">
     <g id="line2d_22">
      <path clip-path="url(#pfeea1f28ac)" d="M 342.71509 304.44375 
L 342.71509 39.3555 
" style="fill:none;stroke:#b0b0b0;stroke-linecap:square;stroke-width:0.8;"/>
     </g>
     <g id="line2d_23">
      <g>
       <use style="stroke:#000000;stroke-width:0.8;" x="342.71509" xlink:href="#m95009980e4" y="304.44375"/>
      </g>
     </g>
     <g id="text_12">
      <!-- 1 -->
      <g transform="translate(339.53384 319.042187)scale(0.1 -0.1)">
       <use xlink:href="#DejaVuSans-31"/>
      </g>
     </g>
    </g>
    <g id="xtick_5">
     <g id="line2d_24">
      <path clip-path="url(#pfeea1f28ac)" d="M 406.593302 304.44375 
L 406.593302 39.3555 
" style="fill:none;stroke:#b0b0b0;stroke-linecap:square;stroke-width:0.8;"/>
     </g>
     <g id="line2d_25">
      <g>
       <use style="stroke:#000000;stroke-width:0.8;" x="406.593302" xlink:href="#m95009980e4" y="304.44375"/>
      </g>
     </g>
     <g id="text_13">
      <!-- 2 -->
      <g transform="translate(403.412052 319.042187)scale(0.1 -0.1)">
       <use xlink:href="#DejaVuSans-32"/>
      </g>
     </g>
    </g>
    <g id="text_14">
     <!-- y [m] -->
     <g transform="translate(321.62834 332.720312)scale(0.1 -0.1)">
      <use xlink:href="#DejaVuSans-79"/>
      <use x="59.179688" xlink:href="#DejaVuSans-20"/>
      <use x="90.966797" xlink:href="#DejaVuSans-5b"/>
      <use x="129.980469" xlink:href="#DejaVuSans-6d"/>
      <use x="227.392578" xlink:href="#DejaVuSans-5d"/>
     </g>
    </g>
   </g>
   <g id="matplotlib.axis_4">
    <g id="ytick_7">
     <g id="line2d_26">
      <path clip-path="url(#pfeea1f28ac)" d="M 219.897304 285.188501 
L 450 285.188501 
" style="fill:none;stroke:#b0b0b0;stroke-linecap:square;stroke-width:0.8;"/>
     </g>
     <g id="line2d_27">
      <g>
       <use style="stroke:#000000;stroke-width:0.8;" x="219.897304" xlink:href="#m842862ecc3" y="285.188501"/>
      </g>
     </g>
     <g id="text_15">
      <!-- 0 -->
      <g transform="translate(206.534804 288.987719)scale(0.1 -0.1)">
       <use xlink:href="#DejaVuSans-30"/>
      </g>
     </g>
    </g>
    <g id="ytick_8">
     <g id="line2d_28">
      <path clip-path="url(#pfeea1f28ac)" d="M 219.897304 236.021901 
L 450 236.021901 
" style="fill:none;stroke:#b0b0b0;stroke-linecap:square;stroke-width:0.8;"/>
     </g>
     <g id="line2d_29">
      <g>
       <use style="stroke:#000000;stroke-width:0.8;" x="219.897304" xlink:href="#m842862ecc3" y="236.021901"/>
      </g>
     </g>
     <g id="text_16">
      <!-- 10 -->
      <g transform="translate(200.172304 239.821119)scale(0.1 -0.1)">
       <use xlink:href="#DejaVuSans-31"/>
       <use x="63.623047" xlink:href="#DejaVuSans-30"/>
      </g>
     </g>
    </g>
    <g id="ytick_9">
     <g id="line2d_30">
      <path clip-path="url(#pfeea1f28ac)" d="M 219.897304 186.8553 
L 450 186.8553 
" style="fill:none;stroke:#b0b0b0;stroke-linecap:square;stroke-width:0.8;"/>
     </g>
     <g id="line2d_31">
      <g>
       <use style="stroke:#000000;stroke-width:0.8;" x="219.897304" xlink:href="#m842862ecc3" y="186.8553"/>
      </g>
     </g>
     <g id="text_17">
      <!-- 20 -->
      <g transform="translate(200.172304 190.654519)scale(0.1 -0.1)">
       <use xlink:href="#DejaVuSans-32"/>
       <use x="63.623047" xlink:href="#DejaVuSans-30"/>
      </g>
     </g>
    </g>
    <g id="ytick_10">
     <g id="line2d_32">
      <path clip-path="url(#pfeea1f28ac)" d="M 219.897304 137.6887 
L 450 137.6887 
" style="fill:none;stroke:#b0b0b0;stroke-linecap:square;stroke-width:0.8;"/>
     </g>
     <g id="line2d_33">
      <g>
       <use style="stroke:#000000;stroke-width:0.8;" x="219.897304" xlink:href="#m842862ecc3" y="137.6887"/>
      </g>
     </g>
     <g id="text_18">
      <!-- 30 -->
      <g transform="translate(200.172304 141.487919)scale(0.1 -0.1)">
       <use xlink:href="#DejaVuSans-33"/>
       <use x="63.623047" xlink:href="#DejaVuSans-30"/>
      </g>
     </g>
    </g>
    <g id="ytick_11">
     <g id="line2d_34">
      <path clip-path="url(#pfeea1f28ac)" d="M 219.897304 88.5221 
L 450 88.5221 
" style="fill:none;stroke:#b0b0b0;stroke-linecap:square;stroke-width:0.8;"/>
     </g>
     <g id="line2d_35">
      <g>
       <use style="stroke:#000000;stroke-width:0.8;" x="219.897304" xlink:href="#m842862ecc3" y="88.5221"/>
      </g>
     </g>
     <g id="text_19">
      <!-- 40 -->
      <g transform="translate(200.172304 92.321319)scale(0.1 -0.1)">
       <use xlink:href="#DejaVuSans-34"/>
       <use x="63.623047" xlink:href="#DejaVuSans-30"/>
      </g>
     </g>
    </g>
    <g id="ytick_12">
     <g id="line2d_36">
      <path clip-path="url(#pfeea1f28ac)" d="M 219.897304 39.3555 
L 450 39.3555 
" style="fill:none;stroke:#b0b0b0;stroke-linecap:square;stroke-width:0.8;"/>
     </g>
     <g id="line2d_37">
      <g>
       <use style="stroke:#000000;stroke-width:0.8;" x="219.897304" xlink:href="#m842862ecc3" y="39.3555"/>
      </g>
     </g>
     <g id="text_20">
      <!-- 50 -->
      <g transform="translate(200.172304 43.154719)scale(0.1 -0.1)">
       <use xlink:href="#DejaVuSans-35"/>
       <use x="63.623047" xlink:href="#DejaVuSans-30"/>
      </g>
     </g>
    </g>
    <g id="text_21">
     <!-- x [m] -->
     <g transform="translate(194.092617 185.219937)rotate(-90)scale(0.1 -0.1)">
      <use xlink:href="#DejaVuSans-78"/>
      <use x="59.179688" xlink:href="#DejaVuSans-20"/>
      <use x="90.966797" xlink:href="#DejaVuSans-5b"/>
      <use x="129.980469" xlink:href="#DejaVuSans-6d"/>
      <use x="227.392578" xlink:href="#DejaVuSans-5d"/>
     </g>
    </g>
   </g>
   <g id="line2d_38">
    <path clip-path="url(#pfeea1f28ac)" d="M 278.836877 285.188501 
L 278.729736 264.746549 
L 278.352483 263.753299 
L 277.213106 261.614846 
L 276.42779 259.875861 
L 276.068952 258.561977 
L 275.980974 257.421457 
L 276.122628 256.353931 
L 276.484216 255.335798 
L 277.087859 254.316624 
L 277.976656 253.271431 
L 279.186681 252.200997 
L 280.833815 251.054015 
L 282.996562 249.832172 
L 285.809242 248.512342 
L 289.369254 247.098405 
L 293.846679 245.569038 
L 299.437283 243.903698 
L 306.448332 242.057956 
L 315.219363 239.988836 
L 326.556276 237.555649 
L 342.523397 234.375342 
L 382.949378 226.414628 
L 394.853416 223.791349 
L 404.097649 221.533078 
L 411.499828 219.502122 
L 417.417654 217.656811 
L 422.170337 215.952637 
L 425.960998 214.368656 
L 428.96421 212.882457 
L 431.282684 211.496672 
L 437.625175 207.147119 
L 438.66284 206.088003 
L 439.248952 205.184163 
L 439.507719 204.385 
L 439.516196 203.638284 
L 439.293121 202.891109 
L 438.815391 202.117124 
L 438.027112 201.290239 
L 436.835557 200.385143 
L 435.157637 199.404482 
L 432.848075 198.326056 
L 429.786321 197.15555 
L 425.842869 195.898876 
L 420.884948 194.561746 
L 414.574196 193.101214 
L 406.641505 191.503217 
L 396.677866 189.731777 
L 384.225421 187.751503 
L 367.895736 185.390696 
L 342.765633 182.008962 
L 305.014773 176.911981 
L 287.867718 174.361973 
L 274.881357 172.215372 
L 264.504906 170.284592 
L 256.152857 168.513767 
L 249.418735 166.865901 
L 244.127042 165.351147 
L 240.008467 163.951806 
L 236.835527 162.647628 
L 234.471975 161.442693 
L 232.783093 160.339946 
L 231.640757 159.341337 
L 230.910335 158.421747 
L 230.500581 157.555575 
L 230.358051 156.743214 
L 230.445398 155.932596 
L 230.756883 155.124129 
L 231.32739 154.266269 
L 232.220557 153.334094 
L 233.529367 152.303273 
L 235.331912 151.175758 
L 237.808409 149.902887 
L 241.072959 148.487798 
L 245.362447 146.883345 
L 250.945001 145.042844 
L 258.513852 142.795156 
L 270.23987 139.57139 
L 289.713377 134.215955 
L 297.808499 131.74807 
L 303.919979 129.660995 
L 308.666465 127.812477 
L 312.38414 126.132291 
L 315.252806 124.599383 
L 317.434622 123.191246 
L 319.065562 121.884203 
L 320.230948 120.679921 
L 321.04454 119.527138 
L 321.539408 118.45279 
L 321.780819 117.404977 
L 321.791189 116.384076 
L 321.577015 115.33809 
L 321.128852 114.267421 
L 320.40079 113.120366 
L 319.354635 111.897602 
L 317.894445 110.547976 
L 315.957674 109.072543 
L 313.407288 107.420694 
L 310.079174 105.542086 
L 305.693709 103.334911 
L 299.620063 100.542908 
L 275.895653 89.876912 
L 271.411937 87.491342 
L 267.906595 85.383724 
L 265.1165 83.452886 
L 262.928874 81.674779 
L 261.239882 80.024806 
L 259.941672 78.451667 
L 258.991817 76.95613 
L 258.336431 75.512536 
L 257.944232 74.121309 
L 257.781426 72.730268 
L 257.840411 71.339676 
L 258.12588 69.897309 
L 258.649337 68.403427 
L 259.447992 66.805892 
L 260.564718 65.078837 
L 262.069697 63.170258 
L 264.070639 61.00203 
L 266.797998 58.39149 
L 270.885795 54.816117 
L 279.527915 47.317801 
L 282.518493 44.385536 
L 284.77509 41.869106 
L 286.52894 39.586381 
L 287.887077 37.459509 
L 288.918484 35.436587 
L 289.66498 33.491794 
L 290.165641 31.572907 
L 290.435975 29.653899 
L 290.483025 27.708699 
L 290.306111 25.711208 
L 289.891672 23.609032 
L 289.220694 21.376048 
L 288.239863 18.907315 
L 286.876689 16.097886 
L 284.90787 12.580161 
L 277.181568 -0.760913 
L 277.065453 -1 
L 277.065453 -1 
" style="fill:none;stroke:#0000ff;stroke-linecap:square;stroke-width:1.5;"/>
   </g>
   <g id="line2d_39">
    <path clip-path="url(#pfeea1f28ac)" d="M 278.836877 285.188501 
L 278.732206 264.771266 
L 278.369537 263.805893 
L 277.314431 261.825323 
L 276.458991 259.99006 
L 276.073478 258.654804 
L 275.965743 257.491992 
L 276.0902 256.427485 
L 276.432743 255.411903 
L 277.015098 254.394976 
L 277.880252 253.351878 
L 279.065024 252.283495 
L 280.644565 251.164628 
L 282.722835 249.97069 
L 285.43434 248.6783 
L 288.877182 247.291179 
L 293.220529 245.788125 
L 298.660253 244.148782 
L 305.505224 242.328765 
L 314.097468 240.285223 
L 325.127405 237.90229 
L 340.524113 234.821777 
L 384.008032 226.243664 
L 395.456029 223.694244 
L 404.491169 221.460972 
L 411.706501 219.455543 
L 417.539865 217.610564 
L 422.215482 215.90684 
L 425.937612 214.323438 
L 428.881048 212.837933 
L 431.1491 211.45292 
L 437.541461 206.973151 
L 438.498185 205.940273 
L 439.027177 205.063042 
L 439.256002 204.264033 
L 439.239999 203.517596 
L 438.996346 202.770879 
L 438.501405 201.997558 
L 437.698832 201.171517 
L 436.495518 200.267323 
L 434.808365 199.287375 
L 432.492622 198.209254 
L 429.431024 197.038588 
L 425.499955 195.781455 
L 420.471599 194.418642 
L 414.193705 192.957419 
L 406.309721 191.35775 
L 396.282161 189.560051 
L 383.63447 187.530405 
L 366.970898 185.096818 
L 340.459633 181.481694 
L 306.521569 176.811628 
L 289.606766 174.25721 
L 276.651295 172.084621 
L 266.286327 170.128367 
L 257.934709 168.332262 
L 251.29015 166.684714 
L 245.974646 165.145051 
L 241.830724 163.720715 
L 238.689641 162.417578 
L 236.3367 161.21375 
L 234.640986 160.112046 
L 233.452583 159.088075 
L 232.68281 158.142981 
L 232.249292 157.277424 
L 232.072963 156.439351 
L 232.126293 155.629088 
L 232.406711 154.794768 
L 232.947734 153.911017 
L 233.810278 152.952879 
L 235.048806 151.92167 
L 236.800115 150.767662 
L 239.158009 149.493239 
L 242.265605 148.075544 
L 246.347782 146.467022 
L 251.734164 144.595652 
L 259.020116 142.31454 
L 270.516558 138.977968 
L 288.216732 133.826617 
L 295.975909 131.328673 
L 301.773002 129.239459 
L 306.278337 127.390477 
L 309.811705 125.710849 
L 312.58618 124.153072 
L 314.698086 122.720209 
L 316.277453 121.388466 
L 317.406235 120.159421 
L 318.19324 118.981816 
L 318.679116 117.856347 
L 318.904032 116.783507 
L 318.901489 115.711337 
L 318.678006 114.64017 
L 318.214733 113.518135 
L 317.471185 112.319667 
L 316.412718 111.045375 
L 314.949874 109.644011 
L 312.991972 108.090599 
L 310.43901 106.360264 
L 307.099778 104.376529 
L 302.66347 102.011377 
L 296.178521 98.827502 
L 279.616287 90.794053 
L 274.740361 88.125482 
L 271.009749 85.837846 
L 268.066048 83.778527 
L 265.753137 81.897613 
L 263.938096 80.144441 
L 262.538761 78.493971 
L 261.487598 76.92082 
L 260.732935 75.399361 
L 260.238923 73.903797 
L 259.987322 72.434467 
L 259.959773 70.965402 
L 260.15701 69.444383 
L 260.589034 67.87165 
L 261.286781 66.195027 
L 262.287438 64.388589 
L 263.651569 62.400235 
L 265.472119 60.151701 
L 267.973903 57.433928 
L 271.794224 53.645354 
L 279.024533 46.505542 
L 281.75325 43.46676 
L 283.81651 40.844466 
L 285.416576 38.456251 
L 286.64776 36.224124 
L 287.571536 34.096095 
L 288.232949 32.020007 
L 288.654641 29.969868 
L 288.853166 27.893344 
L 288.830347 25.790624 
L 288.584536 23.609302 
L 288.093053 21.270683 
L 287.323224 18.722348 
L 286.219081 15.859301 
L 284.621339 12.366351 
L 281.777276 6.772307 
L 278.795142 0.756069 
L 278.00953 -1 
L 278.00953 -1 
" style="fill:none;stroke:#ffa500;stroke-linecap:square;stroke-width:1.5;"/>
   </g>
   <g id="line2d_40">
    <path clip-path="url(#pfeea1f28ac)" d="M 278.836877 285.188501 
L 278.730613 264.75785 
L 278.35645 263.772571 
L 277.251465 261.703588 
L 276.395134 259.854077 
L 276.018517 258.526238 
L 275.919614 257.370134 
L 276.053046 256.312131 
L 276.404401 255.302785 
L 276.994804 254.291773 
L 277.865848 253.254286 
L 279.085397 252.165444 
L 280.711398 251.026443 
L 282.851357 249.813 
L 285.587067 248.527419 
L 289.064125 247.147238 
L 293.457686 245.651395 
L 298.966777 244.020233 
L 305.901291 242.210495 
L 314.597091 240.18022 
L 326.073582 237.742225 
L 343.230876 234.349575 
L 375.757719 227.939876 
L 388.424329 225.196476 
L 398.307289 222.835559 
L 406.225446 220.721921 
L 412.629764 218.789896 
L 417.831889 216.995773 
L 422.030542 215.319211 
L 425.348729 213.764339 
L 427.955945 212.30833 
L 430.744888 210.459951 
L 434.80064 207.667768 
L 436.160068 206.458178 
L 436.969844 205.453312 
L 437.396233 204.577624 
L 437.540292 203.780133 
L 437.449994 203.0088 
L 437.129641 202.237742 
L 436.553572 201.440957 
L 435.63064 200.566087 
L 434.320291 199.640771 
L 432.462315 198.614125 
L 429.941237 197.489731 
L 426.645474 196.272721 
L 422.380374 194.943907 
L 417.003525 193.51094 
L 410.377239 191.981241 
L 402.018641 190.289987 
L 391.50738 188.401139 
L 377.997288 186.210775 
L 359.227718 183.410409 
L 304.418084 175.361151 
L 289.99046 172.950783 
L 278.547633 170.821669 
L 269.366099 168.896382 
L 261.910292 167.114944 
L 255.91202 165.462704 
L 251.12276 163.922309 
L 247.388857 162.499981 
L 244.500283 161.174462 
L 242.331653 159.949004 
L 240.729815 158.79977 
L 239.606523 157.728244 
L 238.878543 156.735385 
L 238.460963 155.795643 
L 238.303627 154.909351 
L 238.369948 154.024661 
L 238.664093 153.115971 
L 239.214488 152.157912 
L 240.073411 151.125435 
L 241.316877 149.993896 
L 243.043858 148.739112 
L 245.373545 147.337349 
L 248.439012 145.765169 
L 252.494139 143.94869 
L 257.951645 141.763824 
L 265.922049 138.834132 
L 285.373999 131.764503 
L 291.318728 129.320954 
L 295.809111 127.245658 
L 299.364395 125.365387 
L 302.134263 123.658339 
L 304.295512 122.07569 
L 305.957246 120.593492 
L 307.208306 119.187148 
L 308.101343 117.857674 
L 308.698517 116.579723 
L 309.040886 115.327713 
L 309.150197 114.075941 
L 309.035175 112.824717 
L 308.68785 111.522204 
L 308.09423 110.168718 
L 307.208275 108.712557 
L 305.977106 107.128148 
L 304.313276 105.364018 
L 302.111302 103.368742 
L 299.193321 101.038953 
L 295.121104 98.08964 
L 279.021454 86.706129 
L 275.933904 84.101052 
L 273.517837 81.778496 
L 271.601813 79.635633 
L 270.091364 77.621254 
L 268.912105 75.683779 
L 268.023418 73.797563 
L 267.401844 71.963028 
L 267.013257 70.128078 
L 266.847454 68.26674 
L 266.9031 66.352993 
L 267.186254 64.360786 
L 267.716116 62.237825 
L 268.524185 59.931792 
L 269.685096 57.311706 
L 271.333307 54.167858 
L 273.98964 49.634947 
L 278.301437 42.267515 
L 280.143431 38.646335 
L 281.50009 35.49588 
L 282.517523 32.580573 
L 283.266172 29.769507 
L 283.778554 26.984141 
L 284.068819 24.172124 
L 284.142606 21.281051 
L 283.996537 18.232188 
L 283.609642 14.894188 
L 282.937628 11.08308 
L 281.835056 6.194212 
L 280.037467 -1 
L 280.037467 -1 
" style="fill:none;stroke:#ff0000;stroke-linecap:square;stroke-width:1.5;"/>
   </g>
   <g id="patch_8">
    <path d="M 219.897304 304.44375 
L 219.897304 39.3555 
" style="fill:none;stroke:#000000;stroke-linecap:square;stroke-linejoin:miter;stroke-width:0.8;"/>
   </g>
   <g id="patch_9">
    <path d="M 450 304.44375 
L 450 39.3555 
" style="fill:none;stroke:#000000;stroke-linecap:square;stroke-linejoin:miter;stroke-width:0.8;"/>
   </g>
   <g id="patch_10">
    <path d="M 219.897304 304.44375 
L 450 304.44375 
" style="fill:none;stroke:#000000;stroke-linecap:square;stroke-linejoin:miter;stroke-width:0.8;"/>
   </g>
   <g id="patch_11">
    <path d="M 219.897304 39.3555 
L 450 39.3555 
" style="fill:none;stroke:#000000;stroke-linecap:square;stroke-linejoin:miter;stroke-width:0.8;"/>
   </g>
   <g id="text_22">
    <!-- Trajectoire en fonction de -->
    <g transform="translate(258.560215 19.918125)scale(0.12 -0.12)">
     <defs>
      <path d="M -19 4666 
L 3928 4666 
L 3928 4134 
L 2272 4134 
L 2272 0 
L 1638 0 
L 1638 4134 
L -19 4134 
L -19 4666 
z
" id="DejaVuSans-54" transform="scale(0.015625)"/>
      <path d="M 2631 2963 
Q 2534 3019 2420 3045 
Q 2306 3072 2169 3072 
Q 1681 3072 1420 2755 
Q 1159 2438 1159 1844 
L 1159 0 
L 581 0 
L 581 3500 
L 1159 3500 
L 1159 2956 
Q 1341 3275 1631 3429 
Q 1922 3584 2338 3584 
Q 2397 3584 2469 3576 
Q 2541 3569 2628 3553 
L 2631 2963 
z
" id="DejaVuSans-72" transform="scale(0.015625)"/>
      <path d="M 2194 1759 
Q 1497 1759 1228 1600 
Q 959 1441 959 1056 
Q 959 750 1161 570 
Q 1363 391 1709 391 
Q 2188 391 2477 730 
Q 2766 1069 2766 1631 
L 2766 1759 
L 2194 1759 
z
M 3341 1997 
L 3341 0 
L 2766 0 
L 2766 531 
Q 2569 213 2275 61 
Q 1981 -91 1556 -91 
Q 1019 -91 701 211 
Q 384 513 384 1019 
Q 384 1609 779 1909 
Q 1175 2209 1959 2209 
L 2766 2209 
L 2766 2266 
Q 2766 2663 2505 2880 
Q 2244 3097 1772 3097 
Q 1472 3097 1187 3025 
Q 903 2953 641 2809 
L 641 3341 
Q 956 3463 1253 3523 
Q 1550 3584 1831 3584 
Q 2591 3584 2966 3190 
Q 3341 2797 3341 1997 
z
" id="DejaVuSans-61" transform="scale(0.015625)"/>
      <path d="M 603 3500 
L 1178 3500 
L 1178 -63 
Q 1178 -731 923 -1031 
Q 669 -1331 103 -1331 
L -116 -1331 
L -116 -844 
L 38 -844 
Q 366 -844 484 -692 
Q 603 -541 603 -63 
L 603 3500 
z
M 603 4863 
L 1178 4863 
L 1178 4134 
L 603 4134 
L 603 4863 
z
" id="DejaVuSans-6a" transform="scale(0.015625)"/>
      <path d="M 3597 1894 
L 3597 1613 
L 953 1613 
Q 991 1019 1311 708 
Q 1631 397 2203 397 
Q 2534 397 2845 478 
Q 3156 559 3463 722 
L 3463 178 
Q 3153 47 2828 -22 
Q 2503 -91 2169 -91 
Q 1331 -91 842 396 
Q 353 884 353 1716 
Q 353 2575 817 3079 
Q 1281 3584 2069 3584 
Q 2775 3584 3186 3129 
Q 3597 2675 3597 1894 
z
M 3022 2063 
Q 3016 2534 2758 2815 
Q 2500 3097 2075 3097 
Q 1594 3097 1305 2825 
Q 1016 2553 972 2059 
L 3022 2063 
z
" id="DejaVuSans-65" transform="scale(0.015625)"/>
      <path d="M 3122 3366 
L 3122 2828 
Q 2878 2963 2633 3030 
Q 2388 3097 2138 3097 
Q 1578 3097 1268 2742 
Q 959 2388 959 1747 
Q 959 1106 1268 751 
Q 1578 397 2138 397 
Q 2388 397 2633 464 
Q 2878 531 3122 666 
L 3122 134 
Q 2881 22 2623 -34 
Q 2366 -91 2075 -91 
Q 1284 -91 818 406 
Q 353 903 353 1747 
Q 353 2603 823 3093 
Q 1294 3584 2113 3584 
Q 2378 3584 2631 3529 
Q 2884 3475 3122 3366 
z
" id="DejaVuSans-63" transform="scale(0.015625)"/>
      <path d="M 1172 4494 
L 1172 3500 
L 2356 3500 
L 2356 3053 
L 1172 3053 
L 1172 1153 
Q 1172 725 1289 603 
Q 1406 481 1766 481 
L 2356 481 
L 2356 0 
L 1766 0 
Q 1100 0 847 248 
Q 594 497 594 1153 
L 594 3053 
L 172 3053 
L 172 3500 
L 594 3500 
L 594 4494 
L 1172 4494 
z
" id="DejaVuSans-74" transform="scale(0.015625)"/>
      <path d="M 1959 3097 
Q 1497 3097 1228 2736 
Q 959 2375 959 1747 
Q 959 1119 1226 758 
Q 1494 397 1959 397 
Q 2419 397 2687 759 
Q 2956 1122 2956 1747 
Q 2956 2369 2687 2733 
Q 2419 3097 1959 3097 
z
M 1959 3584 
Q 2709 3584 3137 3096 
Q 3566 2609 3566 1747 
Q 3566 888 3137 398 
Q 2709 -91 1959 -91 
Q 1206 -91 779 398 
Q 353 888 353 1747 
Q 353 2609 779 3096 
Q 1206 3584 1959 3584 
z
" id="DejaVuSans-6f" transform="scale(0.015625)"/>
      <path d="M 603 3500 
L 1178 3500 
L 1178 0 
L 603 0 
L 603 3500 
z
M 603 4863 
L 1178 4863 
L 1178 4134 
L 603 4134 
L 603 4863 
z
" id="DejaVuSans-69" transform="scale(0.015625)"/>
      <path d="M 3513 2113 
L 3513 0 
L 2938 0 
L 2938 2094 
Q 2938 2591 2744 2837 
Q 2550 3084 2163 3084 
Q 1697 3084 1428 2787 
Q 1159 2491 1159 1978 
L 1159 0 
L 581 0 
L 581 3500 
L 1159 3500 
L 1159 2956 
Q 1366 3272 1645 3428 
Q 1925 3584 2291 3584 
Q 2894 3584 3203 3211 
Q 3513 2838 3513 2113 
z
" id="DejaVuSans-6e" transform="scale(0.015625)"/>
      <path d="M 2375 4863 
L 2375 4384 
L 1825 4384 
Q 1516 4384 1395 4259 
Q 1275 4134 1275 3809 
L 1275 3500 
L 2222 3500 
L 2222 3053 
L 1275 3053 
L 1275 0 
L 697 0 
L 697 3053 
L 147 3053 
L 147 3500 
L 697 3500 
L 697 3744 
Q 697 4328 969 4595 
Q 1241 4863 1831 4863 
L 2375 4863 
z
" id="DejaVuSans-66" transform="scale(0.015625)"/>
      <path d="M 2906 2969 
L 2906 4863 
L 3481 4863 
L 3481 0 
L 2906 0 
L 2906 525 
Q 2725 213 2448 61 
Q 2172 -91 1784 -91 
Q 1150 -91 751 415 
Q 353 922 353 1747 
Q 353 2572 751 3078 
Q 1150 3584 1784 3584 
Q 2172 3584 2448 3432 
Q 2725 3281 2906 2969 
z
M 947 1747 
Q 947 1113 1208 752 
Q 1469 391 1925 391 
Q 2381 391 2643 752 
Q 2906 1113 2906 1747 
Q 2906 2381 2643 2742 
Q 2381 3103 1925 3103 
Q 1469 3103 1208 2742 
Q 947 2381 947 1747 
z
" id="DejaVuSans-64" transform="scale(0.015625)"/>
     </defs>
     <use xlink:href="#DejaVuSans-54"/>
     <use x="46.333984" xlink:href="#DejaVuSans-72"/>
     <use x="87.447266" xlink:href="#DejaVuSans-61"/>
     <use x="148.726562" xlink:href="#DejaVuSans-6a"/>
     <use x="176.509766" xlink:href="#DejaVuSans-65"/>
     <use x="238.033203" xlink:href="#DejaVuSans-63"/>
     <use x="293.013672" xlink:href="#DejaVuSans-74"/>
     <use x="332.222656" xlink:href="#DejaVuSans-6f"/>
     <use x="393.404297" xlink:href="#DejaVuSans-69"/>
     <use x="421.1875" xlink:href="#DejaVuSans-72"/>
     <use x="460.050781" xlink:href="#DejaVuSans-65"/>
     <use x="521.574219" xlink:href="#DejaVuSans-20"/>
     <use x="553.361328" xlink:href="#DejaVuSans-65"/>
     <use x="614.884766" xlink:href="#DejaVuSans-6e"/>
     <use x="678.263672" xlink:href="#DejaVuSans-20"/>
     <use x="710.050781" xlink:href="#DejaVuSans-66"/>
     <use x="745.255859" xlink:href="#DejaVuSans-6f"/>
     <use x="806.4375" xlink:href="#DejaVuSans-6e"/>
     <use x="869.816406" xlink:href="#DejaVuSans-63"/>
     <use x="924.796875" xlink:href="#DejaVuSans-74"/>
     <use x="964.005859" xlink:href="#DejaVuSans-69"/>
     <use x="991.789062" xlink:href="#DejaVuSans-6f"/>
     <use x="1052.970703" xlink:href="#DejaVuSans-6e"/>
     <use x="1116.349609" xlink:href="#DejaVuSans-20"/>
     <use x="1148.136719" xlink:href="#DejaVuSans-64"/>
     <use x="1211.613281" xlink:href="#DejaVuSans-65"/>
    </g>
    <!--  la masse du chargement -->
    <g transform="translate(258.56959 33.3555)scale(0.12 -0.12)">
     <defs>
      <path d="M 603 4863 
L 1178 4863 
L 1178 0 
L 603 0 
L 603 4863 
z
" id="DejaVuSans-6c" transform="scale(0.015625)"/>
      <path d="M 2834 3397 
L 2834 2853 
Q 2591 2978 2328 3040 
Q 2066 3103 1784 3103 
Q 1356 3103 1142 2972 
Q 928 2841 928 2578 
Q 928 2378 1081 2264 
Q 1234 2150 1697 2047 
L 1894 2003 
Q 2506 1872 2764 1633 
Q 3022 1394 3022 966 
Q 3022 478 2636 193 
Q 2250 -91 1575 -91 
Q 1294 -91 989 -36 
Q 684 19 347 128 
L 347 722 
Q 666 556 975 473 
Q 1284 391 1588 391 
Q 1994 391 2212 530 
Q 2431 669 2431 922 
Q 2431 1156 2273 1281 
Q 2116 1406 1581 1522 
L 1381 1569 
Q 847 1681 609 1914 
Q 372 2147 372 2553 
Q 372 3047 722 3315 
Q 1072 3584 1716 3584 
Q 2034 3584 2315 3537 
Q 2597 3491 2834 3397 
z
" id="DejaVuSans-73" transform="scale(0.015625)"/>
      <path d="M 544 1381 
L 544 3500 
L 1119 3500 
L 1119 1403 
Q 1119 906 1312 657 
Q 1506 409 1894 409 
Q 2359 409 2629 706 
Q 2900 1003 2900 1516 
L 2900 3500 
L 3475 3500 
L 3475 0 
L 2900 0 
L 2900 538 
Q 2691 219 2414 64 
Q 2138 -91 1772 -91 
Q 1169 -91 856 284 
Q 544 659 544 1381 
z
M 1991 3584 
L 1991 3584 
z
" id="DejaVuSans-75" transform="scale(0.015625)"/>
      <path d="M 3513 2113 
L 3513 0 
L 2938 0 
L 2938 2094 
Q 2938 2591 2744 2837 
Q 2550 3084 2163 3084 
Q 1697 3084 1428 2787 
Q 1159 2491 1159 1978 
L 1159 0 
L 581 0 
L 581 4863 
L 1159 4863 
L 1159 2956 
Q 1366 3272 1645 3428 
Q 1925 3584 2291 3584 
Q 2894 3584 3203 3211 
Q 3513 2838 3513 2113 
z
" id="DejaVuSans-68" transform="scale(0.015625)"/>
      <path d="M 2906 1791 
Q 2906 2416 2648 2759 
Q 2391 3103 1925 3103 
Q 1463 3103 1205 2759 
Q 947 2416 947 1791 
Q 947 1169 1205 825 
Q 1463 481 1925 481 
Q 2391 481 2648 825 
Q 2906 1169 2906 1791 
z
M 3481 434 
Q 3481 -459 3084 -895 
Q 2688 -1331 1869 -1331 
Q 1566 -1331 1297 -1286 
Q 1028 -1241 775 -1147 
L 775 -588 
Q 1028 -725 1275 -790 
Q 1522 -856 1778 -856 
Q 2344 -856 2625 -561 
Q 2906 -266 2906 331 
L 2906 616 
Q 2728 306 2450 153 
Q 2172 0 1784 0 
Q 1141 0 747 490 
Q 353 981 353 1791 
Q 353 2603 747 3093 
Q 1141 3584 1784 3584 
Q 2172 3584 2450 3431 
Q 2728 3278 2906 2969 
L 2906 3500 
L 3481 3500 
L 3481 434 
z
" id="DejaVuSans-67" transform="scale(0.015625)"/>
     </defs>
     <use xlink:href="#DejaVuSans-20"/>
     <use x="31.787109" xlink:href="#DejaVuSans-6c"/>
     <use x="59.570312" xlink:href="#DejaVuSans-61"/>
     <use x="120.849609" xlink:href="#DejaVuSans-20"/>
     <use x="152.636719" xlink:href="#DejaVuSans-6d"/>
     <use x="250.048828" xlink:href="#DejaVuSans-61"/>
     <use x="311.328125" xlink:href="#DejaVuSans-73"/>
     <use x="363.427734" xlink:href="#DejaVuSans-73"/>
     <use x="415.527344" xlink:href="#DejaVuSans-65"/>
     <use x="477.050781" xlink:href="#DejaVuSans-20"/>
     <use x="508.837891" xlink:href="#DejaVuSans-64"/>
     <use x="572.314453" xlink:href="#DejaVuSans-75"/>
     <use x="635.693359" xlink:href="#DejaVuSans-20"/>
     <use x="667.480469" xlink:href="#DejaVuSans-63"/>
     <use x="722.460938" xlink:href="#DejaVuSans-68"/>
     <use x="785.839844" xlink:href="#DejaVuSans-61"/>
     <use x="847.119141" xlink:href="#DejaVuSans-72"/>
     <use x="886.482422" xlink:href="#DejaVuSans-67"/>
     <use x="949.958984" xlink:href="#DejaVuSans-65"/>
     <use x="1011.482422" xlink:href="#DejaVuSans-6d"/>
     <use x="1108.894531" xlink:href="#DejaVuSans-65"/>
     <use x="1170.417969" xlink:href="#DejaVuSans-6e"/>
     <use x="1233.796875" xlink:href="#DejaVuSans-74"/>
    </g>
   </g>
   <g id="legend_1">
    <g id="patch_12">
     <path d="M 367.054687 91.389875 
L 443 91.389875 
Q 445 91.389875 445 89.389875 
L 445 46.3555 
Q 445 44.3555 443 44.3555 
L 367.054687 44.3555 
Q 365.054687 44.3555 365.054687 46.3555 
L 365.054687 89.389875 
Q 365.054687 91.389875 367.054687 91.389875 
z
" style="fill:#ffffff;opacity:0.8;stroke:#cccccc;stroke-linejoin:miter;"/>
    </g>
    <g id="line2d_41">
     <path d="M 369.054687 52.453937 
L 389.054687 52.453937 
" style="fill:none;stroke:#0000ff;stroke-linecap:square;stroke-width:1.5;"/>
    </g>
    <g id="line2d_42"/>
    <g id="text_23">
     <!-- 0.01 kg -->
     <g transform="translate(397.054687 55.953937)scale(0.1 -0.1)">
      <defs>
       <path d="M 581 4863 
L 1159 4863 
L 1159 1991 
L 2875 3500 
L 3609 3500 
L 1753 1863 
L 3688 0 
L 2938 0 
L 1159 1709 
L 1159 0 
L 581 0 
L 581 4863 
z
" id="DejaVuSans-6b" transform="scale(0.015625)"/>
      </defs>
      <use xlink:href="#DejaVuSans-30"/>
      <use x="63.623047" xlink:href="#DejaVuSans-2e"/>
      <use x="95.410156" xlink:href="#DejaVuSans-30"/>
      <use x="159.033203" xlink:href="#DejaVuSans-31"/>
      <use x="222.65625" xlink:href="#DejaVuSans-20"/>
      <use x="254.443359" xlink:href="#DejaVuSans-6b"/>
      <use x="312.353516" xlink:href="#DejaVuSans-67"/>
     </g>
    </g>
    <g id="line2d_43">
     <path d="M 369.054687 67.132062 
L 389.054687 67.132062 
" style="fill:none;stroke:#ffa500;stroke-linecap:square;stroke-width:1.5;"/>
    </g>
    <g id="line2d_44"/>
    <g id="text_24">
     <!-- 32.5 kg -->
     <g transform="translate(397.054687 70.632062)scale(0.1 -0.1)">
      <use xlink:href="#DejaVuSans-33"/>
      <use x="63.623047" xlink:href="#DejaVuSans-32"/>
      <use x="127.246094" xlink:href="#DejaVuSans-2e"/>
      <use x="159.033203" xlink:href="#DejaVuSans-35"/>
      <use x="222.65625" xlink:href="#DejaVuSans-20"/>
      <use x="254.443359" xlink:href="#DejaVuSans-6b"/>
      <use x="312.353516" xlink:href="#DejaVuSans-67"/>
     </g>
    </g>
    <g id="line2d_45">
     <path d="M 369.054687 81.810187 
L 389.054687 81.810187 
" style="fill:none;stroke:#ff0000;stroke-linecap:square;stroke-width:1.5;"/>
    </g>
    <g id="line2d_46"/>
    <g id="text_25">
     <!-- 130.0 kg -->
     <g transform="translate(397.054687 85.310187)scale(0.1 -0.1)">
      <use xlink:href="#DejaVuSans-31"/>
      <use x="63.623047" xlink:href="#DejaVuSans-33"/>
      <use x="127.246094" xlink:href="#DejaVuSans-30"/>
      <use x="190.869141" xlink:href="#DejaVuSans-2e"/>
      <use x="222.65625" xlink:href="#DejaVuSans-30"/>
      <use x="286.279297" xlink:href="#DejaVuSans-20"/>
      <use x="318.066406" xlink:href="#DejaVuSans-6b"/>
      <use x="375.976562" xlink:href="#DejaVuSans-67"/>
     </g>
    </g>
   </g>
  </g>
 </g>
 <defs>
  <clipPath id="pa3469e503c">
   <rect height="265.08825" width="17.710839" x="116.995929" y="39.3555"/>
  </clipPath>
  <clipPath id="pfeea1f28ac">
   <rect height="265.08825" width="230.102696" x="219.897304" y="39.3555"/>
  </clipPath>
 </defs>
</svg>
