<?xml version="1.0" encoding="utf-8" standalone="no"?>
<!DOCTYPE svg PUBLIC "-//W3C//DTD SVG 1.1//EN"
  "http://www.w3.org/Graphics/SVG/1.1/DTD/svg11.dtd">
<svg height="345.6pt" version="1.1" viewBox="0 0 460.8 345.6" width="460.8pt" xmlns="http://www.w3.org/2000/svg" xmlns:xlink="http://www.w3.org/1999/xlink">
 <metadata>
  <rdf:RDF xmlns:cc="http://creativecommons.org/ns#" xmlns:dc="http://purl.org/dc/elements/1.1/" xmlns:rdf="http://www.w3.org/1999/02/22-rdf-syntax-ns#">
   <cc:Work>
    <dc:type rdf:resource="http://purl.org/dc/dcmitype/StillImage"/>
    <dc:date>2023-05-12T01:08:26.738760</dc:date>
    <dc:format>image/svg+xml</dc:format>
    <dc:creator>
     <cc:Agent>
      <dc:title>Matplotlib v3.4.3, https://matplotlib.org/</dc:title>
     </cc:Agent>
    </dc:creator>
   </cc:Work>
  </rdf:RDF>
 </metadata>
 <defs>
  <style type="text/css">*{stroke-linecap:butt;stroke-linejoin:round;}</style>
 </defs>
 <g id="figure_1">
  <g id="patch_1">
   <path d="M 0 345.6 
L 460.8 345.6 
L 460.8 0 
L 0 0 
z
" style="fill:#ffffff;"/>
  </g>
  <g id="axes_1">
   <g id="patch_2">
    <path d="M 116.995512 304.44375 
L 134.70703 304.44375 
L 134.70703 39.3555 
L 116.995512 39.3555 
z
" style="fill:#ffffff;"/>
   </g>
   <g id="matplotlib.axis_1">
    <g id="xtick_1">
     <g id="line2d_1">
      <path clip-path="url(#p67e03d36d2)" d="M 121.532223 304.44375 
L 121.532223 39.3555 
" style="fill:none;stroke:#b0b0b0;stroke-linecap:square;stroke-width:0.8;"/>
     </g>
     <g id="line2d_2">
      <defs>
       <path d="M 0 0 
L 0 3.5 
" id="m2ea80c8be4" style="stroke:#000000;stroke-width:0.8;"/>
      </defs>
      <g>
       <use style="stroke:#000000;stroke-width:0.8;" x="121.532223" xlink:href="#m2ea80c8be4" y="304.44375"/>
      </g>
     </g>
     <g id="text_1">
      <!-- 0.0 -->
      <g transform="translate(113.58066 319.042187)scale(0.1 -0.1)">
       <defs>
        <path d="M 2034 4250 
Q 1547 4250 1301 3770 
Q 1056 3291 1056 2328 
Q 1056 1369 1301 889 
Q 1547 409 2034 409 
Q 2525 409 2770 889 
Q 3016 1369 3016 2328 
Q 3016 3291 2770 3770 
Q 2525 4250 2034 4250 
z
M 2034 4750 
Q 2819 4750 3233 4129 
Q 3647 3509 3647 2328 
Q 3647 1150 3233 529 
Q 2819 -91 2034 -91 
Q 1250 -91 836 529 
Q 422 1150 422 2328 
Q 422 3509 836 4129 
Q 1250 4750 2034 4750 
z
" id="DejaVuSans-30" transform="scale(0.015625)"/>
        <path d="M 684 794 
L 1344 794 
L 1344 0 
L 684 0 
L 684 794 
z
" id="DejaVuSans-2e" transform="scale(0.015625)"/>
       </defs>
       <use xlink:href="#DejaVuSans-30"/>
       <use x="63.623047" xlink:href="#DejaVuSans-2e"/>
       <use x="95.410156" xlink:href="#DejaVuSans-30"/>
      </g>
     </g>
    </g>
    <g id="xtick_2">
     <g id="line2d_3">
      <path clip-path="url(#p67e03d36d2)" d="M 133.824344 304.44375 
L 133.824344 39.3555 
" style="fill:none;stroke:#b0b0b0;stroke-linecap:square;stroke-width:0.8;"/>
     </g>
     <g id="line2d_4">
      <g>
       <use style="stroke:#000000;stroke-width:0.8;" x="133.824344" xlink:href="#m2ea80c8be4" y="304.44375"/>
      </g>
     </g>
     <g id="text_2">
      <!-- 2.5 -->
      <g transform="translate(125.872782 319.042187)scale(0.1 -0.1)">
       <defs>
        <path d="M 1228 531 
L 3431 531 
L 3431 0 
L 469 0 
L 469 531 
Q 828 903 1448 1529 
Q 2069 2156 2228 2338 
Q 2531 2678 2651 2914 
Q 2772 3150 2772 3378 
Q 2772 3750 2511 3984 
Q 2250 4219 1831 4219 
Q 1534 4219 1204 4116 
Q 875 4013 500 3803 
L 500 4441 
Q 881 4594 1212 4672 
Q 1544 4750 1819 4750 
Q 2544 4750 2975 4387 
Q 3406 4025 3406 3419 
Q 3406 3131 3298 2873 
Q 3191 2616 2906 2266 
Q 2828 2175 2409 1742 
Q 1991 1309 1228 531 
z
" id="DejaVuSans-32" transform="scale(0.015625)"/>
        <path d="M 691 4666 
L 3169 4666 
L 3169 4134 
L 1269 4134 
L 1269 2991 
Q 1406 3038 1543 3061 
Q 1681 3084 1819 3084 
Q 2600 3084 3056 2656 
Q 3513 2228 3513 1497 
Q 3513 744 3044 326 
Q 2575 -91 1722 -91 
Q 1428 -91 1123 -41 
Q 819 9 494 109 
L 494 744 
Q 775 591 1075 516 
Q 1375 441 1709 441 
Q 2250 441 2565 725 
Q 2881 1009 2881 1497 
Q 2881 1984 2565 2268 
Q 2250 2553 1709 2553 
Q 1456 2553 1204 2497 
Q 953 2441 691 2322 
L 691 4666 
z
" id="DejaVuSans-35" transform="scale(0.015625)"/>
       </defs>
       <use xlink:href="#DejaVuSans-32"/>
       <use x="63.623047" xlink:href="#DejaVuSans-2e"/>
       <use x="95.410156" xlink:href="#DejaVuSans-35"/>
      </g>
     </g>
    </g>
    <g id="text_3">
     <!-- y [m] -->
     <g transform="translate(112.530959 332.720312)scale(0.1 -0.1)">
      <defs>
       <path d="M 2059 -325 
Q 1816 -950 1584 -1140 
Q 1353 -1331 966 -1331 
L 506 -1331 
L 506 -850 
L 844 -850 
Q 1081 -850 1212 -737 
Q 1344 -625 1503 -206 
L 1606 56 
L 191 3500 
L 800 3500 
L 1894 763 
L 2988 3500 
L 3597 3500 
L 2059 -325 
z
" id="DejaVuSans-79" transform="scale(0.015625)"/>
       <path id="DejaVuSans-20" transform="scale(0.015625)"/>
       <path d="M 550 4863 
L 1875 4863 
L 1875 4416 
L 1125 4416 
L 1125 -397 
L 1875 -397 
L 1875 -844 
L 550 -844 
L 550 4863 
z
" id="DejaVuSans-5b" transform="scale(0.015625)"/>
       <path d="M 3328 2828 
Q 3544 3216 3844 3400 
Q 4144 3584 4550 3584 
Q 5097 3584 5394 3201 
Q 5691 2819 5691 2113 
L 5691 0 
L 5113 0 
L 5113 2094 
Q 5113 2597 4934 2840 
Q 4756 3084 4391 3084 
Q 3944 3084 3684 2787 
Q 3425 2491 3425 1978 
L 3425 0 
L 2847 0 
L 2847 2094 
Q 2847 2600 2669 2842 
Q 2491 3084 2119 3084 
Q 1678 3084 1418 2786 
Q 1159 2488 1159 1978 
L 1159 0 
L 581 0 
L 581 3500 
L 1159 3500 
L 1159 2956 
Q 1356 3278 1631 3431 
Q 1906 3584 2284 3584 
Q 2666 3584 2933 3390 
Q 3200 3197 3328 2828 
z
" id="DejaVuSans-6d" transform="scale(0.015625)"/>
       <path d="M 1947 4863 
L 1947 -844 
L 622 -844 
L 622 -397 
L 1369 -397 
L 1369 4416 
L 622 4416 
L 622 4863 
L 1947 4863 
z
" id="DejaVuSans-5d" transform="scale(0.015625)"/>
      </defs>
      <use xlink:href="#DejaVuSans-79"/>
      <use x="59.179688" xlink:href="#DejaVuSans-20"/>
      <use x="90.966797" xlink:href="#DejaVuSans-5b"/>
      <use x="129.980469" xlink:href="#DejaVuSans-6d"/>
      <use x="227.392578" xlink:href="#DejaVuSans-5d"/>
     </g>
    </g>
   </g>
   <g id="matplotlib.axis_2">
    <g id="ytick_1">
     <g id="line2d_5">
      <path clip-path="url(#p67e03d36d2)" d="M 116.995512 285.197927 
L 134.70703 285.197927 
" style="fill:none;stroke:#b0b0b0;stroke-linecap:square;stroke-width:0.8;"/>
     </g>
     <g id="line2d_6">
      <defs>
       <path d="M 0 0 
L -3.5 0 
" id="m03b6d61c30" style="stroke:#000000;stroke-width:0.8;"/>
      </defs>
      <g>
       <use style="stroke:#000000;stroke-width:0.8;" x="116.995512" xlink:href="#m03b6d61c30" y="285.197927"/>
      </g>
     </g>
     <g id="text_4">
      <!-- 0 -->
      <g transform="translate(103.633012 288.997146)scale(0.1 -0.1)">
       <use xlink:href="#DejaVuSans-30"/>
      </g>
     </g>
    </g>
    <g id="ytick_2">
     <g id="line2d_7">
      <path clip-path="url(#p67e03d36d2)" d="M 116.995512 236.029442 
L 134.70703 236.029442 
" style="fill:none;stroke:#b0b0b0;stroke-linecap:square;stroke-width:0.8;"/>
     </g>
     <g id="line2d_8">
      <g>
       <use style="stroke:#000000;stroke-width:0.8;" x="116.995512" xlink:href="#m03b6d61c30" y="236.029442"/>
      </g>
     </g>
     <g id="text_5">
      <!-- 10 -->
      <g transform="translate(97.270512 239.828661)scale(0.1 -0.1)">
       <defs>
        <path d="M 794 531 
L 1825 531 
L 1825 4091 
L 703 3866 
L 703 4441 
L 1819 4666 
L 2450 4666 
L 2450 531 
L 3481 531 
L 3481 0 
L 794 0 
L 794 531 
z
" id="DejaVuSans-31" transform="scale(0.015625)"/>
       </defs>
       <use xlink:href="#DejaVuSans-31"/>
       <use x="63.623047" xlink:href="#DejaVuSans-30"/>
      </g>
     </g>
    </g>
    <g id="ytick_3">
     <g id="line2d_9">
      <path clip-path="url(#p67e03d36d2)" d="M 116.995512 186.860956 
L 134.70703 186.860956 
" style="fill:none;stroke:#b0b0b0;stroke-linecap:square;stroke-width:0.8;"/>
     </g>
     <g id="line2d_10">
      <g>
       <use style="stroke:#000000;stroke-width:0.8;" x="116.995512" xlink:href="#m03b6d61c30" y="186.860956"/>
      </g>
     </g>
     <g id="text_6">
      <!-- 20 -->
      <g transform="translate(97.270512 190.660175)scale(0.1 -0.1)">
       <use xlink:href="#DejaVuSans-32"/>
       <use x="63.623047" xlink:href="#DejaVuSans-30"/>
      </g>
     </g>
    </g>
    <g id="ytick_4">
     <g id="line2d_11">
      <path clip-path="url(#p67e03d36d2)" d="M 116.995512 137.692471 
L 134.70703 137.692471 
" style="fill:none;stroke:#b0b0b0;stroke-linecap:square;stroke-width:0.8;"/>
     </g>
     <g id="line2d_12">
      <g>
       <use style="stroke:#000000;stroke-width:0.8;" x="116.995512" xlink:href="#m03b6d61c30" y="137.692471"/>
      </g>
     </g>
     <g id="text_7">
      <!-- 30 -->
      <g transform="translate(97.270512 141.49169)scale(0.1 -0.1)">
       <defs>
        <path d="M 2597 2516 
Q 3050 2419 3304 2112 
Q 3559 1806 3559 1356 
Q 3559 666 3084 287 
Q 2609 -91 1734 -91 
Q 1441 -91 1130 -33 
Q 819 25 488 141 
L 488 750 
Q 750 597 1062 519 
Q 1375 441 1716 441 
Q 2309 441 2620 675 
Q 2931 909 2931 1356 
Q 2931 1769 2642 2001 
Q 2353 2234 1838 2234 
L 1294 2234 
L 1294 2753 
L 1863 2753 
Q 2328 2753 2575 2939 
Q 2822 3125 2822 3475 
Q 2822 3834 2567 4026 
Q 2313 4219 1838 4219 
Q 1578 4219 1281 4162 
Q 984 4106 628 3988 
L 628 4550 
Q 988 4650 1302 4700 
Q 1616 4750 1894 4750 
Q 2613 4750 3031 4423 
Q 3450 4097 3450 3541 
Q 3450 3153 3228 2886 
Q 3006 2619 2597 2516 
z
" id="DejaVuSans-33" transform="scale(0.015625)"/>
       </defs>
       <use xlink:href="#DejaVuSans-33"/>
       <use x="63.623047" xlink:href="#DejaVuSans-30"/>
      </g>
     </g>
    </g>
    <g id="ytick_5">
     <g id="line2d_13">
      <path clip-path="url(#p67e03d36d2)" d="M 116.995512 88.523985 
L 134.70703 88.523985 
" style="fill:none;stroke:#b0b0b0;stroke-linecap:square;stroke-width:0.8;"/>
     </g>
     <g id="line2d_14">
      <g>
       <use style="stroke:#000000;stroke-width:0.8;" x="116.995512" xlink:href="#m03b6d61c30" y="88.523985"/>
      </g>
     </g>
     <g id="text_8">
      <!-- 40 -->
      <g transform="translate(97.270512 92.323204)scale(0.1 -0.1)">
       <defs>
        <path d="M 2419 4116 
L 825 1625 
L 2419 1625 
L 2419 4116 
z
M 2253 4666 
L 3047 4666 
L 3047 1625 
L 3713 1625 
L 3713 1100 
L 3047 1100 
L 3047 0 
L 2419 0 
L 2419 1100 
L 313 1100 
L 313 1709 
L 2253 4666 
z
" id="DejaVuSans-34" transform="scale(0.015625)"/>
       </defs>
       <use xlink:href="#DejaVuSans-34"/>
       <use x="63.623047" xlink:href="#DejaVuSans-30"/>
      </g>
     </g>
    </g>
    <g id="ytick_6">
     <g id="line2d_15">
      <path clip-path="url(#p67e03d36d2)" d="M 116.995512 39.3555 
L 134.70703 39.3555 
" style="fill:none;stroke:#b0b0b0;stroke-linecap:square;stroke-width:0.8;"/>
     </g>
     <g id="line2d_16">
      <g>
       <use style="stroke:#000000;stroke-width:0.8;" x="116.995512" xlink:href="#m03b6d61c30" y="39.3555"/>
      </g>
     </g>
     <g id="text_9">
      <!-- 50 -->
      <g transform="translate(97.270512 43.154719)scale(0.1 -0.1)">
       <use xlink:href="#DejaVuSans-35"/>
       <use x="63.623047" xlink:href="#DejaVuSans-30"/>
      </g>
     </g>
    </g>
    <g id="text_10">
     <!-- x [m] -->
     <g transform="translate(91.190825 185.219937)rotate(-90)scale(0.1 -0.1)">
      <defs>
       <path d="M 3513 3500 
L 2247 1797 
L 3578 0 
L 2900 0 
L 1881 1375 
L 863 0 
L 184 0 
L 1544 1831 
L 300 3500 
L 978 3500 
L 1906 2253 
L 2834 3500 
L 3513 3500 
z
" id="DejaVuSans-78" transform="scale(0.015625)"/>
      </defs>
      <use xlink:href="#DejaVuSans-78"/>
      <use x="59.179688" xlink:href="#DejaVuSans-20"/>
      <use x="90.966797" xlink:href="#DejaVuSans-5b"/>
      <use x="129.980469" xlink:href="#DejaVuSans-6d"/>
      <use x="227.392578" xlink:href="#DejaVuSans-5d"/>
     </g>
    </g>
   </g>
   <g id="line2d_17">
    <path clip-path="url(#p67e03d36d2)" d="M 121.532223 285.197927 
L 121.421831 261.98006 
L 121.316915 256.779308 
L 121.470004 253.227389 
L 121.829371 249.995976 
L 122.408123 246.799348 
L 123.236789 243.485507 
L 124.374677 239.874158 
L 126.02715 235.416517 
L 130.511794 223.648759 
L 131.675897 219.764071 
L 132.523311 216.166558 
L 133.117055 212.680135 
L 133.73316 207.391044 
L 133.899416 204.391329 
L 133.821452 201.749806 
L 133.520411 199.120299 
L 132.99609 196.492364 
L 132.251277 193.895575 
L 131.241906 191.198703 
L 129.907806 188.282081 
L 128.06513 184.818641 
L 121.694659 173.25315 
L 120.38134 170.165973 
L 119.381162 167.253165 
L 118.643119 164.424245 
L 118.142378 161.630977 
L 117.864415 158.820363 
L 117.806934 155.963184 
L 117.97165 153.028644 
L 118.370033 149.932496 
L 119.038898 146.513213 
L 120.102006 142.306572 
L 123.489826 129.53655 
L 124.185832 125.668648 
L 124.617471 122.018185 
L 124.820494 118.403419 
L 124.803953 114.714048 
L 124.562002 110.809991 
L 124.060233 106.418953 
L 123.184993 100.852501 
L 120.839907 86.583257 
L 120.287623 81.440821 
L 119.989997 76.590131 
L 119.913421 71.68195 
L 120.057654 66.414287 
L 120.462364 60.141182 
L 122.310023 35.38388 
L 122.42908 28.628291 
L 122.32936 21.296555 
L 121.955112 11.607817 
L 121.39593 -1 
L 121.39593 -1 
" style="fill:none;stroke:#0000ff;stroke-linecap:square;stroke-width:1.5;"/>
   </g>
   <g id="line2d_18">
    <path clip-path="url(#p67e03d36d2)" d="M 121.532223 285.197927 
L 121.421477 262.217631 
L 121.317675 257.515055 
L 121.473096 254.296517 
L 121.838257 251.315939 
L 122.424891 248.359956 
L 123.262561 245.292801 
L 124.417134 241.931828 
L 126.106919 237.744255 
L 130.19721 227.83566 
L 131.376377 224.246003 
L 132.235822 220.925082 
L 132.843502 217.696288 
L 133.22868 214.442754 
L 133.400814 211.066769 
L 133.458681 205.355593 
L 133.221471 202.745334 
L 132.763179 200.181232 
L 132.072052 197.589075 
L 131.150651 195.00067 
L 129.91706 192.215202 
L 128.220464 188.960521 
L 121.963725 177.421408 
L 120.774486 174.483794 
L 119.878308 171.682374 
L 119.232219 168.936614 
L 118.816368 166.204504 
L 118.619718 163.439749 
L 118.641186 160.593546 
L 118.889992 157.592278 
L 119.390869 154.31457 
L 120.227984 150.384803 
L 123.355199 136.681829 
L 123.851915 132.935995 
L 124.109937 129.306191 
L 124.149541 125.602928 
L 123.965927 121.655006 
L 123.527775 117.170522 
L 122.685845 111.059486 
L 121.15599 100.074078 
L 120.664032 94.730488 
L 120.422264 89.674863 
L 120.398611 84.474753 
L 120.601599 78.57404 
L 121.142964 70.090324 
L 121.891573 57.935394 
L 122.10797 50.530342 
L 122.101884 42.933412 
L 121.85298 33.163832 
L 121.299485 13.097732 
L 121.273884 2.277398 
L 121.303378 -1 
L 121.303378 -1 
" style="fill:none;stroke:#ffa500;stroke-linecap:square;stroke-width:1.5;"/>
   </g>
   <g id="line2d_19">
    <path clip-path="url(#p67e03d36d2)" d="M 121.532223 285.197927 
L 121.422176 262.596004 
L 121.317191 258.56376 
L 121.479603 255.912264 
L 121.859194 253.367692 
L 122.467405 250.816541 
L 123.336197 248.150051 
L 124.531556 245.221375 
L 126.31233 241.491187 
L 129.763191 234.346367 
L 130.967835 231.259636 
L 131.845235 228.406679 
L 132.477838 225.594122 
L 132.888207 222.751058 
L 133.085026 219.820798 
L 133.067997 216.703736 
L 132.820482 213.238847 
L 131.835766 204.546192 
L 131.258421 201.916866 
L 130.467028 199.350229 
L 129.403806 196.672335 
L 127.910274 193.544593 
L 122.61024 182.908409 
L 121.572949 180.051224 
L 120.811592 177.309821 
L 120.283572 174.580289 
L 119.975132 171.809418 
L 119.8821 168.940228 
L 120.00859 165.893257 
L 120.381953 162.430436 
L 121.134342 157.730016 
L 122.447717 149.585394 
L 122.863938 145.434853 
L 123.039504 141.440851 
L 122.998476 137.230663 
L 122.718643 132.306446 
L 122.001846 124.319432 
L 121.336048 116.014013 
L 121.078882 109.945563 
L 121.041146 103.675009 
L 121.233126 95.673024 
L 121.738742 77.316234 
L 121.729293 67.155096 
L 121.473064 29.981111 
L 121.561475 -1 
L 121.561475 -1 
" style="fill:none;stroke:#ff0000;stroke-linecap:square;stroke-width:1.5;"/>
   </g>
   <g id="line2d_20">
    <path clip-path="url(#p67e03d36d2)" d="M 121.532223 285.197927 
L 121.422178 263.467101 
L 121.312265 259.732292 
L 121.433265 257.45407 
L 121.772618 255.392567 
L 122.350731 253.276437 
L 123.209525 250.997178 
L 124.409782 248.458912 
L 126.194345 245.242787 
L 129.491413 239.364055 
L 130.637852 236.795938 
L 131.478538 234.373469 
L 132.093315 231.921592 
L 132.497191 229.389703 
L 132.695357 226.721293 
L 132.682903 223.824243 
L 132.437455 220.477775 
L 131.822606 215.536229 
L 131.197009 210.085825 
L 130.826664 204.046866 
L 130.391588 202.060217 
L 129.725888 200.074645 
L 128.782644 197.977869 
L 127.40915 195.497484 
L 123.06746 187.974429 
L 122.041443 185.563806 
L 121.282172 183.216761 
L 120.748331 180.845911 
L 120.427298 178.400871 
L 120.318648 175.841884 
L 120.42832 173.078593 
L 120.789713 169.830122 
L 121.81125 163.328034 
L 122.324567 159.118075 
L 122.552091 155.392126 
L 122.568711 151.360995 
L 122.352802 146.283933 
L 121.381318 127.997004 
L 121.33842 120.391 
L 121.554577 104.009295 
L 121.590355 89.501849 
L 121.532131 47.240709 
L 121.532131 47.240709 
" style="fill:none;stroke:#008000;stroke-linecap:square;stroke-width:1.5;"/>
   </g>
   <g id="patch_3">
    <path d="M 116.995512 304.44375 
L 116.995512 39.3555 
" style="fill:none;stroke:#000000;stroke-linecap:square;stroke-linejoin:miter;stroke-width:0.8;"/>
   </g>
   <g id="patch_4">
    <path d="M 134.70703 304.44375 
L 134.70703 39.3555 
" style="fill:none;stroke:#000000;stroke-linecap:square;stroke-linejoin:miter;stroke-width:0.8;"/>
   </g>
   <g id="patch_5">
    <path d="M 116.995512 304.44375 
L 134.70703 304.44375 
" style="fill:none;stroke:#000000;stroke-linecap:square;stroke-linejoin:miter;stroke-width:0.8;"/>
   </g>
   <g id="patch_6">
    <path d="M 116.995512 39.3555 
L 134.70703 39.3555 
" style="fill:none;stroke:#000000;stroke-linecap:square;stroke-linejoin:miter;stroke-width:0.8;"/>
   </g>
  </g>
  <g id="axes_2">
   <g id="patch_7">
    <path d="M 219.897458 304.44375 
L 450 304.44375 
L 450 39.3555 
L 219.897458 39.3555 
z
" style="fill:#ffffff;"/>
   </g>
   <g id="matplotlib.axis_3">
    <g id="xtick_3">
     <g id="line2d_21">
      <path clip-path="url(#p5bd938a065)" d="M 278.836991 304.44375 
L 278.836991 39.3555 
" style="fill:none;stroke:#b0b0b0;stroke-linecap:square;stroke-width:0.8;"/>
     </g>
     <g id="line2d_22">
      <g>
       <use style="stroke:#000000;stroke-width:0.8;" x="278.836991" xlink:href="#m2ea80c8be4" y="304.44375"/>
      </g>
     </g>
     <g id="text_11">
      <!-- 0 -->
      <g transform="translate(275.655741 319.042187)scale(0.1 -0.1)">
       <use xlink:href="#DejaVuSans-30"/>
      </g>
     </g>
    </g>
    <g id="xtick_4">
     <g id="line2d_23">
      <path clip-path="url(#p5bd938a065)" d="M 342.715161 304.44375 
L 342.715161 39.3555 
" style="fill:none;stroke:#b0b0b0;stroke-linecap:square;stroke-width:0.8;"/>
     </g>
     <g id="line2d_24">
      <g>
       <use style="stroke:#000000;stroke-width:0.8;" x="342.715161" xlink:href="#m2ea80c8be4" y="304.44375"/>
      </g>
     </g>
     <g id="text_12">
      <!-- 1 -->
      <g transform="translate(339.533911 319.042187)scale(0.1 -0.1)">
       <use xlink:href="#DejaVuSans-31"/>
      </g>
     </g>
    </g>
    <g id="xtick_5">
     <g id="line2d_25">
      <path clip-path="url(#p5bd938a065)" d="M 406.593331 304.44375 
L 406.593331 39.3555 
" style="fill:none;stroke:#b0b0b0;stroke-linecap:square;stroke-width:0.8;"/>
     </g>
     <g id="line2d_26">
      <g>
       <use style="stroke:#000000;stroke-width:0.8;" x="406.593331" xlink:href="#m2ea80c8be4" y="304.44375"/>
      </g>
     </g>
     <g id="text_13">
      <!-- 2 -->
      <g transform="translate(403.412081 319.042187)scale(0.1 -0.1)">
       <use xlink:href="#DejaVuSans-32"/>
      </g>
     </g>
    </g>
    <g id="text_14">
     <!-- y [m] -->
     <g transform="translate(321.628416 332.720312)scale(0.1 -0.1)">
      <use xlink:href="#DejaVuSans-79"/>
      <use x="59.179688" xlink:href="#DejaVuSans-20"/>
      <use x="90.966797" xlink:href="#DejaVuSans-5b"/>
      <use x="129.980469" xlink:href="#DejaVuSans-6d"/>
      <use x="227.392578" xlink:href="#DejaVuSans-5d"/>
     </g>
    </g>
   </g>
   <g id="matplotlib.axis_4">
    <g id="ytick_7">
     <g id="line2d_27">
      <path clip-path="url(#p5bd938a065)" d="M 219.897458 285.197927 
L 450 285.197927 
" style="fill:none;stroke:#b0b0b0;stroke-linecap:square;stroke-width:0.8;"/>
     </g>
     <g id="line2d_28">
      <g>
       <use style="stroke:#000000;stroke-width:0.8;" x="219.897458" xlink:href="#m03b6d61c30" y="285.197927"/>
      </g>
     </g>
     <g id="text_15">
      <!-- 0 -->
      <g transform="translate(206.534958 288.997146)scale(0.1 -0.1)">
       <use xlink:href="#DejaVuSans-30"/>
      </g>
     </g>
    </g>
    <g id="ytick_8">
     <g id="line2d_29">
      <path clip-path="url(#p5bd938a065)" d="M 219.897458 236.029442 
L 450 236.029442 
" style="fill:none;stroke:#b0b0b0;stroke-linecap:square;stroke-width:0.8;"/>
     </g>
     <g id="line2d_30">
      <g>
       <use style="stroke:#000000;stroke-width:0.8;" x="219.897458" xlink:href="#m03b6d61c30" y="236.029442"/>
      </g>
     </g>
     <g id="text_16">
      <!-- 10 -->
      <g transform="translate(200.172458 239.828661)scale(0.1 -0.1)">
       <use xlink:href="#DejaVuSans-31"/>
       <use x="63.623047" xlink:href="#DejaVuSans-30"/>
      </g>
     </g>
    </g>
    <g id="ytick_9">
     <g id="line2d_31">
      <path clip-path="url(#p5bd938a065)" d="M 219.897458 186.860956 
L 450 186.860956 
" style="fill:none;stroke:#b0b0b0;stroke-linecap:square;stroke-width:0.8;"/>
     </g>
     <g id="line2d_32">
      <g>
       <use style="stroke:#000000;stroke-width:0.8;" x="219.897458" xlink:href="#m03b6d61c30" y="186.860956"/>
      </g>
     </g>
     <g id="text_17">
      <!-- 20 -->
      <g transform="translate(200.172458 190.660175)scale(0.1 -0.1)">
       <use xlink:href="#DejaVuSans-32"/>
       <use x="63.623047" xlink:href="#DejaVuSans-30"/>
      </g>
     </g>
    </g>
    <g id="ytick_10">
     <g id="line2d_33">
      <path clip-path="url(#p5bd938a065)" d="M 219.897458 137.692471 
L 450 137.692471 
" style="fill:none;stroke:#b0b0b0;stroke-linecap:square;stroke-width:0.8;"/>
     </g>
     <g id="line2d_34">
      <g>
       <use style="stroke:#000000;stroke-width:0.8;" x="219.897458" xlink:href="#m03b6d61c30" y="137.692471"/>
      </g>
     </g>
     <g id="text_18">
      <!-- 30 -->
      <g transform="translate(200.172458 141.49169)scale(0.1 -0.1)">
       <use xlink:href="#DejaVuSans-33"/>
       <use x="63.623047" xlink:href="#DejaVuSans-30"/>
      </g>
     </g>
    </g>
    <g id="ytick_11">
     <g id="line2d_35">
      <path clip-path="url(#p5bd938a065)" d="M 219.897458 88.523985 
L 450 88.523985 
" style="fill:none;stroke:#b0b0b0;stroke-linecap:square;stroke-width:0.8;"/>
     </g>
     <g id="line2d_36">
      <g>
       <use style="stroke:#000000;stroke-width:0.8;" x="219.897458" xlink:href="#m03b6d61c30" y="88.523985"/>
      </g>
     </g>
     <g id="text_19">
      <!-- 40 -->
      <g transform="translate(200.172458 92.323204)scale(0.1 -0.1)">
       <use xlink:href="#DejaVuSans-34"/>
       <use x="63.623047" xlink:href="#DejaVuSans-30"/>
      </g>
     </g>
    </g>
    <g id="ytick_12">
     <g id="line2d_37">
      <path clip-path="url(#p5bd938a065)" d="M 219.897458 39.3555 
L 450 39.3555 
" style="fill:none;stroke:#b0b0b0;stroke-linecap:square;stroke-width:0.8;"/>
     </g>
     <g id="line2d_38">
      <g>
       <use style="stroke:#000000;stroke-width:0.8;" x="219.897458" xlink:href="#m03b6d61c30" y="39.3555"/>
      </g>
     </g>
     <g id="text_20">
      <!-- 50 -->
      <g transform="translate(200.172458 43.154719)scale(0.1 -0.1)">
       <use xlink:href="#DejaVuSans-35"/>
       <use x="63.623047" xlink:href="#DejaVuSans-30"/>
      </g>
     </g>
    </g>
    <g id="text_21">
     <!-- x [m] -->
     <g transform="translate(194.09277 185.219937)rotate(-90)scale(0.1 -0.1)">
      <use xlink:href="#DejaVuSans-78"/>
      <use x="59.179688" xlink:href="#DejaVuSans-20"/>
      <use x="90.966797" xlink:href="#DejaVuSans-5b"/>
      <use x="129.980469" xlink:href="#DejaVuSans-6d"/>
      <use x="227.392578" xlink:href="#DejaVuSans-5d"/>
     </g>
    </g>
   </g>
   <g id="line2d_39">
    <path clip-path="url(#p5bd938a065)" d="M 278.836991 285.197927 
L 278.72985 264.755192 
L 278.352597 263.761903 
L 277.213221 261.623369 
L 276.427906 259.884317 
L 276.069068 258.570383 
L 275.98109 257.429819 
L 276.122744 256.362252 
L 276.484332 255.34408 
L 277.087974 254.324867 
L 277.976771 253.279634 
L 279.186795 252.209159 
L 280.833928 251.062133 
L 282.996674 249.840243 
L 285.809352 248.520363 
L 289.369361 247.106372 
L 293.846783 245.576945 
L 299.437384 243.911542 
L 306.448428 242.065729 
L 315.219452 239.996529 
L 326.556359 237.563249 
L 342.523468 234.38282 
L 382.949422 226.421801 
L 394.853453 223.798421 
L 404.097679 221.540064 
L 411.499853 219.50903 
L 417.417676 217.663648 
L 422.170356 215.959409 
L 425.961014 214.375367 
L 428.964224 212.889111 
L 431.282696 211.503273 
L 437.625184 207.153553 
L 438.662847 206.094396 
L 439.24896 205.190521 
L 439.507726 204.391329 
L 439.516203 203.644584 
L 439.293128 202.89738 
L 438.815399 202.123365 
L 438.02712 201.296448 
L 436.835565 200.391318 
L 435.157647 199.410619 
L 432.848086 198.332152 
L 429.786334 197.161601 
L 425.842885 195.904879 
L 420.884968 194.567697 
L 414.574219 193.107109 
L 406.641534 191.509051 
L 396.677902 189.737543 
L 384.225465 187.757194 
L 367.89579 185.396295 
L 342.765704 182.014432 
L 305.01487 176.917256 
L 287.867826 174.36715 
L 274.881474 172.220466 
L 264.50503 170.289613 
L 256.152986 168.51872 
L 249.418869 166.870791 
L 244.12718 165.355978 
L 240.008607 163.956584 
L 236.835669 162.652356 
L 234.472118 161.447375 
L 232.783238 160.344585 
L 231.640903 159.345938 
L 230.910481 158.426313 
L 230.500728 157.560107 
L 230.358198 156.747716 
L 230.445544 155.937066 
L 230.757029 155.128568 
L 231.327536 154.270676 
L 232.220702 153.338465 
L 233.529511 152.307604 
L 235.332055 151.180046 
L 237.80855 149.907126 
L 241.073099 148.491982 
L 245.362583 146.887468 
L 250.945134 145.046897 
L 258.51398 142.799122 
L 270.23999 139.575233 
L 289.713484 134.219592 
L 297.8086 131.751613 
L 303.920076 129.664457 
L 308.666559 127.815869 
L 312.384231 126.135619 
L 315.252895 124.602651 
L 317.43471 123.194461 
L 319.065649 121.887368 
L 320.231034 120.683039 
L 321.044626 119.530213 
L 321.539494 118.455823 
L 321.780904 117.40797 
L 321.791275 116.38703 
L 321.577101 115.341003 
L 321.128938 114.270294 
L 320.400876 113.123194 
L 319.354722 111.900384 
L 317.894533 110.550706 
L 315.957763 109.075217 
L 313.407379 107.423304 
L 310.079268 105.544624 
L 305.693805 103.337364 
L 299.620164 100.545254 
L 275.895769 89.87885 
L 271.412056 87.493188 
L 267.906716 85.385489 
L 265.116623 83.454576 
L 262.928999 81.676402 
L 261.240008 80.026366 
L 259.941799 78.453166 
L 258.991944 76.957572 
L 258.336558 75.513923 
L 257.94436 74.122642 
L 257.781554 72.731547 
L 257.840539 71.340902 
L 258.126008 69.89848 
L 258.649464 68.404541 
L 259.448119 66.806945 
L 260.564844 65.079824 
L 262.069823 63.171171 
L 264.070763 61.00286 
L 266.79812 58.39222 
L 270.885914 54.81671 
L 279.528029 47.318106 
L 282.518605 44.385729 
L 284.7752 41.869203 
L 286.529049 39.586389 
L 287.887185 37.459436 
L 288.918591 35.436436 
L 289.665087 33.49157 
L 290.165748 31.572609 
L 290.436081 29.653527 
L 290.483131 27.708253 
L 290.306217 25.710685 
L 289.891779 23.608428 
L 289.220802 21.375359 
L 288.23997 18.906531 
L 286.876797 16.096994 
L 284.90798 12.579134 
L 277.181683 -0.762451 
L 277.066315 -1 
L 277.066315 -1 
" style="fill:none;stroke:#0000ff;stroke-linecap:square;stroke-width:1.5;"/>
   </g>
   <g id="line2d_40">
    <path clip-path="url(#p5bd938a065)" d="M 278.836991 285.197927 
L 278.730273 264.81718 
L 278.36257 263.893667 
L 277.398217 262.217631 
L 276.464449 260.423637 
L 276.082087 259.212831 
L 275.983159 258.186121 
L 276.112667 257.227004 
L 276.469916 256.289783 
L 277.073786 255.352403 
L 277.964218 254.392397 
L 279.207151 253.386978 
L 280.898008 252.313485 
L 283.163366 251.150172 
L 286.100958 249.900501 
L 289.870648 248.545676 
L 294.661643 247.068089 
L 300.685815 245.450983 
L 308.259039 243.656167 
L 317.931719 241.602802 
L 330.636041 239.145433 
L 350.987183 235.46683 
L 377.342537 230.662819 
L 390.252967 228.080757 
L 400.043805 225.904908 
L 407.851351 223.948729 
L 414.042236 222.17729 
L 419.020744 220.529377 
L 422.931233 219.010695 
L 425.97552 217.60223 
L 428.321334 216.283519 
L 430.071711 215.056673 
L 431.348278 213.899534 
L 432.223768 212.813045 
L 432.766547 211.797799 
L 434.24133 207.853031 
L 434.3025 206.902635 
L 434.129877 206.069573 
L 433.736087 205.28423 
L 433.071457 204.476086 
L 432.065609 203.6218 
L 430.616643 202.698008 
L 428.585588 201.682274 
L 425.858317 200.578191 
L 422.254239 199.369157 
L 417.637005 198.064062 
L 411.863718 196.670891 
L 404.581822 195.152792 
L 395.403167 193.476983 
L 383.793436 191.592233 
L 368.614154 189.364469 
L 345.299098 186.194114 
L 308.726318 181.21232 
L 292.878732 178.819116 
L 280.730132 176.767831 
L 271.14027 174.932019 
L 263.442962 173.240202 
L 257.34984 171.682374 
L 252.58356 170.24538 
L 248.897251 168.913166 
L 246.131417 167.690926 
L 244.090297 166.55879 
L 242.651541 165.519175 
L 241.699785 164.573642 
L 241.117341 163.699459 
L 240.825042 162.87352 
L 240.77643 162.072589 
L 240.953495 161.273461 
L 241.379049 160.429685 
L 242.083627 159.542045 
L 243.152963 158.564939 
L 244.689756 157.476789 
L 246.82073 156.256612 
L 249.691615 154.883943 
L 253.51532 153.315838 
L 258.652146 151.464266 
L 265.905775 149.105395 
L 293.490026 140.357609 
L 298.717188 138.353015 
L 302.716483 136.588685 
L 305.783728 135.000919 
L 308.12576 133.54708 
L 309.879079 132.206516 
L 311.158103 130.957635 
L 312.03767 129.80176 
L 312.609455 128.692577 
L 312.91117 127.630663 
L 312.979012 126.592827 
L 312.823059 125.532256 
L 312.437062 124.449321 
L 311.785902 123.297375 
L 310.819446 122.053498 
L 309.473159 120.694929 
L 307.640762 119.175687 
L 305.227221 117.473304 
L 301.986142 115.472074 
L 297.510063 112.986432 
L 289.740438 108.969066 
L 281.329431 104.54484 
L 276.779818 101.902905 
L 273.371172 99.674939 
L 270.740693 97.700037 
L 268.681815 95.886201 
L 267.081433 94.187684 
L 265.868033 92.581884 
L 264.982141 91.045909 
L 264.377844 89.556657 
L 264.022907 88.090877 
L 263.89815 86.625227 
L 263.996414 85.136317 
L 264.321226 83.600736 
L 264.894939 81.971461 
L 265.758765 80.20151 
L 266.967087 78.243923 
L 268.633595 75.980972 
L 271.00821 73.153408 
L 275.702625 67.992617 
L 279.288817 63.888394 
L 281.49773 61.031323 
L 283.142796 58.55006 
L 284.387757 56.28008 
L 285.319735 54.127369 
L 285.98269 52.045011 
L 286.40694 49.985981 
L 286.60787 47.903176 
L 286.587937 45.773119 
L 286.342858 43.548637 
L 285.852973 41.158875 
L 285.071388 38.485647 
L 283.910785 35.33977 
L 282.018344 30.916929 
L 278.655177 23.086565 
L 277.366794 19.465708 
L 276.46275 16.270128 
L 275.840885 13.263463 
L 275.455672 10.303891 
L 275.291869 7.320548 
L 275.345518 4.195179 
L 275.63059 0.809503 
L 275.863918 -1 
L 275.863918 -1 
" style="fill:none;stroke:#ffa500;stroke-linecap:square;stroke-width:1.5;"/>
   </g>
   <g id="line2d_41">
    <path clip-path="url(#p5bd938a065)" d="M 278.836991 285.197927 
L 278.727635 264.898975 
L 278.354217 264.04358 
L 277.493209 262.719434 
L 276.395791 260.95547 
L 276.033126 259.948786 
L 275.960109 259.102369 
L 276.118672 258.314828 
L 276.505695 257.546765 
L 277.156273 256.758883 
L 278.153374 255.912264 
L 279.602592 254.989224 
L 281.599824 253.99287 
L 284.294792 252.90665 
L 287.866077 251.716211 
L 292.514441 250.409732 
L 298.459486 248.976756 
L 306.115999 247.370018 
L 315.946037 245.545422 
L 329.057499 243.352329 
L 350.188955 240.07617 
L 376.021366 236.022996 
L 388.875971 233.780947 
L 398.553602 231.877493 
L 406.158613 230.164739 
L 412.2169 228.579709 
L 416.973832 227.112387 
L 420.660657 225.750309 
L 423.440124 224.498444 
L 425.533987 223.321 
L 427.024363 222.239794 
L 428.04814 221.236595 
L 428.706202 220.29257 
L 429.063566 219.408196 
L 429.179894 218.544461 
L 429.071466 217.662409 
L 428.72594 216.742827 
L 428.114602 215.766615 
L 427.174784 214.69536 
L 425.813058 213.490969 
L 423.88264 212.096243 
L 420.86827 209.964595 
L 417.067288 206.881974 
L 415.153707 205.732278 
L 412.830752 204.60447 
L 409.903586 203.440285 
L 406.164665 202.204772 
L 401.432358 200.887717 
L 395.507587 199.480238 
L 388.08272 197.953461 
L 378.525052 196.226384 
L 366.02031 194.204292 
L 347.306033 191.425824 
L 312.26079 186.24276 
L 299.026231 184.040494 
L 288.966984 182.151454 
L 281.049267 180.448471 
L 274.733397 178.869934 
L 269.832511 177.425958 
L 266.03279 176.085713 
L 263.130697 174.835016 
L 260.989497 173.67759 
L 259.476112 172.616035 
L 258.449094 171.632342 
L 257.814605 170.727483 
L 257.482574 169.882325 
L 257.393405 169.057896 
L 257.527305 168.234874 
L 257.895533 167.374464 
L 258.548032 166.438201 
L 259.550758 165.40747 
L 261.01045 164.244537 
L 263.030606 162.93133 
L 265.858398 161.372735 
L 269.863447 159.435221 
L 276.957022 156.292073 
L 284.745496 152.769009 
L 288.83696 150.675496 
L 291.792986 148.922099 
L 294.007773 147.357522 
L 295.637632 145.945481 
L 296.831291 144.629019 
L 297.665656 143.389694 
L 298.202494 142.208661 
L 298.490639 141.047107 
L 298.549585 139.885746 
L 298.38599 138.705223 
L 297.987006 137.466499 
L 297.316432 136.130602 
L 296.31852 134.658641 
L 294.924382 133.011764 
L 292.979591 131.072702 
L 290.149751 128.58698 
L 279.257314 119.29782 
L 277.16749 117.076494 
L 275.577148 115.069122 
L 274.373553 113.197932 
L 273.482267 111.404479 
L 272.865078 109.669518 
L 272.48284 107.934241 
L 272.323484 106.179177 
L 272.382556 104.34537 
L 272.671477 102.393552 
L 273.218551 100.244998 
L 274.092806 97.742113 
L 275.494922 94.451297 
L 279.399681 85.561569 
L 280.41055 82.544101 
L 281.103531 79.782388 
L 281.547471 77.099203 
L 281.76789 74.39611 
L 281.772928 71.574611 
L 281.551412 68.476976 
L 281.058436 64.827061 
L 280.084693 59.480554 
L 278.654838 51.509596 
L 278.095791 47.050163 
L 277.795785 42.866794 
L 277.713037 38.564965 
L 277.849069 33.710631 
L 278.280047 27.040915 
L 279.102246 14.609043 
L 279.285493 7.958849 
L 279.25285 0.775835 
L 279.217023 -1 
L 279.217023 -1 
" style="fill:none;stroke:#ff0000;stroke-linecap:square;stroke-width:1.5;"/>
   </g>
   <g id="line2d_42">
    <path clip-path="url(#p5bd938a065)" d="M 278.836991 285.197927 
L 278.736024 265.067355 
L 278.141732 264.326879 
L 277.094817 262.987672 
L 276.247145 261.179516 
L 275.995116 260.19667 
L 276.016828 259.428674 
L 276.259676 258.768255 
L 276.745319 258.127228 
L 277.551358 257.45407 
L 278.826984 256.699356 
L 280.724436 255.852172 
L 283.428123 254.90528 
L 287.196572 253.837665 
L 292.256542 252.646007 
L 298.994114 251.297055 
L 307.846029 249.761269 
L 319.472433 247.98048 
L 335.8191 245.718757 
L 379.564798 239.774779 
L 390.652499 237.984376 
L 399.155268 236.394999 
L 405.792212 234.936512 
L 410.981324 233.57681 
L 414.976018 232.309939 
L 418.004625 231.126972 
L 420.258882 230.01666 
L 421.850045 228.997515 
L 422.932912 228.055671 
L 423.623714 227.176458 
L 424.006589 226.344746 
L 424.13968 225.529496 
L 424.046719 224.715295 
L 423.719279 223.855481 
L 423.115702 222.919241 
L 422.153654 221.860385 
L 420.737507 220.648483 
L 418.675483 219.190969 
L 415.521693 217.255412 
L 405.348697 211.182054 
L 404.666795 210.492928 
L 404.220125 209.72636 
L 403.810193 208.513372 
L 403.273741 207.112395 
L 402.699477 206.246402 
L 401.915068 205.467892 
L 400.820412 204.701535 
L 399.27763 203.903416 
L 397.1136 203.046682 
L 394.101925 202.106788 
L 389.963975 201.062758 
L 384.449376 199.912474 
L 377.140321 198.626048 
L 367.298182 197.133482 
L 353.325423 195.257217 
L 305.082325 188.952058 
L 294.382239 187.240165 
L 286.182111 185.712706 
L 279.762778 184.300357 
L 274.783178 182.986258 
L 270.990823 181.764783 
L 268.194536 180.642862 
L 266.180858 179.609582 
L 264.778507 178.652189 
L 263.868387 177.772458 
L 263.342963 176.971405 
L 263.102182 176.218139 
L 263.094094 175.481597 
L 263.31299 174.715132 
L 263.783205 173.903595 
L 264.574004 173.000877 
L 265.780552 171.976859 
L 267.542916 170.7862 
L 270.105849 169.337368 
L 274.138538 167.33802 
L 283.718927 162.661 
L 286.602805 160.964098 
L 288.651816 159.509867 
L 290.135703 158.192233 
L 291.189092 156.966164 
L 291.901264 155.801524 
L 292.335516 154.667672 
L 292.528645 153.54941 
L 292.50304 152.399878 
L 292.249665 151.17216 
L 291.741255 149.835088 
L 290.923055 148.326036 
L 289.688935 146.535205 
L 287.787055 144.195515 
L 280.744455 135.832272 
L 279.257278 133.563844 
L 278.143344 131.46721 
L 277.319367 129.448415 
L 276.739847 127.444776 
L 276.378151 125.393456 
L 276.22469 123.231522 
L 276.28339 120.864417 
L 276.582598 118.102839 
L 277.223084 114.425992 
L 279.070001 104.435489 
L 279.49498 100.536475 
L 279.695307 96.621505 
L 279.688551 92.264465 
L 279.439722 86.534009 
L 278.693188 71.473564 
L 278.619084 63.959016 
L 278.765411 52.245153 
L 278.835799 47.240709 
L 278.835799 47.240709 
" style="fill:none;stroke:#008000;stroke-linecap:square;stroke-width:1.5;"/>
   </g>
   <g id="patch_8">
    <path d="M 219.897458 304.44375 
L 219.897458 39.3555 
" style="fill:none;stroke:#000000;stroke-linecap:square;stroke-linejoin:miter;stroke-width:0.8;"/>
   </g>
   <g id="patch_9">
    <path d="M 450 304.44375 
L 450 39.3555 
" style="fill:none;stroke:#000000;stroke-linecap:square;stroke-linejoin:miter;stroke-width:0.8;"/>
   </g>
   <g id="patch_10">
    <path d="M 219.897458 304.44375 
L 450 304.44375 
" style="fill:none;stroke:#000000;stroke-linecap:square;stroke-linejoin:miter;stroke-width:0.8;"/>
   </g>
   <g id="patch_11">
    <path d="M 219.897458 39.3555 
L 450 39.3555 
" style="fill:none;stroke:#000000;stroke-linecap:square;stroke-linejoin:miter;stroke-width:0.8;"/>
   </g>
   <g id="text_22">
    <!-- Trajectoire en fonction de -->
    <g transform="translate(258.560291 19.918125)scale(0.12 -0.12)">
     <defs>
      <path d="M -19 4666 
L 3928 4666 
L 3928 4134 
L 2272 4134 
L 2272 0 
L 1638 0 
L 1638 4134 
L -19 4134 
L -19 4666 
z
" id="DejaVuSans-54" transform="scale(0.015625)"/>
      <path d="M 2631 2963 
Q 2534 3019 2420 3045 
Q 2306 3072 2169 3072 
Q 1681 3072 1420 2755 
Q 1159 2438 1159 1844 
L 1159 0 
L 581 0 
L 581 3500 
L 1159 3500 
L 1159 2956 
Q 1341 3275 1631 3429 
Q 1922 3584 2338 3584 
Q 2397 3584 2469 3576 
Q 2541 3569 2628 3553 
L 2631 2963 
z
" id="DejaVuSans-72" transform="scale(0.015625)"/>
      <path d="M 2194 1759 
Q 1497 1759 1228 1600 
Q 959 1441 959 1056 
Q 959 750 1161 570 
Q 1363 391 1709 391 
Q 2188 391 2477 730 
Q 2766 1069 2766 1631 
L 2766 1759 
L 2194 1759 
z
M 3341 1997 
L 3341 0 
L 2766 0 
L 2766 531 
Q 2569 213 2275 61 
Q 1981 -91 1556 -91 
Q 1019 -91 701 211 
Q 384 513 384 1019 
Q 384 1609 779 1909 
Q 1175 2209 1959 2209 
L 2766 2209 
L 2766 2266 
Q 2766 2663 2505 2880 
Q 2244 3097 1772 3097 
Q 1472 3097 1187 3025 
Q 903 2953 641 2809 
L 641 3341 
Q 956 3463 1253 3523 
Q 1550 3584 1831 3584 
Q 2591 3584 2966 3190 
Q 3341 2797 3341 1997 
z
" id="DejaVuSans-61" transform="scale(0.015625)"/>
      <path d="M 603 3500 
L 1178 3500 
L 1178 -63 
Q 1178 -731 923 -1031 
Q 669 -1331 103 -1331 
L -116 -1331 
L -116 -844 
L 38 -844 
Q 366 -844 484 -692 
Q 603 -541 603 -63 
L 603 3500 
z
M 603 4863 
L 1178 4863 
L 1178 4134 
L 603 4134 
L 603 4863 
z
" id="DejaVuSans-6a" transform="scale(0.015625)"/>
      <path d="M 3597 1894 
L 3597 1613 
L 953 1613 
Q 991 1019 1311 708 
Q 1631 397 2203 397 
Q 2534 397 2845 478 
Q 3156 559 3463 722 
L 3463 178 
Q 3153 47 2828 -22 
Q 2503 -91 2169 -91 
Q 1331 -91 842 396 
Q 353 884 353 1716 
Q 353 2575 817 3079 
Q 1281 3584 2069 3584 
Q 2775 3584 3186 3129 
Q 3597 2675 3597 1894 
z
M 3022 2063 
Q 3016 2534 2758 2815 
Q 2500 3097 2075 3097 
Q 1594 3097 1305 2825 
Q 1016 2553 972 2059 
L 3022 2063 
z
" id="DejaVuSans-65" transform="scale(0.015625)"/>
      <path d="M 3122 3366 
L 3122 2828 
Q 2878 2963 2633 3030 
Q 2388 3097 2138 3097 
Q 1578 3097 1268 2742 
Q 959 2388 959 1747 
Q 959 1106 1268 751 
Q 1578 397 2138 397 
Q 2388 397 2633 464 
Q 2878 531 3122 666 
L 3122 134 
Q 2881 22 2623 -34 
Q 2366 -91 2075 -91 
Q 1284 -91 818 406 
Q 353 903 353 1747 
Q 353 2603 823 3093 
Q 1294 3584 2113 3584 
Q 2378 3584 2631 3529 
Q 2884 3475 3122 3366 
z
" id="DejaVuSans-63" transform="scale(0.015625)"/>
      <path d="M 1172 4494 
L 1172 3500 
L 2356 3500 
L 2356 3053 
L 1172 3053 
L 1172 1153 
Q 1172 725 1289 603 
Q 1406 481 1766 481 
L 2356 481 
L 2356 0 
L 1766 0 
Q 1100 0 847 248 
Q 594 497 594 1153 
L 594 3053 
L 172 3053 
L 172 3500 
L 594 3500 
L 594 4494 
L 1172 4494 
z
" id="DejaVuSans-74" transform="scale(0.015625)"/>
      <path d="M 1959 3097 
Q 1497 3097 1228 2736 
Q 959 2375 959 1747 
Q 959 1119 1226 758 
Q 1494 397 1959 397 
Q 2419 397 2687 759 
Q 2956 1122 2956 1747 
Q 2956 2369 2687 2733 
Q 2419 3097 1959 3097 
z
M 1959 3584 
Q 2709 3584 3137 3096 
Q 3566 2609 3566 1747 
Q 3566 888 3137 398 
Q 2709 -91 1959 -91 
Q 1206 -91 779 398 
Q 353 888 353 1747 
Q 353 2609 779 3096 
Q 1206 3584 1959 3584 
z
" id="DejaVuSans-6f" transform="scale(0.015625)"/>
      <path d="M 603 3500 
L 1178 3500 
L 1178 0 
L 603 0 
L 603 3500 
z
M 603 4863 
L 1178 4863 
L 1178 4134 
L 603 4134 
L 603 4863 
z
" id="DejaVuSans-69" transform="scale(0.015625)"/>
      <path d="M 3513 2113 
L 3513 0 
L 2938 0 
L 2938 2094 
Q 2938 2591 2744 2837 
Q 2550 3084 2163 3084 
Q 1697 3084 1428 2787 
Q 1159 2491 1159 1978 
L 1159 0 
L 581 0 
L 581 3500 
L 1159 3500 
L 1159 2956 
Q 1366 3272 1645 3428 
Q 1925 3584 2291 3584 
Q 2894 3584 3203 3211 
Q 3513 2838 3513 2113 
z
" id="DejaVuSans-6e" transform="scale(0.015625)"/>
      <path d="M 2375 4863 
L 2375 4384 
L 1825 4384 
Q 1516 4384 1395 4259 
Q 1275 4134 1275 3809 
L 1275 3500 
L 2222 3500 
L 2222 3053 
L 1275 3053 
L 1275 0 
L 697 0 
L 697 3053 
L 147 3053 
L 147 3500 
L 697 3500 
L 697 3744 
Q 697 4328 969 4595 
Q 1241 4863 1831 4863 
L 2375 4863 
z
" id="DejaVuSans-66" transform="scale(0.015625)"/>
      <path d="M 2906 2969 
L 2906 4863 
L 3481 4863 
L 3481 0 
L 2906 0 
L 2906 525 
Q 2725 213 2448 61 
Q 2172 -91 1784 -91 
Q 1150 -91 751 415 
Q 353 922 353 1747 
Q 353 2572 751 3078 
Q 1150 3584 1784 3584 
Q 2172 3584 2448 3432 
Q 2725 3281 2906 2969 
z
M 947 1747 
Q 947 1113 1208 752 
Q 1469 391 1925 391 
Q 2381 391 2643 752 
Q 2906 1113 2906 1747 
Q 2906 2381 2643 2742 
Q 2381 3103 1925 3103 
Q 1469 3103 1208 2742 
Q 947 2381 947 1747 
z
" id="DejaVuSans-64" transform="scale(0.015625)"/>
     </defs>
     <use xlink:href="#DejaVuSans-54"/>
     <use x="46.333984" xlink:href="#DejaVuSans-72"/>
     <use x="87.447266" xlink:href="#DejaVuSans-61"/>
     <use x="148.726562" xlink:href="#DejaVuSans-6a"/>
     <use x="176.509766" xlink:href="#DejaVuSans-65"/>
     <use x="238.033203" xlink:href="#DejaVuSans-63"/>
     <use x="293.013672" xlink:href="#DejaVuSans-74"/>
     <use x="332.222656" xlink:href="#DejaVuSans-6f"/>
     <use x="393.404297" xlink:href="#DejaVuSans-69"/>
     <use x="421.1875" xlink:href="#DejaVuSans-72"/>
     <use x="460.050781" xlink:href="#DejaVuSans-65"/>
     <use x="521.574219" xlink:href="#DejaVuSans-20"/>
     <use x="553.361328" xlink:href="#DejaVuSans-65"/>
     <use x="614.884766" xlink:href="#DejaVuSans-6e"/>
     <use x="678.263672" xlink:href="#DejaVuSans-20"/>
     <use x="710.050781" xlink:href="#DejaVuSans-66"/>
     <use x="745.255859" xlink:href="#DejaVuSans-6f"/>
     <use x="806.4375" xlink:href="#DejaVuSans-6e"/>
     <use x="869.816406" xlink:href="#DejaVuSans-63"/>
     <use x="924.796875" xlink:href="#DejaVuSans-74"/>
     <use x="964.005859" xlink:href="#DejaVuSans-69"/>
     <use x="991.789062" xlink:href="#DejaVuSans-6f"/>
     <use x="1052.970703" xlink:href="#DejaVuSans-6e"/>
     <use x="1116.349609" xlink:href="#DejaVuSans-20"/>
     <use x="1148.136719" xlink:href="#DejaVuSans-64"/>
     <use x="1211.613281" xlink:href="#DejaVuSans-65"/>
    </g>
    <!--  la masse du chargement -->
    <g transform="translate(258.569666 33.3555)scale(0.12 -0.12)">
     <defs>
      <path d="M 603 4863 
L 1178 4863 
L 1178 0 
L 603 0 
L 603 4863 
z
" id="DejaVuSans-6c" transform="scale(0.015625)"/>
      <path d="M 2834 3397 
L 2834 2853 
Q 2591 2978 2328 3040 
Q 2066 3103 1784 3103 
Q 1356 3103 1142 2972 
Q 928 2841 928 2578 
Q 928 2378 1081 2264 
Q 1234 2150 1697 2047 
L 1894 2003 
Q 2506 1872 2764 1633 
Q 3022 1394 3022 966 
Q 3022 478 2636 193 
Q 2250 -91 1575 -91 
Q 1294 -91 989 -36 
Q 684 19 347 128 
L 347 722 
Q 666 556 975 473 
Q 1284 391 1588 391 
Q 1994 391 2212 530 
Q 2431 669 2431 922 
Q 2431 1156 2273 1281 
Q 2116 1406 1581 1522 
L 1381 1569 
Q 847 1681 609 1914 
Q 372 2147 372 2553 
Q 372 3047 722 3315 
Q 1072 3584 1716 3584 
Q 2034 3584 2315 3537 
Q 2597 3491 2834 3397 
z
" id="DejaVuSans-73" transform="scale(0.015625)"/>
      <path d="M 544 1381 
L 544 3500 
L 1119 3500 
L 1119 1403 
Q 1119 906 1312 657 
Q 1506 409 1894 409 
Q 2359 409 2629 706 
Q 2900 1003 2900 1516 
L 2900 3500 
L 3475 3500 
L 3475 0 
L 2900 0 
L 2900 538 
Q 2691 219 2414 64 
Q 2138 -91 1772 -91 
Q 1169 -91 856 284 
Q 544 659 544 1381 
z
M 1991 3584 
L 1991 3584 
z
" id="DejaVuSans-75" transform="scale(0.015625)"/>
      <path d="M 3513 2113 
L 3513 0 
L 2938 0 
L 2938 2094 
Q 2938 2591 2744 2837 
Q 2550 3084 2163 3084 
Q 1697 3084 1428 2787 
Q 1159 2491 1159 1978 
L 1159 0 
L 581 0 
L 581 4863 
L 1159 4863 
L 1159 2956 
Q 1366 3272 1645 3428 
Q 1925 3584 2291 3584 
Q 2894 3584 3203 3211 
Q 3513 2838 3513 2113 
z
" id="DejaVuSans-68" transform="scale(0.015625)"/>
      <path d="M 2906 1791 
Q 2906 2416 2648 2759 
Q 2391 3103 1925 3103 
Q 1463 3103 1205 2759 
Q 947 2416 947 1791 
Q 947 1169 1205 825 
Q 1463 481 1925 481 
Q 2391 481 2648 825 
Q 2906 1169 2906 1791 
z
M 3481 434 
Q 3481 -459 3084 -895 
Q 2688 -1331 1869 -1331 
Q 1566 -1331 1297 -1286 
Q 1028 -1241 775 -1147 
L 775 -588 
Q 1028 -725 1275 -790 
Q 1522 -856 1778 -856 
Q 2344 -856 2625 -561 
Q 2906 -266 2906 331 
L 2906 616 
Q 2728 306 2450 153 
Q 2172 0 1784 0 
Q 1141 0 747 490 
Q 353 981 353 1791 
Q 353 2603 747 3093 
Q 1141 3584 1784 3584 
Q 2172 3584 2450 3431 
Q 2728 3278 2906 2969 
L 2906 3500 
L 3481 3500 
L 3481 434 
z
" id="DejaVuSans-67" transform="scale(0.015625)"/>
     </defs>
     <use xlink:href="#DejaVuSans-20"/>
     <use x="31.787109" xlink:href="#DejaVuSans-6c"/>
     <use x="59.570312" xlink:href="#DejaVuSans-61"/>
     <use x="120.849609" xlink:href="#DejaVuSans-20"/>
     <use x="152.636719" xlink:href="#DejaVuSans-6d"/>
     <use x="250.048828" xlink:href="#DejaVuSans-61"/>
     <use x="311.328125" xlink:href="#DejaVuSans-73"/>
     <use x="363.427734" xlink:href="#DejaVuSans-73"/>
     <use x="415.527344" xlink:href="#DejaVuSans-65"/>
     <use x="477.050781" xlink:href="#DejaVuSans-20"/>
     <use x="508.837891" xlink:href="#DejaVuSans-64"/>
     <use x="572.314453" xlink:href="#DejaVuSans-75"/>
     <use x="635.693359" xlink:href="#DejaVuSans-20"/>
     <use x="667.480469" xlink:href="#DejaVuSans-63"/>
     <use x="722.460938" xlink:href="#DejaVuSans-68"/>
     <use x="785.839844" xlink:href="#DejaVuSans-61"/>
     <use x="847.119141" xlink:href="#DejaVuSans-72"/>
     <use x="886.482422" xlink:href="#DejaVuSans-67"/>
     <use x="949.958984" xlink:href="#DejaVuSans-65"/>
     <use x="1011.482422" xlink:href="#DejaVuSans-6d"/>
     <use x="1108.894531" xlink:href="#DejaVuSans-65"/>
     <use x="1170.417969" xlink:href="#DejaVuSans-6e"/>
     <use x="1233.796875" xlink:href="#DejaVuSans-74"/>
    </g>
   </g>
   <g id="legend_1">
    <g id="patch_12">
     <path d="M 382.957812 106.068 
L 443 106.068 
Q 445 106.068 445 104.068 
L 445 46.3555 
Q 445 44.3555 443 44.3555 
L 382.957812 44.3555 
Q 380.957812 44.3555 380.957812 46.3555 
L 380.957812 104.068 
Q 380.957812 106.068 382.957812 106.068 
z
" style="fill:#ffffff;opacity:0.8;stroke:#cccccc;stroke-linejoin:miter;"/>
    </g>
    <g id="line2d_43">
     <path d="M 384.957812 52.453937 
L 404.957812 52.453937 
" style="fill:none;stroke:#0000ff;stroke-linecap:square;stroke-width:1.5;"/>
    </g>
    <g id="line2d_44"/>
    <g id="text_23">
     <!-- 20 kg -->
     <g transform="translate(412.957812 55.953937)scale(0.1 -0.1)">
      <defs>
       <path d="M 581 4863 
L 1159 4863 
L 1159 1991 
L 2875 3500 
L 3609 3500 
L 1753 1863 
L 3688 0 
L 2938 0 
L 1159 1709 
L 1159 0 
L 581 0 
L 581 4863 
z
" id="DejaVuSans-6b" transform="scale(0.015625)"/>
      </defs>
      <use xlink:href="#DejaVuSans-32"/>
      <use x="63.623047" xlink:href="#DejaVuSans-30"/>
      <use x="127.246094" xlink:href="#DejaVuSans-20"/>
      <use x="159.033203" xlink:href="#DejaVuSans-6b"/>
      <use x="216.943359" xlink:href="#DejaVuSans-67"/>
     </g>
    </g>
    <g id="line2d_45">
     <path d="M 384.957812 67.132062 
L 404.957812 67.132062 
" style="fill:none;stroke:#ffa500;stroke-linecap:square;stroke-width:1.5;"/>
    </g>
    <g id="line2d_46"/>
    <g id="text_24">
     <!-- 18 kg -->
     <g transform="translate(412.957812 70.632062)scale(0.1 -0.1)">
      <defs>
       <path d="M 2034 2216 
Q 1584 2216 1326 1975 
Q 1069 1734 1069 1313 
Q 1069 891 1326 650 
Q 1584 409 2034 409 
Q 2484 409 2743 651 
Q 3003 894 3003 1313 
Q 3003 1734 2745 1975 
Q 2488 2216 2034 2216 
z
M 1403 2484 
Q 997 2584 770 2862 
Q 544 3141 544 3541 
Q 544 4100 942 4425 
Q 1341 4750 2034 4750 
Q 2731 4750 3128 4425 
Q 3525 4100 3525 3541 
Q 3525 3141 3298 2862 
Q 3072 2584 2669 2484 
Q 3125 2378 3379 2068 
Q 3634 1759 3634 1313 
Q 3634 634 3220 271 
Q 2806 -91 2034 -91 
Q 1263 -91 848 271 
Q 434 634 434 1313 
Q 434 1759 690 2068 
Q 947 2378 1403 2484 
z
M 1172 3481 
Q 1172 3119 1398 2916 
Q 1625 2713 2034 2713 
Q 2441 2713 2670 2916 
Q 2900 3119 2900 3481 
Q 2900 3844 2670 4047 
Q 2441 4250 2034 4250 
Q 1625 4250 1398 4047 
Q 1172 3844 1172 3481 
z
" id="DejaVuSans-38" transform="scale(0.015625)"/>
      </defs>
      <use xlink:href="#DejaVuSans-31"/>
      <use x="63.623047" xlink:href="#DejaVuSans-38"/>
      <use x="127.246094" xlink:href="#DejaVuSans-20"/>
      <use x="159.033203" xlink:href="#DejaVuSans-6b"/>
      <use x="216.943359" xlink:href="#DejaVuSans-67"/>
     </g>
    </g>
    <g id="line2d_47">
     <path d="M 384.957812 81.810187 
L 404.957812 81.810187 
" style="fill:none;stroke:#ff0000;stroke-linecap:square;stroke-width:1.5;"/>
    </g>
    <g id="line2d_48"/>
    <g id="text_25">
     <!-- 15 kg -->
     <g transform="translate(412.957812 85.310187)scale(0.1 -0.1)">
      <use xlink:href="#DejaVuSans-31"/>
      <use x="63.623047" xlink:href="#DejaVuSans-35"/>
      <use x="127.246094" xlink:href="#DejaVuSans-20"/>
      <use x="159.033203" xlink:href="#DejaVuSans-6b"/>
      <use x="216.943359" xlink:href="#DejaVuSans-67"/>
     </g>
    </g>
    <g id="line2d_49">
     <path d="M 384.957812 96.488312 
L 404.957812 96.488312 
" style="fill:none;stroke:#008000;stroke-linecap:square;stroke-width:1.5;"/>
    </g>
    <g id="line2d_50"/>
    <g id="text_26">
     <!-- 12 kg -->
     <g transform="translate(412.957812 99.988312)scale(0.1 -0.1)">
      <use xlink:href="#DejaVuSans-31"/>
      <use x="63.623047" xlink:href="#DejaVuSans-32"/>
      <use x="127.246094" xlink:href="#DejaVuSans-20"/>
      <use x="159.033203" xlink:href="#DejaVuSans-6b"/>
      <use x="216.943359" xlink:href="#DejaVuSans-67"/>
     </g>
    </g>
   </g>
  </g>
 </g>
 <defs>
  <clipPath id="p67e03d36d2">
   <rect height="265.08825" width="17.711518" x="116.995512" y="39.3555"/>
  </clipPath>
  <clipPath id="p5bd938a065">
   <rect height="265.08825" width="230.102542" x="219.897458" y="39.3555"/>
  </clipPath>
 </defs>
</svg>
