<?xml version="1.0" encoding="utf-8" standalone="no"?>
<!DOCTYPE svg PUBLIC "-//W3C//DTD SVG 1.1//EN"
  "http://www.w3.org/Graphics/SVG/1.1/DTD/svg11.dtd">
<svg height="345.6pt" version="1.1" viewBox="0 0 460.8 345.6" width="460.8pt" xmlns="http://www.w3.org/2000/svg" xmlns:xlink="http://www.w3.org/1999/xlink">
 <metadata>
  <rdf:RDF xmlns:cc="http://creativecommons.org/ns#" xmlns:dc="http://purl.org/dc/elements/1.1/" xmlns:rdf="http://www.w3.org/1999/02/22-rdf-syntax-ns#">
   <cc:Work>
    <dc:type rdf:resource="http://purl.org/dc/dcmitype/StillImage"/>
    <dc:date>2023-05-12T01:07:38.085490</dc:date>
    <dc:format>image/svg+xml</dc:format>
    <dc:creator>
     <cc:Agent>
      <dc:title>Matplotlib v3.4.3, https://matplotlib.org/</dc:title>
     </cc:Agent>
    </dc:creator>
   </cc:Work>
  </rdf:RDF>
 </metadata>
 <defs>
  <style type="text/css">*{stroke-linecap:butt;stroke-linejoin:round;}</style>
 </defs>
 <g id="figure_1">
  <g id="patch_1">
   <path d="M 0 345.6 
L 460.8 345.6 
L 460.8 0 
L 0 0 
z
" style="fill:#ffffff;"/>
  </g>
  <g id="axes_1">
   <g id="patch_2">
    <path d="M 117.474207 304.44375 
L 134.343296 304.44375 
L 134.343296 39.3555 
L 117.474207 39.3555 
z
" style="fill:#ffffff;"/>
   </g>
   <g id="matplotlib.axis_1">
    <g id="xtick_1">
     <g id="line2d_1">
      <path clip-path="url(#p72601b5ab5)" d="M 121.361137 304.44375 
L 121.361137 39.3555 
" style="fill:none;stroke:#b0b0b0;stroke-linecap:square;stroke-width:0.8;"/>
     </g>
     <g id="line2d_2">
      <defs>
       <path d="M 0 0 
L 0 3.5 
" id="m084d8fbad2" style="stroke:#000000;stroke-width:0.8;"/>
      </defs>
      <g>
       <use style="stroke:#000000;stroke-width:0.8;" x="121.361137" xlink:href="#m084d8fbad2" y="304.44375"/>
      </g>
     </g>
     <g id="text_1">
      <!-- 0.0 -->
      <g transform="translate(113.409575 319.042187)scale(0.1 -0.1)">
       <defs>
        <path d="M 2034 4250 
Q 1547 4250 1301 3770 
Q 1056 3291 1056 2328 
Q 1056 1369 1301 889 
Q 1547 409 2034 409 
Q 2525 409 2770 889 
Q 3016 1369 3016 2328 
Q 3016 3291 2770 3770 
Q 2525 4250 2034 4250 
z
M 2034 4750 
Q 2819 4750 3233 4129 
Q 3647 3509 3647 2328 
Q 3647 1150 3233 529 
Q 2819 -91 2034 -91 
Q 1250 -91 836 529 
Q 422 1150 422 2328 
Q 422 3509 836 4129 
Q 1250 4750 2034 4750 
z
" id="DejaVuSans-30" transform="scale(0.015625)"/>
        <path d="M 684 794 
L 1344 794 
L 1344 0 
L 684 0 
L 684 794 
z
" id="DejaVuSans-2e" transform="scale(0.015625)"/>
       </defs>
       <use xlink:href="#DejaVuSans-30"/>
       <use x="63.623047" xlink:href="#DejaVuSans-2e"/>
       <use x="95.410156" xlink:href="#DejaVuSans-30"/>
      </g>
     </g>
    </g>
    <g id="xtick_2">
     <g id="line2d_3">
      <path clip-path="url(#p72601b5ab5)" d="M 133.652788 304.44375 
L 133.652788 39.3555 
" style="fill:none;stroke:#b0b0b0;stroke-linecap:square;stroke-width:0.8;"/>
     </g>
     <g id="line2d_4">
      <g>
       <use style="stroke:#000000;stroke-width:0.8;" x="133.652788" xlink:href="#m084d8fbad2" y="304.44375"/>
      </g>
     </g>
     <g id="text_2">
      <!-- 2.5 -->
      <g transform="translate(125.701225 319.042187)scale(0.1 -0.1)">
       <defs>
        <path d="M 1228 531 
L 3431 531 
L 3431 0 
L 469 0 
L 469 531 
Q 828 903 1448 1529 
Q 2069 2156 2228 2338 
Q 2531 2678 2651 2914 
Q 2772 3150 2772 3378 
Q 2772 3750 2511 3984 
Q 2250 4219 1831 4219 
Q 1534 4219 1204 4116 
Q 875 4013 500 3803 
L 500 4441 
Q 881 4594 1212 4672 
Q 1544 4750 1819 4750 
Q 2544 4750 2975 4387 
Q 3406 4025 3406 3419 
Q 3406 3131 3298 2873 
Q 3191 2616 2906 2266 
Q 2828 2175 2409 1742 
Q 1991 1309 1228 531 
z
" id="DejaVuSans-32" transform="scale(0.015625)"/>
        <path d="M 691 4666 
L 3169 4666 
L 3169 4134 
L 1269 4134 
L 1269 2991 
Q 1406 3038 1543 3061 
Q 1681 3084 1819 3084 
Q 2600 3084 3056 2656 
Q 3513 2228 3513 1497 
Q 3513 744 3044 326 
Q 2575 -91 1722 -91 
Q 1428 -91 1123 -41 
Q 819 9 494 109 
L 494 744 
Q 775 591 1075 516 
Q 1375 441 1709 441 
Q 2250 441 2565 725 
Q 2881 1009 2881 1497 
Q 2881 1984 2565 2268 
Q 2250 2553 1709 2553 
Q 1456 2553 1204 2497 
Q 953 2441 691 2322 
L 691 4666 
z
" id="DejaVuSans-35" transform="scale(0.015625)"/>
       </defs>
       <use xlink:href="#DejaVuSans-32"/>
       <use x="63.623047" xlink:href="#DejaVuSans-2e"/>
       <use x="95.410156" xlink:href="#DejaVuSans-35"/>
      </g>
     </g>
    </g>
    <g id="text_3">
     <!-- y [m] -->
     <g transform="translate(112.588439 332.720312)scale(0.1 -0.1)">
      <defs>
       <path d="M 2059 -325 
Q 1816 -950 1584 -1140 
Q 1353 -1331 966 -1331 
L 506 -1331 
L 506 -850 
L 844 -850 
Q 1081 -850 1212 -737 
Q 1344 -625 1503 -206 
L 1606 56 
L 191 3500 
L 800 3500 
L 1894 763 
L 2988 3500 
L 3597 3500 
L 2059 -325 
z
" id="DejaVuSans-79" transform="scale(0.015625)"/>
       <path id="DejaVuSans-20" transform="scale(0.015625)"/>
       <path d="M 550 4863 
L 1875 4863 
L 1875 4416 
L 1125 4416 
L 1125 -397 
L 1875 -397 
L 1875 -844 
L 550 -844 
L 550 4863 
z
" id="DejaVuSans-5b" transform="scale(0.015625)"/>
       <path d="M 3328 2828 
Q 3544 3216 3844 3400 
Q 4144 3584 4550 3584 
Q 5097 3584 5394 3201 
Q 5691 2819 5691 2113 
L 5691 0 
L 5113 0 
L 5113 2094 
Q 5113 2597 4934 2840 
Q 4756 3084 4391 3084 
Q 3944 3084 3684 2787 
Q 3425 2491 3425 1978 
L 3425 0 
L 2847 0 
L 2847 2094 
Q 2847 2600 2669 2842 
Q 2491 3084 2119 3084 
Q 1678 3084 1418 2786 
Q 1159 2488 1159 1978 
L 1159 0 
L 581 0 
L 581 3500 
L 1159 3500 
L 1159 2956 
Q 1356 3278 1631 3431 
Q 1906 3584 2284 3584 
Q 2666 3584 2933 3390 
Q 3200 3197 3328 2828 
z
" id="DejaVuSans-6d" transform="scale(0.015625)"/>
       <path d="M 1947 4863 
L 1947 -844 
L 622 -844 
L 622 -397 
L 1369 -397 
L 1369 4416 
L 622 4416 
L 622 4863 
L 1947 4863 
z
" id="DejaVuSans-5d" transform="scale(0.015625)"/>
      </defs>
      <use xlink:href="#DejaVuSans-79"/>
      <use x="59.179688" xlink:href="#DejaVuSans-20"/>
      <use x="90.966797" xlink:href="#DejaVuSans-5b"/>
      <use x="129.980469" xlink:href="#DejaVuSans-6d"/>
      <use x="227.392578" xlink:href="#DejaVuSans-5d"/>
     </g>
    </g>
   </g>
   <g id="matplotlib.axis_2">
    <g id="ytick_1">
     <g id="line2d_5">
      <path clip-path="url(#p72601b5ab5)" d="M 117.474207 285.188501 
L 134.343296 285.188501 
" style="fill:none;stroke:#b0b0b0;stroke-linecap:square;stroke-width:0.8;"/>
     </g>
     <g id="line2d_6">
      <defs>
       <path d="M 0 0 
L -3.5 0 
" id="mc01222b2ad" style="stroke:#000000;stroke-width:0.8;"/>
      </defs>
      <g>
       <use style="stroke:#000000;stroke-width:0.8;" x="117.474207" xlink:href="#mc01222b2ad" y="285.188501"/>
      </g>
     </g>
     <g id="text_4">
      <!-- 0 -->
      <g transform="translate(104.111707 288.987719)scale(0.1 -0.1)">
       <use xlink:href="#DejaVuSans-30"/>
      </g>
     </g>
    </g>
    <g id="ytick_2">
     <g id="line2d_7">
      <path clip-path="url(#p72601b5ab5)" d="M 117.474207 236.021901 
L 134.343296 236.021901 
" style="fill:none;stroke:#b0b0b0;stroke-linecap:square;stroke-width:0.8;"/>
     </g>
     <g id="line2d_8">
      <g>
       <use style="stroke:#000000;stroke-width:0.8;" x="117.474207" xlink:href="#mc01222b2ad" y="236.021901"/>
      </g>
     </g>
     <g id="text_5">
      <!-- 10 -->
      <g transform="translate(97.749207 239.821119)scale(0.1 -0.1)">
       <defs>
        <path d="M 794 531 
L 1825 531 
L 1825 4091 
L 703 3866 
L 703 4441 
L 1819 4666 
L 2450 4666 
L 2450 531 
L 3481 531 
L 3481 0 
L 794 0 
L 794 531 
z
" id="DejaVuSans-31" transform="scale(0.015625)"/>
       </defs>
       <use xlink:href="#DejaVuSans-31"/>
       <use x="63.623047" xlink:href="#DejaVuSans-30"/>
      </g>
     </g>
    </g>
    <g id="ytick_3">
     <g id="line2d_9">
      <path clip-path="url(#p72601b5ab5)" d="M 117.474207 186.8553 
L 134.343296 186.8553 
" style="fill:none;stroke:#b0b0b0;stroke-linecap:square;stroke-width:0.8;"/>
     </g>
     <g id="line2d_10">
      <g>
       <use style="stroke:#000000;stroke-width:0.8;" x="117.474207" xlink:href="#mc01222b2ad" y="186.8553"/>
      </g>
     </g>
     <g id="text_6">
      <!-- 20 -->
      <g transform="translate(97.749207 190.654519)scale(0.1 -0.1)">
       <use xlink:href="#DejaVuSans-32"/>
       <use x="63.623047" xlink:href="#DejaVuSans-30"/>
      </g>
     </g>
    </g>
    <g id="ytick_4">
     <g id="line2d_11">
      <path clip-path="url(#p72601b5ab5)" d="M 117.474207 137.6887 
L 134.343296 137.6887 
" style="fill:none;stroke:#b0b0b0;stroke-linecap:square;stroke-width:0.8;"/>
     </g>
     <g id="line2d_12">
      <g>
       <use style="stroke:#000000;stroke-width:0.8;" x="117.474207" xlink:href="#mc01222b2ad" y="137.6887"/>
      </g>
     </g>
     <g id="text_7">
      <!-- 30 -->
      <g transform="translate(97.749207 141.487919)scale(0.1 -0.1)">
       <defs>
        <path d="M 2597 2516 
Q 3050 2419 3304 2112 
Q 3559 1806 3559 1356 
Q 3559 666 3084 287 
Q 2609 -91 1734 -91 
Q 1441 -91 1130 -33 
Q 819 25 488 141 
L 488 750 
Q 750 597 1062 519 
Q 1375 441 1716 441 
Q 2309 441 2620 675 
Q 2931 909 2931 1356 
Q 2931 1769 2642 2001 
Q 2353 2234 1838 2234 
L 1294 2234 
L 1294 2753 
L 1863 2753 
Q 2328 2753 2575 2939 
Q 2822 3125 2822 3475 
Q 2822 3834 2567 4026 
Q 2313 4219 1838 4219 
Q 1578 4219 1281 4162 
Q 984 4106 628 3988 
L 628 4550 
Q 988 4650 1302 4700 
Q 1616 4750 1894 4750 
Q 2613 4750 3031 4423 
Q 3450 4097 3450 3541 
Q 3450 3153 3228 2886 
Q 3006 2619 2597 2516 
z
" id="DejaVuSans-33" transform="scale(0.015625)"/>
       </defs>
       <use xlink:href="#DejaVuSans-33"/>
       <use x="63.623047" xlink:href="#DejaVuSans-30"/>
      </g>
     </g>
    </g>
    <g id="ytick_5">
     <g id="line2d_13">
      <path clip-path="url(#p72601b5ab5)" d="M 117.474207 88.5221 
L 134.343296 88.5221 
" style="fill:none;stroke:#b0b0b0;stroke-linecap:square;stroke-width:0.8;"/>
     </g>
     <g id="line2d_14">
      <g>
       <use style="stroke:#000000;stroke-width:0.8;" x="117.474207" xlink:href="#mc01222b2ad" y="88.5221"/>
      </g>
     </g>
     <g id="text_8">
      <!-- 40 -->
      <g transform="translate(97.749207 92.321319)scale(0.1 -0.1)">
       <defs>
        <path d="M 2419 4116 
L 825 1625 
L 2419 1625 
L 2419 4116 
z
M 2253 4666 
L 3047 4666 
L 3047 1625 
L 3713 1625 
L 3713 1100 
L 3047 1100 
L 3047 0 
L 2419 0 
L 2419 1100 
L 313 1100 
L 313 1709 
L 2253 4666 
z
" id="DejaVuSans-34" transform="scale(0.015625)"/>
       </defs>
       <use xlink:href="#DejaVuSans-34"/>
       <use x="63.623047" xlink:href="#DejaVuSans-30"/>
      </g>
     </g>
    </g>
    <g id="ytick_6">
     <g id="line2d_15">
      <path clip-path="url(#p72601b5ab5)" d="M 117.474207 39.3555 
L 134.343296 39.3555 
" style="fill:none;stroke:#b0b0b0;stroke-linecap:square;stroke-width:0.8;"/>
     </g>
     <g id="line2d_16">
      <g>
       <use style="stroke:#000000;stroke-width:0.8;" x="117.474207" xlink:href="#mc01222b2ad" y="39.3555"/>
      </g>
     </g>
     <g id="text_9">
      <!-- 50 -->
      <g transform="translate(97.749207 43.154719)scale(0.1 -0.1)">
       <use xlink:href="#DejaVuSans-35"/>
       <use x="63.623047" xlink:href="#DejaVuSans-30"/>
      </g>
     </g>
    </g>
    <g id="text_10">
     <!-- x [m] -->
     <g transform="translate(91.66952 185.219937)rotate(-90)scale(0.1 -0.1)">
      <defs>
       <path d="M 3513 3500 
L 2247 1797 
L 3578 0 
L 2900 0 
L 1881 1375 
L 863 0 
L 184 0 
L 1544 1831 
L 300 3500 
L 978 3500 
L 1906 2253 
L 2834 3500 
L 3513 3500 
z
" id="DejaVuSans-78" transform="scale(0.015625)"/>
      </defs>
      <use xlink:href="#DejaVuSans-78"/>
      <use x="59.179688" xlink:href="#DejaVuSans-20"/>
      <use x="90.966797" xlink:href="#DejaVuSans-5b"/>
      <use x="129.980469" xlink:href="#DejaVuSans-6d"/>
      <use x="227.392578" xlink:href="#DejaVuSans-5d"/>
     </g>
    </g>
   </g>
   <g id="line2d_17">
    <path clip-path="url(#p72601b5ab5)" d="M 121.361137 285.188501 
L 121.250597 261.981214 
L 121.141053 256.699643 
L 121.294285 253.150547 
L 121.654855 249.916106 
L 122.229872 246.765654 
L 123.051041 243.522074 
L 124.189556 239.961663 
L 125.892746 235.422535 
L 129.762511 225.295187 
L 131.019864 221.252556 
L 131.944961 217.535353 
L 132.6104 213.946045 
L 133.117747 209.913125 
L 133.533816 205.426811 
L 133.558946 202.609905 
L 133.360072 199.904821 
L 132.941114 197.229647 
L 132.284828 194.488657 
L 131.389113 191.712985 
L 130.200611 188.775373 
L 128.582158 185.392571 
L 125.621741 179.823151 
L 123.083727 174.846323 
L 121.541552 171.333965 
L 120.3812 168.146853 
L 119.499184 165.078861 
L 118.861743 162.058747 
L 118.450701 159.034935 
L 118.257395 155.952185 
L 118.281835 152.779041 
L 118.532324 149.404212 
L 119.037769 145.664008 
L 119.896467 141.062213 
L 122.776933 126.525513 
L 123.315696 122.127644 
L 123.613602 117.857674 
L 123.692373 113.502379 
L 123.550353 108.816517 
L 123.154901 103.394641 
L 122.342324 95.657394 
L 121.111141 83.788112 
L 120.664017 77.150103 
L 120.459745 70.783449 
L 120.469777 64.02004 
L 120.716897 55.765973 
L 121.729369 27.98272 
L 121.754712 17.706518 
L 121.541697 3.565635 
L 121.453546 -1 
L 121.453546 -1 
" style="fill:none;stroke:#0000ff;stroke-linecap:square;stroke-width:1.5;"/>
   </g>
   <g id="line2d_18">
    <path clip-path="url(#p72601b5ab5)" d="M 121.361137 285.188501 
L 121.25107 262.204695 
L 121.14234 257.408184 
L 121.29817 254.150957 
L 121.665214 251.107195 
L 122.255218 248.089285 
L 123.098241 244.958619 
L 124.276765 241.46791 
L 126.134248 236.730952 
L 129.217482 228.872176 
L 130.512782 224.90661 
L 131.459422 221.296218 
L 132.142613 217.81981 
L 132.604358 214.314221 
L 132.877149 210.469758 
L 133.093188 205.250313 
L 132.953634 202.528377 
L 132.597116 199.921183 
L 132.010345 197.289618 
L 131.180964 194.602863 
L 130.085339 191.81857 
L 128.583632 188.6357 
L 125.981619 183.729116 
L 123.400263 178.700399 
L 121.934694 175.35572 
L 120.834475 172.29754 
L 120.006607 169.342472 
L 119.415401 166.406002 
L 119.046903 163.443719 
L 118.894348 160.40762 
L 118.958776 157.223531 
L 119.254443 153.768578 
L 119.831088 149.732939 
L 120.978053 143.517884 
L 122.206206 136.516222 
L 122.774753 131.953024 
L 123.085533 127.660867 
L 123.178096 123.264223 
L 123.051241 118.473271 
L 122.663066 112.664302 
L 120.873712 89.586475 
L 120.733393 82.832809 
L 120.805859 75.203143 
L 121.178921 63.227853 
L 121.555599 49.064952 
L 121.614915 37.895716 
L 121.444503 21.730995 
L 121.268437 0.187971 
L 121.267382 -1 
L 121.267382 -1 
" style="fill:none;stroke:#ffa500;stroke-linecap:square;stroke-width:1.5;"/>
   </g>
   <g id="line2d_19">
    <path clip-path="url(#p72601b5ab5)" d="M 121.361137 285.188501 
L 121.250915 262.470854 
L 121.145309 258.252768 
L 121.312248 255.523496 
L 121.70185 252.806749 
L 122.331842 249.99193 
L 123.251847 246.922042 
L 124.586467 243.279597 
L 129.865503 229.541544 
L 130.819711 226.058445 
L 131.514304 222.682254 
L 131.986435 219.278266 
L 132.252611 215.726585 
L 132.314442 211.864468 
L 132.115313 203.72035 
L 131.70937 201.334667 
L 131.079394 198.962917 
L 130.20045 196.529383 
L 129.013767 193.913889 
L 127.263232 190.632997 
L 123.344422 183.424382 
L 122.069848 180.514853 
L 121.113779 177.780735 
L 120.408835 175.090592 
L 119.928403 172.377936 
L 119.661697 169.589635 
L 119.607651 166.668704 
L 119.775548 163.496723 
L 120.203075 159.797848 
L 121.130995 154.020943 
L 122.053388 147.835175 
L 122.459249 143.564413 
L 122.630603 139.388571 
L 122.589187 134.837281 
L 122.301402 129.157373 
L 121.119095 109.475596 
L 121.025435 102.127206 
L 121.145586 92.529853 
L 121.474075 70.700635 
L 121.413298 54.088806 
L 121.331674 26.207973 
L 121.371786 -1 
L 121.371786 -1 
" style="fill:none;stroke:#ff0000;stroke-linecap:square;stroke-width:1.5;"/>
   </g>
   <g id="patch_3">
    <path d="M 117.474207 304.44375 
L 117.474207 39.3555 
" style="fill:none;stroke:#000000;stroke-linecap:square;stroke-linejoin:miter;stroke-width:0.8;"/>
   </g>
   <g id="patch_4">
    <path d="M 134.343296 304.44375 
L 134.343296 39.3555 
" style="fill:none;stroke:#000000;stroke-linecap:square;stroke-linejoin:miter;stroke-width:0.8;"/>
   </g>
   <g id="patch_5">
    <path d="M 117.474207 304.44375 
L 134.343296 304.44375 
" style="fill:none;stroke:#000000;stroke-linecap:square;stroke-linejoin:miter;stroke-width:0.8;"/>
   </g>
   <g id="patch_6">
    <path d="M 117.474207 39.3555 
L 134.343296 39.3555 
" style="fill:none;stroke:#000000;stroke-linecap:square;stroke-linejoin:miter;stroke-width:0.8;"/>
   </g>
  </g>
  <g id="axes_2">
   <g id="patch_7">
    <path d="M 219.782497 304.44375 
L 450 304.44375 
L 450 39.3555 
L 219.782497 39.3555 
z
" style="fill:#ffffff;"/>
   </g>
   <g id="matplotlib.axis_3">
    <g id="xtick_3">
     <g id="line2d_20">
      <path clip-path="url(#p9ff711cf03)" d="M 239.279035 304.44375 
L 239.279035 39.3555 
" style="fill:none;stroke:#b0b0b0;stroke-linecap:square;stroke-width:0.8;"/>
     </g>
     <g id="line2d_21">
      <g>
       <use style="stroke:#000000;stroke-width:0.8;" x="239.279035" xlink:href="#m084d8fbad2" y="304.44375"/>
      </g>
     </g>
     <g id="text_11">
      <!-- −0.5 -->
      <g transform="translate(227.137628 319.042187)scale(0.1 -0.1)">
       <defs>
        <path d="M 678 2272 
L 4684 2272 
L 4684 1741 
L 678 1741 
L 678 2272 
z
" id="DejaVuSans-2212" transform="scale(0.015625)"/>
       </defs>
       <use xlink:href="#DejaVuSans-2212"/>
       <use x="83.789062" xlink:href="#DejaVuSans-30"/>
       <use x="147.412109" xlink:href="#DejaVuSans-2e"/>
       <use x="179.199219" xlink:href="#DejaVuSans-35"/>
      </g>
     </g>
    </g>
    <g id="xtick_4">
     <g id="line2d_22">
      <path clip-path="url(#p9ff711cf03)" d="M 272.8286 304.44375 
L 272.8286 39.3555 
" style="fill:none;stroke:#b0b0b0;stroke-linecap:square;stroke-width:0.8;"/>
     </g>
     <g id="line2d_23">
      <g>
       <use style="stroke:#000000;stroke-width:0.8;" x="272.8286" xlink:href="#m084d8fbad2" y="304.44375"/>
      </g>
     </g>
     <g id="text_12">
      <!-- 0.0 -->
      <g transform="translate(264.877037 319.042187)scale(0.1 -0.1)">
       <use xlink:href="#DejaVuSans-30"/>
       <use x="63.623047" xlink:href="#DejaVuSans-2e"/>
       <use x="95.410156" xlink:href="#DejaVuSans-30"/>
      </g>
     </g>
    </g>
    <g id="xtick_5">
     <g id="line2d_24">
      <path clip-path="url(#p9ff711cf03)" d="M 306.378165 304.44375 
L 306.378165 39.3555 
" style="fill:none;stroke:#b0b0b0;stroke-linecap:square;stroke-width:0.8;"/>
     </g>
     <g id="line2d_25">
      <g>
       <use style="stroke:#000000;stroke-width:0.8;" x="306.378165" xlink:href="#m084d8fbad2" y="304.44375"/>
      </g>
     </g>
     <g id="text_13">
      <!-- 0.5 -->
      <g transform="translate(298.426602 319.042187)scale(0.1 -0.1)">
       <use xlink:href="#DejaVuSans-30"/>
       <use x="63.623047" xlink:href="#DejaVuSans-2e"/>
       <use x="95.410156" xlink:href="#DejaVuSans-35"/>
      </g>
     </g>
    </g>
    <g id="xtick_6">
     <g id="line2d_26">
      <path clip-path="url(#p9ff711cf03)" d="M 339.92773 304.44375 
L 339.92773 39.3555 
" style="fill:none;stroke:#b0b0b0;stroke-linecap:square;stroke-width:0.8;"/>
     </g>
     <g id="line2d_27">
      <g>
       <use style="stroke:#000000;stroke-width:0.8;" x="339.92773" xlink:href="#m084d8fbad2" y="304.44375"/>
      </g>
     </g>
     <g id="text_14">
      <!-- 1.0 -->
      <g transform="translate(331.976167 319.042187)scale(0.1 -0.1)">
       <use xlink:href="#DejaVuSans-31"/>
       <use x="63.623047" xlink:href="#DejaVuSans-2e"/>
       <use x="95.410156" xlink:href="#DejaVuSans-30"/>
      </g>
     </g>
    </g>
    <g id="xtick_7">
     <g id="line2d_28">
      <path clip-path="url(#p9ff711cf03)" d="M 373.477295 304.44375 
L 373.477295 39.3555 
" style="fill:none;stroke:#b0b0b0;stroke-linecap:square;stroke-width:0.8;"/>
     </g>
     <g id="line2d_29">
      <g>
       <use style="stroke:#000000;stroke-width:0.8;" x="373.477295" xlink:href="#m084d8fbad2" y="304.44375"/>
      </g>
     </g>
     <g id="text_15">
      <!-- 1.5 -->
      <g transform="translate(365.525732 319.042187)scale(0.1 -0.1)">
       <use xlink:href="#DejaVuSans-31"/>
       <use x="63.623047" xlink:href="#DejaVuSans-2e"/>
       <use x="95.410156" xlink:href="#DejaVuSans-35"/>
      </g>
     </g>
    </g>
    <g id="xtick_8">
     <g id="line2d_30">
      <path clip-path="url(#p9ff711cf03)" d="M 407.02686 304.44375 
L 407.02686 39.3555 
" style="fill:none;stroke:#b0b0b0;stroke-linecap:square;stroke-width:0.8;"/>
     </g>
     <g id="line2d_31">
      <g>
       <use style="stroke:#000000;stroke-width:0.8;" x="407.02686" xlink:href="#m084d8fbad2" y="304.44375"/>
      </g>
     </g>
     <g id="text_16">
      <!-- 2.0 -->
      <g transform="translate(399.075297 319.042187)scale(0.1 -0.1)">
       <use xlink:href="#DejaVuSans-32"/>
       <use x="63.623047" xlink:href="#DejaVuSans-2e"/>
       <use x="95.410156" xlink:href="#DejaVuSans-30"/>
      </g>
     </g>
    </g>
    <g id="xtick_9">
     <g id="line2d_32">
      <path clip-path="url(#p9ff711cf03)" d="M 440.576424 304.44375 
L 440.576424 39.3555 
" style="fill:none;stroke:#b0b0b0;stroke-linecap:square;stroke-width:0.8;"/>
     </g>
     <g id="line2d_33">
      <g>
       <use style="stroke:#000000;stroke-width:0.8;" x="440.576424" xlink:href="#m084d8fbad2" y="304.44375"/>
      </g>
     </g>
     <g id="text_17">
      <!-- 2.5 -->
      <g transform="translate(432.624862 319.042187)scale(0.1 -0.1)">
       <use xlink:href="#DejaVuSans-32"/>
       <use x="63.623047" xlink:href="#DejaVuSans-2e"/>
       <use x="95.410156" xlink:href="#DejaVuSans-35"/>
      </g>
     </g>
    </g>
    <g id="text_18">
     <!-- y [m] -->
     <g transform="translate(321.570936 332.720312)scale(0.1 -0.1)">
      <use xlink:href="#DejaVuSans-79"/>
      <use x="59.179688" xlink:href="#DejaVuSans-20"/>
      <use x="90.966797" xlink:href="#DejaVuSans-5b"/>
      <use x="129.980469" xlink:href="#DejaVuSans-6d"/>
      <use x="227.392578" xlink:href="#DejaVuSans-5d"/>
     </g>
    </g>
   </g>
   <g id="matplotlib.axis_4">
    <g id="ytick_7">
     <g id="line2d_34">
      <path clip-path="url(#p9ff711cf03)" d="M 219.782497 285.188501 
L 450 285.188501 
" style="fill:none;stroke:#b0b0b0;stroke-linecap:square;stroke-width:0.8;"/>
     </g>
     <g id="line2d_35">
      <g>
       <use style="stroke:#000000;stroke-width:0.8;" x="219.782497" xlink:href="#mc01222b2ad" y="285.188501"/>
      </g>
     </g>
     <g id="text_19">
      <!-- 0 -->
      <g transform="translate(206.419997 288.987719)scale(0.1 -0.1)">
       <use xlink:href="#DejaVuSans-30"/>
      </g>
     </g>
    </g>
    <g id="ytick_8">
     <g id="line2d_36">
      <path clip-path="url(#p9ff711cf03)" d="M 219.782497 236.021901 
L 450 236.021901 
" style="fill:none;stroke:#b0b0b0;stroke-linecap:square;stroke-width:0.8;"/>
     </g>
     <g id="line2d_37">
      <g>
       <use style="stroke:#000000;stroke-width:0.8;" x="219.782497" xlink:href="#mc01222b2ad" y="236.021901"/>
      </g>
     </g>
     <g id="text_20">
      <!-- 10 -->
      <g transform="translate(200.057497 239.821119)scale(0.1 -0.1)">
       <use xlink:href="#DejaVuSans-31"/>
       <use x="63.623047" xlink:href="#DejaVuSans-30"/>
      </g>
     </g>
    </g>
    <g id="ytick_9">
     <g id="line2d_38">
      <path clip-path="url(#p9ff711cf03)" d="M 219.782497 186.8553 
L 450 186.8553 
" style="fill:none;stroke:#b0b0b0;stroke-linecap:square;stroke-width:0.8;"/>
     </g>
     <g id="line2d_39">
      <g>
       <use style="stroke:#000000;stroke-width:0.8;" x="219.782497" xlink:href="#mc01222b2ad" y="186.8553"/>
      </g>
     </g>
     <g id="text_21">
      <!-- 20 -->
      <g transform="translate(200.057497 190.654519)scale(0.1 -0.1)">
       <use xlink:href="#DejaVuSans-32"/>
       <use x="63.623047" xlink:href="#DejaVuSans-30"/>
      </g>
     </g>
    </g>
    <g id="ytick_10">
     <g id="line2d_40">
      <path clip-path="url(#p9ff711cf03)" d="M 219.782497 137.6887 
L 450 137.6887 
" style="fill:none;stroke:#b0b0b0;stroke-linecap:square;stroke-width:0.8;"/>
     </g>
     <g id="line2d_41">
      <g>
       <use style="stroke:#000000;stroke-width:0.8;" x="219.782497" xlink:href="#mc01222b2ad" y="137.6887"/>
      </g>
     </g>
     <g id="text_22">
      <!-- 30 -->
      <g transform="translate(200.057497 141.487919)scale(0.1 -0.1)">
       <use xlink:href="#DejaVuSans-33"/>
       <use x="63.623047" xlink:href="#DejaVuSans-30"/>
      </g>
     </g>
    </g>
    <g id="ytick_11">
     <g id="line2d_42">
      <path clip-path="url(#p9ff711cf03)" d="M 219.782497 88.5221 
L 450 88.5221 
" style="fill:none;stroke:#b0b0b0;stroke-linecap:square;stroke-width:0.8;"/>
     </g>
     <g id="line2d_43">
      <g>
       <use style="stroke:#000000;stroke-width:0.8;" x="219.782497" xlink:href="#mc01222b2ad" y="88.5221"/>
      </g>
     </g>
     <g id="text_23">
      <!-- 40 -->
      <g transform="translate(200.057497 92.321319)scale(0.1 -0.1)">
       <use xlink:href="#DejaVuSans-34"/>
       <use x="63.623047" xlink:href="#DejaVuSans-30"/>
      </g>
     </g>
    </g>
    <g id="ytick_12">
     <g id="line2d_44">
      <path clip-path="url(#p9ff711cf03)" d="M 219.782497 39.3555 
L 450 39.3555 
" style="fill:none;stroke:#b0b0b0;stroke-linecap:square;stroke-width:0.8;"/>
     </g>
     <g id="line2d_45">
      <g>
       <use style="stroke:#000000;stroke-width:0.8;" x="219.782497" xlink:href="#mc01222b2ad" y="39.3555"/>
      </g>
     </g>
     <g id="text_24">
      <!-- 50 -->
      <g transform="translate(200.057497 43.154719)scale(0.1 -0.1)">
       <use xlink:href="#DejaVuSans-35"/>
       <use x="63.623047" xlink:href="#DejaVuSans-30"/>
      </g>
     </g>
    </g>
    <g id="text_25">
     <!-- x [m] -->
     <g transform="translate(193.97781 185.219937)rotate(-90)scale(0.1 -0.1)">
      <use xlink:href="#DejaVuSans-78"/>
      <use x="59.179688" xlink:href="#DejaVuSans-20"/>
      <use x="90.966797" xlink:href="#DejaVuSans-5b"/>
      <use x="129.980469" xlink:href="#DejaVuSans-6d"/>
      <use x="227.392578" xlink:href="#DejaVuSans-5d"/>
     </g>
    </g>
   </g>
   <g id="line2d_46">
    <path clip-path="url(#p9ff711cf03)" d="M 272.8286 285.188501 
L 272.723813 264.783115 
L 272.361168 263.848335 
L 271.377737 262.082133 
L 270.356558 260.082963 
L 269.911517 258.731112 
L 269.764728 257.601826 
L 269.847781 256.570524 
L 270.155663 255.561798 
L 270.69224 254.577031 
L 271.503512 253.565527 
L 272.625294 252.528268 
L 274.172627 251.414474 
L 276.181639 250.251431 
L 278.827644 248.989483 
L 282.153504 247.657284 
L 286.391913 246.207553 
L 291.664924 244.645424 
L 298.271804 242.926624 
L 306.663478 240.984158 
L 317.450222 238.728287 
L 332.371208 235.852042 
L 382.006936 226.450901 
L 393.633048 223.932987 
L 402.789176 221.731392 
L 410.192316 219.732697 
L 416.268563 217.86882 
L 421.152722 216.145742 
L 425.056222 214.542539 
L 428.159574 213.036824 
L 430.569064 211.631144 
L 437.386672 207.090265 
L 438.506393 206.009194 
L 439.159949 205.08208 
L 439.473461 204.258734 
L 439.528651 203.514164 
L 439.361004 202.769448 
L 438.948927 201.998591 
L 438.265031 201.202165 
L 437.208586 200.327859 
L 435.693169 199.377021 
L 433.571564 198.325638 
L 430.72319 197.177701 
L 427.032476 195.938678 
L 422.292373 194.589608 
L 416.353569 193.138079 
L 408.954288 191.567058 
L 399.688266 189.837284 
L 387.986067 187.889257 
L 372.789357 185.596625 
L 350.574496 182.491824 
L 305.452139 176.221084 
L 288.880528 173.666013 
L 275.95924 171.455553 
L 265.616315 169.467696 
L 257.265093 167.64454 
L 250.50002 165.947589 
L 245.144985 164.385788 
L 240.86678 162.914617 
L 237.592422 161.564861 
L 235.109193 160.314329 
L 233.252106 159.139442 
L 231.954073 158.068004 
L 231.081841 157.074974 
L 230.543561 156.134863 
L 230.286609 155.248058 
L 230.264553 154.388729 
L 230.468866 153.505138 
L 230.911319 152.597756 
L 231.647055 151.615422 
L 232.723895 150.559105 
L 234.259828 149.378601 
L 236.336224 148.075596 
L 239.1273 146.600968 
L 242.787275 144.931493 
L 247.659123 142.968164 
L 254.327957 140.536308 
L 266.082651 136.52922 
L 278.043863 132.372697 
L 284.692266 129.831473 
L 289.714085 127.682215 
L 293.617614 125.77825 
L 296.68006 124.046833 
L 299.086326 122.439283 
L 300.950668 120.931773 
L 302.34447 119.525864 
L 303.357357 118.196643 
L 304.05541 116.918802 
L 304.476339 115.692874 
L 304.658797 114.493152 
L 304.618678 113.26778 
L 304.351287 112.017043 
L 303.841942 110.715169 
L 303.060937 109.336437 
L 301.94382 107.829217 
L 300.423691 106.167991 
L 298.428352 104.327232 
L 295.786531 102.203597 
L 292.191072 99.615941 
L 286.738043 95.993851 
L 276.274112 89.07236 
L 272.276667 86.133443 
L 269.237895 83.631616 
L 266.849072 81.386709 
L 264.939872 79.295679 
L 263.440105 77.333339 
L 262.272053 75.448055 
L 261.393382 73.614136 
L 260.772521 71.805759 
L 260.392678 70.023217 
L 260.233103 68.214307 
L 260.293089 66.352993 
L 260.579789 64.413209 
L 261.114266 62.342654 
L 261.930802 60.089009 
L 263.096117 57.547501 
L 264.73304 54.534641 
L 267.273335 50.368697 
L 272.415385 42.00518 
L 274.265574 38.515094 
L 275.647553 35.443361 
L 276.694834 32.580573 
L 277.468773 29.822056 
L 277.999413 27.115536 
L 278.309595 24.382378 
L 278.40431 21.570164 
L 278.278744 18.600156 
L 277.916853 15.393573 
L 277.278344 11.766454 
L 276.249912 7.271891 
L 274.089727 -1 
L 274.089727 -1 
" style="fill:none;stroke:#0000ff;stroke-linecap:square;stroke-width:1.5;"/>
   </g>
   <g id="line2d_47">
    <path clip-path="url(#p9ff711cf03)" d="M 272.8286 285.188501 
L 272.718155 264.816973 
L 272.347609 263.911887 
L 271.415108 262.346718 
L 270.327437 260.402511 
L 269.907719 259.209517 
L 269.775461 258.178237 
L 269.87785 257.239505 
L 270.205932 256.322838 
L 270.776153 255.405399 
L 271.650633 254.440207 
L 272.881438 253.428777 
L 274.563113 252.348814 
L 276.774679 251.202429 
L 279.653948 249.96842 
L 283.371047 248.626905 
L 288.12379 247.159751 
L 294.128739 245.550556 
L 301.706127 243.761426 
L 311.406992 241.710983 
L 324.496449 239.186949 
L 347.515251 235.017131 
L 370.351139 230.799927 
L 383.577909 228.135501 
L 393.782045 225.861141 
L 401.902433 223.832535 
L 408.485954 221.967739 
L 413.839294 220.2273 
L 418.103472 218.61639 
L 421.527386 217.092186 
L 424.174361 215.680984 
L 426.235928 214.337801 
L 427.763974 213.087596 
L 428.871056 211.907737 
L 432.593967 207.086543 
L 432.907703 206.181518 
L 432.955503 205.393673 
L 432.776334 204.628919 
L 432.359809 203.86426 
L 431.672188 203.076561 
L 430.616647 202.218898 
L 429.109317 201.292329 
L 427.00894 200.274827 
L 424.197648 199.169575 
L 420.488452 197.958447 
L 415.658835 196.626092 
L 409.546078 195.181678 
L 401.996715 193.633732 
L 392.520336 191.925383 
L 380.308544 189.961929 
L 363.927403 187.569402 
L 333.943767 183.464575 
L 308.474456 179.879352 
L 292.858742 177.463315 
L 280.77582 175.377698 
L 271.108098 173.491445 
L 263.317937 171.752744 
L 257.113895 170.150355 
L 252.148719 168.646932 
L 248.270749 167.248676 
L 245.321493 165.960375 
L 243.106328 164.76196 
L 241.504628 163.655666 
L 240.381742 162.619405 
L 239.656272 161.654068 
L 239.253116 160.760164 
L 239.101984 159.890952 
L 239.180924 159.023249 
L 239.492081 158.133973 
L 240.059959 157.200218 
L 240.953711 156.176088 
L 242.25837 155.039462 
L 244.0417 153.791639 
L 246.487238 152.3649 
L 249.734799 150.738028 
L 254.177334 148.77527 
L 260.648964 146.18084 
L 279.380283 138.802 
L 284.172368 136.608842 
L 287.817556 134.705822 
L 290.654036 132.981249 
L 292.819595 131.414822 
L 294.491287 129.938476 
L 295.730714 128.553623 
L 296.615585 127.237823 
L 297.20396 125.968288 
L 297.531157 124.745514 
L 297.631937 123.52283 
L 297.512318 122.277007 
L 297.164306 120.984803 
L 296.555234 119.599521 
L 295.642733 118.098009 
L 294.377837 116.457129 
L 292.640145 114.583447 
L 290.305541 112.406932 
L 286.970949 109.623183 
L 273.499009 98.679168 
L 271.00677 96.209799 
L 269.055866 93.972742 
L 267.533205 91.898422 
L 266.34815 89.916856 
L 265.458085 88.004976 
L 264.820688 86.115958 
L 264.416588 84.226472 
L 264.233554 82.313119 
L 264.267295 80.328828 
L 264.527921 78.226486 
L 265.04203 75.93533 
L 265.856284 73.360933 
L 267.072301 70.29067 
L 269.078216 65.897448 
L 272.489899 58.430318 
L 273.877002 54.812837 
L 274.867973 51.619889 
L 275.578188 48.591769 
L 276.05061 45.610455 
L 276.305125 42.581486 
L 276.345914 39.410334 
L 276.163507 35.978758 
L 275.72464 32.050132 
L 274.919365 26.985389 
L 272.442019 12.238711 
L 271.911957 7.243402 
L 271.623508 2.413548 
L 271.549095 -1 
L 271.549095 -1 
" style="fill:none;stroke:#ffa500;stroke-linecap:square;stroke-width:1.5;"/>
   </g>
   <g id="line2d_48">
    <path clip-path="url(#p9ff711cf03)" d="M 272.8286 285.188501 
L 272.720297 264.935347 
L 272.341773 264.041902 
L 271.518373 262.749177 
L 270.211984 260.677184 
L 269.851897 259.671332 
L 269.783709 258.83384 
L 269.945022 258.05893 
L 270.34248 257.283418 
L 271.0061 256.487426 
L 272.043424 255.608919 
L 273.538231 254.651582 
L 275.617729 253.598652 
L 278.385877 252.454846 
L 282.06816 251.183752 
L 286.87329 249.77163 
L 293.093939 248.187241 
L 301.041687 246.401884 
L 311.502389 244.292105 
L 326.407072 241.532496 
L 370.553739 233.487815 
L 382.151047 231.080611 
L 391.174184 228.987475 
L 398.344389 227.103607 
L 404.133343 225.359127 
L 408.758714 223.739995 
L 412.422962 222.230878 
L 415.30259 220.815213 
L 417.544072 219.475447 
L 419.240474 218.213039 
L 420.497552 217.009244 
L 421.381016 215.864696 
L 421.959825 214.760058 
L 422.28069 213.675868 
L 422.371624 212.592608 
L 422.240782 211.471093 
L 422.180737 210.684848 
L 422.342347 209.581011 
L 422.607482 207.76583 
L 422.501418 206.875628 
L 422.18332 206.08256 
L 421.625283 205.308279 
L 420.766063 204.513948 
L 419.526975 203.680706 
L 417.757139 202.770336 
L 415.338125 201.785399 
L 412.027669 200.691341 
L 407.658251 199.496067 
L 402.07934 198.209098 
L 394.965334 196.802907 
L 385.834084 195.234163 
L 373.932444 193.427699 
L 357.490439 191.17309 
L 301.529365 183.671979 
L 289.186907 181.703397 
L 279.492128 179.941518 
L 271.72727 178.311457 
L 265.604944 176.807275 
L 260.780142 175.400662 
L 257.076745 174.098764 
L 254.273429 172.887321 
L 252.222071 171.769858 
L 250.759096 170.729083 
L 249.778079 169.766425 
L 249.181909 168.882717 
L 248.875169 168.03914 
L 248.813699 167.216386 
L 248.976927 166.395138 
L 249.376407 165.536659 
L 250.062387 164.602545 
L 251.122305 163.55483 
L 252.650728 162.37534 
L 254.781387 161.026789 
L 257.735682 159.433622 
L 261.999131 157.405215 
L 270.776797 153.542127 
L 276.989775 150.679133 
L 280.842616 148.669186 
L 283.691782 146.941135 
L 285.81808 145.401676 
L 287.420255 143.975298 
L 288.589918 142.644084 
L 289.40629 141.389612 
L 289.939554 140.173445 
L 290.226054 138.976479 
L 290.287867 137.75984 
L 290.125553 136.5042 
L 289.722978 135.170586 
L 289.04472 133.720038 
L 288.027937 132.094009 
L 286.577877 130.214344 
L 284.483544 127.885251 
L 280.847356 124.224873 
L 276.23967 119.521321 
L 273.902603 116.812383 
L 272.1719 114.473785 
L 270.843677 112.310154 
L 269.843173 110.263177 
L 269.105748 108.254595 
L 268.603672 106.245339 
L 268.320168 104.196248 
L 268.248289 102.048382 
L 268.39685 99.723036 
L 268.791039 97.121738 
L 269.504199 93.968558 
L 270.851417 89.159446 
L 272.664314 82.554872 
L 273.490371 78.669824 
L 274.023606 75.099706 
L 274.328878 71.548918 
L 274.425168 67.800614 
L 274.304347 63.558949 
L 273.911147 58.113683 
L 272.572265 41.520168 
L 272.378587 35.186189 
L 272.393132 28.082553 
L 272.678718 16.637698 
L 272.950765 2.962922 
L 272.973922 -1 
L 272.973922 -1 
" style="fill:none;stroke:#ff0000;stroke-linecap:square;stroke-width:1.5;"/>
   </g>
   <g id="patch_8">
    <path d="M 219.782497 304.44375 
L 219.782497 39.3555 
" style="fill:none;stroke:#000000;stroke-linecap:square;stroke-linejoin:miter;stroke-width:0.8;"/>
   </g>
   <g id="patch_9">
    <path d="M 450 304.44375 
L 450 39.3555 
" style="fill:none;stroke:#000000;stroke-linecap:square;stroke-linejoin:miter;stroke-width:0.8;"/>
   </g>
   <g id="patch_10">
    <path d="M 219.782497 304.44375 
L 450 304.44375 
" style="fill:none;stroke:#000000;stroke-linecap:square;stroke-linejoin:miter;stroke-width:0.8;"/>
   </g>
   <g id="patch_11">
    <path d="M 219.782497 39.3555 
L 450 39.3555 
" style="fill:none;stroke:#000000;stroke-linecap:square;stroke-linejoin:miter;stroke-width:0.8;"/>
   </g>
   <g id="text_26">
    <!-- Trajectoire en fonction de -->
    <g transform="translate(258.502811 19.918125)scale(0.12 -0.12)">
     <defs>
      <path d="M -19 4666 
L 3928 4666 
L 3928 4134 
L 2272 4134 
L 2272 0 
L 1638 0 
L 1638 4134 
L -19 4134 
L -19 4666 
z
" id="DejaVuSans-54" transform="scale(0.015625)"/>
      <path d="M 2631 2963 
Q 2534 3019 2420 3045 
Q 2306 3072 2169 3072 
Q 1681 3072 1420 2755 
Q 1159 2438 1159 1844 
L 1159 0 
L 581 0 
L 581 3500 
L 1159 3500 
L 1159 2956 
Q 1341 3275 1631 3429 
Q 1922 3584 2338 3584 
Q 2397 3584 2469 3576 
Q 2541 3569 2628 3553 
L 2631 2963 
z
" id="DejaVuSans-72" transform="scale(0.015625)"/>
      <path d="M 2194 1759 
Q 1497 1759 1228 1600 
Q 959 1441 959 1056 
Q 959 750 1161 570 
Q 1363 391 1709 391 
Q 2188 391 2477 730 
Q 2766 1069 2766 1631 
L 2766 1759 
L 2194 1759 
z
M 3341 1997 
L 3341 0 
L 2766 0 
L 2766 531 
Q 2569 213 2275 61 
Q 1981 -91 1556 -91 
Q 1019 -91 701 211 
Q 384 513 384 1019 
Q 384 1609 779 1909 
Q 1175 2209 1959 2209 
L 2766 2209 
L 2766 2266 
Q 2766 2663 2505 2880 
Q 2244 3097 1772 3097 
Q 1472 3097 1187 3025 
Q 903 2953 641 2809 
L 641 3341 
Q 956 3463 1253 3523 
Q 1550 3584 1831 3584 
Q 2591 3584 2966 3190 
Q 3341 2797 3341 1997 
z
" id="DejaVuSans-61" transform="scale(0.015625)"/>
      <path d="M 603 3500 
L 1178 3500 
L 1178 -63 
Q 1178 -731 923 -1031 
Q 669 -1331 103 -1331 
L -116 -1331 
L -116 -844 
L 38 -844 
Q 366 -844 484 -692 
Q 603 -541 603 -63 
L 603 3500 
z
M 603 4863 
L 1178 4863 
L 1178 4134 
L 603 4134 
L 603 4863 
z
" id="DejaVuSans-6a" transform="scale(0.015625)"/>
      <path d="M 3597 1894 
L 3597 1613 
L 953 1613 
Q 991 1019 1311 708 
Q 1631 397 2203 397 
Q 2534 397 2845 478 
Q 3156 559 3463 722 
L 3463 178 
Q 3153 47 2828 -22 
Q 2503 -91 2169 -91 
Q 1331 -91 842 396 
Q 353 884 353 1716 
Q 353 2575 817 3079 
Q 1281 3584 2069 3584 
Q 2775 3584 3186 3129 
Q 3597 2675 3597 1894 
z
M 3022 2063 
Q 3016 2534 2758 2815 
Q 2500 3097 2075 3097 
Q 1594 3097 1305 2825 
Q 1016 2553 972 2059 
L 3022 2063 
z
" id="DejaVuSans-65" transform="scale(0.015625)"/>
      <path d="M 3122 3366 
L 3122 2828 
Q 2878 2963 2633 3030 
Q 2388 3097 2138 3097 
Q 1578 3097 1268 2742 
Q 959 2388 959 1747 
Q 959 1106 1268 751 
Q 1578 397 2138 397 
Q 2388 397 2633 464 
Q 2878 531 3122 666 
L 3122 134 
Q 2881 22 2623 -34 
Q 2366 -91 2075 -91 
Q 1284 -91 818 406 
Q 353 903 353 1747 
Q 353 2603 823 3093 
Q 1294 3584 2113 3584 
Q 2378 3584 2631 3529 
Q 2884 3475 3122 3366 
z
" id="DejaVuSans-63" transform="scale(0.015625)"/>
      <path d="M 1172 4494 
L 1172 3500 
L 2356 3500 
L 2356 3053 
L 1172 3053 
L 1172 1153 
Q 1172 725 1289 603 
Q 1406 481 1766 481 
L 2356 481 
L 2356 0 
L 1766 0 
Q 1100 0 847 248 
Q 594 497 594 1153 
L 594 3053 
L 172 3053 
L 172 3500 
L 594 3500 
L 594 4494 
L 1172 4494 
z
" id="DejaVuSans-74" transform="scale(0.015625)"/>
      <path d="M 1959 3097 
Q 1497 3097 1228 2736 
Q 959 2375 959 1747 
Q 959 1119 1226 758 
Q 1494 397 1959 397 
Q 2419 397 2687 759 
Q 2956 1122 2956 1747 
Q 2956 2369 2687 2733 
Q 2419 3097 1959 3097 
z
M 1959 3584 
Q 2709 3584 3137 3096 
Q 3566 2609 3566 1747 
Q 3566 888 3137 398 
Q 2709 -91 1959 -91 
Q 1206 -91 779 398 
Q 353 888 353 1747 
Q 353 2609 779 3096 
Q 1206 3584 1959 3584 
z
" id="DejaVuSans-6f" transform="scale(0.015625)"/>
      <path d="M 603 3500 
L 1178 3500 
L 1178 0 
L 603 0 
L 603 3500 
z
M 603 4863 
L 1178 4863 
L 1178 4134 
L 603 4134 
L 603 4863 
z
" id="DejaVuSans-69" transform="scale(0.015625)"/>
      <path d="M 3513 2113 
L 3513 0 
L 2938 0 
L 2938 2094 
Q 2938 2591 2744 2837 
Q 2550 3084 2163 3084 
Q 1697 3084 1428 2787 
Q 1159 2491 1159 1978 
L 1159 0 
L 581 0 
L 581 3500 
L 1159 3500 
L 1159 2956 
Q 1366 3272 1645 3428 
Q 1925 3584 2291 3584 
Q 2894 3584 3203 3211 
Q 3513 2838 3513 2113 
z
" id="DejaVuSans-6e" transform="scale(0.015625)"/>
      <path d="M 2375 4863 
L 2375 4384 
L 1825 4384 
Q 1516 4384 1395 4259 
Q 1275 4134 1275 3809 
L 1275 3500 
L 2222 3500 
L 2222 3053 
L 1275 3053 
L 1275 0 
L 697 0 
L 697 3053 
L 147 3053 
L 147 3500 
L 697 3500 
L 697 3744 
Q 697 4328 969 4595 
Q 1241 4863 1831 4863 
L 2375 4863 
z
" id="DejaVuSans-66" transform="scale(0.015625)"/>
      <path d="M 2906 2969 
L 2906 4863 
L 3481 4863 
L 3481 0 
L 2906 0 
L 2906 525 
Q 2725 213 2448 61 
Q 2172 -91 1784 -91 
Q 1150 -91 751 415 
Q 353 922 353 1747 
Q 353 2572 751 3078 
Q 1150 3584 1784 3584 
Q 2172 3584 2448 3432 
Q 2725 3281 2906 2969 
z
M 947 1747 
Q 947 1113 1208 752 
Q 1469 391 1925 391 
Q 2381 391 2643 752 
Q 2906 1113 2906 1747 
Q 2906 2381 2643 2742 
Q 2381 3103 1925 3103 
Q 1469 3103 1208 2742 
Q 947 2381 947 1747 
z
" id="DejaVuSans-64" transform="scale(0.015625)"/>
     </defs>
     <use xlink:href="#DejaVuSans-54"/>
     <use x="46.333984" xlink:href="#DejaVuSans-72"/>
     <use x="87.447266" xlink:href="#DejaVuSans-61"/>
     <use x="148.726562" xlink:href="#DejaVuSans-6a"/>
     <use x="176.509766" xlink:href="#DejaVuSans-65"/>
     <use x="238.033203" xlink:href="#DejaVuSans-63"/>
     <use x="293.013672" xlink:href="#DejaVuSans-74"/>
     <use x="332.222656" xlink:href="#DejaVuSans-6f"/>
     <use x="393.404297" xlink:href="#DejaVuSans-69"/>
     <use x="421.1875" xlink:href="#DejaVuSans-72"/>
     <use x="460.050781" xlink:href="#DejaVuSans-65"/>
     <use x="521.574219" xlink:href="#DejaVuSans-20"/>
     <use x="553.361328" xlink:href="#DejaVuSans-65"/>
     <use x="614.884766" xlink:href="#DejaVuSans-6e"/>
     <use x="678.263672" xlink:href="#DejaVuSans-20"/>
     <use x="710.050781" xlink:href="#DejaVuSans-66"/>
     <use x="745.255859" xlink:href="#DejaVuSans-6f"/>
     <use x="806.4375" xlink:href="#DejaVuSans-6e"/>
     <use x="869.816406" xlink:href="#DejaVuSans-63"/>
     <use x="924.796875" xlink:href="#DejaVuSans-74"/>
     <use x="964.005859" xlink:href="#DejaVuSans-69"/>
     <use x="991.789062" xlink:href="#DejaVuSans-6f"/>
     <use x="1052.970703" xlink:href="#DejaVuSans-6e"/>
     <use x="1116.349609" xlink:href="#DejaVuSans-20"/>
     <use x="1148.136719" xlink:href="#DejaVuSans-64"/>
     <use x="1211.613281" xlink:href="#DejaVuSans-65"/>
    </g>
    <!--  la masse du chargement -->
    <g transform="translate(258.512186 33.3555)scale(0.12 -0.12)">
     <defs>
      <path d="M 603 4863 
L 1178 4863 
L 1178 0 
L 603 0 
L 603 4863 
z
" id="DejaVuSans-6c" transform="scale(0.015625)"/>
      <path d="M 2834 3397 
L 2834 2853 
Q 2591 2978 2328 3040 
Q 2066 3103 1784 3103 
Q 1356 3103 1142 2972 
Q 928 2841 928 2578 
Q 928 2378 1081 2264 
Q 1234 2150 1697 2047 
L 1894 2003 
Q 2506 1872 2764 1633 
Q 3022 1394 3022 966 
Q 3022 478 2636 193 
Q 2250 -91 1575 -91 
Q 1294 -91 989 -36 
Q 684 19 347 128 
L 347 722 
Q 666 556 975 473 
Q 1284 391 1588 391 
Q 1994 391 2212 530 
Q 2431 669 2431 922 
Q 2431 1156 2273 1281 
Q 2116 1406 1581 1522 
L 1381 1569 
Q 847 1681 609 1914 
Q 372 2147 372 2553 
Q 372 3047 722 3315 
Q 1072 3584 1716 3584 
Q 2034 3584 2315 3537 
Q 2597 3491 2834 3397 
z
" id="DejaVuSans-73" transform="scale(0.015625)"/>
      <path d="M 544 1381 
L 544 3500 
L 1119 3500 
L 1119 1403 
Q 1119 906 1312 657 
Q 1506 409 1894 409 
Q 2359 409 2629 706 
Q 2900 1003 2900 1516 
L 2900 3500 
L 3475 3500 
L 3475 0 
L 2900 0 
L 2900 538 
Q 2691 219 2414 64 
Q 2138 -91 1772 -91 
Q 1169 -91 856 284 
Q 544 659 544 1381 
z
M 1991 3584 
L 1991 3584 
z
" id="DejaVuSans-75" transform="scale(0.015625)"/>
      <path d="M 3513 2113 
L 3513 0 
L 2938 0 
L 2938 2094 
Q 2938 2591 2744 2837 
Q 2550 3084 2163 3084 
Q 1697 3084 1428 2787 
Q 1159 2491 1159 1978 
L 1159 0 
L 581 0 
L 581 4863 
L 1159 4863 
L 1159 2956 
Q 1366 3272 1645 3428 
Q 1925 3584 2291 3584 
Q 2894 3584 3203 3211 
Q 3513 2838 3513 2113 
z
" id="DejaVuSans-68" transform="scale(0.015625)"/>
      <path d="M 2906 1791 
Q 2906 2416 2648 2759 
Q 2391 3103 1925 3103 
Q 1463 3103 1205 2759 
Q 947 2416 947 1791 
Q 947 1169 1205 825 
Q 1463 481 1925 481 
Q 2391 481 2648 825 
Q 2906 1169 2906 1791 
z
M 3481 434 
Q 3481 -459 3084 -895 
Q 2688 -1331 1869 -1331 
Q 1566 -1331 1297 -1286 
Q 1028 -1241 775 -1147 
L 775 -588 
Q 1028 -725 1275 -790 
Q 1522 -856 1778 -856 
Q 2344 -856 2625 -561 
Q 2906 -266 2906 331 
L 2906 616 
Q 2728 306 2450 153 
Q 2172 0 1784 0 
Q 1141 0 747 490 
Q 353 981 353 1791 
Q 353 2603 747 3093 
Q 1141 3584 1784 3584 
Q 2172 3584 2450 3431 
Q 2728 3278 2906 2969 
L 2906 3500 
L 3481 3500 
L 3481 434 
z
" id="DejaVuSans-67" transform="scale(0.015625)"/>
     </defs>
     <use xlink:href="#DejaVuSans-20"/>
     <use x="31.787109" xlink:href="#DejaVuSans-6c"/>
     <use x="59.570312" xlink:href="#DejaVuSans-61"/>
     <use x="120.849609" xlink:href="#DejaVuSans-20"/>
     <use x="152.636719" xlink:href="#DejaVuSans-6d"/>
     <use x="250.048828" xlink:href="#DejaVuSans-61"/>
     <use x="311.328125" xlink:href="#DejaVuSans-73"/>
     <use x="363.427734" xlink:href="#DejaVuSans-73"/>
     <use x="415.527344" xlink:href="#DejaVuSans-65"/>
     <use x="477.050781" xlink:href="#DejaVuSans-20"/>
     <use x="508.837891" xlink:href="#DejaVuSans-64"/>
     <use x="572.314453" xlink:href="#DejaVuSans-75"/>
     <use x="635.693359" xlink:href="#DejaVuSans-20"/>
     <use x="667.480469" xlink:href="#DejaVuSans-63"/>
     <use x="722.460938" xlink:href="#DejaVuSans-68"/>
     <use x="785.839844" xlink:href="#DejaVuSans-61"/>
     <use x="847.119141" xlink:href="#DejaVuSans-72"/>
     <use x="886.482422" xlink:href="#DejaVuSans-67"/>
     <use x="949.958984" xlink:href="#DejaVuSans-65"/>
     <use x="1011.482422" xlink:href="#DejaVuSans-6d"/>
     <use x="1108.894531" xlink:href="#DejaVuSans-65"/>
     <use x="1170.417969" xlink:href="#DejaVuSans-6e"/>
     <use x="1233.796875" xlink:href="#DejaVuSans-74"/>
    </g>
   </g>
   <g id="legend_1">
    <g id="patch_12">
     <path d="M 382.957812 91.389875 
L 443 91.389875 
Q 445 91.389875 445 89.389875 
L 445 46.3555 
Q 445 44.3555 443 44.3555 
L 382.957812 44.3555 
Q 380.957812 44.3555 380.957812 46.3555 
L 380.957812 89.389875 
Q 380.957812 91.389875 382.957812 91.389875 
z
" style="fill:#ffffff;opacity:0.8;stroke:#cccccc;stroke-linejoin:miter;"/>
    </g>
    <g id="line2d_49">
     <path d="M 384.957812 52.453937 
L 404.957812 52.453937 
" style="fill:none;stroke:#0000ff;stroke-linecap:square;stroke-width:1.5;"/>
    </g>
    <g id="line2d_50"/>
    <g id="text_27">
     <!-- 20 kg -->
     <g transform="translate(412.957812 55.953937)scale(0.1 -0.1)">
      <defs>
       <path d="M 581 4863 
L 1159 4863 
L 1159 1991 
L 2875 3500 
L 3609 3500 
L 1753 1863 
L 3688 0 
L 2938 0 
L 1159 1709 
L 1159 0 
L 581 0 
L 581 4863 
z
" id="DejaVuSans-6b" transform="scale(0.015625)"/>
      </defs>
      <use xlink:href="#DejaVuSans-32"/>
      <use x="63.623047" xlink:href="#DejaVuSans-30"/>
      <use x="127.246094" xlink:href="#DejaVuSans-20"/>
      <use x="159.033203" xlink:href="#DejaVuSans-6b"/>
      <use x="216.943359" xlink:href="#DejaVuSans-67"/>
     </g>
    </g>
    <g id="line2d_51">
     <path d="M 384.957812 67.132062 
L 404.957812 67.132062 
" style="fill:none;stroke:#ffa500;stroke-linecap:square;stroke-width:1.5;"/>
    </g>
    <g id="line2d_52"/>
    <g id="text_28">
     <!-- 18 kg -->
     <g transform="translate(412.957812 70.632062)scale(0.1 -0.1)">
      <defs>
       <path d="M 2034 2216 
Q 1584 2216 1326 1975 
Q 1069 1734 1069 1313 
Q 1069 891 1326 650 
Q 1584 409 2034 409 
Q 2484 409 2743 651 
Q 3003 894 3003 1313 
Q 3003 1734 2745 1975 
Q 2488 2216 2034 2216 
z
M 1403 2484 
Q 997 2584 770 2862 
Q 544 3141 544 3541 
Q 544 4100 942 4425 
Q 1341 4750 2034 4750 
Q 2731 4750 3128 4425 
Q 3525 4100 3525 3541 
Q 3525 3141 3298 2862 
Q 3072 2584 2669 2484 
Q 3125 2378 3379 2068 
Q 3634 1759 3634 1313 
Q 3634 634 3220 271 
Q 2806 -91 2034 -91 
Q 1263 -91 848 271 
Q 434 634 434 1313 
Q 434 1759 690 2068 
Q 947 2378 1403 2484 
z
M 1172 3481 
Q 1172 3119 1398 2916 
Q 1625 2713 2034 2713 
Q 2441 2713 2670 2916 
Q 2900 3119 2900 3481 
Q 2900 3844 2670 4047 
Q 2441 4250 2034 4250 
Q 1625 4250 1398 4047 
Q 1172 3844 1172 3481 
z
" id="DejaVuSans-38" transform="scale(0.015625)"/>
      </defs>
      <use xlink:href="#DejaVuSans-31"/>
      <use x="63.623047" xlink:href="#DejaVuSans-38"/>
      <use x="127.246094" xlink:href="#DejaVuSans-20"/>
      <use x="159.033203" xlink:href="#DejaVuSans-6b"/>
      <use x="216.943359" xlink:href="#DejaVuSans-67"/>
     </g>
    </g>
    <g id="line2d_53">
     <path d="M 384.957812 81.810187 
L 404.957812 81.810187 
" style="fill:none;stroke:#ff0000;stroke-linecap:square;stroke-width:1.5;"/>
    </g>
    <g id="line2d_54"/>
    <g id="text_29">
     <!-- 15 kg -->
     <g transform="translate(412.957812 85.310187)scale(0.1 -0.1)">
      <use xlink:href="#DejaVuSans-31"/>
      <use x="63.623047" xlink:href="#DejaVuSans-35"/>
      <use x="127.246094" xlink:href="#DejaVuSans-20"/>
      <use x="159.033203" xlink:href="#DejaVuSans-6b"/>
      <use x="216.943359" xlink:href="#DejaVuSans-67"/>
     </g>
    </g>
   </g>
  </g>
 </g>
 <defs>
  <clipPath id="p72601b5ab5">
   <rect height="265.08825" width="16.869089" x="117.474207" y="39.3555"/>
  </clipPath>
  <clipPath id="p9ff711cf03">
   <rect height="265.08825" width="230.217503" x="219.782497" y="39.3555"/>
  </clipPath>
 </defs>
</svg>
