<?xml version="1.0" encoding="utf-8" standalone="no"?>
<!DOCTYPE svg PUBLIC "-//W3C//DTD SVG 1.1//EN"
  "http://www.w3.org/Graphics/SVG/1.1/DTD/svg11.dtd">
<svg height="345.6pt" version="1.1" viewBox="0 0 460.8 345.6" width="460.8pt" xmlns="http://www.w3.org/2000/svg" xmlns:xlink="http://www.w3.org/1999/xlink">
 <metadata>
  <rdf:RDF xmlns:cc="http://creativecommons.org/ns#" xmlns:dc="http://purl.org/dc/elements/1.1/" xmlns:rdf="http://www.w3.org/1999/02/22-rdf-syntax-ns#">
   <cc:Work>
    <dc:type rdf:resource="http://purl.org/dc/dcmitype/StillImage"/>
    <dc:date>2023-05-12T01:08:02.791970</dc:date>
    <dc:format>image/svg+xml</dc:format>
    <dc:creator>
     <cc:Agent>
      <dc:title>Matplotlib v3.4.3, https://matplotlib.org/</dc:title>
     </cc:Agent>
    </dc:creator>
   </cc:Work>
  </rdf:RDF>
 </metadata>
 <defs>
  <style type="text/css">*{stroke-linecap:butt;stroke-linejoin:round;}</style>
 </defs>
 <g id="figure_1">
  <g id="patch_1">
   <path d="M 0 345.6 
L 460.8 345.6 
L 460.8 0 
L 0 0 
z
" style="fill:#ffffff;"/>
  </g>
  <g id="axes_1">
   <g id="patch_2">
    <path d="M 117.09314 304.44375 
L 134.637368 304.44375 
L 134.637368 39.3555 
L 117.09314 39.3555 
z
" style="fill:#ffffff;"/>
   </g>
   <g id="matplotlib.axis_1">
    <g id="xtick_1">
     <g id="line2d_1">
      <path clip-path="url(#p39289e8c92)" d="M 121.490635 304.44375 
L 121.490635 39.3555 
" style="fill:none;stroke:#b0b0b0;stroke-linecap:square;stroke-width:0.8;"/>
     </g>
     <g id="line2d_2">
      <defs>
       <path d="M 0 0 
L 0 3.5 
" id="m71325caf75" style="stroke:#000000;stroke-width:0.8;"/>
      </defs>
      <g>
       <use style="stroke:#000000;stroke-width:0.8;" x="121.490635" xlink:href="#m71325caf75" y="304.44375"/>
      </g>
     </g>
     <g id="text_1">
      <!-- 0.0 -->
      <g transform="translate(113.539072 319.042187)scale(0.1 -0.1)">
       <defs>
        <path d="M 2034 4250 
Q 1547 4250 1301 3770 
Q 1056 3291 1056 2328 
Q 1056 1369 1301 889 
Q 1547 409 2034 409 
Q 2525 409 2770 889 
Q 3016 1369 3016 2328 
Q 3016 3291 2770 3770 
Q 2525 4250 2034 4250 
z
M 2034 4750 
Q 2819 4750 3233 4129 
Q 3647 3509 3647 2328 
Q 3647 1150 3233 529 
Q 2819 -91 2034 -91 
Q 1250 -91 836 529 
Q 422 1150 422 2328 
Q 422 3509 836 4129 
Q 1250 4750 2034 4750 
z
" id="DejaVuSans-30" transform="scale(0.015625)"/>
        <path d="M 684 794 
L 1344 794 
L 1344 0 
L 684 0 
L 684 794 
z
" id="DejaVuSans-2e" transform="scale(0.015625)"/>
       </defs>
       <use xlink:href="#DejaVuSans-30"/>
       <use x="63.623047" xlink:href="#DejaVuSans-2e"/>
       <use x="95.410156" xlink:href="#DejaVuSans-30"/>
      </g>
     </g>
    </g>
    <g id="xtick_2">
     <g id="line2d_3">
      <path clip-path="url(#p39289e8c92)" d="M 133.78261 304.44375 
L 133.78261 39.3555 
" style="fill:none;stroke:#b0b0b0;stroke-linecap:square;stroke-width:0.8;"/>
     </g>
     <g id="line2d_4">
      <g>
       <use style="stroke:#000000;stroke-width:0.8;" x="133.78261" xlink:href="#m71325caf75" y="304.44375"/>
      </g>
     </g>
     <g id="text_2">
      <!-- 2.5 -->
      <g transform="translate(125.831048 319.042187)scale(0.1 -0.1)">
       <defs>
        <path d="M 1228 531 
L 3431 531 
L 3431 0 
L 469 0 
L 469 531 
Q 828 903 1448 1529 
Q 2069 2156 2228 2338 
Q 2531 2678 2651 2914 
Q 2772 3150 2772 3378 
Q 2772 3750 2511 3984 
Q 2250 4219 1831 4219 
Q 1534 4219 1204 4116 
Q 875 4013 500 3803 
L 500 4441 
Q 881 4594 1212 4672 
Q 1544 4750 1819 4750 
Q 2544 4750 2975 4387 
Q 3406 4025 3406 3419 
Q 3406 3131 3298 2873 
Q 3191 2616 2906 2266 
Q 2828 2175 2409 1742 
Q 1991 1309 1228 531 
z
" id="DejaVuSans-32" transform="scale(0.015625)"/>
        <path d="M 691 4666 
L 3169 4666 
L 3169 4134 
L 1269 4134 
L 1269 2991 
Q 1406 3038 1543 3061 
Q 1681 3084 1819 3084 
Q 2600 3084 3056 2656 
Q 3513 2228 3513 1497 
Q 3513 744 3044 326 
Q 2575 -91 1722 -91 
Q 1428 -91 1123 -41 
Q 819 9 494 109 
L 494 744 
Q 775 591 1075 516 
Q 1375 441 1709 441 
Q 2250 441 2565 725 
Q 2881 1009 2881 1497 
Q 2881 1984 2565 2268 
Q 2250 2553 1709 2553 
Q 1456 2553 1204 2497 
Q 953 2441 691 2322 
L 691 4666 
z
" id="DejaVuSans-35" transform="scale(0.015625)"/>
       </defs>
       <use xlink:href="#DejaVuSans-32"/>
       <use x="63.623047" xlink:href="#DejaVuSans-2e"/>
       <use x="95.410156" xlink:href="#DejaVuSans-35"/>
      </g>
     </g>
    </g>
    <g id="text_3">
     <!-- y [m] -->
     <g transform="translate(112.544942 332.720312)scale(0.1 -0.1)">
      <defs>
       <path d="M 2059 -325 
Q 1816 -950 1584 -1140 
Q 1353 -1331 966 -1331 
L 506 -1331 
L 506 -850 
L 844 -850 
Q 1081 -850 1212 -737 
Q 1344 -625 1503 -206 
L 1606 56 
L 191 3500 
L 800 3500 
L 1894 763 
L 2988 3500 
L 3597 3500 
L 2059 -325 
z
" id="DejaVuSans-79" transform="scale(0.015625)"/>
       <path id="DejaVuSans-20" transform="scale(0.015625)"/>
       <path d="M 550 4863 
L 1875 4863 
L 1875 4416 
L 1125 4416 
L 1125 -397 
L 1875 -397 
L 1875 -844 
L 550 -844 
L 550 4863 
z
" id="DejaVuSans-5b" transform="scale(0.015625)"/>
       <path d="M 3328 2828 
Q 3544 3216 3844 3400 
Q 4144 3584 4550 3584 
Q 5097 3584 5394 3201 
Q 5691 2819 5691 2113 
L 5691 0 
L 5113 0 
L 5113 2094 
Q 5113 2597 4934 2840 
Q 4756 3084 4391 3084 
Q 3944 3084 3684 2787 
Q 3425 2491 3425 1978 
L 3425 0 
L 2847 0 
L 2847 2094 
Q 2847 2600 2669 2842 
Q 2491 3084 2119 3084 
Q 1678 3084 1418 2786 
Q 1159 2488 1159 1978 
L 1159 0 
L 581 0 
L 581 3500 
L 1159 3500 
L 1159 2956 
Q 1356 3278 1631 3431 
Q 1906 3584 2284 3584 
Q 2666 3584 2933 3390 
Q 3200 3197 3328 2828 
z
" id="DejaVuSans-6d" transform="scale(0.015625)"/>
       <path d="M 1947 4863 
L 1947 -844 
L 622 -844 
L 622 -397 
L 1369 -397 
L 1369 4416 
L 622 4416 
L 622 4863 
L 1947 4863 
z
" id="DejaVuSans-5d" transform="scale(0.015625)"/>
      </defs>
      <use xlink:href="#DejaVuSans-79"/>
      <use x="59.179688" xlink:href="#DejaVuSans-20"/>
      <use x="90.966797" xlink:href="#DejaVuSans-5b"/>
      <use x="129.980469" xlink:href="#DejaVuSans-6d"/>
      <use x="227.392578" xlink:href="#DejaVuSans-5d"/>
     </g>
    </g>
   </g>
   <g id="matplotlib.axis_2">
    <g id="ytick_1">
     <g id="line2d_5">
      <path clip-path="url(#p39289e8c92)" d="M 117.09314 285.19501 
L 134.637368 285.19501 
" style="fill:none;stroke:#b0b0b0;stroke-linecap:square;stroke-width:0.8;"/>
     </g>
     <g id="line2d_6">
      <defs>
       <path d="M 0 0 
L -3.5 0 
" id="m4cf2819055" style="stroke:#000000;stroke-width:0.8;"/>
      </defs>
      <g>
       <use style="stroke:#000000;stroke-width:0.8;" x="117.09314" xlink:href="#m4cf2819055" y="285.19501"/>
      </g>
     </g>
     <g id="text_4">
      <!-- 0 -->
      <g transform="translate(103.73064 288.994229)scale(0.1 -0.1)">
       <use xlink:href="#DejaVuSans-30"/>
      </g>
     </g>
    </g>
    <g id="ytick_2">
     <g id="line2d_7">
      <path clip-path="url(#p39289e8c92)" d="M 117.09314 236.027108 
L 134.637368 236.027108 
" style="fill:none;stroke:#b0b0b0;stroke-linecap:square;stroke-width:0.8;"/>
     </g>
     <g id="line2d_8">
      <g>
       <use style="stroke:#000000;stroke-width:0.8;" x="117.09314" xlink:href="#m4cf2819055" y="236.027108"/>
      </g>
     </g>
     <g id="text_5">
      <!-- 10 -->
      <g transform="translate(97.36814 239.826327)scale(0.1 -0.1)">
       <defs>
        <path d="M 794 531 
L 1825 531 
L 1825 4091 
L 703 3866 
L 703 4441 
L 1819 4666 
L 2450 4666 
L 2450 531 
L 3481 531 
L 3481 0 
L 794 0 
L 794 531 
z
" id="DejaVuSans-31" transform="scale(0.015625)"/>
       </defs>
       <use xlink:href="#DejaVuSans-31"/>
       <use x="63.623047" xlink:href="#DejaVuSans-30"/>
      </g>
     </g>
    </g>
    <g id="ytick_3">
     <g id="line2d_9">
      <path clip-path="url(#p39289e8c92)" d="M 117.09314 186.859206 
L 134.637368 186.859206 
" style="fill:none;stroke:#b0b0b0;stroke-linecap:square;stroke-width:0.8;"/>
     </g>
     <g id="line2d_10">
      <g>
       <use style="stroke:#000000;stroke-width:0.8;" x="117.09314" xlink:href="#m4cf2819055" y="186.859206"/>
      </g>
     </g>
     <g id="text_6">
      <!-- 20 -->
      <g transform="translate(97.36814 190.658425)scale(0.1 -0.1)">
       <use xlink:href="#DejaVuSans-32"/>
       <use x="63.623047" xlink:href="#DejaVuSans-30"/>
      </g>
     </g>
    </g>
    <g id="ytick_4">
     <g id="line2d_11">
      <path clip-path="url(#p39289e8c92)" d="M 117.09314 137.691304 
L 134.637368 137.691304 
" style="fill:none;stroke:#b0b0b0;stroke-linecap:square;stroke-width:0.8;"/>
     </g>
     <g id="line2d_12">
      <g>
       <use style="stroke:#000000;stroke-width:0.8;" x="117.09314" xlink:href="#m4cf2819055" y="137.691304"/>
      </g>
     </g>
     <g id="text_7">
      <!-- 30 -->
      <g transform="translate(97.36814 141.490523)scale(0.1 -0.1)">
       <defs>
        <path d="M 2597 2516 
Q 3050 2419 3304 2112 
Q 3559 1806 3559 1356 
Q 3559 666 3084 287 
Q 2609 -91 1734 -91 
Q 1441 -91 1130 -33 
Q 819 25 488 141 
L 488 750 
Q 750 597 1062 519 
Q 1375 441 1716 441 
Q 2309 441 2620 675 
Q 2931 909 2931 1356 
Q 2931 1769 2642 2001 
Q 2353 2234 1838 2234 
L 1294 2234 
L 1294 2753 
L 1863 2753 
Q 2328 2753 2575 2939 
Q 2822 3125 2822 3475 
Q 2822 3834 2567 4026 
Q 2313 4219 1838 4219 
Q 1578 4219 1281 4162 
Q 984 4106 628 3988 
L 628 4550 
Q 988 4650 1302 4700 
Q 1616 4750 1894 4750 
Q 2613 4750 3031 4423 
Q 3450 4097 3450 3541 
Q 3450 3153 3228 2886 
Q 3006 2619 2597 2516 
z
" id="DejaVuSans-33" transform="scale(0.015625)"/>
       </defs>
       <use xlink:href="#DejaVuSans-33"/>
       <use x="63.623047" xlink:href="#DejaVuSans-30"/>
      </g>
     </g>
    </g>
    <g id="ytick_5">
     <g id="line2d_13">
      <path clip-path="url(#p39289e8c92)" d="M 117.09314 88.523402 
L 134.637368 88.523402 
" style="fill:none;stroke:#b0b0b0;stroke-linecap:square;stroke-width:0.8;"/>
     </g>
     <g id="line2d_14">
      <g>
       <use style="stroke:#000000;stroke-width:0.8;" x="117.09314" xlink:href="#m4cf2819055" y="88.523402"/>
      </g>
     </g>
     <g id="text_8">
      <!-- 40 -->
      <g transform="translate(97.36814 92.322621)scale(0.1 -0.1)">
       <defs>
        <path d="M 2419 4116 
L 825 1625 
L 2419 1625 
L 2419 4116 
z
M 2253 4666 
L 3047 4666 
L 3047 1625 
L 3713 1625 
L 3713 1100 
L 3047 1100 
L 3047 0 
L 2419 0 
L 2419 1100 
L 313 1100 
L 313 1709 
L 2253 4666 
z
" id="DejaVuSans-34" transform="scale(0.015625)"/>
       </defs>
       <use xlink:href="#DejaVuSans-34"/>
       <use x="63.623047" xlink:href="#DejaVuSans-30"/>
      </g>
     </g>
    </g>
    <g id="ytick_6">
     <g id="line2d_15">
      <path clip-path="url(#p39289e8c92)" d="M 117.09314 39.3555 
L 134.637368 39.3555 
" style="fill:none;stroke:#b0b0b0;stroke-linecap:square;stroke-width:0.8;"/>
     </g>
     <g id="line2d_16">
      <g>
       <use style="stroke:#000000;stroke-width:0.8;" x="117.09314" xlink:href="#m4cf2819055" y="39.3555"/>
      </g>
     </g>
     <g id="text_9">
      <!-- 50 -->
      <g transform="translate(97.36814 43.154719)scale(0.1 -0.1)">
       <use xlink:href="#DejaVuSans-35"/>
       <use x="63.623047" xlink:href="#DejaVuSans-30"/>
      </g>
     </g>
    </g>
    <g id="text_10">
     <!-- x [m] -->
     <g transform="translate(91.288453 185.219937)rotate(-90)scale(0.1 -0.1)">
      <defs>
       <path d="M 3513 3500 
L 2247 1797 
L 3578 0 
L 2900 0 
L 1881 1375 
L 863 0 
L 184 0 
L 1544 1831 
L 300 3500 
L 978 3500 
L 1906 2253 
L 2834 3500 
L 3513 3500 
z
" id="DejaVuSans-78" transform="scale(0.015625)"/>
      </defs>
      <use xlink:href="#DejaVuSans-78"/>
      <use x="59.179688" xlink:href="#DejaVuSans-20"/>
      <use x="90.966797" xlink:href="#DejaVuSans-5b"/>
      <use x="129.980469" xlink:href="#DejaVuSans-6d"/>
      <use x="227.392578" xlink:href="#DejaVuSans-5d"/>
     </g>
    </g>
   </g>
   <g id="line2d_17">
    <path clip-path="url(#p39289e8c92)" d="M 121.490635 285.19501 
L 121.379752 261.983653 
L 121.274263 256.771201 
L 121.426858 253.227193 
L 121.785936 250.002179 
L 122.366137 246.811132 
L 123.197639 243.503422 
L 124.338763 239.899475 
L 126.002572 235.426932 
L 130.384708 223.948288 
L 131.562594 220.046331 
L 132.417701 216.454791 
L 133.025143 212.946928 
L 133.618595 207.926018 
L 133.830678 204.721314 
L 133.783463 202.055187 
L 133.515257 199.423708 
L 133.024158 196.784654 
L 132.30697 194.148092 
L 131.340964 191.457681 
L 130.053348 188.542917 
L 128.298847 185.145319 
L 124.400017 178.247422 
L 122.308205 174.237209 
L 120.863553 170.992985 
L 119.774041 168.00803 
L 118.9549 165.122586 
L 118.37457 162.264039 
L 118.022455 159.406353 
L 117.891652 156.520957 
L 117.981075 153.551041 
L 118.299099 150.438459 
L 118.877382 147.021479 
L 119.802094 142.96078 
L 121.944665 134.881216 
L 123.136043 129.829692 
L 123.863166 125.790854 
L 124.318804 122.017661 
L 124.54575 118.277205 
L 124.552664 114.459398 
L 124.333627 110.398086 
L 123.85929 105.846311 
L 123.006117 99.958737 
L 120.915932 86.073361 
L 120.382874 80.669123 
L 120.102247 75.557734 
L 120.041595 70.362987 
L 120.203287 64.677161 
L 120.638979 57.643439 
L 122.06715 36.854422 
L 122.250565 29.575334 
L 122.215432 21.927093 
L 121.931935 12.260586 
L 121.426988 -1 
L 121.426988 -1 
" style="fill:none;stroke:#0000ff;stroke-linecap:square;stroke-width:1.5;"/>
   </g>
   <g id="line2d_18">
    <path clip-path="url(#p39289e8c92)" d="M 121.490635 285.19501 
L 121.380295 262.224025 
L 121.275251 257.492839 
L 121.432146 254.246458 
L 121.797728 251.262476 
L 122.38459 248.302962 
L 123.228011 245.209367 
L 124.39549 241.800074 
L 126.12097 237.497608 
L 129.988832 228.030283 
L 131.190379 224.375227 
L 132.065908 221.010564 
L 132.690298 217.736917 
L 133.092836 214.437333 
L 133.285166 210.99052 
L 133.381993 205.29952 
L 133.16315 202.661414 
L 132.725467 200.092101 
L 132.054805 197.490461 
L 131.154447 194.891059 
L 129.952269 192.113589 
L 128.292244 188.864324 
L 124.518454 182.148295 
L 122.587708 178.387538 
L 121.257456 175.316616 
L 120.256677 172.455767 
L 119.513116 169.661582 
L 119.005297 166.893857 
L 118.718765 164.107635 
L 118.648603 161.254693 
L 118.80034 158.261591 
L 119.189187 155.053486 
L 119.870398 151.345957 
L 121.127647 145.894968 
L 122.661416 139.046111 
L 123.349134 134.915373 
L 123.756643 131.114555 
L 123.935439 127.343738 
L 123.89517 123.434664 
L 123.622574 119.143966 
L 123.059667 113.966969 
L 120.803204 95.172959 
L 120.523017 89.837706 
L 120.463087 84.402249 
L 120.625205 78.287103 
L 121.103245 69.609334 
L 121.812721 56.410438 
L 121.994843 48.5082 
L 121.958236 40.130864 
L 121.650956 27.852553 
L 121.30201 11.995286 
L 121.28169 0.038638 
L 121.28898 -1 
L 121.28898 -1 
" style="fill:none;stroke:#ffa500;stroke-linecap:square;stroke-width:1.5;"/>
   </g>
   <g id="line2d_19">
    <path clip-path="url(#p39289e8c92)" d="M 121.490635 285.19501 
L 121.379576 262.548341 
L 121.275759 258.494123 
L 121.44007 255.817924 
L 121.819305 253.251987 
L 122.427693 250.661116 
L 123.304257 247.915741 
L 124.523356 244.850257 
L 126.404168 240.776685 
L 129.4707 234.143542 
L 130.701952 230.895389 
L 131.59333 227.921756 
L 132.235399 225.00923 
L 132.656894 222.066619 
L 132.868419 219.016534 
L 132.868564 215.758426 
L 132.639538 212.091145 
L 131.747251 203.379477 
L 131.133896 200.852669 
L 130.295287 198.346039 
L 129.164369 195.681101 
L 127.530595 192.435512 
L 123.013724 183.72882 
L 121.843591 180.82304 
L 120.980449 178.091421 
L 120.360401 175.397903 
L 119.961346 172.672427 
L 119.778123 169.879277 
L 119.810625 166.940471 
L 120.073829 163.717048 
L 120.627486 159.815461 
L 122.663005 146.796208 
L 122.937481 142.831402 
L 122.993097 138.759941 
L 122.825412 134.224607 
L 122.364593 128.273442 
L 121.267064 114.898509 
L 121.039416 108.771467 
L 121.027135 102.285443 
L 121.255812 93.437207 
L 121.669155 77.703058 
L 121.680225 67.305613 
L 121.457417 24.981927 
L 121.517125 -1 
L 121.517125 -1 
" style="fill:none;stroke:#ff0000;stroke-linecap:square;stroke-width:1.5;"/>
   </g>
   <g id="line2d_20">
    <path clip-path="url(#p39289e8c92)" d="M 121.490635 285.19501 
L 121.379628 263.558257 
L 121.256906 259.980239 
L 121.388698 257.013812 
L 121.724058 254.285196 
L 122.711999 251.153212 
L 124.026725 247.829754 
L 125.841136 243.825095 
L 129.876716 235.152671 
L 130.848376 232.354158 
L 131.550086 229.658702 
L 132.03232 226.924141 
L 132.311976 224.046658 
L 132.387942 220.933387 
L 132.245933 217.330681 
L 131.797874 212.228361 
L 131.600611 209.162137 
L 131.38938 205.519896 
L 131.034966 203.456302 
L 130.476069 201.523936 
L 129.670823 199.552919 
L 128.550584 197.417694 
L 126.816839 194.636292 
L 123.70305 189.670939 
L 122.47282 187.241092 
L 121.559004 184.94871 
L 120.884173 182.656598 
L 120.428338 180.319538 
L 120.184858 177.901377 
L 120.15501 175.361744 
L 120.350146 172.578991 
L 120.821413 169.211247 
L 122.388369 159.101744 
L 122.606222 155.567586 
L 122.614868 151.713102 
L 122.389041 146.84601 
L 121.333738 128.591939 
L 121.279032 121.271632 
L 121.45785 108.348436 
L 121.56059 93.90537 
L 121.490829 46.103889 
L 121.490829 46.103889 
" style="fill:none;stroke:#008000;stroke-linecap:square;stroke-width:1.5;"/>
   </g>
   <g id="patch_3">
    <path d="M 117.09314 304.44375 
L 117.09314 39.3555 
" style="fill:none;stroke:#000000;stroke-linecap:square;stroke-linejoin:miter;stroke-width:0.8;"/>
   </g>
   <g id="patch_4">
    <path d="M 134.637368 304.44375 
L 134.637368 39.3555 
" style="fill:none;stroke:#000000;stroke-linecap:square;stroke-linejoin:miter;stroke-width:0.8;"/>
   </g>
   <g id="patch_5">
    <path d="M 117.09314 304.44375 
L 134.637368 304.44375 
" style="fill:none;stroke:#000000;stroke-linecap:square;stroke-linejoin:miter;stroke-width:0.8;"/>
   </g>
   <g id="patch_6">
    <path d="M 117.09314 39.3555 
L 134.637368 39.3555 
" style="fill:none;stroke:#000000;stroke-linecap:square;stroke-linejoin:miter;stroke-width:0.8;"/>
   </g>
  </g>
  <g id="axes_2">
   <g id="patch_7">
    <path d="M 219.869492 304.44375 
L 450 304.44375 
L 450 39.3555 
L 219.869492 39.3555 
z
" style="fill:#ffffff;"/>
   </g>
   <g id="matplotlib.axis_3">
    <g id="xtick_3">
     <g id="line2d_21">
      <path clip-path="url(#pfe3fd3a63a)" d="M 277.552147 304.44375 
L 277.552147 39.3555 
" style="fill:none;stroke:#b0b0b0;stroke-linecap:square;stroke-width:0.8;"/>
     </g>
     <g id="line2d_22">
      <g>
       <use style="stroke:#000000;stroke-width:0.8;" x="277.552147" xlink:href="#m71325caf75" y="304.44375"/>
      </g>
     </g>
     <g id="text_11">
      <!-- 0 -->
      <g transform="translate(274.370897 319.042187)scale(0.1 -0.1)">
       <use xlink:href="#DejaVuSans-30"/>
      </g>
     </g>
    </g>
    <g id="xtick_4">
     <g id="line2d_23">
      <path clip-path="url(#pfe3fd3a63a)" d="M 342.04649 304.44375 
L 342.04649 39.3555 
" style="fill:none;stroke:#b0b0b0;stroke-linecap:square;stroke-width:0.8;"/>
     </g>
     <g id="line2d_24">
      <g>
       <use style="stroke:#000000;stroke-width:0.8;" x="342.04649" xlink:href="#m71325caf75" y="304.44375"/>
      </g>
     </g>
     <g id="text_12">
      <!-- 1 -->
      <g transform="translate(338.86524 319.042187)scale(0.1 -0.1)">
       <use xlink:href="#DejaVuSans-31"/>
      </g>
     </g>
    </g>
    <g id="xtick_5">
     <g id="line2d_25">
      <path clip-path="url(#pfe3fd3a63a)" d="M 406.540833 304.44375 
L 406.540833 39.3555 
" style="fill:none;stroke:#b0b0b0;stroke-linecap:square;stroke-width:0.8;"/>
     </g>
     <g id="line2d_26">
      <g>
       <use style="stroke:#000000;stroke-width:0.8;" x="406.540833" xlink:href="#m71325caf75" y="304.44375"/>
      </g>
     </g>
     <g id="text_13">
      <!-- 2 -->
      <g transform="translate(403.359583 319.042187)scale(0.1 -0.1)">
       <use xlink:href="#DejaVuSans-32"/>
      </g>
     </g>
    </g>
    <g id="text_14">
     <!-- y [m] -->
     <g transform="translate(321.614433 332.720312)scale(0.1 -0.1)">
      <use xlink:href="#DejaVuSans-79"/>
      <use x="59.179688" xlink:href="#DejaVuSans-20"/>
      <use x="90.966797" xlink:href="#DejaVuSans-5b"/>
      <use x="129.980469" xlink:href="#DejaVuSans-6d"/>
      <use x="227.392578" xlink:href="#DejaVuSans-5d"/>
     </g>
    </g>
   </g>
   <g id="matplotlib.axis_4">
    <g id="ytick_7">
     <g id="line2d_27">
      <path clip-path="url(#pfe3fd3a63a)" d="M 219.869492 285.19501 
L 450 285.19501 
" style="fill:none;stroke:#b0b0b0;stroke-linecap:square;stroke-width:0.8;"/>
     </g>
     <g id="line2d_28">
      <g>
       <use style="stroke:#000000;stroke-width:0.8;" x="219.869492" xlink:href="#m4cf2819055" y="285.19501"/>
      </g>
     </g>
     <g id="text_15">
      <!-- 0 -->
      <g transform="translate(206.506992 288.994229)scale(0.1 -0.1)">
       <use xlink:href="#DejaVuSans-30"/>
      </g>
     </g>
    </g>
    <g id="ytick_8">
     <g id="line2d_29">
      <path clip-path="url(#pfe3fd3a63a)" d="M 219.869492 236.027108 
L 450 236.027108 
" style="fill:none;stroke:#b0b0b0;stroke-linecap:square;stroke-width:0.8;"/>
     </g>
     <g id="line2d_30">
      <g>
       <use style="stroke:#000000;stroke-width:0.8;" x="219.869492" xlink:href="#m4cf2819055" y="236.027108"/>
      </g>
     </g>
     <g id="text_16">
      <!-- 10 -->
      <g transform="translate(200.144492 239.826327)scale(0.1 -0.1)">
       <use xlink:href="#DejaVuSans-31"/>
       <use x="63.623047" xlink:href="#DejaVuSans-30"/>
      </g>
     </g>
    </g>
    <g id="ytick_9">
     <g id="line2d_31">
      <path clip-path="url(#pfe3fd3a63a)" d="M 219.869492 186.859206 
L 450 186.859206 
" style="fill:none;stroke:#b0b0b0;stroke-linecap:square;stroke-width:0.8;"/>
     </g>
     <g id="line2d_32">
      <g>
       <use style="stroke:#000000;stroke-width:0.8;" x="219.869492" xlink:href="#m4cf2819055" y="186.859206"/>
      </g>
     </g>
     <g id="text_17">
      <!-- 20 -->
      <g transform="translate(200.144492 190.658425)scale(0.1 -0.1)">
       <use xlink:href="#DejaVuSans-32"/>
       <use x="63.623047" xlink:href="#DejaVuSans-30"/>
      </g>
     </g>
    </g>
    <g id="ytick_10">
     <g id="line2d_33">
      <path clip-path="url(#pfe3fd3a63a)" d="M 219.869492 137.691304 
L 450 137.691304 
" style="fill:none;stroke:#b0b0b0;stroke-linecap:square;stroke-width:0.8;"/>
     </g>
     <g id="line2d_34">
      <g>
       <use style="stroke:#000000;stroke-width:0.8;" x="219.869492" xlink:href="#m4cf2819055" y="137.691304"/>
      </g>
     </g>
     <g id="text_18">
      <!-- 30 -->
      <g transform="translate(200.144492 141.490523)scale(0.1 -0.1)">
       <use xlink:href="#DejaVuSans-33"/>
       <use x="63.623047" xlink:href="#DejaVuSans-30"/>
      </g>
     </g>
    </g>
    <g id="ytick_11">
     <g id="line2d_35">
      <path clip-path="url(#pfe3fd3a63a)" d="M 219.869492 88.523402 
L 450 88.523402 
" style="fill:none;stroke:#b0b0b0;stroke-linecap:square;stroke-width:0.8;"/>
     </g>
     <g id="line2d_36">
      <g>
       <use style="stroke:#000000;stroke-width:0.8;" x="219.869492" xlink:href="#m4cf2819055" y="88.523402"/>
      </g>
     </g>
     <g id="text_19">
      <!-- 40 -->
      <g transform="translate(200.144492 92.322621)scale(0.1 -0.1)">
       <use xlink:href="#DejaVuSans-34"/>
       <use x="63.623047" xlink:href="#DejaVuSans-30"/>
      </g>
     </g>
    </g>
    <g id="ytick_12">
     <g id="line2d_37">
      <path clip-path="url(#pfe3fd3a63a)" d="M 219.869492 39.3555 
L 450 39.3555 
" style="fill:none;stroke:#b0b0b0;stroke-linecap:square;stroke-width:0.8;"/>
     </g>
     <g id="line2d_38">
      <g>
       <use style="stroke:#000000;stroke-width:0.8;" x="219.869492" xlink:href="#m4cf2819055" y="39.3555"/>
      </g>
     </g>
     <g id="text_20">
      <!-- 50 -->
      <g transform="translate(200.144492 43.154719)scale(0.1 -0.1)">
       <use xlink:href="#DejaVuSans-35"/>
       <use x="63.623047" xlink:href="#DejaVuSans-30"/>
      </g>
     </g>
    </g>
    <g id="text_21">
     <!-- x [m] -->
     <g transform="translate(194.064804 185.219937)rotate(-90)scale(0.1 -0.1)">
      <use xlink:href="#DejaVuSans-78"/>
      <use x="59.179688" xlink:href="#DejaVuSans-20"/>
      <use x="90.966797" xlink:href="#DejaVuSans-5b"/>
      <use x="129.980469" xlink:href="#DejaVuSans-6d"/>
      <use x="227.392578" xlink:href="#DejaVuSans-5d"/>
     </g>
    </g>
   </g>
   <g id="line2d_39">
    <path clip-path="url(#pfe3fd3a63a)" d="M 277.552147 285.19501 
L 277.446467 264.777234 
L 277.0803 263.811836 
L 276.028724 261.856624 
L 275.161106 260.021493 
L 274.767124 258.686376 
L 274.653074 257.523677 
L 274.773114 256.459243 
L 275.113015 255.443688 
L 275.694541 254.426751 
L 276.535854 253.409688 
L 277.716872 252.341222 
L 279.295255 251.222228 
L 281.375925 250.028093 
L 284.094737 248.735406 
L 287.551198 247.347876 
L 291.916246 245.844313 
L 297.388016 244.204382 
L 304.179553 242.408504 
L 312.717215 240.388447 
L 323.701725 238.028485 
L 338.964569 234.994899 
L 384.783797 226.0273 
L 396.151932 223.499536 
L 405.096487 221.288948 
L 412.222422 219.307159 
L 417.973822 217.486602 
L 422.643889 215.782015 
L 426.35342 214.197965 
L 429.232319 212.738104 
L 431.489355 211.352859 
L 437.520272 207.215174 
L 438.605102 206.130437 
L 439.211565 205.227091 
L 439.492609 204.428284 
L 439.525096 203.681933 
L 439.328642 202.935228 
L 438.880589 202.16184 
L 438.125451 201.3356 
L 437.009288 200.457522 
L 435.380325 199.47658 
L 433.182555 198.42305 
L 430.260055 197.275718 
L 426.489956 196.040599 
L 421.645277 194.698412 
L 415.566855 193.256313 
L 407.888438 191.67396 
L 398.201007 189.915288 
L 386.051892 187.945529 
L 370.202763 185.614875 
L 346.753337 182.415434 
L 304.066291 176.608983 
L 287.381439 174.095632 
L 274.524348 171.942908 
L 264.263191 170.008151 
L 256.009879 168.234967 
L 249.356671 166.585965 
L 244.126303 165.070982 
L 239.981634 163.646016 
L 236.846837 162.342448 
L 234.505271 161.138345 
L 232.824371 160.036492 
L 231.653278 159.012469 
L 230.902324 158.067397 
L 230.488287 157.201915 
L 230.332741 156.36396 
L 230.407845 155.553852 
L 230.712295 154.719726 
L 231.280422 153.836216 
L 232.174103 152.878373 
L 233.483759 151.821803 
L 235.284737 150.668352 
L 237.698784 149.394554 
L 240.930586 147.95232 
L 245.162302 146.319643 
L 250.724117 144.4244 
L 258.29483 142.094662 
L 270.644303 138.560038 
L 286.857281 133.879317 
L 294.781195 131.356474 
L 300.642217 129.267427 
L 305.199275 127.418576 
L 308.774968 125.739044 
L 311.584303 124.181331 
L 313.724281 122.748504 
L 315.32616 121.416774 
L 316.472573 120.187723 
L 317.273598 119.010098 
L 317.761632 117.910771 
L 318.000064 116.83788 
L 318.008557 115.76564 
L 317.793628 114.694389 
L 317.336678 113.572252 
L 316.615683 112.399699 
L 315.563494 111.125221 
L 314.13307 109.749571 
L 312.214002 108.22173 
L 309.70443 106.516825 
L 306.41 104.55841 
L 302.013861 102.218552 
L 295.711044 99.137179 
L 277.691518 90.459133 
L 272.96595 87.86716 
L 269.290427 85.604723 
L 266.399846 83.570887 
L 264.135124 81.715686 
L 262.33769 79.962215 
L 260.958679 78.311523 
L 259.929828 76.738216 
L 259.199069 75.216656 
L 258.736521 73.747274 
L 258.507137 72.277921 
L 258.503012 70.808861 
L 258.725444 69.287866 
L 259.18417 67.715174 
L 259.910701 66.038604 
L 260.942256 64.232222 
L 262.339665 62.243921 
L 264.219219 59.969282 
L 266.789232 57.225377 
L 270.824243 53.279873 
L 277.56573 46.689004 
L 280.362386 43.624133 
L 282.46352 41.001913 
L 284.097636 38.613747 
L 285.359394 36.381644 
L 286.310552 34.253617 
L 286.996525 32.177509 
L 287.439995 30.127333 
L 287.656427 28.07704 
L 287.652749 25.97425 
L 287.423093 23.792844 
L 286.951214 21.480405 
L 286.210687 18.9845 
L 285.138898 16.173862 
L 283.597481 12.785838 
L 281.014401 7.717019 
L 277.559098 0.860163 
L 276.717287 -1 
L 276.717287 -1 
" style="fill:none;stroke:#0000ff;stroke-linecap:square;stroke-width:1.5;"/>
   </g>
   <g id="line2d_40">
    <path clip-path="url(#pfe3fd3a63a)" d="M 277.552147 285.19501 
L 277.446415 264.827315 
L 277.077331 263.90247 
L 276.118932 262.24763 
L 275.15739 260.42792 
L 274.765719 259.215994 
L 274.659927 258.188462 
L 274.784158 257.228552 
L 275.125324 256.314454 
L 275.719812 255.37589 
L 276.601435 254.414484 
L 277.836145 253.407577 
L 279.520062 252.332579 
L 281.781563 251.167633 
L 284.720771 249.91599 
L 288.498587 248.558731 
L 293.303038 247.078382 
L 299.344166 245.4583 
L 306.93685 243.660031 
L 316.628336 241.602317 
L 329.461039 239.117659 
L 350.176541 235.365727 
L 376.021891 230.638088 
L 389.024399 228.030283 
L 398.898667 225.829713 
L 406.694969 223.872197 
L 412.961524 222.077037 
L 417.942179 220.428814 
L 421.921635 218.886715 
L 425.027017 217.454815 
L 427.426644 216.112643 
L 429.223954 214.862298 
L 430.541207 213.681627 
L 431.435391 212.595188 
L 432.013477 211.556333 
L 432.88742 209.787206 
L 433.67352 208.083758 
L 433.896524 207.086164 
L 433.861985 206.228857 
L 433.605104 205.442465 
L 433.10688 204.656609 
L 432.324925 203.848055 
L 431.153971 202.969644 
L 429.508303 202.022061 
L 427.245767 200.983568 
L 424.18645 199.83532 
L 420.192233 198.585176 
L 415.125631 197.241908 
L 408.742328 195.790902 
L 400.777214 194.218482 
L 390.736636 192.470616 
L 377.802288 190.454665 
L 360.219508 187.955421 
L 295.969167 179.026099 
L 283.073338 176.899183 
L 272.914687 175.005456 
L 264.804235 173.275096 
L 258.33876 171.676491 
L 253.244563 170.196867 
L 249.274747 168.820582 
L 246.270018 167.553168 
L 244.030811 166.375084 
L 242.462596 165.312613 
L 241.378251 164.32027 
L 240.708366 163.422692 
L 240.341248 162.573214 
L 240.228014 161.772176 
L 240.335463 160.972749 
L 240.669318 160.151851 
L 241.278516 159.263294 
L 242.21061 158.308089 
L 243.57634 157.241043 
L 245.457301 156.063974 
L 248.021226 154.732916 
L 251.42104 153.227445 
L 255.989184 151.45899 
L 262.294458 149.27112 
L 273.004095 145.827359 
L 285.573898 141.727268 
L 292.021647 139.391404 
L 296.808862 137.428736 
L 300.444228 135.708774 
L 303.255737 134.143637 
L 305.422571 132.68989 
L 307.031798 131.349905 
L 308.19356 130.101885 
L 308.993664 128.923421 
L 309.486448 127.815279 
L 309.730047 126.73082 
L 309.743885 125.646859 
L 309.535962 124.563724 
L 309.092835 123.434664 
L 308.366234 122.21311 
L 307.316486 120.899638 
L 305.859031 119.448003 
L 303.913164 117.835542 
L 301.32911 115.992898 
L 297.82469 113.780802 
L 292.691247 110.826675 
L 278.753591 102.92432 
L 274.900505 100.417787 
L 271.973062 98.25718 
L 269.688704 96.303994 
L 267.899847 94.48917 
L 266.529283 92.790235 
L 265.496067 91.160787 
L 264.765062 89.601401 
L 264.28761 88.06525 
L 264.043968 86.529016 
L 264.024218 84.992953 
L 264.229345 83.386389 
L 264.671281 81.709537 
L 265.376749 79.915354 
L 266.399718 77.933215 
L 267.825873 75.668903 
L 269.855504 72.886604 
L 273.337146 68.548167 
L 277.471628 63.310083 
L 279.588812 60.263357 
L 281.145726 57.639942 
L 282.310403 55.251607 
L 283.175456 52.980637 
L 283.786045 50.756411 
L 284.160353 48.555532 
L 284.313983 46.33088 
L 284.248623 44.011624 
L 283.955499 41.574239 
L 283.405969 38.90052 
L 282.538482 35.824924 
L 281.191692 31.92159 
L 276.789704 19.641448 
L 275.843232 16.067221 
L 275.19356 12.752894 
L 274.787874 9.532979 
L 274.601912 6.265584 
L 274.633272 2.856123 
L 274.895672 -0.884724 
L 274.90701 -1 
L 274.90701 -1 
" style="fill:none;stroke:#ffa500;stroke-linecap:square;stroke-width:1.5;"/>
   </g>
   <g id="line2d_41">
    <path clip-path="url(#pfe3fd3a63a)" d="M 277.552147 285.19501 
L 277.446827 264.919405 
L 277.075868 264.054723 
L 276.240271 262.756541 
L 275.072868 260.889044 
L 274.71607 259.89256 
L 274.644459 259.058734 
L 274.797013 258.284739 
L 275.182198 257.509497 
L 275.833251 256.714144 
L 276.832259 255.859484 
L 278.283179 254.927937 
L 280.279548 253.922908 
L 282.968807 252.827662 
L 286.526856 251.627311 
L 291.222094 250.290015 
L 297.20736 248.825297 
L 304.880367 247.184946 
L 314.783755 245.304919 
L 328.115288 243.01495 
L 350.615405 239.414426 
L 373.916344 235.615012 
L 386.641736 233.317587 
L 396.250457 231.365359 
L 403.822986 229.607494 
L 409.807264 227.998803 
L 414.528752 226.509513 
L 418.211578 225.126459 
L 421.050908 223.834541 
L 423.207748 222.617175 
L 424.761585 221.496083 
L 425.846986 220.452976 
L 426.563734 219.468989 
L 426.981925 218.524937 
L 427.145427 217.621118 
L 427.084586 216.698848 
L 426.798312 215.758426 
L 426.250007 214.741482 
L 425.388078 213.629053 
L 424.129386 212.382823 
L 421.201797 209.63707 
L 419.215965 207.424794 
L 417.876205 206.327963 
L 416.243646 205.291276 
L 414.148335 204.236885 
L 411.419421 203.126617 
L 407.893269 201.945126 
L 403.389371 200.681491 
L 397.705594 199.326554 
L 390.525653 197.851992 
L 381.299487 196.195272 
L 369.204227 194.262495 
L 351.962967 191.751587 
L 307.923503 185.426721 
L 295.235705 183.330402 
L 285.43251 181.494084 
L 277.691613 179.826051 
L 271.554138 178.283321 
L 266.759886 176.856767 
L 263.067393 175.534517 
L 260.307283 174.321944 
L 258.281686 173.203198 
L 256.834231 172.161015 
L 255.863028 171.196895 
L 255.273967 170.31174 
L 254.973749 169.466723 
L 254.918121 168.662152 
L 255.085035 167.839456 
L 255.4913 166.979509 
L 256.188831 166.043889 
L 257.244964 165.014038 
L 258.768986 163.852304 
L 260.899399 162.521454 
L 263.866098 160.945969 
L 268.087312 158.973442 
L 275.880913 155.62511 
L 283.274898 152.357062 
L 287.420303 150.286067 
L 290.410578 148.554541 
L 292.651431 147.011464 
L 294.324078 145.601022 
L 295.550448 144.285891 
L 296.409725 143.0477 
L 296.965539 141.867658 
L 297.268406 140.707007 
L 297.339482 139.566156 
L 297.188529 138.386428 
L 296.800345 137.148486 
L 296.15078 135.833006 
L 295.180038 134.381447 
L 293.80138 132.735382 
L 291.87293 130.797213 
L 289.085487 128.332125 
L 278.126017 118.928971 
L 276.054818 116.708394 
L 274.478106 114.701687 
L 273.283136 112.831098 
L 272.395464 111.038192 
L 271.771093 109.284008 
L 271.381494 107.529452 
L 271.213192 105.735344 
L 271.264153 103.882166 
L 271.544937 101.89122 
L 272.08718 99.683789 
L 272.959462 97.102281 
L 274.385946 93.634258 
L 277.871505 85.355862 
L 278.895774 82.220305 
L 279.593286 79.379898 
L 280.043783 76.617985 
L 280.27234 73.836133 
L 280.287793 70.916114 
L 280.07846 67.700197 
L 279.595168 63.85305 
L 278.589105 57.894948 
L 277.398849 50.5356 
L 276.878348 45.878897 
L 276.610181 41.478532 
L 276.555805 36.861047 
L 276.724549 31.493726 
L 277.256631 22.870519 
L 277.781759 13.22107 
L 277.939311 6.057887 
L 277.899617 -1 
L 277.899617 -1 
" style="fill:none;stroke:#ff0000;stroke-linecap:square;stroke-width:1.5;"/>
   </g>
   <g id="line2d_42">
    <path clip-path="url(#pfe3fd3a63a)" d="M 277.552147 285.19501 
L 277.450812 265.176094 
L 277.013468 264.583973 
L 275.096383 262.227693 
L 274.659316 261.308397 
L 274.474241 260.385007 
L 274.545557 259.612115 
L 274.831202 258.84134 
L 275.470662 257.834815 
L 276.274577 256.959218 
L 277.304096 256.179518 
L 278.852474 255.317671 
L 279.472613 254.88442 
L 279.97225 254.463891 
L 283.893753 253.407741 
L 290.379265 251.848825 
L 298.311518 250.183606 
L 310.071177 247.964771 
L 324.349719 245.492043 
L 342.824943 242.535923 
L 375.797554 237.29498 
L 386.944962 235.271279 
L 395.300598 233.537073 
L 401.787653 231.972369 
L 406.870036 230.526631 
L 410.833736 229.17647 
L 413.881113 227.911615 
L 416.159125 226.735779 
L 417.828296 225.635781 
L 419.01461 224.597457 
L 419.80319 223.621765 
L 420.276739 222.693532 
L 420.495385 221.781633 
L 420.486353 220.870587 
L 420.251094 219.913514 
L 419.761217 218.879351 
L 418.956726 217.721487 
L 417.737892 216.37779 
L 415.932062 214.739263 
L 413.040983 212.44673 
L 410.98748 210.744494 
L 410.492372 209.960338 
L 409.965628 208.615752 
L 409.406618 207.460141 
L 408.744123 206.612141 
L 407.83369 205.821544 
L 406.58714 205.042751 
L 404.856387 204.23154 
L 402.45793 203.361882 
L 399.152878 202.41067 
L 394.645359 201.357948 
L 388.67101 200.202306 
L 380.798226 198.915832 
L 370.260752 197.431187 
L 355.273606 195.561569 
L 304.967829 189.450098 
L 293.591141 187.75996 
L 284.765087 186.231809 
L 277.906066 184.828063 
L 272.569725 183.519101 
L 268.492635 182.30046 
L 265.438025 181.164292 
L 263.263621 180.131461 
L 261.741851 179.17409 
L 260.761538 178.309914 
L 260.174023 177.508668 
L 259.896539 176.770947 
L 259.859988 176.050008 
L 260.051427 175.31487 
L 260.494671 174.534759 
L 261.247701 173.67922 
L 262.421258 172.702725 
L 264.145872 171.57577 
L 266.623651 170.238234 
L 270.304698 168.522402 
L 285.002635 161.90987 
L 287.523221 160.415174 
L 289.346968 159.086082 
L 290.659843 157.862829 
L 291.572034 156.715825 
L 292.159378 155.630522 
L 292.489354 154.560471 
L 292.588967 153.490418 
L 292.468435 152.373522 
L 292.112651 151.178655 
L 291.474714 149.843278 
L 290.491443 148.320607 
L 289.016864 146.469623 
L 286.681309 143.92936 
L 280.619567 137.460976 
L 278.794481 135.116665 
L 277.427779 133.006244 
L 276.402009 131.020391 
L 275.646821 129.080869 
L 275.123337 127.124966 
L 274.814785 125.10561 
L 274.714875 122.959867 
L 274.83238 120.577403 
L 275.202386 117.768925 
L 275.9631 113.855855 
L 277.619659 105.55487 
L 278.131257 101.656132 
L 278.403713 97.851842 
L 278.468618 93.763296 
L 278.313321 88.774914 
L 277.335867 66.531869 
L 277.386208 57.565033 
L 277.55469 46.103889 
L 277.55469 46.103889 
" style="fill:none;stroke:#008000;stroke-linecap:square;stroke-width:1.5;"/>
   </g>
   <g id="patch_8">
    <path d="M 219.869492 304.44375 
L 219.869492 39.3555 
" style="fill:none;stroke:#000000;stroke-linecap:square;stroke-linejoin:miter;stroke-width:0.8;"/>
   </g>
   <g id="patch_9">
    <path d="M 450 304.44375 
L 450 39.3555 
" style="fill:none;stroke:#000000;stroke-linecap:square;stroke-linejoin:miter;stroke-width:0.8;"/>
   </g>
   <g id="patch_10">
    <path d="M 219.869492 304.44375 
L 450 304.44375 
" style="fill:none;stroke:#000000;stroke-linecap:square;stroke-linejoin:miter;stroke-width:0.8;"/>
   </g>
   <g id="patch_11">
    <path d="M 219.869492 39.3555 
L 450 39.3555 
" style="fill:none;stroke:#000000;stroke-linecap:square;stroke-linejoin:miter;stroke-width:0.8;"/>
   </g>
   <g id="text_22">
    <!-- Trajectoire en fonction de -->
    <g transform="translate(258.546308 19.918125)scale(0.12 -0.12)">
     <defs>
      <path d="M -19 4666 
L 3928 4666 
L 3928 4134 
L 2272 4134 
L 2272 0 
L 1638 0 
L 1638 4134 
L -19 4134 
L -19 4666 
z
" id="DejaVuSans-54" transform="scale(0.015625)"/>
      <path d="M 2631 2963 
Q 2534 3019 2420 3045 
Q 2306 3072 2169 3072 
Q 1681 3072 1420 2755 
Q 1159 2438 1159 1844 
L 1159 0 
L 581 0 
L 581 3500 
L 1159 3500 
L 1159 2956 
Q 1341 3275 1631 3429 
Q 1922 3584 2338 3584 
Q 2397 3584 2469 3576 
Q 2541 3569 2628 3553 
L 2631 2963 
z
" id="DejaVuSans-72" transform="scale(0.015625)"/>
      <path d="M 2194 1759 
Q 1497 1759 1228 1600 
Q 959 1441 959 1056 
Q 959 750 1161 570 
Q 1363 391 1709 391 
Q 2188 391 2477 730 
Q 2766 1069 2766 1631 
L 2766 1759 
L 2194 1759 
z
M 3341 1997 
L 3341 0 
L 2766 0 
L 2766 531 
Q 2569 213 2275 61 
Q 1981 -91 1556 -91 
Q 1019 -91 701 211 
Q 384 513 384 1019 
Q 384 1609 779 1909 
Q 1175 2209 1959 2209 
L 2766 2209 
L 2766 2266 
Q 2766 2663 2505 2880 
Q 2244 3097 1772 3097 
Q 1472 3097 1187 3025 
Q 903 2953 641 2809 
L 641 3341 
Q 956 3463 1253 3523 
Q 1550 3584 1831 3584 
Q 2591 3584 2966 3190 
Q 3341 2797 3341 1997 
z
" id="DejaVuSans-61" transform="scale(0.015625)"/>
      <path d="M 603 3500 
L 1178 3500 
L 1178 -63 
Q 1178 -731 923 -1031 
Q 669 -1331 103 -1331 
L -116 -1331 
L -116 -844 
L 38 -844 
Q 366 -844 484 -692 
Q 603 -541 603 -63 
L 603 3500 
z
M 603 4863 
L 1178 4863 
L 1178 4134 
L 603 4134 
L 603 4863 
z
" id="DejaVuSans-6a" transform="scale(0.015625)"/>
      <path d="M 3597 1894 
L 3597 1613 
L 953 1613 
Q 991 1019 1311 708 
Q 1631 397 2203 397 
Q 2534 397 2845 478 
Q 3156 559 3463 722 
L 3463 178 
Q 3153 47 2828 -22 
Q 2503 -91 2169 -91 
Q 1331 -91 842 396 
Q 353 884 353 1716 
Q 353 2575 817 3079 
Q 1281 3584 2069 3584 
Q 2775 3584 3186 3129 
Q 3597 2675 3597 1894 
z
M 3022 2063 
Q 3016 2534 2758 2815 
Q 2500 3097 2075 3097 
Q 1594 3097 1305 2825 
Q 1016 2553 972 2059 
L 3022 2063 
z
" id="DejaVuSans-65" transform="scale(0.015625)"/>
      <path d="M 3122 3366 
L 3122 2828 
Q 2878 2963 2633 3030 
Q 2388 3097 2138 3097 
Q 1578 3097 1268 2742 
Q 959 2388 959 1747 
Q 959 1106 1268 751 
Q 1578 397 2138 397 
Q 2388 397 2633 464 
Q 2878 531 3122 666 
L 3122 134 
Q 2881 22 2623 -34 
Q 2366 -91 2075 -91 
Q 1284 -91 818 406 
Q 353 903 353 1747 
Q 353 2603 823 3093 
Q 1294 3584 2113 3584 
Q 2378 3584 2631 3529 
Q 2884 3475 3122 3366 
z
" id="DejaVuSans-63" transform="scale(0.015625)"/>
      <path d="M 1172 4494 
L 1172 3500 
L 2356 3500 
L 2356 3053 
L 1172 3053 
L 1172 1153 
Q 1172 725 1289 603 
Q 1406 481 1766 481 
L 2356 481 
L 2356 0 
L 1766 0 
Q 1100 0 847 248 
Q 594 497 594 1153 
L 594 3053 
L 172 3053 
L 172 3500 
L 594 3500 
L 594 4494 
L 1172 4494 
z
" id="DejaVuSans-74" transform="scale(0.015625)"/>
      <path d="M 1959 3097 
Q 1497 3097 1228 2736 
Q 959 2375 959 1747 
Q 959 1119 1226 758 
Q 1494 397 1959 397 
Q 2419 397 2687 759 
Q 2956 1122 2956 1747 
Q 2956 2369 2687 2733 
Q 2419 3097 1959 3097 
z
M 1959 3584 
Q 2709 3584 3137 3096 
Q 3566 2609 3566 1747 
Q 3566 888 3137 398 
Q 2709 -91 1959 -91 
Q 1206 -91 779 398 
Q 353 888 353 1747 
Q 353 2609 779 3096 
Q 1206 3584 1959 3584 
z
" id="DejaVuSans-6f" transform="scale(0.015625)"/>
      <path d="M 603 3500 
L 1178 3500 
L 1178 0 
L 603 0 
L 603 3500 
z
M 603 4863 
L 1178 4863 
L 1178 4134 
L 603 4134 
L 603 4863 
z
" id="DejaVuSans-69" transform="scale(0.015625)"/>
      <path d="M 3513 2113 
L 3513 0 
L 2938 0 
L 2938 2094 
Q 2938 2591 2744 2837 
Q 2550 3084 2163 3084 
Q 1697 3084 1428 2787 
Q 1159 2491 1159 1978 
L 1159 0 
L 581 0 
L 581 3500 
L 1159 3500 
L 1159 2956 
Q 1366 3272 1645 3428 
Q 1925 3584 2291 3584 
Q 2894 3584 3203 3211 
Q 3513 2838 3513 2113 
z
" id="DejaVuSans-6e" transform="scale(0.015625)"/>
      <path d="M 2375 4863 
L 2375 4384 
L 1825 4384 
Q 1516 4384 1395 4259 
Q 1275 4134 1275 3809 
L 1275 3500 
L 2222 3500 
L 2222 3053 
L 1275 3053 
L 1275 0 
L 697 0 
L 697 3053 
L 147 3053 
L 147 3500 
L 697 3500 
L 697 3744 
Q 697 4328 969 4595 
Q 1241 4863 1831 4863 
L 2375 4863 
z
" id="DejaVuSans-66" transform="scale(0.015625)"/>
      <path d="M 2906 2969 
L 2906 4863 
L 3481 4863 
L 3481 0 
L 2906 0 
L 2906 525 
Q 2725 213 2448 61 
Q 2172 -91 1784 -91 
Q 1150 -91 751 415 
Q 353 922 353 1747 
Q 353 2572 751 3078 
Q 1150 3584 1784 3584 
Q 2172 3584 2448 3432 
Q 2725 3281 2906 2969 
z
M 947 1747 
Q 947 1113 1208 752 
Q 1469 391 1925 391 
Q 2381 391 2643 752 
Q 2906 1113 2906 1747 
Q 2906 2381 2643 2742 
Q 2381 3103 1925 3103 
Q 1469 3103 1208 2742 
Q 947 2381 947 1747 
z
" id="DejaVuSans-64" transform="scale(0.015625)"/>
     </defs>
     <use xlink:href="#DejaVuSans-54"/>
     <use x="46.333984" xlink:href="#DejaVuSans-72"/>
     <use x="87.447266" xlink:href="#DejaVuSans-61"/>
     <use x="148.726562" xlink:href="#DejaVuSans-6a"/>
     <use x="176.509766" xlink:href="#DejaVuSans-65"/>
     <use x="238.033203" xlink:href="#DejaVuSans-63"/>
     <use x="293.013672" xlink:href="#DejaVuSans-74"/>
     <use x="332.222656" xlink:href="#DejaVuSans-6f"/>
     <use x="393.404297" xlink:href="#DejaVuSans-69"/>
     <use x="421.1875" xlink:href="#DejaVuSans-72"/>
     <use x="460.050781" xlink:href="#DejaVuSans-65"/>
     <use x="521.574219" xlink:href="#DejaVuSans-20"/>
     <use x="553.361328" xlink:href="#DejaVuSans-65"/>
     <use x="614.884766" xlink:href="#DejaVuSans-6e"/>
     <use x="678.263672" xlink:href="#DejaVuSans-20"/>
     <use x="710.050781" xlink:href="#DejaVuSans-66"/>
     <use x="745.255859" xlink:href="#DejaVuSans-6f"/>
     <use x="806.4375" xlink:href="#DejaVuSans-6e"/>
     <use x="869.816406" xlink:href="#DejaVuSans-63"/>
     <use x="924.796875" xlink:href="#DejaVuSans-74"/>
     <use x="964.005859" xlink:href="#DejaVuSans-69"/>
     <use x="991.789062" xlink:href="#DejaVuSans-6f"/>
     <use x="1052.970703" xlink:href="#DejaVuSans-6e"/>
     <use x="1116.349609" xlink:href="#DejaVuSans-20"/>
     <use x="1148.136719" xlink:href="#DejaVuSans-64"/>
     <use x="1211.613281" xlink:href="#DejaVuSans-65"/>
    </g>
    <!--  la masse du chargement -->
    <g transform="translate(258.555683 33.3555)scale(0.12 -0.12)">
     <defs>
      <path d="M 603 4863 
L 1178 4863 
L 1178 0 
L 603 0 
L 603 4863 
z
" id="DejaVuSans-6c" transform="scale(0.015625)"/>
      <path d="M 2834 3397 
L 2834 2853 
Q 2591 2978 2328 3040 
Q 2066 3103 1784 3103 
Q 1356 3103 1142 2972 
Q 928 2841 928 2578 
Q 928 2378 1081 2264 
Q 1234 2150 1697 2047 
L 1894 2003 
Q 2506 1872 2764 1633 
Q 3022 1394 3022 966 
Q 3022 478 2636 193 
Q 2250 -91 1575 -91 
Q 1294 -91 989 -36 
Q 684 19 347 128 
L 347 722 
Q 666 556 975 473 
Q 1284 391 1588 391 
Q 1994 391 2212 530 
Q 2431 669 2431 922 
Q 2431 1156 2273 1281 
Q 2116 1406 1581 1522 
L 1381 1569 
Q 847 1681 609 1914 
Q 372 2147 372 2553 
Q 372 3047 722 3315 
Q 1072 3584 1716 3584 
Q 2034 3584 2315 3537 
Q 2597 3491 2834 3397 
z
" id="DejaVuSans-73" transform="scale(0.015625)"/>
      <path d="M 544 1381 
L 544 3500 
L 1119 3500 
L 1119 1403 
Q 1119 906 1312 657 
Q 1506 409 1894 409 
Q 2359 409 2629 706 
Q 2900 1003 2900 1516 
L 2900 3500 
L 3475 3500 
L 3475 0 
L 2900 0 
L 2900 538 
Q 2691 219 2414 64 
Q 2138 -91 1772 -91 
Q 1169 -91 856 284 
Q 544 659 544 1381 
z
M 1991 3584 
L 1991 3584 
z
" id="DejaVuSans-75" transform="scale(0.015625)"/>
      <path d="M 3513 2113 
L 3513 0 
L 2938 0 
L 2938 2094 
Q 2938 2591 2744 2837 
Q 2550 3084 2163 3084 
Q 1697 3084 1428 2787 
Q 1159 2491 1159 1978 
L 1159 0 
L 581 0 
L 581 4863 
L 1159 4863 
L 1159 2956 
Q 1366 3272 1645 3428 
Q 1925 3584 2291 3584 
Q 2894 3584 3203 3211 
Q 3513 2838 3513 2113 
z
" id="DejaVuSans-68" transform="scale(0.015625)"/>
      <path d="M 2906 1791 
Q 2906 2416 2648 2759 
Q 2391 3103 1925 3103 
Q 1463 3103 1205 2759 
Q 947 2416 947 1791 
Q 947 1169 1205 825 
Q 1463 481 1925 481 
Q 2391 481 2648 825 
Q 2906 1169 2906 1791 
z
M 3481 434 
Q 3481 -459 3084 -895 
Q 2688 -1331 1869 -1331 
Q 1566 -1331 1297 -1286 
Q 1028 -1241 775 -1147 
L 775 -588 
Q 1028 -725 1275 -790 
Q 1522 -856 1778 -856 
Q 2344 -856 2625 -561 
Q 2906 -266 2906 331 
L 2906 616 
Q 2728 306 2450 153 
Q 2172 0 1784 0 
Q 1141 0 747 490 
Q 353 981 353 1791 
Q 353 2603 747 3093 
Q 1141 3584 1784 3584 
Q 2172 3584 2450 3431 
Q 2728 3278 2906 2969 
L 2906 3500 
L 3481 3500 
L 3481 434 
z
" id="DejaVuSans-67" transform="scale(0.015625)"/>
     </defs>
     <use xlink:href="#DejaVuSans-20"/>
     <use x="31.787109" xlink:href="#DejaVuSans-6c"/>
     <use x="59.570312" xlink:href="#DejaVuSans-61"/>
     <use x="120.849609" xlink:href="#DejaVuSans-20"/>
     <use x="152.636719" xlink:href="#DejaVuSans-6d"/>
     <use x="250.048828" xlink:href="#DejaVuSans-61"/>
     <use x="311.328125" xlink:href="#DejaVuSans-73"/>
     <use x="363.427734" xlink:href="#DejaVuSans-73"/>
     <use x="415.527344" xlink:href="#DejaVuSans-65"/>
     <use x="477.050781" xlink:href="#DejaVuSans-20"/>
     <use x="508.837891" xlink:href="#DejaVuSans-64"/>
     <use x="572.314453" xlink:href="#DejaVuSans-75"/>
     <use x="635.693359" xlink:href="#DejaVuSans-20"/>
     <use x="667.480469" xlink:href="#DejaVuSans-63"/>
     <use x="722.460938" xlink:href="#DejaVuSans-68"/>
     <use x="785.839844" xlink:href="#DejaVuSans-61"/>
     <use x="847.119141" xlink:href="#DejaVuSans-72"/>
     <use x="886.482422" xlink:href="#DejaVuSans-67"/>
     <use x="949.958984" xlink:href="#DejaVuSans-65"/>
     <use x="1011.482422" xlink:href="#DejaVuSans-6d"/>
     <use x="1108.894531" xlink:href="#DejaVuSans-65"/>
     <use x="1170.417969" xlink:href="#DejaVuSans-6e"/>
     <use x="1233.796875" xlink:href="#DejaVuSans-74"/>
    </g>
   </g>
   <g id="legend_1">
    <g id="patch_12">
     <path d="M 382.957812 106.068 
L 443 106.068 
Q 445 106.068 445 104.068 
L 445 46.3555 
Q 445 44.3555 443 44.3555 
L 382.957812 44.3555 
Q 380.957812 44.3555 380.957812 46.3555 
L 380.957812 104.068 
Q 380.957812 106.068 382.957812 106.068 
z
" style="fill:#ffffff;opacity:0.8;stroke:#cccccc;stroke-linejoin:miter;"/>
    </g>
    <g id="line2d_43">
     <path d="M 384.957812 52.453937 
L 404.957812 52.453937 
" style="fill:none;stroke:#0000ff;stroke-linecap:square;stroke-width:1.5;"/>
    </g>
    <g id="line2d_44"/>
    <g id="text_23">
     <!-- 20 kg -->
     <g transform="translate(412.957812 55.953937)scale(0.1 -0.1)">
      <defs>
       <path d="M 581 4863 
L 1159 4863 
L 1159 1991 
L 2875 3500 
L 3609 3500 
L 1753 1863 
L 3688 0 
L 2938 0 
L 1159 1709 
L 1159 0 
L 581 0 
L 581 4863 
z
" id="DejaVuSans-6b" transform="scale(0.015625)"/>
      </defs>
      <use xlink:href="#DejaVuSans-32"/>
      <use x="63.623047" xlink:href="#DejaVuSans-30"/>
      <use x="127.246094" xlink:href="#DejaVuSans-20"/>
      <use x="159.033203" xlink:href="#DejaVuSans-6b"/>
      <use x="216.943359" xlink:href="#DejaVuSans-67"/>
     </g>
    </g>
    <g id="line2d_45">
     <path d="M 384.957812 67.132062 
L 404.957812 67.132062 
" style="fill:none;stroke:#ffa500;stroke-linecap:square;stroke-width:1.5;"/>
    </g>
    <g id="line2d_46"/>
    <g id="text_24">
     <!-- 18 kg -->
     <g transform="translate(412.957812 70.632062)scale(0.1 -0.1)">
      <defs>
       <path d="M 2034 2216 
Q 1584 2216 1326 1975 
Q 1069 1734 1069 1313 
Q 1069 891 1326 650 
Q 1584 409 2034 409 
Q 2484 409 2743 651 
Q 3003 894 3003 1313 
Q 3003 1734 2745 1975 
Q 2488 2216 2034 2216 
z
M 1403 2484 
Q 997 2584 770 2862 
Q 544 3141 544 3541 
Q 544 4100 942 4425 
Q 1341 4750 2034 4750 
Q 2731 4750 3128 4425 
Q 3525 4100 3525 3541 
Q 3525 3141 3298 2862 
Q 3072 2584 2669 2484 
Q 3125 2378 3379 2068 
Q 3634 1759 3634 1313 
Q 3634 634 3220 271 
Q 2806 -91 2034 -91 
Q 1263 -91 848 271 
Q 434 634 434 1313 
Q 434 1759 690 2068 
Q 947 2378 1403 2484 
z
M 1172 3481 
Q 1172 3119 1398 2916 
Q 1625 2713 2034 2713 
Q 2441 2713 2670 2916 
Q 2900 3119 2900 3481 
Q 2900 3844 2670 4047 
Q 2441 4250 2034 4250 
Q 1625 4250 1398 4047 
Q 1172 3844 1172 3481 
z
" id="DejaVuSans-38" transform="scale(0.015625)"/>
      </defs>
      <use xlink:href="#DejaVuSans-31"/>
      <use x="63.623047" xlink:href="#DejaVuSans-38"/>
      <use x="127.246094" xlink:href="#DejaVuSans-20"/>
      <use x="159.033203" xlink:href="#DejaVuSans-6b"/>
      <use x="216.943359" xlink:href="#DejaVuSans-67"/>
     </g>
    </g>
    <g id="line2d_47">
     <path d="M 384.957812 81.810187 
L 404.957812 81.810187 
" style="fill:none;stroke:#ff0000;stroke-linecap:square;stroke-width:1.5;"/>
    </g>
    <g id="line2d_48"/>
    <g id="text_25">
     <!-- 15 kg -->
     <g transform="translate(412.957812 85.310187)scale(0.1 -0.1)">
      <use xlink:href="#DejaVuSans-31"/>
      <use x="63.623047" xlink:href="#DejaVuSans-35"/>
      <use x="127.246094" xlink:href="#DejaVuSans-20"/>
      <use x="159.033203" xlink:href="#DejaVuSans-6b"/>
      <use x="216.943359" xlink:href="#DejaVuSans-67"/>
     </g>
    </g>
    <g id="line2d_49">
     <path d="M 384.957812 96.488312 
L 404.957812 96.488312 
" style="fill:none;stroke:#008000;stroke-linecap:square;stroke-width:1.5;"/>
    </g>
    <g id="line2d_50"/>
    <g id="text_26">
     <!-- 12 kg -->
     <g transform="translate(412.957812 99.988312)scale(0.1 -0.1)">
      <use xlink:href="#DejaVuSans-31"/>
      <use x="63.623047" xlink:href="#DejaVuSans-32"/>
      <use x="127.246094" xlink:href="#DejaVuSans-20"/>
      <use x="159.033203" xlink:href="#DejaVuSans-6b"/>
      <use x="216.943359" xlink:href="#DejaVuSans-67"/>
     </g>
    </g>
   </g>
  </g>
 </g>
 <defs>
  <clipPath id="p39289e8c92">
   <rect height="265.08825" width="17.544228" x="117.09314" y="39.3555"/>
  </clipPath>
  <clipPath id="pfe3fd3a63a">
   <rect height="265.08825" width="230.130508" x="219.869492" y="39.3555"/>
  </clipPath>
 </defs>
</svg>
